M48
;Layer_Color=9474304
;FILE_FORMAT=4:4
METRIC,LZ
;TYPE=PLATED
T1F00S00C0.2000
T2F00S00C0.2100
T3F00S00C0.2300
T4F00S00C0.7100
T5F00S00C0.8900
T6F00S00C1.0000
T7F00S00C1.0200
T8F00S00C1.1000
T9F00S00C1.1500
T10F00S00C1.2000
T11F00S00C1.5700
;TYPE=NON_PLATED
T12F00S00C0.5500
T13F00S00C3.2500
T14F00S00C3.3000
%
T01
X0173777Y0058676
X0173037Y0059416
X0174517
X0175257Y0058676
X0175997Y0059416
X0175257Y0060156
Y0061636
X0175997Y0060896
X0174517
X0173037
X0173777Y0061636
Y0060156
T02
X01177544Y00372872
X01187196Y00367792
X01207008Y00360172
X01247394Y0036703
X0128114Y00394077
X01306619Y0038227
X01329479Y0035433
X01352339Y0036322
X01380956Y00394077
X01406435Y0038227
X01429295Y0035433
X01452155Y0036322
X01480771Y00394077
X01505712Y00391414
X0150625Y0038227
X0151592Y00375
X01535905Y00384074
X0155035Y0039539
X0156845Y0038862
X01580587Y00394077
X01551971Y0036322
X01529111Y0035433
X01628926
X01651786Y0036322
X01680403Y00394077
X01705882Y0038227
X01728742Y0035433
X01751602Y0036322
X01780219Y00394077
X01805698Y0038227
X01828558Y0035433
X01851418Y0036322
X01880035Y00394077
X01905514Y0038227
X01928374Y0035433
X01951234Y0036322
X01979851Y00394077
X01606066Y0038227
X0200533
X0202819Y0035433
X0205105Y0036322
X0202819Y004064
X02021911Y00448689
X01999742Y00461264
X0199009Y0065405
X01988058Y00695706
X01987804Y00743966
X01998726Y00747776
X0202692Y00745744
X02038858Y00752094
X02043684Y00690372
X01916498Y00709522
X01884172Y00751332
X0183769Y00760222
X01852419Y0078072
X01767837Y00783006
X01776219Y00721792
X0171323Y0072517
X01715865Y00734155
X01716275Y0074897
X0170053Y00766826
X01699768Y00776478
X01700276Y00719836
X01702816Y00709168
X017272Y00698754
X01721866Y006604
X01710187Y00663678
X01701292Y00672846
X017Y0065
X0167259Y0065532
X0166116Y0064643
X01660069Y00635332
X01681988Y00628396
X01688988Y00619648
X01690878Y00606298
X01673352Y00612902
X01662176Y00604774
X01646936Y00595122
X01646682Y00586232
X01653286Y0057785
X01655826Y00567182
X01643888Y00557276
X01651508Y00549656
X01618742Y0055499
X01611376Y00572008
X016002Y005715
X01592834Y00579374
X0161925Y00605413
X016256Y0061341
X0162179Y0062357
X0161417Y0063246
X01598676Y00630428
X0158877Y0063119
X0163068Y0060198
X01693164Y00573278
X01712214Y0056515
X01695704Y0051054
X01681226Y00503428
X01675638Y00528574
X016764Y00475234
X0170434Y00473964
X0174879Y0047498
X017526Y0045466
X01728742Y004064
X0166751Y0041783
X01628926Y004064
X01610614Y00494538
X01593921Y00496187
X0162052Y00506984
X01622447Y00687506
X0162Y00705
X01620266Y00723392
X01620774Y00738378
X01620266Y00755142
X01631442Y0074676
X01632458Y00730504
X01636664Y0071628
X01642896Y00706812
X01642766Y00691912
X0168402Y00687354
X01741268Y00666014
X01750314Y00660146
X01745488Y0064135
X01796288Y0065151
X01804416Y00636016
X01794002Y00622046
X01792986Y00605536
X01804416
X01810252Y00586994
Y00578104
X0182245Y00573278
X01804162Y0056515
X01797874Y00542379
X01769618Y00543886
X01788668Y00587248
X01826323Y00609995
X01854454Y0061087
X01863852Y0061595
X0186327Y00635168
X01844802Y006223
X01854708Y00585724
X0186182Y00571754
X01830132Y00550761
X01833118Y00503936
X01839719Y00471094
X0185674Y0045212
X01897885Y00462204
X01963491Y00456309
X0197866Y0043561
X01928374Y004064
X01828558
X01836674Y00677164
X01633474Y0076327
X01635397Y0078189
X01621879Y00789432
X0162179Y0077343
X01568958Y0066548
X01542034Y00666354
X0155829Y0062992
X01568325Y00631315
X015748Y0062357
X0158242Y0061722
Y0060706
X01547368Y0061214
X0153797Y0061341
X0153035Y0062357
X0152146Y0063246
X0147066Y0063119
X0145415Y00634492
X01444244Y0062738
X01456436Y00615442
X0147574Y0061087
X0148463
X0145415Y0058166
X01440434Y00574548
X01427988Y0056769
X0142621Y0058928
X01416812Y00597662
X01406398Y00559308
X01471056Y00537263
X01484122Y00508
X01479581Y0043561
X01465075Y00427485
X0149479Y00413
Y0040386
X01528493Y00407037
X01555631Y00402467
X01565136Y00406797
X01532461Y00444125
X01532636Y00548894
X01486662Y00672338
X01476502Y00670052
X01439926Y0069723
X01423416Y00691896
X01417698Y00678845
X0139319Y00667258
X01405382Y00649732
X01384046Y0070612
X01375664Y00718566
X01364996Y0074168
X0135636Y00757936
X01356091Y00784299
X01387094Y0078359
X01425956Y00765556
X0142548Y00756698
X01361948Y00505968
X0138938Y0043688
X01429295Y004064
X01324162Y00408301
X01302766Y00405384
X012954Y0043561
X012446Y0044196
X01250188Y00515366
X01187196Y0045085
X01154176Y01028446
X01248156Y01027176
X0133Y0103
X01328928Y01052576
X01338326Y00973328
X01349756Y00940308
X01344168Y00921766
X0132969Y00919988
X01306576Y00920242
X01275842Y00924814
X01250442Y00924306
X01201928Y00920242
X01192022Y00919226
X01230884Y00875792
X01285748Y00880872
X01392682Y00923798
X0140589Y0092075
X01415288Y00907796
X0145Y00915
X01465Y0094
X01485
X01495Y00915
X01520952Y00906018
X01534922Y00911606
X01547622Y0090678
X01545844Y00885698
X015367
X0157353Y00887222
X01582394Y00886353
X01577Y00907
X01572286Y00818171
X0153797Y00818388
X01415542Y00813562
X01422908Y0080518
X01458414Y0087623
X01469579Y00885973
X0143Y00965
X01396492Y00965454
X01411478Y00995172
X0142748Y00998474
X01411478Y01059434
X01467358Y01092454
X01525016Y01095502
X01544405Y010541
X0154305Y0104394
X015748Y010287
X0158496Y0102108
X0157861Y0100584
X0156972
X0155448Y0099187
X01599995Y01005635
X016129Y0100584
X0162433Y0099949
X0160274Y0103632
X01623822Y01059434
X01683766Y01100074
X0171196Y01092322
X0172847Y010541
X01730248Y01029716
X0173863Y0102235
X017399Y0100584
X0176276
X01779114Y01008694
X01757172Y01033018
X01735Y0097
X01724042Y00965598
X01743964Y0093853
X01744726Y00926084
X0175186Y0093202
X01759204Y00926338
X01759712Y00938276
X01773682Y00911606
X01775714Y00899414
X01739646Y00896366
X01730756Y0089662
Y0090551
X01721358Y00896874
X01738373Y00840918
X01767749Y00867598
X0185Y0085
X0183388Y00799338
X01894329Y00878764
X01901949Y00923214
X01857756Y00932434
X0184277Y0093218
X0181Y0099
X0165Y0089
X0165213Y00881387
X01617218Y00879856
X0161544Y00892302
X0159512Y00887222
X0161036Y00839978
X01628902Y008382
X0163576Y0083185
X01638046Y00816356
X01622552Y00806196
X01630426Y00797306
X01672844Y00848868
X01682242Y00840486
T03
X01845Y0057181
X01519936Y0055245
X01518342Y00529888
X01517904Y00502666
X01325626Y01044194
X0163322Y01037082
X01637538Y0105156
X0163576Y0106172
X01646936Y01068578
X01658112Y01069594
X01673098Y01073658
X01690624Y01052322
X01685798Y01036066
X0172593Y0103759
X0171831Y01071626
X01710116Y00998016
X0182626Y01075182
T04
X0117856Y0098171
Y0099441
Y0100711
Y0101981
Y0103251
X0119126
Y0101981
Y0100711
Y0099441
Y0098171
X01671066Y00975106
Y00962406
Y00949706
Y00937006
Y00924306
X01683766
Y00937006
Y00949706
Y00962406
Y00975106
T05
X018953Y0053375
Y0055915
Y0058455
Y0060995
X019207Y0059725
Y0057185
Y0054645
Y0052105
X01926082Y00669798
Y00695198
X01896618Y00694944
Y00669544
X01867154Y00669798
Y00695198
X0183007Y00693928
X0180467
X0144018Y0049276
X0141478
Y0046355
X0144018
X01523238Y00947166
Y00972566
X01840992Y01059688
X01866392
T06
X01145Y0043
X01165
Y0045
Y0047
X01145
Y0045
Y0049
Y0051
X01165
Y0049
Y0053
Y0055
X01145
Y0053
Y0057
X01165
Y0059
Y0061
X01145
Y0059
Y0063
Y0065
X01165
Y0063
Y0067
Y0069
X01145
Y0067
Y0071
X01165
Y0073
Y0075
X01145
Y0073
Y0077
Y0079
X01165
Y0077
Y0081
Y0083
X01145
Y0081
Y0085
X01165
Y0087
Y0089
X01145
Y0087
Y0091
X01165
T07
X020097Y004975
X0203
Y006335
X020097
T08
X01326134Y0114935
X01351534
X01376934
X01402334
X01427734
Y0117475
X01402334
X01376934
X01351534
X01326134
X0154032Y01174708
X0156572
Y01149308
X0154032
X0159112
X0161652
X0164192
Y01174708
X0161652
X0159112
X01755044Y01175
X01780444
X01805844
X01831244
X01856644
Y011496
X01831244
X01805844
X01780444
X01755044
T09
X01984881Y00767209
X01959481
X01934081
X01639316Y0045466
X01613916
X01588516
X0112522Y0098806
Y0101346
Y0103886
X01565656Y00954024
X0156591Y00925322
X0159131
X0161671
X01616456Y00954024
X01591056
T10
X0114Y0026
X0119
Y0031
X0114
X0124Y0031
Y0026
X0129Y0026
X0134
X01389816Y0026
Y0031
X0134Y0031
X0129
X01439816Y0031
X01489632Y0031
X01539632
Y0026
X01489632
X01439816Y0026
X01589448Y0026
X01639448
X01689264
X01739264
X0178908
X0183908
X01888896
X01938896
Y0031
X01888896
X0183908
X0178908
X01739264
X01689264
X01639448
X01589448
X01988712
X02038712
Y0026
X01988712
X0118Y0111
X0113
Y0116
X0118
X0123
Y0111
X0198Y01125
X0198Y01175
X0198Y01075
X0198Y01025
Y00975
X0198Y00925
X0198Y00875004
X0198Y00825
X0203
X0203Y00875004
X0203Y00925
X0203Y00975
Y01025
X0203Y01075
X0203Y01125
X0203Y01175
T11
X019537Y0048675
Y0064425
T12
X0203866Y0070026
Y0074026
T13
X019842Y0050835
Y0062265
T14
X0180467Y00492491
Y00785876
X01342644Y00456438
X01290828Y01078738
X01885442Y01092962
M30
