M48
;Layer_Color=9474304
;FILE_FORMAT=4:4
METRIC,LZ
;TYPE=PLATED
T1F00S00C0.2200
T2F00S00C0.4000
T3F00S00C0.5000
T4F00S00C0.8900
T5F00S00C1.0000
;TYPE=NON_PLATED
T6F00S00C2.8000
T7F00S00C3.2000
%
T01
X00035Y00035
X00085
X0011
X000975Y0006
X0014Y00055
X0016Y0007
X001725Y0006
X00195
X0021Y0008
X0026224Y0007
X0025Y0014
X0026618Y00160329
X0026364Y00173029
X0025358Y00202817
X00289173Y00189737
X00290443Y00245662
X00297325Y00239058
X00310405Y00239208
X00309156Y00252288
X00300065Y00253994
X00318018Y00257913
X00336417Y0024871
X00346323Y00240074
X00359785Y00240328
X00353181Y00246932
X00353689Y00267252
X00370961
X00368929Y00280332
X00377643Y00291262
X00379574Y00322941
X00391698Y00347229
X00378608Y00360949
X00377Y00377949
X00359279Y00362949
X00357Y00392949
X00325289Y00377229
X00300669Y00381557
X00298008Y00360509
X00286289Y00347229
X00304669Y00336146
X00317898Y00336376
X0033482Y00342915
X00343216Y00341051
X00324613Y00290199
X00304478Y00301756
X0030313Y00311071
X00298129Y00281949
X00282061Y00240074
X002225Y0026
X00205346Y00260846
X00175833Y00250251
X00156704Y0025329
X00159626Y00267449
X00157594Y00280529
X0016747Y00290297
X00193531Y00290489
X001972Y00311325
X00198738Y003364
X00211968Y0033663
X00229739Y003414
X00238421Y00340834
X00244Y00360949
X002225Y0036
X00219609Y00377483
X00194326Y00378388
X00192079Y00360764
X00180359Y00347483
X00168409Y00355481
X00164746Y00370581
X0013946Y00361949
X00133301Y00340746
X00124074Y003414
X00106304Y0033663
X00093075Y003364
X00093Y00313949
X00092885Y0030201
X00109668Y00306744
X0011302Y00290453
X00085Y00281949
X00085563Y00252485
X00097822
X0009907Y00239405
X0008599Y00239256
X00079108Y0024586
X00070726Y00240271
X00106683Y00258111
X00125082Y00248908
X00141846Y00247129
X0014845Y00240525
X00161808Y00240675
X00134988Y00240271
X00142354Y00267449
X00168234Y00323195
X00218683Y00290453
X00274164Y00322941
X00269932Y00374324
X0025Y00392949
X00145877Y00394949
X00113694Y00377483
X00087989Y00377656
X00086415Y00360764
X00074694Y00347483
X0006257Y00323195
X00059265Y00370894
X0005054Y00394949
X00031068Y00361949
X00035Y00185
X0006298Y00180649
X00063554Y00189935
X00077838
X0006298Y00170489
X000475Y0016
X0006Y00135
X00035
X000475Y0011
X0006Y00085
X00035
X00085Y001
X0012Y0009
X00124Y00129949
X00114Y00149949
X00173301Y00141143
X00173Y00132549
Y00123949
Y00115149
Y00106549
X00206874Y00142549
X00176571Y00181016
X0016966Y00188269
X00162522Y00195474
X00156146Y00182374
X001975Y0021
X00324022Y00150949
X00323816Y00141925
X00384685Y00140995
X00384384Y001324
Y001238
Y00115
Y001064
Y000978
X00371418Y00051923
X00366889Y00034259
X00336335Y00042803
Y00024803
X0033745Y00060075
X00365627Y00179876
X00387906Y00180818
X00380995Y00188071
X00373857Y00195277
X00373143Y00240478
X00368038Y00253092
X00387168Y00250054
X00416681Y00260648
X004475Y0026
X00435Y00235
X004475Y0021
X0046088Y00202429
X00475197Y00173568
X00473696Y00160065
X00500463Y00189737
X00501733Y00245662
X00508187Y00252288
X00520446
X00521695Y00239208
X00508615Y00239058
X00493351Y00240074
X004975Y0026
X00508Y00282949
X00515299Y00301756
X0051395Y00311071
X00515489Y00336146
X00528718Y00336376
X00546488Y00341146
X00557038Y00340542
X00573Y00362949
X00590156Y00360354
X00587656Y00376949
X00616309Y00379404
X00614492Y00360509
X00602772Y00347229
X00621152Y00336146
X00634382Y00336376
X00652152Y00341146
X00661007Y00340752
X0066746Y00362949
X006475Y0036
X00641773Y00377229
X0067352Y00393949
X0069332Y00370327
X00719902Y00360509
X00721973Y00379404
X00747505Y00377229
X007475Y0036
X00757562Y00341146
X00767202Y00340743
X00739792Y00336376
X00726562Y00336146
X00725024Y00311071
X00726373Y00301756
X00719833Y00281949
X00719477Y00252288
X00731736
X00732985Y00239208
X00719905Y00239058
X00713023Y00245662
X00704641Y00240074
X0066Y00235
X00635
X00627142Y00260024
X006475Y0026
X00641097Y00290199
X00618Y00294949
X00616Y00281949
X00580219Y00280332
X00582251Y00267252
X00579328Y00253092
X00584433Y00240478
X00571075Y00240328
X00564471Y00246932
X00557613Y00240074
X00547707Y0024871
X00529308Y00257913
X00535434Y00290199
X00564979Y00267252
X00598458Y00250054
X006225Y0021
X006475
X00672161Y00202277
X0068782Y00173029
X0069036Y00160329
X00707507Y0013
X00711753Y00189737
X00788207Y00179876
X00762723Y00153039
Y0014385
X00792012Y00117846
X0078Y0010271
X00785Y00035
X00627342Y00045139
X00639594Y0007217
X0058Y00065
X00567227Y0005531
X0058409Y00035319
X00595674Y000978
Y001064
Y00115
Y001238
Y001324
X00595974Y00140995
X0063Y0014
X00599195Y00180818
X00592285Y00188071
X00585147Y00195277
X00576917Y00179876
X00535106Y00153039
Y00141384
X0049Y0007217
X00468149Y00066855
X00418638Y00142295
X004225Y0021
X00430023Y00290199
X00405Y00282949
X0040854Y00311071
X00410079Y00336146
X00423308Y00336376
X00441482Y00346088
X00448468Y00341073
X00457Y00361949
X00481992Y00370327
X00508829Y00360509
X00511488Y00379404
X00536109Y00377229
X0057Y00394949
X00590648Y00322941
X00625Y00313949
X00696058Y00322941
X00708183Y00347229
X00746507Y00290199
X00740598Y00257913
X00758997Y0024871
X00775761Y00246932
X00782365Y00240328
X00768903Y00240074
X00776269Y00267252
X00793541
X00785587Y00275362
X00790618Y00253092
X00783Y00370949
X0077946Y00393949
X00464
X00430699Y00377229
X00405997Y00377584
X00403419Y00360509
X00497108Y00347229
X00484984Y00322941
X00801722
X00802345Y00354434
X00813847Y00347229
X00825566Y00360509
X00827636Y00379404
X00852847Y00377229
X00881Y00360949
X00906858Y00360608
X00904648Y00370327
X00930908Y00360578
X00933636Y00379404
X00958257Y00377229
X0099Y00391949
X00994076Y00364949
X01010312Y00370327
X01013673Y00353813
X01024667Y00347229
X01036386Y00360509
X01038964Y00379404
X01063667Y00377229
X0109046Y00361949
X01083124Y00340974
X01074046Y00341146
X01056276Y00336376
X01043046Y00336146
X01042Y00311949
X0104Y00281949
X01062991Y00290199
X010725Y0026
X0105055Y00260648
X0106Y00235
X01085
X010725Y0021
X010475
X0106Y00185
X01085
X01107Y00193949
X01115113Y00180354
X01120609Y00169576
X010975Y0016
X010725
X01041816Y00165133
X01036Y00172949
X01035Y00185
X01021775Y00180818
X01014357Y00188236
X01007727Y00195277
X00999496Y00179876
X01013097Y00142189
X00984729Y00134866
X00991633Y00127914
X00995Y0012
X00957685Y00141264
X00949199Y00139868
X009424Y001276
X00925631Y0012375
X0092085Y0011637
X00902433
X00895Y00160239
X0090118Y00170489
X00883687Y00202272
X00875Y0023
X0086Y00235
X008475Y0021
X008225
X00796437Y00195277
X00803574Y00188071
X00810485Y00180818
X0081Y0013654
X00801352Y00144853
X00799149Y00122643
X00795Y001
Y0007
Y00055
X00796462Y00041462
X008475Y0006
X00831701Y00145659
X00838471Y00261294
X0083Y00283949
X00830688Y00311071
X00832226Y00336146
X00845456Y00336376
X00863226Y00341146
X00872206Y00340876
X00907132Y00322941
X00919257Y00347229
X00937636Y00336146
X00950866Y00336376
X00968636Y00341146
X00978045Y00340843
X01010508Y0032407
X01005968Y00281949
X0100483Y00267252
X01001908Y00253092
X01007012Y00240478
X00993654Y00240328
X0098705Y00246932
X00980192Y00240074
X00970286Y0024871
X00951887Y00257913
X00943026Y00252288
X00930767
X00924312Y00245662
X00931194Y00239058
X00944274Y00239208
X0091593Y00240074
X009225Y0026
X00931096Y00282949
X00937447Y00301756
X00936098Y00311071
X00957581Y00290199
X00987558Y00267252
X00995628Y00275321
X01021037Y00250054
X0112722Y00240074
X01135602Y00245662
X01142057Y00252288
X01154315
X01155564Y00239208
X01142484Y00239058
X01163177Y00257913
X01181576Y0024871
X01168655Y00290199
X01151Y0030265
X01147172Y00311071
X0114871Y00336146
X0116194Y00336376
X01178998Y00343718
X0118725Y00341296
X011725Y0036
X01169331Y00377229
X01144629Y00379404
X0114205Y00360509
X01130331Y00347229
X01118206Y00322941
X01115976Y00370327
X01096031Y00391479
X01143Y00281949
X01134332Y00189737
X01157136Y00178962
X01184Y00169949
X0117Y00153949
X0111Y00135
X01085
X010975Y0011
X011225
X01135Y00035
X0116
X0111
X01085
X0106
X01035
X0101
X00985
X0096
X00852171Y00290199
X00799155Y00286949
X00809748Y00250054
X00795723Y00240478
X00799Y00377949
X00884Y00391949
X01201Y00389949
X01201747Y00364696
X01223342Y00360021
X0122164Y00378728
X0125012Y00377621
X0124746Y00360509
X01235741Y00347229
X0125412Y00336146
X0126735Y00336376
X01284092Y00342348
X01292561Y00340849
X01307508Y00363949
X01327304Y00370327
X01353125Y00360509
X01355784Y00377621
X01380405Y00377229
X01409Y00360949
X01434416Y00361191
X01432968Y00375949
X01460858Y00378134
X01458535Y00360509
X01446815Y00347229
X01465195Y00336146
X01478424Y00336376
X01495569Y0034105
X01504818Y00341092
X01511Y00362949
X01518836Y00388949
X01538632Y00370327
X01564198Y00360509
X01566859Y00379404
X01552478Y00347229
X01570858Y00336146
X01584088Y00336376
X01587452Y0030649
X01570668Y00301756
X0156932Y00311071
X01564Y00281949
X01564636Y00252288
X01576895
X01578144Y00239208
X01565064Y00239058
X01558182Y00245662
X015498Y00240074
X0151Y00235
X01511899Y00214943
X01527Y00187949
X01532Y00164949
X01556912Y00189737
X01552433Y001
X01512343Y00054406
X01518908Y00046402
X0151971Y000376
Y00029
Y000204
X01401143Y00039608
X0139Y00045
X01378877Y0004958
X01365654Y00051357
X01385Y00075
X0135846Y00097706
X01351483Y00105698
X0133Y0011229
X01321791Y00118207
X01323Y00164949
X0132054Y00187409
X01345622Y00189737
X01346892Y00245662
X01353346Y00252288
X01365605
X01366854Y00239208
X01353774Y00239058
X0133851Y00240074
X01374467Y00257913
X01392866Y0024871
X01402772Y00240074
X01416234Y00240328
X0140963Y00246932
X01410138Y00267252
X0142741
X01424487Y00253092
X01429592Y00240478
X01443617Y00250054
X01470677Y00257484
X014975Y0026
X01485Y00235
X01485139Y00290199
X01465004Y00284949
X01463656Y00311071
X0143469Y00322941
X01436735Y00280688
X0142254Y00279654
X01379729Y00290199
X0136584Y00291949
X01356Y00288949
Y00314949
X0135823Y00336944
X01369677Y00336981
X01399641Y00341124
X01380228Y00309456
X0132928Y00322941
X01341405Y00347229
X01274741Y00377229
X01274065Y00290199
X01253931Y00281949
X012475Y0026
X01260365Y002585
X0126Y00235
X01285
X01299Y00214949
X012975Y0026
X01232327Y00250054
X01213197Y00253092
X0121612Y00267252
X01208Y00274949
X01198848Y00267252
X0119834Y00246932
X01204944Y00240328
X01218302Y00240478
X01191482Y00240074
X01218945Y00284071
X01223616Y00322941
X01252582Y00311071
X01274605Y00190308
X01226961Y00188269
X01233064Y00180818
X01210786Y00179876
X01219016Y00195277
X01219605Y00125308
X0124Y00117514
X01257Y00157659
X01199605Y00135308
X01190752Y00144041
X01394737Y00148452
X01395579Y0015701
X01401148Y0014272
X01400233Y00132804
X01401536Y00124304
X01401119Y00115714
X01415Y00108924
X01435Y001
X01466Y00149949
X01444354Y00180818
X01438251Y00188269
X01430306Y00195277
X01422076Y00179876
X01413Y00391949
X01485815Y00377229
X01540354Y00322941
X01585757Y00257913
X01604156Y0024871
X0162092Y00246932
X01627524Y00240328
X01640882Y00240478
X01635777Y00253092
X0163754Y00266919
X0163001Y00272292
X01621428Y00267252
X01614062Y00240074
X01654907Y00250054
X01682767Y00258754
X01685Y00235
X0171
X01721897Y0021443
X0171Y00185
X01749Y00185949
X01768201Y00189737
X01769471Y00245662
X01775926Y00252288
X01788185
X01789433Y00239208
X01776353Y00239058
X01761089Y00240074
X01797046Y00257913
X01815445Y0024871
X01832209Y00246932
X01838813Y00240328
X01852171Y00240478
X0184862Y00249019
X01866196Y00250054
X01840647Y00262489
X01832717Y00267252
X01825351Y00240074
X01855836Y00281113
X01886Y00282949
X01885804Y00311071
X01887343Y00336146
X01900572Y00336376
X01918342Y00341146
X01927038Y00340593
X01935Y00361949
X0194Y00390949
X01961288Y00370327
X01974373Y00347229
X01962248Y00322941
X01935Y00285
X01907287Y00290199
X0189384Y00260786
X019225Y0026
X01972379Y00240074
X01980761Y00245662
X01979491Y00189737
X01954Y00184949
X01958173Y0016455
X01935Y002
X01866507Y00195572
X0186083Y00188269
X01866934Y00180818
X01844655Y00179876
X01818Y00157949
X0181844Y00149027
X01822403Y00141395
X01822812Y00132804
X01824116Y00124304
X01823699Y00115714
X0182481Y00107186
X0181Y00095
X0176Y0014
X0173065Y00165101
X01679Y00147949
X01655644Y00180818
X01650162Y00188269
X01641596Y00195277
X01633366Y00179876
X0160737Y00157659
X01606659Y00149088
X01612438Y0014272
X01611523Y00132804
X01612826Y00124304
X01612409Y00115714
X0161352Y00107186
X01613416Y00098587
X01725Y0008
X01723995Y00071402
X01724256Y000626
X01724314Y00054
X01725042Y0004473
X0186Y00035
X01885
X0191
X01935
X0196
X01953483Y00075552
X01954376Y0008572
X01948522Y0009202
X01967169Y00080015
X01978634Y0008005
X0189Y00154949
X01858695Y00324426
X01862018Y00340945
X01868963Y00347229
X01880683Y00360509
X01883006Y00377711
X01907962Y00377229
X01855624Y00376949
X01856564Y00361125
X01839257Y00361949
X0183546Y00393949
X01802298Y00377229
X01777596Y00378337
X01775018Y00360509
X01763298Y00347229
X01781678Y00336146
X01794908Y00336376
X01812679Y00341146
X01821269Y00340487
X01801624Y00290199
X01781488Y00301756
X0178014Y00311071
X01777Y00282949
X01751174Y00322941
X0174996Y00370327
X01725Y00361949
X016975Y0036
X01696888Y00377229
X01672269Y00379004
X01669608Y00360509
X0164549Y00361155
X01642945Y00375949
X01623Y00390949
X01618Y00361949
X015975Y0036
X01601859Y00341146
X01610432Y00340471
X01645764Y00322941
X01657888Y00347229
X01676414Y00333746
X01689498Y00336376
X01707269Y00341146
X01715998Y00340465
X0173Y00392949
X01696214Y00290199
X01674Y00282949
X0167473Y00311071
X01645764Y00280937
X01590804Y00290199
X01591478Y00377229
X017225Y0026
X01987216Y00252288
X01999474
X02000723Y00239208
X01987643Y00239058
X02008336Y00257913
X02026735Y0024871
X02043499Y00246932
X02050103Y00240328
X02063461Y00240478
X02058356Y00253092
X02061279Y00267252
X02053361Y00276605
X02044007Y00267252
X02036641Y00240074
X02077486Y00250054
X02104406Y00261548
X02096Y00281949
X02096878Y00311071
X02098416Y00336146
X02111646Y00336376
X021289Y00346188
X02142623Y00341059
X02119037Y00377229
X02094335Y00377711
X02091756Y00360509
X02067638Y00360734
X02066952Y00376949
X02047Y00361949
X02046Y00390949
X02013372Y00377229
X01988752Y00377621
X01986093Y00360509
X01992753Y00336146
X02005982Y00336376
X02023752Y00341146
X02032326Y00340471
X02067912Y00322941
X02066192Y00289437
X02118362Y00290199
X0211Y00235
X02135
X021225Y0021
X020975
X0211Y00185
X02135
X0213Y00134449
X0211Y00135
X021225Y0011
X020975
X02078765Y00110741
X020669Y00094449
X0206Y00085
X0207198Y00071589
X020796Y00061429
X0208976
X0209738Y00071589
X0210754Y00051269
X0210246Y00043649
X0210754Y00036029
X0208321Y0001821
X020669Y00030949
Y00043649
X02058125Y00046574
X020475Y0006
X02035996Y00098587
X02036099Y00107186
X02034989Y00115714
X02035405Y00124304
X02034102Y00132804
X02033693Y00141395
X02030461Y00149365
X02028Y00158949
X02055945Y00179876
X02078224Y00180818
X0207212Y00188269
X02063929Y00195277
X02091Y00159949
X021431Y00053809
X01985Y00035
X01995Y00084507
X0199Y00285949
X01998Y00302949
X01991214Y00311071
X02012697Y00290199
X02080036Y00347229
X02078007Y00421275
X02089627Y00423275
X02060236Y00416504
X02047007Y00416275
X02028627Y00427358
X02016503Y00403069
X020225Y0051
X020475
X020725
X02072043Y00530896
X02061883Y00535976
X02069683Y00561456
X02044733Y00561363
X02044103Y00602016
X02069503
X02087283Y00604556
X02090278Y00569277
X02096974Y00564429
X02104071Y00570026
X021225Y0056
X02135Y00585
X021225Y0061
X02135Y00535
Y00485
X0211
X02085
X021225Y0046
X02135Y00435
X02Y0057
X02000156Y00594879
X0196Y00585
X01935
X0191
X01885
X0186
X018725Y0061
X018975
X019225
X019475
Y0051
X01941343Y00416275
X01954572Y00416504
X01972343Y00421275
X01983963Y00423275
X01922963Y00427358
X0191Y00435
X01910838Y00403069
X01878299Y00423275
X01866679Y00421275
X0186Y00435
X01848908Y00416504
X01835679Y00416275
X01817299Y00427358
X01805175Y00403069
X01772635Y00423275
X01761015Y00421275
X01743244Y00416504
X01730015Y00416275
X01711635Y00427358
X0169951Y00403069
X01666971Y00423275
X01655351Y00421275
X0163758Y00416504
X01624351Y00416275
X01605971Y00427358
X01593846Y00403069
X0161Y00585
X01635
X0166
X01685
X0171
X01735
X0176
X01785
X017975Y0061
X017725
X017475
X017225
X016975
X016725
X016475
X016225
X015975
X018475
X015725
X015475
X0156Y00585
X01585
X014975Y0061
X01500307Y00427358
X01518687Y00416275
X01531916Y00416504
X01549687Y00421275
X01561307Y00423275
X01488183Y00403069
X01455643Y00423275
X01444023Y00421275
X01426252Y00416504
X01413023Y00416275
X01395422Y00421889
X01382518Y00403069
X01349979Y00423275
X01338359Y00421275
X01335Y00435
X01320588Y00416504
X01307359Y00416275
X01288979Y00427358
X01276854Y00403069
X01244315Y00423275
X01232695Y00421275
X01214924Y00416504
X01201695Y00416275
X011975Y0061
X012225
X01435Y00435
X0146
X01183315Y00427358
X0117119Y00403069
X01138651Y00423275
X01127031Y00421275
X0110926Y00416504
X01096031Y00416275
X01077651Y00427358
X01065527Y00403069
X01032987Y00423275
X01021367Y00421275
X01003596Y00416504
X00990367Y00416275
X00971987Y00427358
X0096Y00435
X00959863Y00403069
X00927323Y00423275
X00915703Y00421275
X0091Y00435
X00897932Y00416504
X00884703Y00416275
X00866323Y00427358
X00854199Y00403069
X00821659Y00423275
X00810039Y00421275
X008225Y0061
X008475
X008725
X008975
X009225
X009475
X009725
X009975
X010225
X010475
X010725
X010975
X011225
X011475
X011725
X01035Y00435
X007975Y0061
X007725
X007475
X007225
X006975
X006725
X005975
X005725
X005475
X005225
X004975
X004725
X004475
X004225
X003975
X0041Y00585
X00435
X0046
X00485
X0051
X00535
X0056
X00585
X0061
X00610331Y00423275
X00598711Y00421275
X0058094Y00416504
X00567711Y00416275
X00549331Y00427358
X00537206Y00403069
X00504667Y00423275
X00493047Y00421275
X00485Y00435
X00475276Y00416504
X00462047Y00416275
X00443667Y00427358
X00431543Y00403069
X00399003Y00423275
X00654995Y00427358
X00673375Y00416275
X00686604Y00416504
X00704375Y00421275
X00715995Y00423275
X00760659Y00427358
X00779039Y00416275
X00792268Y00416504
X00787887Y0043771
X00748534Y00403069
X0064287
X00387383Y00421275
X00385Y00435
X00369612Y00416504
X00356383Y00416275
X00338003Y00427358
X00325878Y00403069
X00293012Y00423334
X00281392Y00421334
X00264917Y00417034
X00249545Y00416225
X00232012Y00427417
X00219609Y00404803
X00187421Y00423529
X00175801Y00421529
X0015803Y00416758
X00144801Y00416529
X00126421Y00427612
X00114297Y00403323
X0008194Y00423614
X0007032Y00421614
X00052549Y00416843
X0003932Y00416614
X0002094Y00427697
X00008816Y00403408
X00085Y00435
Y00485
Y00535
X0006
X00035
X000475Y0056
X000725
X000975
X0011Y00585
X00135
X0016
X00185
X0021
X00235
X0026
X00285
X0031
X00335
X0036
X00385
X003725Y0061
X003475
X003225
X002975
X002725
X002475
X002225
X001975
X001725
X001475
X001225
X000975
X000725
X00085Y00585
X00135Y00535
X000475Y0051
X00035Y00485
T02
X00972012Y0016784
X01992003Y00458816
X02005Y00455
X02038836Y00454174
X02038938Y00440794
X0204713Y00467974
X02067627Y00457358
X02096024Y00472114
X02095677Y0051438
X02097183Y00526456
X02112683Y00528356
X02044103Y00523276
X02031403Y00520736
X02111414Y0043
X01961963Y00457358
X01952483Y00475409
X01942101Y00472622
X01930783Y00454376
X01933519Y00440895
X01899502Y00471627
X01885Y00471949
X01843711Y0047336
X01835Y00464449
X01825872Y00453363
X01826886Y0044049
X01856299Y00457358
X0187Y00504449
X0182Y00514449
X01789792Y00475409
X01779286Y0047313
X01745Y00474449
X01751635Y00456557
X01719974Y00453449
X01721277Y00440416
X01705Y00474449
X01689117Y00472876
X0168Y00464449
X01646588Y00455755
X01637047Y00473892
X01624Y00471949
X01614406Y0045395
X01614807Y00440115
X01596886Y00545199
X0172Y00534449
X01965Y00494449
X01585Y00459449
X01572529Y00442356
X01539917Y00456959
X01530831Y00465362
X01510527Y0045365
X01511027Y00440706
X01479291Y00452385
X01468734Y00450357
X01434643Y00455856
X01414027Y00465701
X01404373Y0045355
X01405175Y00440618
X0137328Y00459449
X01329197Y00454726
X01318297Y00459538
X01308471Y00463239
X01298403Y00454478
X01300699Y00440638
X01253036Y00445532
X01223816Y00449287
X01213261Y00455766
X01193535Y00453605
X01193003Y00440796
X01556281Y00523707
X0155Y00549449
X01545Y0058
X01161709Y0044774
X0115Y00449449
X01117844Y00458358
X01096765Y004602
X01087871Y00452063
X01087988Y00439995
X01059Y00462949
X01013397Y00455972
X01002045Y00470791
X0099Y00464449
X00982207Y00455672
X00982707Y00439196
X0095Y00479449
X00936Y00474949
X00898665Y00472348
X00905323Y00457358
X00875899Y00453975
X00878043Y00440638
X00846788Y00444291
X00832083Y00446943
X00807409Y00459073
X00782005Y00461074
X00768276Y00459373
X00768801Y00437616
X00739146Y00461074
X00698111Y00459312
X00684513Y00461869
X00674092Y00460224
X00663321Y00453732
X00664525Y00440057
X00621311Y00461937
X00588331Y00457358
X00578147Y00459914
X00557639Y00454608
X00558077Y00441698
X00528Y00451949
X00515123Y00451947
X00485Y00454449
X00463213Y00462048
X0045Y00454449
Y00439449
X00425Y00459449
X00405Y00559449
X00664259Y00561349
X00655Y00539449
X0065Y00519449
X00720123Y00583591
X0038Y00454449
X00367064Y00459678
X00358215Y00472164
X00348223Y00454449
X00345Y00439449
X00302022Y00471606
X00275Y00459449
X00262906Y004744
X00242078Y00455604
X0024Y00439449
X00211345Y00472114
X00199407Y0047186
X00166901Y00454902
X00135Y00454449
Y00439449
X00106189Y00461949
X00095Y00474449
X00065Y00459449
X00050351Y00469365
X00039894Y0047186
X00030637Y0045782
X0003Y00439449
X001525Y00479449
X00235Y00539449
X00295Y00519449
T03
X0003396Y00305
X01368Y00305949
X01306Y00391949
X0211Y00164449
X0213Y00154449
X02135Y00015
X02105Y0001
X02005Y00035
X01380761Y00431921
T04
X02030364Y00020789
Y00046189
Y00071589
X0197641Y00551256
Y00576656
Y00602056
T05
X00865Y0005175
Y0007175
X00885
X00905
Y0005175
X00885
X00925
Y0007175
X00945
X00965
Y0005175
X00945
X00985
X01005
Y0007175
X00985
X01025
X01045
Y0005175
X01025
X01065
Y0007175
X01085
X01105
Y0005175
X01085
X01125
X01145
Y0007175
X01125
X01165
X01185
Y0005175
X01165
X01205
Y0007175
X01225
X01245
Y0005175
X01225
X01265
X01285
Y0007175
X01265
X01305
X01325
Y0005175
X01305
X01345
Y0007175
X013417Y00523649
X013671
X013925
X014179
X014433
X014687
Y00549049
X014433
X014179
X013925
X013671
X013417
X013163
Y00523649
X012909
X012655
X012401
X012147
Y00549049
X012401
X012655
X012909
Y00574449
X013163
X013417
X013671
X013925
X014179
X014433
X014687
X012655
X012401
X012147
X011893
Y00549049
Y00523649
X011639
X011385
X011131
X010877
X010623
X010369
X010115
X009861
X009607
X009353
X009099
X008845
X008591
X008337
X008083
Y00549049
X008337
X008591
X008845
X009099
X009353
X009607
X009861
X010115
X010369
X010623
X010877
X011131
X011385
X011639
Y00574449
X011385
X011131
X010877
X010623
X010369
X010115
X009861
X009607
X009353
X009099
X008845
X008591
X008337
X008083
X007829
Y00549049
Y00523649
X007575
X007321
X007067
X006813
Y00549049
X007067
X007321
X007575
Y00574449
X007321
X007067
X006813
T06
X015195Y00599849
X006305
T07
X00053438Y00053204
X00221532Y00224453
X01914714
X0182Y00034014
Y0059
X00053438
M30
