%TF.GenerationSoftware,Altium Limited,Altium Designer,23.2.1 (34)*%
G04 Layer_Color=32896*
%FSLAX45Y45*%
%MOMM*%
%TF.SameCoordinates,1902C08B-136C-4458-83E6-530DFDDA9E5F*%
%TF.FilePolarity,Positive*%
%TF.FileFunction,Legend,Bot*%
%TF.Part,Single*%
G01*
G75*
%TA.AperFunction,NonConductor*%
%ADD82C,0.25000*%
%ADD83C,0.20000*%
%ADD85C,0.60000*%
%ADD88C,0.12700*%
%ADD91C,0.20320*%
%ADD92C,0.15000*%
D82*
X20289500Y3230000D02*
G03*
X20289500Y3230000I-12500J0D01*
G01*
X19291341D02*
G03*
X19291341Y3230000I-12500J0D01*
G01*
X18293181D02*
G03*
X18293181Y3230000I-12500J0D01*
G01*
X17295023D02*
G03*
X17295023Y3230000I-12500J0D01*
G01*
X16296863D02*
G03*
X16296863Y3230000I-12500J0D01*
G01*
X15298705Y3234052D02*
G03*
X15298705Y3234052I-12500J0D01*
G01*
X14300545Y3230000D02*
G03*
X14300545Y3230000I-12500J0D01*
G01*
X13302386D02*
G03*
X13302386Y3230000I-12500J0D01*
G01*
X11930180Y4344440D02*
G03*
X11930180Y4344440I-12500J0D01*
G01*
X18774159Y9699380D02*
G03*
X18774159Y9699380I-12500J0D01*
G01*
D83*
X19920000Y3475000D02*
Y4125000D01*
X20380000D01*
X19920000Y3475000D02*
X20380000D01*
Y4125000D01*
X18921840Y3475000D02*
Y4125000D01*
X19381841D01*
X18921840Y3475000D02*
X19381841D01*
Y4125000D01*
X17923682Y3475000D02*
Y4125000D01*
X18383681D01*
X17923682Y3475000D02*
X18383681D01*
Y4125000D01*
X16925522Y3475000D02*
Y4125000D01*
X17385522D01*
X16925522Y3475000D02*
X17385522D01*
Y4125000D01*
X15927364Y3475000D02*
Y4125000D01*
X16387363D01*
X15927364Y3475000D02*
X16387363D01*
Y4125000D01*
X14929204Y3479052D02*
Y4129052D01*
X15389204D01*
X14929204Y3479052D02*
X15389204D01*
Y4129052D01*
X13931046Y3475000D02*
Y4125000D01*
X14391045D01*
X13931046Y3475000D02*
X14391045D01*
Y4125000D01*
X12932886Y3475000D02*
Y4125000D01*
X13392886D01*
X12932886Y3475000D02*
X13392886D01*
Y4125000D01*
X12274680Y3449440D02*
Y4099440D01*
X11814680Y3449440D02*
X12274680D01*
X11814680Y4099440D02*
X12274680D01*
X11814680Y3449440D02*
Y4099440D01*
X16616240Y10368220D02*
X16756239D01*
X16641620Y10115400D02*
X17152020D01*
X16641620Y9849000D02*
X17152020D01*
X16558881Y10241280D02*
X16608881D01*
X16583881Y10216280D02*
Y10266280D01*
X16666380Y10151280D02*
X16846381D01*
X16666380Y10331280D02*
X16846381D01*
X18238660Y9801880D02*
X18738660D01*
X18238660Y10121880D02*
X18738660D01*
Y9801880D02*
Y10121880D01*
X18238660Y9801880D02*
Y10121880D01*
D85*
X18668660Y9901880D02*
G03*
X18668660Y9901880I-30000J0D01*
G01*
D88*
X11310620Y7487920D02*
Y8143240D01*
X11320780Y6248400D02*
Y6764020D01*
X17214320Y10147278D02*
Y10096495D01*
Y10113423D01*
X17180464Y10147278D01*
X17205856Y10121887D01*
X17180464Y10096495D01*
X16604720Y10109195D02*
Y10143051D01*
X16587791Y10159978D01*
X16570863Y10143051D01*
Y10109195D01*
Y10134587D01*
X16604720D01*
D91*
X12656970Y9397813D02*
X12669632Y9410475D01*
X12694957D01*
X12707620Y9397813D01*
Y9347163D01*
X12694957Y9334500D01*
X12669632D01*
X12656970Y9347163D01*
Y9372488D01*
X12682295D01*
X12631645Y9334500D02*
Y9410475D01*
X12593657D01*
X12580994Y9397813D01*
Y9372488D01*
X12593657Y9359825D01*
X12631645D01*
X12555669Y9410475D02*
X12530344D01*
X12543006D01*
Y9334500D01*
X12555669D01*
X12530344D01*
X12492356Y9410475D02*
X12467031D01*
X12479693D01*
Y9334500D01*
X12492356D01*
X12467031D01*
X12391055Y9410475D02*
X12416380D01*
X12429043Y9397813D01*
Y9347163D01*
X12416380Y9334500D01*
X12391055D01*
X12378393Y9347163D01*
Y9397813D01*
X12391055Y9410475D01*
X12353067Y9334500D02*
X12315080D01*
X12302417Y9347163D01*
X12315080Y9359825D01*
X12340405D01*
X12353067Y9372488D01*
X12340405Y9385150D01*
X12302417D01*
X20597009Y2313641D02*
X20647659D01*
Y2275653D01*
X20622334D01*
X20647659D01*
Y2237665D01*
X20571684D02*
X20546359D01*
X20559023D01*
Y2288315D01*
X20571684D01*
X20508371Y2237665D02*
X20483046D01*
X20495709D01*
Y2313641D01*
X20508371D01*
X20445058Y2237665D02*
X20419733D01*
X20432396D01*
Y2288315D01*
X20445058D01*
X20381744Y2212340D02*
Y2288315D01*
X20343758D01*
X20331094Y2275653D01*
Y2250328D01*
X20343758Y2237665D01*
X20381744D01*
X20229794D02*
Y2313641D01*
X20191808D01*
X20179144Y2300978D01*
Y2275653D01*
X20191808Y2262990D01*
X20229794D01*
X20141156Y2288315D02*
X20115831D01*
X20103169Y2275653D01*
Y2237665D01*
X20141156D01*
X20153819Y2250328D01*
X20141156Y2262990D01*
X20103169D01*
X20077844Y2288315D02*
Y2250328D01*
X20065181Y2237665D01*
X20027193D01*
Y2288315D01*
X20001868Y2237665D02*
X19976543D01*
X19989204D01*
Y2313641D01*
X20001868D01*
X19862579Y2275653D02*
X19811929D01*
X19710629Y2288315D02*
Y2237665D01*
Y2262990D01*
X19697966Y2275653D01*
X19685304Y2288315D01*
X19672641D01*
X19596664Y2237665D02*
X19621989D01*
X19634653Y2250328D01*
Y2275653D01*
X19621989Y2288315D01*
X19596664D01*
X19584003Y2275653D01*
Y2262990D01*
X19634653D01*
X19558678Y2288315D02*
X19533353Y2237665D01*
X19508028Y2288315D01*
X19482703Y2237665D02*
X19457378D01*
X19470039D01*
Y2313641D01*
X19482703Y2300978D01*
X19343414Y2275653D02*
X19292763D01*
X19191463Y2300978D02*
X19178799Y2313641D01*
X19153474D01*
X19140813Y2300978D01*
Y2250328D01*
X19153474Y2237665D01*
X19178799D01*
X19191463Y2250328D01*
Y2300978D01*
X19064838Y2313641D02*
X19115488D01*
Y2275653D01*
X19090163Y2288315D01*
X19077499D01*
X19064838Y2275653D01*
Y2250328D01*
X19077499Y2237665D01*
X19102824D01*
X19115488Y2250328D01*
X19039513Y2237665D02*
Y2250328D01*
X19026849D01*
Y2237665D01*
X19039513D01*
X18976199Y2300978D02*
X18963536Y2313641D01*
X18938211D01*
X18925548Y2300978D01*
Y2250328D01*
X18938211Y2237665D01*
X18963536D01*
X18976199Y2250328D01*
Y2300978D01*
X18900223D02*
X18887561Y2313641D01*
X18862236D01*
X18849573Y2300978D01*
Y2288315D01*
X18862236Y2275653D01*
X18874898D01*
X18862236D01*
X18849573Y2262990D01*
Y2250328D01*
X18862236Y2237665D01*
X18887561D01*
X18900223Y2250328D01*
X18824248Y2237665D02*
Y2250328D01*
X18811584D01*
Y2237665D01*
X18824248D01*
X18710284D02*
X18760934D01*
X18710284Y2288315D01*
Y2300978D01*
X18722948Y2313641D01*
X18748273D01*
X18760934Y2300978D01*
X18684959D02*
X18672298Y2313641D01*
X18646973D01*
X18634309Y2300978D01*
Y2250328D01*
X18646973Y2237665D01*
X18672298D01*
X18684959Y2250328D01*
Y2300978D01*
X18558333Y2237665D02*
X18608984D01*
X18558333Y2288315D01*
Y2300978D01*
X18570996Y2313641D01*
X18596321D01*
X18608984Y2300978D01*
X18533008D02*
X18520346Y2313641D01*
X18495021D01*
X18482358Y2300978D01*
Y2288315D01*
X18495021Y2275653D01*
X18507683D01*
X18495021D01*
X18482358Y2262990D01*
Y2250328D01*
X18495021Y2237665D01*
X18520346D01*
X18533008Y2250328D01*
X12713149Y4545618D02*
X12687824D01*
X12700486D01*
Y4469643D01*
X12713149D01*
X12687824D01*
X12611848Y4545618D02*
X12637173D01*
X12649836Y4532956D01*
Y4482305D01*
X12637173Y4469643D01*
X12611848D01*
X12599186Y4482305D01*
Y4532956D01*
X12611848Y4545618D01*
X12523210Y4469643D02*
X12573861D01*
X12523210Y4520293D01*
Y4532956D01*
X12535873Y4545618D01*
X12561198D01*
X12573861Y4532956D01*
X12459897Y4469643D02*
Y4545618D01*
X12497885Y4507630D01*
X12447235D01*
X12421910D02*
X12371259D01*
X12269959Y4469643D02*
Y4545618D01*
X12219308Y4469643D01*
Y4545618D01*
X12143333Y4469643D02*
X12193983D01*
X12143333Y4520293D01*
Y4532956D01*
X12155996Y4545618D01*
X12181321D01*
X12193983Y4532956D01*
X12118008Y4456980D02*
X12067357D01*
X11991382Y4532956D02*
X12004045Y4545618D01*
X12029370D01*
X12042032Y4532956D01*
Y4520293D01*
X12029370Y4507630D01*
X12004045D01*
X11991382Y4494968D01*
Y4482305D01*
X12004045Y4469643D01*
X12029370D01*
X12042032Y4482305D01*
X11915406Y4545618D02*
X11966057D01*
Y4469643D01*
X11915406D01*
X11966057Y4507630D02*
X11940732D01*
X11890081Y4469643D02*
Y4545618D01*
X11852094D01*
X11839431Y4532956D01*
Y4507630D01*
X11852094Y4494968D01*
X11890081D01*
X11864756D02*
X11839431Y4469643D01*
X12396585Y6728535D02*
X12371260D01*
X12383922D01*
Y6652560D01*
X12396585D01*
X12371260D01*
X12295284Y6728535D02*
X12320609D01*
X12333272Y6715873D01*
Y6665223D01*
X12320609Y6652560D01*
X12295284D01*
X12282621Y6665223D01*
Y6715873D01*
X12295284Y6728535D01*
X12257296Y6652560D02*
X12231971D01*
X12244634D01*
Y6728535D01*
X12257296Y6715873D01*
X12193983D02*
X12181321Y6728535D01*
X12155996D01*
X12143333Y6715873D01*
Y6703210D01*
X12155996Y6690548D01*
X12168658D01*
X12155996D01*
X12143333Y6677885D01*
Y6665223D01*
X12155996Y6652560D01*
X12181321D01*
X12193983Y6665223D01*
X12118008Y6690548D02*
X12067357D01*
X11966057Y6728535D02*
Y6652560D01*
X11928069D01*
X11915406Y6665223D01*
Y6715873D01*
X11928069Y6728535D01*
X11966057D01*
X11852094Y6652560D02*
Y6728535D01*
X11890081Y6690548D01*
X11839431D01*
X12396585Y6532955D02*
X12371260D01*
X12383922D01*
Y6456980D01*
X12396585D01*
X12371260D01*
X12295284Y6532955D02*
X12320609D01*
X12333272Y6520293D01*
Y6469643D01*
X12320609Y6456980D01*
X12295284D01*
X12282621Y6469643D01*
Y6520293D01*
X12295284Y6532955D01*
X12257296Y6456980D02*
X12231971D01*
X12244634D01*
Y6532955D01*
X12257296Y6520293D01*
X12155996Y6456980D02*
Y6532955D01*
X12193983Y6494968D01*
X12143333D01*
X12118008D02*
X12067357D01*
X11966057Y6532955D02*
Y6456980D01*
X11928069D01*
X11915406Y6469643D01*
Y6520293D01*
X11928069Y6532955D01*
X11966057D01*
X11839431D02*
X11890081D01*
Y6494968D01*
X11864756Y6507630D01*
X11852094D01*
X11839431Y6494968D01*
Y6469643D01*
X11852094Y6456980D01*
X11877419D01*
X11890081Y6469643D01*
X12383922Y7128535D02*
X12358597D01*
X12371260D01*
Y7052560D01*
X12383922D01*
X12358597D01*
X12282622Y7128535D02*
X12307947D01*
X12320609Y7115873D01*
Y7065223D01*
X12307947Y7052560D01*
X12282622D01*
X12269959Y7065223D01*
Y7115873D01*
X12282622Y7128535D01*
X12244634Y7052560D02*
X12219309D01*
X12231971D01*
Y7128535D01*
X12244634Y7115873D01*
X12181321Y7052560D02*
X12155996D01*
X12168658D01*
Y7128535D01*
X12181321Y7115873D01*
X12118008Y7090548D02*
X12067357D01*
X11966057Y7128535D02*
Y7052560D01*
X11928069D01*
X11915406Y7065223D01*
Y7115873D01*
X11928069Y7128535D01*
X11966057D01*
X11839431Y7052560D02*
X11890081D01*
X11839431Y7103210D01*
Y7115873D01*
X11852094Y7128535D01*
X11877419D01*
X11890081Y7115873D01*
X12396585Y6932955D02*
X12371260D01*
X12383922D01*
Y6856980D01*
X12396585D01*
X12371260D01*
X12295284Y6932955D02*
X12320609D01*
X12333272Y6920293D01*
Y6869643D01*
X12320609Y6856980D01*
X12295284D01*
X12282621Y6869643D01*
Y6920293D01*
X12295284Y6932955D01*
X12257296Y6856980D02*
X12231971D01*
X12244634D01*
Y6932955D01*
X12257296Y6920293D01*
X12143333Y6856980D02*
X12193983D01*
X12143333Y6907630D01*
Y6920293D01*
X12155996Y6932955D01*
X12181321D01*
X12193983Y6920293D01*
X12118008Y6894968D02*
X12067357D01*
X11966057Y6932955D02*
Y6856980D01*
X11928069D01*
X11915406Y6869643D01*
Y6920293D01*
X11928069Y6932955D01*
X11966057D01*
X11890081Y6920293D02*
X11877419Y6932955D01*
X11852094D01*
X11839431Y6920293D01*
Y6907630D01*
X11852094Y6894968D01*
X11864756D01*
X11852094D01*
X11839431Y6882305D01*
Y6869643D01*
X11852094Y6856980D01*
X11877419D01*
X11890081Y6869643D01*
X12371259Y7332955D02*
X12345934D01*
X12358597D01*
Y7256980D01*
X12371259D01*
X12345934D01*
X12269959Y7332955D02*
X12295284D01*
X12307946Y7320293D01*
Y7269643D01*
X12295284Y7256980D01*
X12269959D01*
X12257296Y7269643D01*
Y7320293D01*
X12269959Y7332955D01*
X12231971Y7256980D02*
X12206646D01*
X12219308D01*
Y7332955D01*
X12231971Y7320293D01*
X12168658D02*
X12155995Y7332955D01*
X12130670D01*
X12118008Y7320293D01*
Y7269643D01*
X12130670Y7256980D01*
X12155995D01*
X12168658Y7269643D01*
Y7320293D01*
X12092682Y7294968D02*
X12042032D01*
X11940732Y7332955D02*
Y7256980D01*
X11902744D01*
X11890081Y7269643D01*
Y7320293D01*
X11902744Y7332955D01*
X11940732D01*
X11864756Y7256980D02*
X11839431D01*
X11852093D01*
Y7332955D01*
X11864756Y7320293D01*
X12776462Y7541198D02*
X12751137D01*
X12763799D01*
Y7465223D01*
X12776462D01*
X12751137D01*
X12675161Y7541198D02*
X12700486D01*
X12713149Y7528536D01*
Y7477885D01*
X12700486Y7465223D01*
X12675161D01*
X12662499Y7477885D01*
Y7528536D01*
X12675161Y7541198D01*
X12637174Y7477885D02*
X12624511Y7465223D01*
X12599186D01*
X12586523Y7477885D01*
Y7528536D01*
X12599186Y7541198D01*
X12624511D01*
X12637174Y7528536D01*
Y7515873D01*
X12624511Y7503210D01*
X12586523D01*
X12485223D02*
X12434572D01*
X12333272Y7465223D02*
Y7541198D01*
X12307947Y7515873D01*
X12282621Y7541198D01*
Y7465223D01*
X12257296Y7541198D02*
Y7477885D01*
X12244634Y7465223D01*
X12219309D01*
X12206646Y7477885D01*
Y7541198D01*
X12181321D02*
X12130670Y7465223D01*
Y7541198D02*
X12181321Y7465223D01*
X12105345D02*
X12080020D01*
X12092683D01*
Y7541198D01*
X12105345Y7528536D01*
X12042032Y7452560D02*
X11991382D01*
X11966057Y7465223D02*
Y7515873D01*
X11940732Y7541198D01*
X11915406Y7515873D01*
Y7465223D01*
Y7503210D01*
X11966057D01*
X11890081Y7528536D02*
X11877419Y7541198D01*
X11852094D01*
X11839431Y7528536D01*
Y7477885D01*
X11852094Y7465223D01*
X11877419D01*
X11890081Y7477885D01*
Y7528536D01*
X12776462Y8145618D02*
X12751137D01*
X12763799D01*
Y8069642D01*
X12776462D01*
X12751137D01*
X12675161Y8145618D02*
X12700486D01*
X12713149Y8132956D01*
Y8082305D01*
X12700486Y8069642D01*
X12675161D01*
X12662499Y8082305D01*
Y8132956D01*
X12675161Y8145618D01*
X12586523D02*
X12611849Y8132956D01*
X12637174Y8107630D01*
Y8082305D01*
X12624511Y8069642D01*
X12599186D01*
X12586523Y8082305D01*
Y8094968D01*
X12599186Y8107630D01*
X12637174D01*
X12485223D02*
X12434572D01*
X12333272Y8069642D02*
Y8145618D01*
X12307947Y8120293D01*
X12282621Y8145618D01*
Y8069642D01*
X12257296Y8145618D02*
Y8082305D01*
X12244634Y8069642D01*
X12219309D01*
X12206646Y8082305D01*
Y8145618D01*
X12181321D02*
X12130670Y8069642D01*
Y8145618D02*
X12181321Y8069642D01*
X12105345D02*
X12080020D01*
X12092683D01*
Y8145618D01*
X12105345Y8132956D01*
X12042032Y8056980D02*
X11991382D01*
X11966057Y8069642D02*
Y8120293D01*
X11940732Y8145618D01*
X11915406Y8120293D01*
Y8069642D01*
Y8107630D01*
X11966057D01*
X11839431Y8069642D02*
X11890081D01*
X11839431Y8120293D01*
Y8132956D01*
X11852094Y8145618D01*
X11877419D01*
X11890081Y8132956D01*
X12776462Y8741198D02*
X12751137D01*
X12763799D01*
Y8665223D01*
X12776462D01*
X12751137D01*
X12675161Y8741198D02*
X12700486D01*
X12713149Y8728536D01*
Y8677885D01*
X12700486Y8665223D01*
X12675161D01*
X12662499Y8677885D01*
Y8728536D01*
X12675161Y8741198D01*
X12637174Y8728536D02*
X12624511Y8741198D01*
X12599186D01*
X12586523Y8728536D01*
Y8715873D01*
X12599186Y8703210D01*
X12611849D01*
X12599186D01*
X12586523Y8690548D01*
Y8677885D01*
X12599186Y8665223D01*
X12624511D01*
X12637174Y8677885D01*
X12485223Y8703210D02*
X12434572D01*
X12333272Y8665223D02*
Y8741198D01*
X12282621Y8665223D01*
Y8741198D01*
X12257296Y8665223D02*
X12231971D01*
X12244634D01*
Y8741198D01*
X12257296Y8728536D01*
X12193983Y8652560D02*
X12143333D01*
X12118008Y8665223D02*
Y8741198D01*
X12080020D01*
X12067357Y8728536D01*
Y8703210D01*
X12080020Y8690548D01*
X12118008D01*
X12092683D02*
X12067357Y8665223D01*
X11991382Y8728536D02*
X12004045Y8741198D01*
X12029370D01*
X12042032Y8728536D01*
Y8677885D01*
X12029370Y8665223D01*
X12004045D01*
X11991382Y8677885D01*
X11966057Y8741198D02*
Y8665223D01*
X11915406D01*
X11890081Y8741198D02*
Y8665223D01*
Y8690548D01*
X11839431Y8741198D01*
X11877419Y8703210D01*
X11839431Y8665223D01*
X12700487Y8341198D02*
X12675162D01*
X12687824D01*
Y8265222D01*
X12700487D01*
X12675162D01*
X12599186Y8341198D02*
X12624511D01*
X12637174Y8328536D01*
Y8277885D01*
X12624511Y8265222D01*
X12599186D01*
X12586523Y8277885D01*
Y8328536D01*
X12599186Y8341198D01*
X12510548D02*
X12561198D01*
Y8303210D01*
X12535873Y8315873D01*
X12523210D01*
X12510548Y8303210D01*
Y8277885D01*
X12523210Y8265222D01*
X12548535D01*
X12561198Y8277885D01*
X12409247Y8303210D02*
X12358597D01*
X12257296Y8265222D02*
Y8341198D01*
X12206646Y8265222D01*
Y8341198D01*
X12181321Y8265222D02*
X12155996D01*
X12168658D01*
Y8341198D01*
X12181321Y8328536D01*
X12118008Y8252560D02*
X12067357D01*
X12042032Y8265222D02*
Y8341198D01*
X11991382Y8265222D01*
Y8341198D01*
X11928069D02*
X11953394D01*
X11966057Y8328536D01*
Y8277885D01*
X11953394Y8265222D01*
X11928069D01*
X11915406Y8277885D01*
Y8328536D01*
X11928069Y8341198D01*
X11839431D02*
X11890081D01*
Y8265222D01*
X11839431D01*
X11890081Y8303210D02*
X11864756D01*
X12852438Y7745618D02*
X12827113D01*
X12839775D01*
Y7669643D01*
X12852438D01*
X12827113D01*
X12751137Y7745618D02*
X12776462D01*
X12789125Y7732956D01*
Y7682305D01*
X12776462Y7669643D01*
X12751137D01*
X12738474Y7682305D01*
Y7732956D01*
X12751137Y7745618D01*
X12713149Y7732956D02*
X12700486Y7745618D01*
X12675161D01*
X12662499Y7732956D01*
Y7720293D01*
X12675161Y7707630D01*
X12662499Y7694968D01*
Y7682305D01*
X12675161Y7669643D01*
X12700486D01*
X12713149Y7682305D01*
Y7694968D01*
X12700486Y7707630D01*
X12713149Y7720293D01*
Y7732956D01*
X12700486Y7707630D02*
X12675161D01*
X12561198D02*
X12510548D01*
X12409247Y7669643D02*
Y7745618D01*
X12383922Y7720293D01*
X12358597Y7745618D01*
Y7669643D01*
X12333272Y7745618D02*
Y7682305D01*
X12320609Y7669643D01*
X12295284D01*
X12282621Y7682305D01*
Y7745618D01*
X12257296D02*
X12206646Y7669643D01*
Y7745618D02*
X12257296Y7669643D01*
X12181321D02*
X12155996D01*
X12168658D01*
Y7745618D01*
X12181321Y7732956D01*
X12118008Y7656980D02*
X12067357D01*
X12042032Y7669643D02*
Y7720293D01*
X12004045D01*
X11991382Y7707630D01*
Y7669643D01*
X11915406Y7745618D02*
X11966057D01*
Y7669643D01*
X11915406D01*
X11966057Y7707630D02*
X11940732D01*
X11890081Y7669643D02*
Y7745618D01*
X11839431Y7669643D01*
Y7745618D01*
X12700487Y8545618D02*
X12675162D01*
X12687824D01*
Y8469643D01*
X12700487D01*
X12675162D01*
X12599186Y8545618D02*
X12624511D01*
X12637174Y8532956D01*
Y8482305D01*
X12624511Y8469643D01*
X12599186D01*
X12586523Y8482305D01*
Y8532956D01*
X12599186Y8545618D01*
X12523210Y8469643D02*
Y8545618D01*
X12561198Y8507630D01*
X12510548D01*
X12409247D02*
X12358597D01*
X12257296Y8469643D02*
Y8545618D01*
X12206646Y8469643D01*
Y8545618D01*
X12181321Y8469643D02*
X12155996D01*
X12168658D01*
Y8545618D01*
X12181321Y8532956D01*
X12118008Y8456980D02*
X12067357D01*
X11991382Y8532956D02*
X12004045Y8545618D01*
X12029370D01*
X12042032Y8532956D01*
Y8520293D01*
X12029370Y8507630D01*
X12004045D01*
X11991382Y8494968D01*
Y8482305D01*
X12004045Y8469643D01*
X12029370D01*
X12042032Y8482305D01*
X11915406Y8545618D02*
X11966057D01*
Y8469643D01*
X11915406D01*
X11966057Y8507630D02*
X11940732D01*
X11890081Y8469643D02*
Y8545618D01*
X11852094D01*
X11839431Y8532956D01*
Y8507630D01*
X11852094Y8494968D01*
X11890081D01*
X11864756D02*
X11839431Y8469643D01*
X12852438Y8945618D02*
X12827113D01*
X12839775D01*
Y8869643D01*
X12852438D01*
X12827113D01*
X12751137Y8945618D02*
X12776462D01*
X12789125Y8932956D01*
Y8882305D01*
X12776462Y8869643D01*
X12751137D01*
X12738474Y8882305D01*
Y8932956D01*
X12751137Y8945618D01*
X12662499Y8869643D02*
X12713149D01*
X12662499Y8920293D01*
Y8932956D01*
X12675161Y8945618D01*
X12700486D01*
X12713149Y8932956D01*
X12561198Y8907630D02*
X12510548D01*
X12409247Y8869643D02*
Y8945618D01*
X12358597Y8869643D01*
Y8945618D01*
X12333272Y8869643D02*
X12307947D01*
X12320609D01*
Y8945618D01*
X12333272Y8932956D01*
X12269959Y8856980D02*
X12219308D01*
X12143333Y8932956D02*
X12155996Y8945618D01*
X12181321D01*
X12193983Y8932956D01*
Y8920293D01*
X12181321Y8907630D01*
X12155996D01*
X12143333Y8894968D01*
Y8882305D01*
X12155996Y8869643D01*
X12181321D01*
X12193983Y8882305D01*
X12118008Y8869643D02*
Y8945618D01*
X12080020D01*
X12067357Y8932956D01*
Y8907630D01*
X12080020Y8894968D01*
X12118008D01*
X12092683D02*
X12067357Y8869643D01*
X11991382Y8932956D02*
X12004045Y8945618D01*
X12029370D01*
X12042032Y8932956D01*
Y8882305D01*
X12029370Y8869643D01*
X12004045D01*
X11991382Y8882305D01*
X11966057Y8945618D02*
Y8869643D01*
X11915406D01*
X11890081Y8945618D02*
Y8869643D01*
Y8894968D01*
X11839431Y8945618D01*
X11877419Y8907630D01*
X11839431Y8869643D01*
X12751137Y7941198D02*
X12725812D01*
X12738474D01*
Y7865223D01*
X12751137D01*
X12725812D01*
X12649836Y7941198D02*
X12675161D01*
X12687824Y7928536D01*
Y7877885D01*
X12675161Y7865223D01*
X12649836D01*
X12637173Y7877885D01*
Y7928536D01*
X12649836Y7941198D01*
X12611848D02*
X12561198D01*
Y7928536D01*
X12611848Y7877885D01*
Y7865223D01*
X12459897Y7903210D02*
X12409247D01*
X12307946Y7865223D02*
Y7941198D01*
X12282621Y7915873D01*
X12257296Y7941198D01*
Y7865223D01*
X12231971Y7941198D02*
Y7877885D01*
X12219308Y7865223D01*
X12193983D01*
X12181321Y7877885D01*
Y7941198D01*
X12155996D02*
X12105345Y7865223D01*
Y7941198D02*
X12155996Y7865223D01*
X12080020D02*
X12054695D01*
X12067357D01*
Y7941198D01*
X12080020Y7928536D01*
X12016707Y7852560D02*
X11966057D01*
X11940732Y7865223D02*
Y7915873D01*
X11915406Y7941198D01*
X11890081Y7915873D01*
Y7865223D01*
Y7903210D01*
X11940732D01*
X11864756Y7865223D02*
X11839431D01*
X11852093D01*
Y7941198D01*
X11864756Y7928536D01*
X12839775Y9141198D02*
X12814450D01*
X12827113D01*
Y9065223D01*
X12839775D01*
X12814450D01*
X12738474Y9141198D02*
X12763799D01*
X12776462Y9128536D01*
Y9077885D01*
X12763799Y9065223D01*
X12738474D01*
X12725812Y9077885D01*
Y9128536D01*
X12738474Y9141198D01*
X12700487Y9065223D02*
X12675162D01*
X12687824D01*
Y9141198D01*
X12700487Y9128536D01*
X12561198Y9103210D02*
X12510548D01*
X12409247Y9065223D02*
Y9141198D01*
X12358597Y9065223D01*
Y9141198D01*
X12333272Y9065223D02*
X12307947D01*
X12320609D01*
Y9141198D01*
X12333272Y9128536D01*
X12269959Y9052560D02*
X12219308D01*
X12143333Y9128536D02*
X12155996Y9141198D01*
X12181321D01*
X12193983Y9128536D01*
Y9115873D01*
X12181321Y9103210D01*
X12155996D01*
X12143333Y9090548D01*
Y9077885D01*
X12155996Y9065223D01*
X12181321D01*
X12193983Y9077885D01*
X12118008Y9065223D02*
Y9141198D01*
X12080020D01*
X12067357Y9128536D01*
Y9103210D01*
X12080020Y9090548D01*
X12118008D01*
X12092683D02*
X12067357Y9065223D01*
X11991382Y9128536D02*
X12004045Y9141198D01*
X12029370D01*
X12042032Y9128536D01*
Y9077885D01*
X12029370Y9065223D01*
X12004045D01*
X11991382Y9077885D01*
X11966057Y9141198D02*
Y9065223D01*
X11915406D01*
X11890081D02*
Y9141198D01*
X11852094D01*
X11839431Y9128536D01*
Y9103210D01*
X11852094Y9090548D01*
X11890081D01*
X11864756D02*
X11839431Y9065223D01*
X12713149Y4741198D02*
X12687824D01*
X12700486D01*
Y4665223D01*
X12713149D01*
X12687824D01*
X12611848Y4741198D02*
X12637173D01*
X12649836Y4728536D01*
Y4677885D01*
X12637173Y4665223D01*
X12611848D01*
X12599186Y4677885D01*
Y4728536D01*
X12611848Y4741198D01*
X12523210Y4665223D02*
X12573861D01*
X12523210Y4715873D01*
Y4728536D01*
X12535873Y4741198D01*
X12561198D01*
X12573861Y4728536D01*
X12497885D02*
X12485222Y4741198D01*
X12459897D01*
X12447235Y4728536D01*
Y4715873D01*
X12459897Y4703210D01*
X12472560D01*
X12459897D01*
X12447235Y4690548D01*
Y4677885D01*
X12459897Y4665223D01*
X12485222D01*
X12497885Y4677885D01*
X12421910Y4703210D02*
X12371259D01*
X12269959Y4665223D02*
Y4741198D01*
X12219308Y4665223D01*
Y4741198D01*
X12143333Y4665223D02*
X12193983D01*
X12143333Y4715873D01*
Y4728536D01*
X12155996Y4741198D01*
X12181321D01*
X12193983Y4728536D01*
X12118008Y4652560D02*
X12067357D01*
X12042032Y4665223D02*
Y4715873D01*
X12004045D01*
X11991382Y4703210D01*
Y4665223D01*
X11928069Y4741198D02*
X11953394D01*
X11966057Y4728536D01*
Y4677885D01*
X11953394Y4665223D01*
X11928069D01*
X11915406Y4677885D01*
Y4728536D01*
X11928069Y4741198D01*
X11839431D02*
X11890081D01*
Y4665223D01*
X11839431D01*
X11890081Y4703210D02*
X11864756D01*
X11590245Y4150360D02*
Y4125035D01*
Y4137697D01*
X11666220D01*
Y4150360D01*
Y4125035D01*
X11590245Y4049059D02*
Y4074384D01*
X11602907Y4087047D01*
X11653557D01*
X11666220Y4074384D01*
Y4049059D01*
X11653557Y4036397D01*
X11602907D01*
X11590245Y4049059D01*
X11666220Y3960421D02*
Y4011071D01*
X11615570Y3960421D01*
X11602907D01*
X11590245Y3973084D01*
Y3998409D01*
X11602907Y4011071D01*
X11590245Y3884446D02*
Y3935096D01*
X11628232D01*
X11615570Y3909771D01*
Y3897108D01*
X11628232Y3884446D01*
X11653557D01*
X11666220Y3897108D01*
Y3922433D01*
X11653557Y3935096D01*
X11628232Y3859121D02*
Y3808470D01*
X11590245Y3707170D02*
X11666220D01*
Y3669182D01*
X11653557Y3656519D01*
X11602907D01*
X11590245Y3669182D01*
Y3707170D01*
Y3580544D02*
X11602907Y3605869D01*
X11628232Y3631194D01*
X11653557D01*
X11666220Y3618531D01*
Y3593206D01*
X11653557Y3580544D01*
X11640895D01*
X11628232Y3593206D01*
Y3631194D01*
X12852438Y5141198D02*
X12827113D01*
X12839775D01*
Y5065223D01*
X12852438D01*
X12827113D01*
X12751137Y5141198D02*
X12776462D01*
X12789125Y5128536D01*
Y5077885D01*
X12776462Y5065223D01*
X12751137D01*
X12738474Y5077885D01*
Y5128536D01*
X12751137Y5141198D01*
X12662499Y5065223D02*
X12713149D01*
X12662499Y5115873D01*
Y5128536D01*
X12675161Y5141198D01*
X12700486D01*
X12713149Y5128536D01*
X12637174Y5065223D02*
X12611849D01*
X12624511D01*
Y5141198D01*
X12637174Y5128536D01*
X12573861Y5103210D02*
X12523210D01*
X12421910Y5065223D02*
Y5141198D01*
X12371259Y5065223D01*
Y5141198D01*
X12295284Y5065223D02*
X12345934D01*
X12295284Y5115873D01*
Y5128536D01*
X12307946Y5141198D01*
X12333271D01*
X12345934Y5128536D01*
X12269959Y5052560D02*
X12219308D01*
X12143333Y5128536D02*
X12155996Y5141198D01*
X12181321D01*
X12193983Y5128536D01*
Y5115873D01*
X12181321Y5103210D01*
X12155996D01*
X12143333Y5090548D01*
Y5077885D01*
X12155996Y5065223D01*
X12181321D01*
X12193983Y5077885D01*
X12118008Y5065223D02*
Y5141198D01*
X12080020D01*
X12067357Y5128536D01*
Y5103210D01*
X12080020Y5090548D01*
X12118008D01*
X12092683D02*
X12067357Y5065223D01*
X11991382Y5128536D02*
X12004045Y5141198D01*
X12029370D01*
X12042032Y5128536D01*
Y5077885D01*
X12029370Y5065223D01*
X12004045D01*
X11991382Y5077885D01*
X11966057Y5141198D02*
Y5065223D01*
X11915406D01*
X11890081Y5141198D02*
Y5065223D01*
Y5090548D01*
X11839431Y5141198D01*
X11877419Y5103210D01*
X11839431Y5065223D01*
X12852438Y6341198D02*
X12827113D01*
X12839775D01*
Y6265223D01*
X12852438D01*
X12827113D01*
X12751137Y6341198D02*
X12776462D01*
X12789125Y6328536D01*
Y6277885D01*
X12776462Y6265223D01*
X12751137D01*
X12738474Y6277885D01*
Y6328536D01*
X12751137Y6341198D01*
X12713149Y6265223D02*
X12687824D01*
X12700486D01*
Y6341198D01*
X12713149Y6328536D01*
X12599186Y6341198D02*
X12649836D01*
Y6303210D01*
X12624511Y6315873D01*
X12611848D01*
X12599186Y6303210D01*
Y6277885D01*
X12611848Y6265223D01*
X12637173D01*
X12649836Y6277885D01*
X12573861Y6303210D02*
X12523210D01*
X12421910Y6265223D02*
Y6341198D01*
X12383922D01*
X12371259Y6328536D01*
Y6303210D01*
X12383922Y6290548D01*
X12421910D01*
X12295284Y6265223D02*
X12345934D01*
X12295284Y6315873D01*
Y6328536D01*
X12307946Y6341198D01*
X12333271D01*
X12345934Y6328536D01*
X12269959Y6252560D02*
X12219308D01*
X12143333Y6328536D02*
X12155996Y6341198D01*
X12181321D01*
X12193983Y6328536D01*
Y6315873D01*
X12181321Y6303210D01*
X12155996D01*
X12143333Y6290548D01*
Y6277885D01*
X12155996Y6265223D01*
X12181321D01*
X12193983Y6277885D01*
X12118008Y6265223D02*
Y6341198D01*
X12080020D01*
X12067357Y6328536D01*
Y6303210D01*
X12080020Y6290548D01*
X12118008D01*
X12092683D02*
X12067357Y6265223D01*
X11991382Y6328536D02*
X12004045Y6341198D01*
X12029370D01*
X12042032Y6328536D01*
Y6277885D01*
X12029370Y6265223D01*
X12004045D01*
X11991382Y6277885D01*
X11966057Y6341198D02*
Y6265223D01*
X11915406D01*
X11890081D02*
Y6341198D01*
X11852094D01*
X11839431Y6328536D01*
Y6303210D01*
X11852094Y6290548D01*
X11890081D01*
X11864756D02*
X11839431Y6265223D01*
X12700487Y5541198D02*
X12675162D01*
X12687824D01*
Y5465222D01*
X12700487D01*
X12675162D01*
X12599186Y5541198D02*
X12624511D01*
X12637174Y5528536D01*
Y5477885D01*
X12624511Y5465222D01*
X12599186D01*
X12586523Y5477885D01*
Y5528536D01*
X12599186Y5541198D01*
X12561198Y5465222D02*
X12535873D01*
X12548535D01*
Y5541198D01*
X12561198Y5528536D01*
X12497885Y5477885D02*
X12485222Y5465222D01*
X12459897D01*
X12447235Y5477885D01*
Y5528536D01*
X12459897Y5541198D01*
X12485222D01*
X12497885Y5528536D01*
Y5515873D01*
X12485222Y5503210D01*
X12447235D01*
X12421910D02*
X12371259D01*
X12269959Y5465222D02*
Y5541198D01*
X12231971D01*
X12219308Y5528536D01*
Y5503210D01*
X12231971Y5490548D01*
X12269959D01*
X12143333Y5465222D02*
X12193983D01*
X12143333Y5515873D01*
Y5528536D01*
X12155996Y5541198D01*
X12181321D01*
X12193983Y5528536D01*
X12118008Y5452560D02*
X12067357D01*
X11991382Y5528536D02*
X12004045Y5541198D01*
X12029370D01*
X12042032Y5528536D01*
Y5515873D01*
X12029370Y5503210D01*
X12004045D01*
X11991382Y5490548D01*
Y5477885D01*
X12004045Y5465222D01*
X12029370D01*
X12042032Y5477885D01*
X11915406Y5541198D02*
X11966057D01*
Y5465222D01*
X11915406D01*
X11966057Y5503210D02*
X11940732D01*
X11890081Y5465222D02*
Y5541198D01*
X11852094D01*
X11839431Y5528536D01*
Y5503210D01*
X11852094Y5490548D01*
X11890081D01*
X11864756D02*
X11839431Y5465222D01*
X12700487Y5745618D02*
X12675162D01*
X12687824D01*
Y5669643D01*
X12700487D01*
X12675162D01*
X12599186Y5745618D02*
X12624511D01*
X12637174Y5732956D01*
Y5682305D01*
X12624511Y5669643D01*
X12599186D01*
X12586523Y5682305D01*
Y5732956D01*
X12599186Y5745618D01*
X12561198Y5669643D02*
X12535873D01*
X12548535D01*
Y5745618D01*
X12561198Y5732956D01*
X12497885D02*
X12485222Y5745618D01*
X12459897D01*
X12447235Y5732956D01*
Y5720293D01*
X12459897Y5707630D01*
X12447235Y5694968D01*
Y5682305D01*
X12459897Y5669643D01*
X12485222D01*
X12497885Y5682305D01*
Y5694968D01*
X12485222Y5707630D01*
X12497885Y5720293D01*
Y5732956D01*
X12485222Y5707630D02*
X12459897D01*
X12421910D02*
X12371259D01*
X12269959Y5669643D02*
Y5745618D01*
X12231971D01*
X12219308Y5732956D01*
Y5707630D01*
X12231971Y5694968D01*
X12269959D01*
X12143333Y5669643D02*
X12193983D01*
X12143333Y5720293D01*
Y5732956D01*
X12155996Y5745618D01*
X12181321D01*
X12193983Y5732956D01*
X12118008Y5656980D02*
X12067357D01*
X12042032Y5669643D02*
Y5720293D01*
X12004045D01*
X11991382Y5707630D01*
Y5669643D01*
X11928069Y5745618D02*
X11953394D01*
X11966057Y5732956D01*
Y5682305D01*
X11953394Y5669643D01*
X11928069D01*
X11915406Y5682305D01*
Y5732956D01*
X11928069Y5745618D01*
X11839431D02*
X11890081D01*
Y5669643D01*
X11839431D01*
X11890081Y5707630D02*
X11864756D01*
X12789125Y4945618D02*
X12763799D01*
X12776462D01*
Y4869643D01*
X12789125D01*
X12763799D01*
X12687824Y4945618D02*
X12713149D01*
X12725811Y4932956D01*
Y4882305D01*
X12713149Y4869643D01*
X12687824D01*
X12675161Y4882305D01*
Y4932956D01*
X12687824Y4945618D01*
X12599186Y4869643D02*
X12649836D01*
X12599186Y4920293D01*
Y4932956D01*
X12611848Y4945618D01*
X12637173D01*
X12649836Y4932956D01*
X12523210Y4869643D02*
X12573861D01*
X12523210Y4920293D01*
Y4932956D01*
X12535873Y4945618D01*
X12561198D01*
X12573861Y4932956D01*
X12497885Y4907630D02*
X12447235D01*
X12345934Y4869643D02*
Y4945618D01*
X12295284Y4869643D01*
Y4945618D01*
X12219308Y4869643D02*
X12269959D01*
X12219308Y4920293D01*
Y4932956D01*
X12231971Y4945618D01*
X12257296D01*
X12269959Y4932956D01*
X12193983Y4856980D02*
X12143333D01*
X12118008Y4869643D02*
Y4945618D01*
X12080020D01*
X12067357Y4932956D01*
Y4907630D01*
X12080020Y4894968D01*
X12118008D01*
X12092683D02*
X12067357Y4869643D01*
X11991382Y4932956D02*
X12004045Y4945618D01*
X12029370D01*
X12042032Y4932956D01*
Y4882305D01*
X12029370Y4869643D01*
X12004045D01*
X11991382Y4882305D01*
X11966057Y4945618D02*
Y4869643D01*
X11915406D01*
X11890081Y4945618D02*
Y4869643D01*
Y4894968D01*
X11839431Y4945618D01*
X11877419Y4907630D01*
X11839431Y4869643D01*
X12776462Y5941198D02*
X12751137D01*
X12763799D01*
Y5865223D01*
X12776462D01*
X12751137D01*
X12675161Y5941198D02*
X12700486D01*
X12713149Y5928536D01*
Y5877885D01*
X12700486Y5865223D01*
X12675161D01*
X12662499Y5877885D01*
Y5928536D01*
X12675161Y5941198D01*
X12637174Y5865223D02*
X12611849D01*
X12624511D01*
Y5941198D01*
X12637174Y5928536D01*
X12573861Y5941198D02*
X12523210D01*
Y5928536D01*
X12573861Y5877885D01*
Y5865223D01*
X12497885Y5903210D02*
X12447235D01*
X12345934Y5865223D02*
Y5941198D01*
X12307946D01*
X12295284Y5928536D01*
Y5903210D01*
X12307946Y5890548D01*
X12345934D01*
X12219308Y5865223D02*
X12269959D01*
X12219308Y5915873D01*
Y5928536D01*
X12231971Y5941198D01*
X12257296D01*
X12269959Y5928536D01*
X12193983Y5852560D02*
X12143333D01*
X12118008Y5865223D02*
Y5941198D01*
X12080020D01*
X12067357Y5928536D01*
Y5903210D01*
X12080020Y5890548D01*
X12118008D01*
X12092683D02*
X12067357Y5865223D01*
X11991382Y5928536D02*
X12004045Y5941198D01*
X12029370D01*
X12042032Y5928536D01*
Y5877885D01*
X12029370Y5865223D01*
X12004045D01*
X11991382Y5877885D01*
X11966057Y5941198D02*
Y5865223D01*
X11915406D01*
X11890081Y5941198D02*
Y5865223D01*
Y5890548D01*
X11839431Y5941198D01*
X11877419Y5903210D01*
X11839431Y5865223D01*
X12852438Y6145618D02*
X12827113D01*
X12839775D01*
Y6069643D01*
X12852438D01*
X12827113D01*
X12751137Y6145618D02*
X12776462D01*
X12789125Y6132956D01*
Y6082305D01*
X12776462Y6069643D01*
X12751137D01*
X12738474Y6082305D01*
Y6132956D01*
X12751137Y6145618D01*
X12713149Y6069643D02*
X12687824D01*
X12700486D01*
Y6145618D01*
X12713149Y6132956D01*
X12599186Y6145618D02*
X12624511Y6132956D01*
X12649836Y6107630D01*
Y6082305D01*
X12637173Y6069643D01*
X12611848D01*
X12599186Y6082305D01*
Y6094968D01*
X12611848Y6107630D01*
X12649836D01*
X12573861D02*
X12523210D01*
X12421910Y6069643D02*
Y6145618D01*
X12383922D01*
X12371259Y6132956D01*
Y6107630D01*
X12383922Y6094968D01*
X12421910D01*
X12295284Y6069643D02*
X12345934D01*
X12295284Y6120293D01*
Y6132956D01*
X12307946Y6145618D01*
X12333271D01*
X12345934Y6132956D01*
X12269959Y6056980D02*
X12219308D01*
X12143333Y6132956D02*
X12155996Y6145618D01*
X12181321D01*
X12193983Y6132956D01*
Y6120293D01*
X12181321Y6107630D01*
X12155996D01*
X12143333Y6094968D01*
Y6082305D01*
X12155996Y6069643D01*
X12181321D01*
X12193983Y6082305D01*
X12118008Y6069643D02*
Y6145618D01*
X12080020D01*
X12067357Y6132956D01*
Y6107630D01*
X12080020Y6094968D01*
X12118008D01*
X12092683D02*
X12067357Y6069643D01*
X11991382Y6132956D02*
X12004045Y6145618D01*
X12029370D01*
X12042032Y6132956D01*
Y6082305D01*
X12029370Y6069643D01*
X12004045D01*
X11991382Y6082305D01*
X11966057Y6145618D02*
Y6069643D01*
X11915406D01*
X11890081Y6145618D02*
Y6069643D01*
Y6094968D01*
X11839431Y6145618D01*
X11877419Y6107630D01*
X11839431Y6069643D01*
X12865100Y5345618D02*
X12839775D01*
X12852437D01*
Y5269642D01*
X12865100D01*
X12839775D01*
X12763799Y5345618D02*
X12789124D01*
X12801787Y5332956D01*
Y5282305D01*
X12789124Y5269642D01*
X12763799D01*
X12751137Y5282305D01*
Y5332956D01*
X12763799Y5345618D01*
X12675161Y5269642D02*
X12725811D01*
X12675161Y5320293D01*
Y5332956D01*
X12687824Y5345618D01*
X12713149D01*
X12725811Y5332956D01*
X12649836D02*
X12637173Y5345618D01*
X12611848D01*
X12599186Y5332956D01*
Y5282305D01*
X12611848Y5269642D01*
X12637173D01*
X12649836Y5282305D01*
Y5332956D01*
X12573861Y5307630D02*
X12523210D01*
X12421910Y5269642D02*
Y5345618D01*
X12371259Y5269642D01*
Y5345618D01*
X12295284Y5269642D02*
X12345934D01*
X12295284Y5320293D01*
Y5332956D01*
X12307946Y5345618D01*
X12333271D01*
X12345934Y5332956D01*
X12269959Y5256980D02*
X12219308D01*
X12143333Y5332956D02*
X12155996Y5345618D01*
X12181321D01*
X12193983Y5332956D01*
Y5320293D01*
X12181321Y5307630D01*
X12155996D01*
X12143333Y5294968D01*
Y5282305D01*
X12155996Y5269642D01*
X12181321D01*
X12193983Y5282305D01*
X12118008Y5269642D02*
Y5345618D01*
X12080020D01*
X12067357Y5332956D01*
Y5307630D01*
X12080020Y5294968D01*
X12118008D01*
X12092683D02*
X12067357Y5269642D01*
X11991382Y5332956D02*
X12004045Y5345618D01*
X12029370D01*
X12042032Y5332956D01*
Y5282305D01*
X12029370Y5269642D01*
X12004045D01*
X11991382Y5282305D01*
X11966057Y5345618D02*
Y5269642D01*
X11915406D01*
X11890081D02*
Y5345618D01*
X11852094D01*
X11839431Y5332956D01*
Y5307630D01*
X11852094Y5294968D01*
X11890081D01*
X11864756D02*
X11839431Y5269642D01*
X12068359Y9388082D02*
X12081022Y9400744D01*
X12106347D01*
X12119010Y9388082D01*
Y9337431D01*
X12106347Y9324769D01*
X12081022D01*
X12068359Y9337431D01*
X12043034Y9324769D02*
Y9375419D01*
X12017709Y9400744D01*
X11992384Y9375419D01*
Y9324769D01*
Y9362756D01*
X12043034D01*
X11967059Y9324769D02*
Y9400744D01*
X11929071D01*
X11916408Y9388082D01*
Y9362756D01*
X11929071Y9350094D01*
X11967059D01*
X11941734D02*
X11916408Y9324769D01*
X11891083Y9400744D02*
Y9324769D01*
X11853095D01*
X11840433Y9337431D01*
Y9388082D01*
X11853095Y9400744D01*
X11891083D01*
X11181267Y7894469D02*
X11168604Y7907132D01*
Y7932457D01*
X11181267Y7945120D01*
X11231917D01*
X11244580Y7932457D01*
Y7907132D01*
X11231917Y7894469D01*
X11206592D01*
Y7919795D01*
X11244580Y7869144D02*
X11168604D01*
X11244580Y7818494D01*
X11168604D01*
Y7793169D02*
X11244580D01*
Y7755181D01*
X11231917Y7742518D01*
X11181267D01*
X11168604Y7755181D01*
Y7793169D01*
X11269980Y6570980D02*
Y6545655D01*
Y6558317D01*
X11194004D01*
X11206667Y6570980D01*
X11269980Y6457016D02*
Y6507667D01*
X11219329Y6457016D01*
X11206667D01*
X11194004Y6469679D01*
Y6495004D01*
X11206667Y6507667D01*
X11194004Y6431691D02*
X11244655D01*
X11269980Y6406366D01*
X11244655Y6381041D01*
X11194004D01*
X11220113Y9286053D02*
X11232775Y9298715D01*
X11258100D01*
X11270763Y9286053D01*
Y9235403D01*
X11258100Y9222740D01*
X11232775D01*
X11220113Y9235403D01*
X11194788Y9222740D02*
Y9273390D01*
X11169463Y9298715D01*
X11144137Y9273390D01*
Y9222740D01*
Y9260728D01*
X11194788D01*
X11118812Y9222740D02*
Y9298715D01*
X11080824D01*
X11068162Y9286053D01*
Y9260728D01*
X11080824Y9248065D01*
X11118812D01*
X11093487D02*
X11068162Y9222740D01*
X11042837Y9298715D02*
Y9222740D01*
X11004849D01*
X10992186Y9235403D01*
Y9286053D01*
X11004849Y9298715D01*
X11042837D01*
D92*
X11321803Y6900073D02*
X11313473Y6908403D01*
X11296812D01*
X11288481Y6900073D01*
Y6891742D01*
X11296812Y6883411D01*
X11305142D01*
X11296812D01*
X11288481Y6875081D01*
Y6866750D01*
X11296812Y6858420D01*
X11313473D01*
X11321803Y6866750D01*
X11271820Y6908403D02*
Y6875081D01*
X11255159Y6858420D01*
X11238497Y6875081D01*
Y6908403D01*
X11221836Y6900073D02*
X11213505Y6908403D01*
X11196844D01*
X11188514Y6900073D01*
Y6891742D01*
X11196844Y6883411D01*
X11205175D01*
X11196844D01*
X11188514Y6875081D01*
Y6866750D01*
X11196844Y6858420D01*
X11213505D01*
X11221836Y6866750D01*
X11321803Y8266550D02*
Y8316533D01*
X11296812D01*
X11288481Y8308203D01*
Y8291541D01*
X11296812Y8283211D01*
X11321803D01*
X11271820Y8266550D02*
X11255159D01*
X11263489D01*
Y8316533D01*
X11271820Y8308203D01*
X11230167Y8258219D02*
X11196844D01*
X11146860Y8308203D02*
X11155191Y8316533D01*
X11171852D01*
X11180183Y8308203D01*
Y8299872D01*
X11171852Y8291541D01*
X11155191D01*
X11146860Y8283211D01*
Y8274880D01*
X11155191Y8266550D01*
X11171852D01*
X11180183Y8274880D01*
X11130199Y8266550D02*
Y8316533D01*
X11105207D01*
X11096877Y8308203D01*
Y8291541D01*
X11105207Y8283211D01*
X11130199D01*
X11113538D02*
X11096877Y8266550D01*
X11046893Y8308203D02*
X11055224Y8316533D01*
X11071885D01*
X11080216Y8308203D01*
Y8274880D01*
X11071885Y8266550D01*
X11055224D01*
X11046893Y8274880D01*
X11030232Y8316533D02*
Y8266550D01*
X10996909D01*
X10980248D02*
Y8316533D01*
X10955256D01*
X10946926Y8308203D01*
Y8291541D01*
X10955256Y8283211D01*
X10980248D01*
X10963587D02*
X10946926Y8266550D01*
X11321803Y8666550D02*
Y8716533D01*
X11296812D01*
X11288481Y8708203D01*
Y8691542D01*
X11296812Y8683211D01*
X11321803D01*
X11271820Y8666550D02*
X11255159D01*
X11263489D01*
Y8716533D01*
X11271820Y8708203D01*
X11230167Y8658219D02*
X11196844D01*
X11180183Y8666550D02*
Y8716533D01*
X11155191D01*
X11146860Y8708203D01*
Y8691542D01*
X11155191Y8683211D01*
X11180183D01*
X11163522D02*
X11146860Y8666550D01*
X11096877Y8708203D02*
X11105207Y8716533D01*
X11121869D01*
X11130199Y8708203D01*
Y8674881D01*
X11121869Y8666550D01*
X11105207D01*
X11096877Y8674881D01*
X11080216Y8716533D02*
Y8666550D01*
X11046893D01*
X11030232Y8716533D02*
Y8666550D01*
Y8683211D01*
X10996909Y8716533D01*
X11021901Y8691542D01*
X10996909Y8666550D01*
X11321803Y8470970D02*
Y8520953D01*
X11296812D01*
X11288481Y8512623D01*
Y8495962D01*
X11296812Y8487631D01*
X11321803D01*
X11271820Y8470970D02*
X11255159D01*
X11263489D01*
Y8520953D01*
X11271820Y8512623D01*
X11230167Y8462639D02*
X11196844D01*
X11146860Y8512623D02*
X11155191Y8520953D01*
X11171852D01*
X11180183Y8512623D01*
Y8504292D01*
X11171852Y8495962D01*
X11155191D01*
X11146860Y8487631D01*
Y8479301D01*
X11155191Y8470970D01*
X11171852D01*
X11180183Y8479301D01*
X11130199Y8470970D02*
Y8520953D01*
X11105207D01*
X11096877Y8512623D01*
Y8495962D01*
X11105207Y8487631D01*
X11130199D01*
X11113538D02*
X11096877Y8470970D01*
X11046893Y8512623D02*
X11055224Y8520953D01*
X11071885D01*
X11080216Y8512623D01*
Y8479301D01*
X11071885Y8470970D01*
X11055224D01*
X11046893Y8479301D01*
X11030232Y8520953D02*
Y8470970D01*
X10996909D01*
X10980248Y8520953D02*
Y8470970D01*
Y8487631D01*
X10946926Y8520953D01*
X10971918Y8495962D01*
X10946926Y8470970D01*
X11321803Y8870970D02*
Y8920953D01*
X11296812D01*
X11288481Y8912623D01*
Y8895962D01*
X11296812Y8887631D01*
X11321803D01*
X11271820Y8870970D02*
X11255159D01*
X11263489D01*
Y8920953D01*
X11271820Y8912623D01*
X11230167Y8862639D02*
X11196844D01*
X11180183Y8870970D02*
Y8904292D01*
X11155191D01*
X11146860Y8895962D01*
Y8870970D01*
X11105207Y8920953D02*
X11121869D01*
X11130199Y8912623D01*
Y8879301D01*
X11121869Y8870970D01*
X11105207D01*
X11096877Y8879301D01*
Y8912623D01*
X11105207Y8920953D01*
X11046893D02*
X11080216D01*
Y8870970D01*
X11046893D01*
X11080216Y8895962D02*
X11063554D01*
X11321803Y9066550D02*
Y9116533D01*
X11296812D01*
X11288481Y9108203D01*
Y9091542D01*
X11296812Y9083211D01*
X11321803D01*
X11271820Y9066550D02*
X11255159D01*
X11263489D01*
Y9116533D01*
X11271820Y9108203D01*
X11230167Y9058219D02*
X11196844D01*
X11146860Y9108203D02*
X11155191Y9116533D01*
X11171852D01*
X11180183Y9108203D01*
Y9099872D01*
X11171852Y9091542D01*
X11155191D01*
X11146860Y9083211D01*
Y9074881D01*
X11155191Y9066550D01*
X11171852D01*
X11180183Y9074881D01*
X11096877Y9116533D02*
X11130199D01*
Y9066550D01*
X11096877D01*
X11130199Y9091542D02*
X11113538D01*
X11080216Y9066550D02*
Y9116533D01*
X11055224D01*
X11046893Y9108203D01*
Y9091542D01*
X11055224Y9083211D01*
X11080216D01*
X11063554D02*
X11046893Y9066550D01*
X11321803Y6100024D02*
X11313473Y6108354D01*
X11296812D01*
X11288481Y6100024D01*
Y6091693D01*
X11296812Y6083362D01*
X11305142D01*
X11296812D01*
X11288481Y6075032D01*
Y6066701D01*
X11296812Y6058370D01*
X11313473D01*
X11321803Y6066701D01*
X11271820Y6108354D02*
Y6075032D01*
X11255159Y6058370D01*
X11238497Y6075032D01*
Y6108354D01*
X11221836Y6050040D02*
X11188514D01*
X11146861Y6058370D02*
X11163522D01*
X11171852Y6066701D01*
Y6083362D01*
X11163522Y6091693D01*
X11146861D01*
X11138530Y6083362D01*
Y6075032D01*
X11171852D01*
X11121869Y6058370D02*
Y6091693D01*
X11096877D01*
X11088546Y6083362D01*
Y6058370D01*
X11288481Y5917854D02*
X11321803D01*
Y5892862D01*
X11305142Y5901193D01*
X11296812D01*
X11288481Y5892862D01*
Y5876201D01*
X11296812Y5867870D01*
X11313473D01*
X11321803Y5876201D01*
X11271820Y5917854D02*
Y5884532D01*
X11255159Y5867870D01*
X11238497Y5884532D01*
Y5917854D01*
X11221836Y5859540D02*
X11188514D01*
X11146861Y5867870D02*
X11163522D01*
X11171852Y5876201D01*
Y5892862D01*
X11163522Y5901193D01*
X11146861D01*
X11138530Y5892862D01*
Y5884532D01*
X11171852D01*
X11121869Y5867870D02*
Y5901193D01*
X11096877D01*
X11088546Y5892862D01*
Y5867870D01*
X11321803Y5476710D02*
Y5526694D01*
X11305142Y5510033D01*
X11288481Y5526694D01*
Y5476710D01*
X11271820Y5526694D02*
Y5485041D01*
X11263489Y5476710D01*
X11246828D01*
X11238497Y5485041D01*
Y5526694D01*
X11221836D02*
X11188514Y5476710D01*
Y5526694D02*
X11221836Y5476710D01*
X11138530D02*
X11171852D01*
X11138530Y5510033D01*
Y5518364D01*
X11146861Y5526694D01*
X11163522D01*
X11171852Y5518364D01*
X11121869Y5468380D02*
X11088546D01*
X11071885Y5476710D02*
Y5510033D01*
X11055224Y5526694D01*
X11038563Y5510033D01*
Y5476710D01*
Y5501702D01*
X11071885D01*
X10988579Y5476710D02*
X11021902D01*
X10988579Y5510033D01*
Y5518364D01*
X10996910Y5526694D01*
X11013571D01*
X11021902Y5518364D01*
X11321803Y5664670D02*
Y5714654D01*
X11305142Y5697993D01*
X11288481Y5714654D01*
Y5664670D01*
X11271820Y5714654D02*
Y5673001D01*
X11263489Y5664670D01*
X11246828D01*
X11238497Y5673001D01*
Y5714654D01*
X11221836D02*
X11188514Y5664670D01*
Y5714654D02*
X11221836Y5664670D01*
X11138530D02*
X11171852D01*
X11138530Y5697993D01*
Y5706324D01*
X11146861Y5714654D01*
X11163522D01*
X11171852Y5706324D01*
X11121869Y5656340D02*
X11088546D01*
X11071885Y5664670D02*
Y5697993D01*
X11055224Y5714654D01*
X11038563Y5697993D01*
Y5664670D01*
Y5689662D01*
X11071885D01*
X11021902Y5664670D02*
X11005240D01*
X11013571D01*
Y5714654D01*
X11021902Y5706324D01*
X11321803Y5268430D02*
Y5318414D01*
X11305142Y5301753D01*
X11288481Y5318414D01*
Y5268430D01*
X11271820Y5318414D02*
Y5276761D01*
X11263489Y5268430D01*
X11246828D01*
X11238497Y5276761D01*
Y5318414D01*
X11221836D02*
X11188514Y5268430D01*
Y5318414D02*
X11221836Y5268430D01*
X11138530D02*
X11171852D01*
X11138530Y5301753D01*
Y5310084D01*
X11146861Y5318414D01*
X11163522D01*
X11171852Y5310084D01*
X11121869Y5260100D02*
X11088546D01*
X11071885Y5268430D02*
Y5301753D01*
X11055224Y5318414D01*
X11038563Y5301753D01*
Y5268430D01*
Y5293422D01*
X11071885D01*
X11021902Y5310084D02*
X11013571Y5318414D01*
X10996910D01*
X10988579Y5310084D01*
Y5276761D01*
X10996910Y5268430D01*
X11013571D01*
X11021902Y5276761D01*
Y5310084D01*
X11321803Y5072850D02*
Y5122834D01*
X11305142Y5106173D01*
X11288481Y5122834D01*
Y5072850D01*
X11271820Y5122834D02*
Y5081181D01*
X11263489Y5072850D01*
X11246828D01*
X11238497Y5081181D01*
Y5122834D01*
X11221836D02*
X11188514Y5072850D01*
Y5122834D02*
X11221836Y5072850D01*
X11138530D02*
X11171852D01*
X11138530Y5106173D01*
Y5114504D01*
X11146861Y5122834D01*
X11163522D01*
X11171852Y5114504D01*
X11121869Y5064520D02*
X11088546D01*
X11071885Y5072850D02*
Y5106173D01*
X11046893D01*
X11038563Y5097842D01*
Y5072850D01*
X10988579Y5122834D02*
X11021902D01*
Y5072850D01*
X10988579D01*
X11021902Y5097842D02*
X11005240D01*
X10971918Y5072850D02*
Y5122834D01*
X10938595Y5072850D01*
Y5122834D01*
X11288481Y4868940D02*
X11321803D01*
X11288481Y4902262D01*
Y4910593D01*
X11296812Y4918923D01*
X11313473D01*
X11321803Y4910593D01*
X11271820Y4877270D02*
X11263489Y4868940D01*
X11246828D01*
X11238497Y4877270D01*
Y4910593D01*
X11246828Y4918923D01*
X11263489D01*
X11271820Y4910593D01*
Y4902262D01*
X11263489Y4893932D01*
X11238497D01*
X11221836D02*
X11188514D01*
X11171852Y4918923D02*
Y4868940D01*
X11146861D01*
X11138530Y4877270D01*
Y4910593D01*
X11146861Y4918923D01*
X11171852D01*
X11121869Y4868940D02*
X11105208D01*
X11113538D01*
Y4918923D01*
X11121869Y4910593D01*
X11080216D02*
X11071885Y4918923D01*
X11055224D01*
X11046893Y4910593D01*
Y4877270D01*
X11055224Y4868940D01*
X11071885D01*
X11080216Y4877270D01*
Y4910593D01*
X11288481Y4460000D02*
X11321803D01*
X11288481Y4493322D01*
Y4501653D01*
X11296812Y4509983D01*
X11313473D01*
X11321803Y4501653D01*
X11271820Y4509983D02*
X11238497D01*
Y4501653D01*
X11271820Y4468330D01*
Y4460000D01*
X11221836Y4484992D02*
X11188514D01*
X11171852Y4509983D02*
Y4460000D01*
X11146861D01*
X11138530Y4468330D01*
Y4501653D01*
X11146861Y4509983D01*
X11171852D01*
X11121869Y4501653D02*
X11113538Y4509983D01*
X11096877D01*
X11088546Y4501653D01*
Y4493322D01*
X11096877Y4484992D01*
X11088546Y4476661D01*
Y4468330D01*
X11096877Y4460000D01*
X11113538D01*
X11121869Y4468330D01*
Y4476661D01*
X11113538Y4484992D01*
X11121869Y4493322D01*
Y4501653D01*
X11113538Y4484992D02*
X11096877D01*
X11288481Y4668280D02*
X11321803D01*
X11288481Y4701602D01*
Y4709933D01*
X11296812Y4718263D01*
X11313473D01*
X11321803Y4709933D01*
X11271820D02*
X11263489Y4718263D01*
X11246828D01*
X11238497Y4709933D01*
Y4701602D01*
X11246828Y4693272D01*
X11238497Y4684941D01*
Y4676610D01*
X11246828Y4668280D01*
X11263489D01*
X11271820Y4676610D01*
Y4684941D01*
X11263489Y4693272D01*
X11271820Y4701602D01*
Y4709933D01*
X11263489Y4693272D02*
X11246828D01*
X11221836D02*
X11188514D01*
X11171852Y4718263D02*
Y4668280D01*
X11146861D01*
X11138530Y4676610D01*
Y4709933D01*
X11146861Y4718263D01*
X11171852D01*
X11121869Y4676610D02*
X11113538Y4668280D01*
X11096877D01*
X11088546Y4676610D01*
Y4709933D01*
X11096877Y4718263D01*
X11113538D01*
X11121869Y4709933D01*
Y4701602D01*
X11113538Y4693272D01*
X11088546D01*
X11288481Y4261880D02*
X11321803D01*
X11288481Y4295202D01*
Y4303533D01*
X11296812Y4311863D01*
X11313473D01*
X11321803Y4303533D01*
X11238497Y4311863D02*
X11255159Y4303533D01*
X11271820Y4286872D01*
Y4270210D01*
X11263489Y4261880D01*
X11246828D01*
X11238497Y4270210D01*
Y4278541D01*
X11246828Y4286872D01*
X11271820D01*
X11221836D02*
X11188514D01*
X11171852Y4311863D02*
Y4261880D01*
X11146861D01*
X11138530Y4270210D01*
Y4303533D01*
X11146861Y4311863D01*
X11171852D01*
X11121869D02*
X11088546D01*
Y4303533D01*
X11121869Y4270210D01*
Y4261880D01*
X11321803Y7321763D02*
Y7271780D01*
X11296812D01*
X11288481Y7280110D01*
Y7313433D01*
X11296812Y7321763D01*
X11321803D01*
X11271820Y7271780D02*
Y7305102D01*
X11255159Y7321763D01*
X11238497Y7305102D01*
Y7271780D01*
Y7296772D01*
X11271820D01*
X11188514Y7313433D02*
X11196844Y7321763D01*
X11213505D01*
X11221836Y7313433D01*
Y7280110D01*
X11213505Y7271780D01*
X11196844D01*
X11188514Y7280110D01*
X11321803Y7058420D02*
Y7091742D01*
X11305142Y7108403D01*
X11288481Y7091742D01*
Y7058420D01*
Y7083412D01*
X11321803D01*
X11271820Y7108403D02*
Y7058420D01*
X11246828D01*
X11238497Y7066750D01*
Y7100073D01*
X11246828Y7108403D01*
X11271820D01*
X11188514Y7100073D02*
X11196844Y7108403D01*
X11213505D01*
X11221836Y7100073D01*
Y7066750D01*
X11213505Y7058420D01*
X11196844D01*
X11188514Y7066750D01*
%TF.MD5,0f7d1938218f574b8a95af34cb34eb90*%
M02*
