%TF.GenerationSoftware,Altium Limited,Altium Designer,23.2.1 (34)*%
G04 Layer_Physical_Order=6*
G04 Layer_Color=16711680*
%FSLAX45Y45*%
%MOMM*%
%TF.SameCoordinates,C170FB48-CBA5-4DC5-83A8-8A264B0792BE*%
%TF.FilePolarity,Positive*%
%TF.FileFunction,Copper,L6,Bot,Signal*%
%TF.Part,Single*%
G01*
G75*
%TA.AperFunction,SMDPad,CuDef*%
%ADD10R,0.85872X0.91213*%
%ADD11R,0.52000X0.52000*%
%ADD13R,0.55000X0.55000*%
%ADD14R,0.91213X0.85872*%
%ADD16R,0.55000X0.55000*%
%ADD43R,0.80650X0.86822*%
%ADD44R,0.86822X0.80650*%
%ADD45R,0.52000X0.52000*%
%TA.AperFunction,Conductor*%
%ADD47C,0.30000*%
%ADD48C,0.50000*%
%ADD49C,0.17000*%
%ADD50C,0.25000*%
%ADD51C,0.40000*%
%ADD52C,0.60000*%
%ADD54C,0.12700*%
%TA.AperFunction,ComponentPad*%
%ADD56C,1.72500*%
%ADD57R,1.72500X1.72500*%
%ADD58C,1.40000*%
%ADD59R,1.40000X1.40000*%
%ADD60R,1.72500X1.72500*%
%ADD61R,1.40000X1.40000*%
%ADD62R,1.50000X1.50000*%
%ADD63C,1.50000*%
%ADD64R,1.65000X1.65000*%
%ADD65C,1.65000*%
%ADD66C,1.15000*%
%ADD67C,1.44600*%
%ADD68C,1.53000*%
%ADD69C,2.35500*%
%ADD70C,1.62500*%
%ADD71C,1.80000*%
%ADD72C,0.27500*%
%TA.AperFunction,ViaPad*%
%ADD73C,0.55000*%
%ADD74C,0.50000*%
%TA.AperFunction,SMDPad,CuDef*%
%ADD75R,1.50000X1.30000*%
%ADD76R,1.84600X2.15000*%
%ADD77R,1.40000X0.45000*%
%ADD78R,2.20000X1.55000*%
%ADD79R,0.70000X0.65000*%
G04:AMPARAMS|DCode=80|XSize=0.55mm|YSize=1.25mm|CornerRadius=0.0495mm|HoleSize=0mm|Usage=FLASHONLY|Rotation=0.000|XOffset=0mm|YOffset=0mm|HoleType=Round|Shape=RoundedRectangle|*
%AMROUNDEDRECTD80*
21,1,0.55000,1.15100,0,0,0.0*
21,1,0.45100,1.25000,0,0,0.0*
1,1,0.09900,0.22550,-0.57550*
1,1,0.09900,-0.22550,-0.57550*
1,1,0.09900,-0.22550,0.57550*
1,1,0.09900,0.22550,0.57550*
%
%ADD80ROUNDEDRECTD80*%
%TA.AperFunction,Conductor*%
%ADD81C,0.50800*%
D10*
X12172329Y3575000D02*
D03*
X12327671D02*
D03*
X16475510Y10792460D02*
D03*
X16630852D02*
D03*
D11*
X14889999Y5320000D02*
D03*
Y5240000D02*
D03*
D13*
X16543021Y10433600D02*
D03*
Y10343600D02*
D03*
X16545560Y10608860D02*
D03*
Y10518860D02*
D03*
D14*
X16805524Y4072329D02*
D03*
Y4227671D02*
D03*
X19800000D02*
D03*
Y4072329D02*
D03*
X18801842Y4227671D02*
D03*
Y4072329D02*
D03*
X17803682Y4227671D02*
D03*
Y4072329D02*
D03*
X15807364Y4227671D02*
D03*
Y4072329D02*
D03*
X14809206Y4227671D02*
D03*
Y4072329D02*
D03*
X13811046Y4227670D02*
D03*
Y4072329D02*
D03*
X12812888Y4227671D02*
D03*
Y4072329D02*
D03*
X20525000Y3500000D02*
D03*
Y3344659D02*
D03*
X19526842Y3500000D02*
D03*
Y3344659D02*
D03*
X18528682Y3500000D02*
D03*
Y3344659D02*
D03*
X17530524Y3500000D02*
D03*
Y3344659D02*
D03*
X16532364Y3500000D02*
D03*
Y3344659D02*
D03*
X15534206Y3500000D02*
D03*
Y3344659D02*
D03*
X14536046Y3500000D02*
D03*
Y3344659D02*
D03*
X13537888Y3500000D02*
D03*
Y3344659D02*
D03*
D16*
X12355010Y4179999D02*
D03*
X12445010D02*
D03*
X12355010Y4304999D02*
D03*
X12445010D02*
D03*
X18578281Y10388600D02*
D03*
X18668280D02*
D03*
D43*
X17132300Y10253980D02*
D03*
X17007129D02*
D03*
D44*
X15050301Y5207914D02*
D03*
Y5333086D02*
D03*
D45*
X18526120Y9555480D02*
D03*
X18446120D02*
D03*
D47*
X13193961Y7133307D02*
X13596098D01*
X12360654Y6300001D02*
X13193961Y7133307D01*
X13596098D02*
X13767833Y7305040D01*
X13636314Y7307129D02*
X13705345Y7376160D01*
X12377682Y6500000D02*
X13184811Y7307129D01*
X13636314D01*
X11649999Y6500000D02*
X12377682D01*
X13705345Y7376160D02*
X16081773D01*
X11649999Y6300001D02*
X12360654D01*
X12140001Y5100000D02*
X13479439Y6439439D01*
X13810561D01*
X13539999Y6350000D02*
X14000000D01*
X11649999Y4900001D02*
X12090000D01*
X13539999Y6350000D01*
X11649999Y5100000D02*
X12140001D01*
X12573660Y5153660D02*
X13716660Y6296660D01*
X12501880Y5153660D02*
X12573660D01*
X11649999Y4700001D02*
X12270001D01*
X13820000Y6250000D01*
X11760098Y4610100D02*
X12370100D01*
X13957600Y6197600D02*
X14222021D01*
X12370100Y4610100D02*
X13957600Y6197600D01*
X12600940Y4660940D02*
X14081720Y6141720D01*
X12600940Y4152900D02*
Y4660940D01*
X14081720Y6141720D02*
X14320520D01*
X17133740Y10418220D02*
X17216980D01*
X17258211Y10376989D01*
X17554198Y9850000D02*
X17791138Y10086939D01*
X15544800Y9918700D02*
X15613499Y9850000D01*
X17554198D01*
X11740000Y3900000D02*
X11799860Y3959860D01*
X11740000Y3703669D02*
X11818452Y3625217D01*
X11740000Y3703669D02*
Y3900000D01*
X11818452Y3625217D02*
X11885217D01*
X11865217Y3734783D02*
X11870000Y3730000D01*
X11864220Y3792648D02*
X11865217Y3791652D01*
X11864220Y3817500D02*
X11915525Y3868805D01*
X11865217Y3734783D02*
Y3791652D01*
X11864220Y3792648D02*
Y3817500D01*
X11885217Y3625217D02*
X11890000Y3630000D01*
X11915525Y3868805D02*
X12316845D01*
X11799860Y3959860D02*
X12245340D01*
X18605872Y4482729D02*
X18801839Y4286761D01*
X18577271Y4482729D02*
X18605872D01*
X18570000Y4490000D02*
X18577271Y4482729D01*
X18801839Y4227672D02*
Y4286761D01*
X13811020Y9951720D02*
X14114780D01*
X13320799Y10441940D02*
X13811020Y9951720D01*
X13256261Y10441940D02*
X13320799D01*
X18751500Y5390000D02*
X18952998Y5591498D01*
X18570000Y5390000D02*
X18751500D01*
X14903085Y5333086D02*
X15123921D01*
X15274992Y5484157D01*
X15321577D01*
X15326360Y5488940D01*
X12451080Y3449320D02*
X12680000Y3678240D01*
Y4320000D02*
X13419679Y5059680D01*
X12680000Y3678240D02*
Y4320000D01*
X13419679Y5059680D02*
X13619479D01*
X13994453Y4614453D02*
X14126753D01*
X13682565Y4302565D02*
X13994453Y4614453D01*
X14126753D02*
X14147800Y4635500D01*
X13682565Y3072566D02*
Y4302565D01*
X13500000Y2890000D02*
X13682565Y3072566D01*
X11610000Y2890000D02*
X13500000D01*
X13342583Y4087948D02*
Y4122583D01*
X13186511Y3966511D02*
X13235107Y4015108D01*
X13949680Y4729680D02*
Y5885180D01*
X13342583Y4122583D02*
X13949680Y4729680D01*
X13235107Y4015108D02*
X13269743D01*
X13342583Y4087948D01*
X13114989Y3966511D02*
X13186511D01*
X11400000Y3100000D02*
X11610000Y2890000D01*
X14889999Y5320000D02*
X14903085Y5333086D01*
X14362093Y6068060D02*
X14541499Y6247468D01*
X14132561Y6068060D02*
X14362093D01*
X14541499Y6247468D02*
Y6344920D01*
X13338843Y6785643D02*
X13822372D01*
X12253201Y5700001D02*
X13338843Y6785643D01*
X13270226Y6894825D02*
X13808005D01*
X12275401Y5900001D02*
X13270226Y6894825D01*
X13212781Y6984700D02*
X13662276D01*
X13919116Y7241540D02*
X16131540D01*
X13662276Y6984700D02*
X13919116Y7241540D01*
X12881696Y7856220D02*
X12946040Y7920565D01*
X14046484D02*
X14110831Y7856220D01*
X12946040Y7920565D02*
X14046484D01*
X14110831Y7856220D02*
X14678661D01*
X12875259D02*
X12881696D01*
X12319041Y7300001D02*
X12875259Y7856220D01*
X11649999Y7300001D02*
X12319041D01*
X14175763Y9004818D02*
X14208266Y9037320D01*
X11967962Y9004818D02*
X14175763D01*
X11872779Y9100001D02*
X11967962Y9004818D01*
X14762480Y9037320D02*
X14932660Y8867140D01*
X14208266Y9037320D02*
X14762480D01*
X14146115Y9077960D02*
X14152879D01*
X14123254Y9100820D02*
X14146115Y9077960D01*
X12748260Y9100820D02*
X14123254D01*
X12610803Y9238277D02*
X12748260Y9100820D01*
X12509203Y9238277D02*
X12610803D01*
X12504420Y9243060D02*
X12509203Y9238277D01*
X14746210Y8930640D02*
X15076408Y8600440D01*
X11727572Y8930640D02*
X14746210D01*
X11719894Y8922961D02*
X11727572Y8930640D01*
X11649999Y8900000D02*
X11672959Y8922961D01*
X11719894D01*
X14274800Y9984740D02*
Y10434320D01*
X14114780Y10594340D02*
X14274800Y10434320D01*
X15430499Y10175240D02*
X15617290Y9988450D01*
X15430499Y10175240D02*
Y10439400D01*
X15617290Y9988450D02*
X16230086D01*
X16236536Y9994900D02*
X16243300D01*
X16230086Y9988450D02*
X16236536Y9994900D01*
X16691380Y9982640D02*
X16691820Y9982200D01*
X16679120Y9994900D02*
X16691380Y9982640D01*
X16243300Y9994900D02*
X16679120D01*
X17126241Y10425720D02*
X17133740Y10418220D01*
X17126241Y10425720D02*
X17132300Y10419660D01*
X16472435Y10688855D02*
Y10789385D01*
X16469360Y10685780D02*
X16472435Y10688855D01*
Y10789385D02*
X16475510Y10792460D01*
X13949680Y5885180D02*
X14132561Y6068060D01*
X13842815Y7768000D02*
X13899065D01*
X12461941Y7100001D02*
X13136700Y7774760D01*
X13836055D01*
X13905824D02*
X14470560D01*
X13836055D02*
X13842815Y7768000D01*
X13899065D02*
X13905824Y7774760D01*
X14451567Y7571740D02*
X16156940D01*
X14291248Y7732060D02*
X14451567Y7571740D01*
X13205460Y7655560D02*
X14151373D01*
X14227873Y7732060D01*
X12449900Y6900000D02*
X13205460Y7655560D01*
X15310185Y8968740D02*
X15332866Y8991420D01*
X15000208Y8968740D02*
X15310185D01*
X15332866Y8991420D02*
X15399840D01*
X14994827Y8963360D02*
X15000208Y8968740D01*
X14931453Y8963360D02*
X14994827D01*
X15707175Y8940120D02*
X15979324D01*
X15986266Y8933180D01*
X16026927D02*
X16121010Y8839097D01*
X15986266Y8933180D02*
X16026927D01*
X15335013D02*
X15700235D01*
X15268973Y8867140D02*
X15335013Y8933180D01*
X15700235D02*
X15707175Y8940120D01*
X15399840Y8991420D02*
X15476221Y9067800D01*
X14932660Y8867140D02*
X15268973D01*
X13878419Y9573260D02*
X14321553D01*
X14931453Y8963360D01*
X15076408Y8600440D02*
X15902940D01*
X16103600Y8399780D01*
X15938776Y9070000D02*
X15949275Y9080500D01*
X15770000Y9070000D02*
X15938776D01*
X15949275Y9080500D02*
X16111285D01*
X16121010Y8839097D02*
X16126231D01*
X11200000Y9396600D02*
X11290300Y9486900D01*
X11200000Y8949999D02*
Y9396600D01*
Y8949999D02*
X11449998Y8700001D01*
X11300000Y9049999D02*
X11449998Y8900000D01*
X11300000Y9331500D02*
X11391900Y9423400D01*
X11300000Y9049999D02*
Y9331500D01*
X10990580Y9491980D02*
X11150600Y9652000D01*
X10990580Y8719820D02*
Y9491980D01*
Y8719820D02*
X11376396Y8334004D01*
X16197946Y8036560D02*
X16223346Y8061960D01*
X16225520D01*
X15115540Y8036560D02*
X16197946D01*
X14765021Y8387080D02*
X15115540Y8036560D01*
X16160513Y8105140D02*
X16193832Y8138460D01*
X14790421Y8486140D02*
X15171420Y8105140D01*
X16160513D01*
X15133321Y8262620D02*
X16329660D01*
X16353773Y8286733D01*
X14810741Y8585200D02*
X15133321Y8262620D01*
X16353773Y8286733D02*
Y8314673D01*
X16357600Y8318500D01*
X16193832Y8138460D02*
X16257207D01*
X16285728Y8134790D02*
X16314499Y8163560D01*
X16260876Y8134790D02*
X16285728D01*
X16257207Y8138460D02*
X16260876Y8134790D01*
X11995041Y8500001D02*
X12080240Y8585200D01*
X14810741D01*
X11722093Y8677040D02*
X11727572Y8671560D01*
X14864079D02*
X15214600Y8321040D01*
X11649999Y8700001D02*
X11672959Y8677040D01*
X11722093D01*
X11727572Y8671560D02*
X14864079D01*
X14058900Y9207500D02*
Y9268460D01*
X11188700Y9563100D02*
X13764259D01*
X14058900Y9268460D01*
X13524467Y9652000D02*
X13799680D01*
X13878419Y9573260D01*
X13460493Y9652000D02*
X13460793Y9651700D01*
X11150600Y9652000D02*
X13460493D01*
X13524167Y9651700D02*
X13524467Y9652000D01*
X13460793Y9651700D02*
X13524167D01*
X11557000Y9347200D02*
X12920979D01*
X13065759Y9202420D01*
X11391900Y9423400D02*
X13073380D01*
X13296899Y9199880D01*
X11290300Y9486900D02*
X13172440D01*
X13441679Y9217660D01*
X12445505Y4305492D02*
Y4419105D01*
X12446000Y4419600D01*
X12445011Y4304997D02*
X12445505Y4305492D01*
X11877620Y4508500D02*
X12161682Y4224438D01*
X11871960Y4508500D02*
X11877620D01*
X12161682Y4224438D02*
X12171682D01*
X11649999Y4500001D02*
X11760098Y4610100D01*
X12327670Y3574998D02*
Y3577669D01*
X12362105Y3612105D01*
X12415745D01*
X12473940Y3670300D01*
X12245340Y3959860D02*
X12420208Y4134728D01*
Y4155195D01*
X12445011Y4179997D01*
X12316845Y3868805D02*
X12600940Y4152900D01*
X12445011Y4179997D02*
Y4304997D01*
X14320520Y6141720D02*
X14419279Y6240480D01*
Y6245228D01*
X14442439Y6268388D01*
X13027660Y4053840D02*
X13114989Y3966511D01*
X11206480Y3637280D02*
X11394440Y3449320D01*
X12451080D01*
X11206480Y3637280D02*
Y4456482D01*
X11449998Y4700001D01*
X19718851Y8290560D02*
X19759410Y8250000D01*
X16828532Y8290560D02*
X19718851D01*
X16765033Y8354060D02*
X16828532Y8290560D01*
X19759410Y8250000D02*
X19800000D01*
X16154401Y8923020D02*
X16202361Y8875060D01*
X16203867D02*
X16248680Y8830247D01*
Y8828740D02*
X16723360Y8354060D01*
X16202361Y8875060D02*
X16203867D01*
X16248680Y8828740D02*
Y8830247D01*
X16723360Y8354060D02*
X16765033D01*
X16111285Y9080500D02*
X16606586Y8585200D01*
X19635152D02*
X19799995Y8750044D01*
X16606586Y8585200D02*
X19635152D01*
X11649999Y9100001D02*
X11872779D01*
X16166768Y8798560D02*
X16172180D01*
X16126231Y8839097D02*
X16166768Y8798560D01*
X14442439Y6268388D02*
Y6273800D01*
X12229480Y7500000D02*
X12763500Y8034020D01*
X14138673D01*
X11649999Y7500000D02*
X12229480D01*
X16228059Y8321040D02*
X16289020Y8382000D01*
X15214600Y8321040D02*
X16228059D01*
X11449998Y9240198D02*
X11557000Y9347200D01*
X11449998Y9100001D02*
Y9240198D01*
X11378841Y8334004D02*
X11412845Y8300000D01*
X11376396Y8334004D02*
X11378841D01*
X11412845Y8300000D02*
X11449998D01*
X11087100Y8862899D02*
X11449998Y8500001D01*
X11087100Y8862899D02*
Y9461500D01*
X11188700Y9563100D01*
X16314499Y8163560D02*
X16380460D01*
X12094760Y8300000D02*
X12280900Y8486140D01*
X14790421D01*
X11649999Y8300000D02*
X12094760D01*
X11649999Y8500001D02*
X11995041D01*
X12198341Y7700001D02*
X12646660Y8148320D01*
X13779500D01*
X13843300Y8212120D01*
X13687228Y8272780D02*
X13715169Y8300720D01*
X12192600Y7900000D02*
X12565380Y8272780D01*
X13687228D01*
X11649999Y8100001D02*
X12176701D01*
X12463780Y8387080D01*
X14765021D01*
X11649999Y7900000D02*
X12192600D01*
X11649999Y7700001D02*
X12198341D01*
X15052040Y7973060D02*
X16304260D01*
X14724380Y8300720D02*
X15052040Y7973060D01*
X16136620Y7894320D02*
X16218787D01*
X16131540Y7889240D02*
X16136620Y7894320D01*
X16352895Y7817820D02*
X16353975Y7818900D01*
X14884700Y7817820D02*
X16352895D01*
X16215359Y7736840D02*
X16217900Y7734300D01*
X14798039Y7736840D02*
X16215359D01*
X16123209Y7665720D02*
X16156229Y7632700D01*
X16334740D01*
X13715169Y8300720D02*
X14724380D01*
X13843300Y8212120D02*
X14663120D01*
X14986000Y7889240D02*
X16131540D01*
X14663120Y8212120D02*
X14986000Y7889240D01*
X14668500Y8034020D02*
X14884700Y7817820D01*
X14319487Y8034020D02*
X14668500D01*
X14260767Y7975300D02*
X14319487Y8034020D01*
X14138673D02*
X14197392Y7975300D01*
X14260767D01*
X14678661Y7856220D02*
X14798039Y7736840D01*
X14579601Y7665720D02*
X16123209D01*
X14470560Y7774760D02*
X14579601Y7665720D01*
X11649999Y5900001D02*
X12275401D01*
X12328081Y6100000D02*
X13212781Y6984700D01*
X11649999Y6100000D02*
X12328081D01*
X12417541Y6700001D02*
X13218159Y7500620D01*
X11649999Y6700001D02*
X12417541D01*
X13218159Y7500620D02*
X13703848D01*
X11649999Y7100001D02*
X12461941D01*
X11649999Y6900000D02*
X12449900D01*
X16173433Y7555247D02*
X16198833D01*
X16202660Y7551420D01*
X16156940Y7571740D02*
X16173433Y7555247D01*
X16081773Y7376160D02*
X16089394Y7383780D01*
X16207739D01*
X16135333Y7237747D02*
X16198833D01*
X16131540Y7241540D02*
X16135333Y7237747D01*
X16198833D02*
X16202660Y7233920D01*
X13767833Y7305040D02*
X16057208D01*
X14227873Y7732060D02*
X14291248D01*
X13703848Y7500620D02*
X13734328Y7470140D01*
X16105643D01*
X11649999Y5700001D02*
X12253201D01*
X12166236Y5300001D02*
X13416235Y6550000D01*
X13800000D01*
X11649999Y5500000D02*
X12216236D01*
X13366235Y6650000D01*
X13750000D01*
X11649999Y5300001D02*
X12166236D01*
X17803680Y4227672D02*
Y4342701D01*
X17599782Y4546600D02*
X17803680Y4342701D01*
X17525999Y4546600D02*
X17599782D01*
X18826840Y4250002D02*
X19024838D01*
X17828680D02*
X18026678D01*
D48*
X11780260Y10619740D02*
X12732551D01*
X12910352Y10441940D02*
X13256261D01*
X12732551Y10619740D02*
X12910352Y10441940D01*
X16729044Y10623220D02*
Y10719043D01*
X16753203Y10710000D02*
X16880000D01*
Y10549459D02*
X16906239Y10523220D01*
X16880000Y10549459D02*
Y10710000D01*
X16728647Y10720000D02*
X16730000D01*
X16648787Y10771853D02*
X16676794D01*
X16728647Y10720000D01*
X16729044Y10719043D02*
X16730000Y10720000D01*
X16726544Y10620720D02*
X16729044Y10623220D01*
X16630852Y10745671D02*
Y10792460D01*
X16686240Y10620720D02*
X16726544D01*
X16805521Y3937698D02*
Y4072330D01*
X16717693Y4220892D02*
X16798743D01*
X16675101Y4178300D02*
X16717693Y4220892D01*
X16804823Y3937000D02*
X16805521Y3937698D01*
X16798743Y4220892D02*
X16805521Y4227672D01*
X16548061Y10662880D02*
X16630852Y10745671D01*
X13289883Y4131274D02*
Y4250002D01*
X13241618Y4083008D02*
X13289883Y4131274D01*
X15284869Y4068909D02*
Y4248669D01*
X11300000Y11100000D02*
X11780260Y10619740D01*
X16632640Y10297520D02*
X16688879Y10241280D01*
X16691380D01*
X16632640Y10297520D02*
Y10343600D01*
X17737061Y10164839D02*
X17835161D01*
X17571719Y10330180D02*
X17737061Y10164839D01*
X17835161D02*
X18100000Y9900000D01*
X16548061Y10611360D02*
Y10662880D01*
X16545560Y10608860D02*
X16548061Y10611360D01*
X16691380Y9982640D02*
Y10241280D01*
X16831380Y10334060D02*
X16857980Y10360660D01*
Y10333000D02*
Y10360660D01*
Y10333000D02*
X16927164Y10263817D01*
X16997292D02*
X17007129Y10253980D01*
X16927164Y10263817D02*
X16997292D01*
X16857980Y10360660D02*
Y10474961D01*
X16831380Y10248780D02*
Y10334060D01*
X16823880Y10241280D02*
X16831380Y10248780D01*
X16857980Y10474961D02*
X16906239Y10523220D01*
X16821381Y10241280D02*
X16823880D01*
X16662399Y10423220D02*
X16664900Y10425720D01*
X16662399Y10373360D02*
Y10423220D01*
X16664900Y10425720D02*
X16686240D01*
X16632640Y10343600D02*
X16662399Y10373360D01*
X16543021Y10343600D02*
X16632640D01*
X16332201Y10370820D02*
X16359419Y10343600D01*
X16543021D01*
X17126241Y10555720D02*
X17268626D01*
X17283347Y10541000D01*
X17284700D01*
X18526120Y9555480D02*
X18552161Y9529440D01*
Y9351093D02*
Y9529440D01*
Y9558020D02*
Y9699380D01*
Y9351093D02*
X18577560Y9325693D01*
Y9324340D02*
Y9325693D01*
X15284869Y4248669D02*
X15286201Y4250002D01*
X12837886D02*
X13035884D01*
X12812885Y4227672D02*
X12830206Y4244994D01*
X12842894D01*
X12154392Y3595605D02*
X12172328Y3577669D01*
X12076195Y3595605D02*
X12154392D01*
X12070080Y3601720D02*
X12076195Y3595605D01*
X12172328Y3574998D02*
Y3577669D01*
X12400000Y3100000D02*
Y3106121D01*
X12171682Y3324440D02*
X12181682D01*
X12400000Y3106121D01*
X11899999Y3306757D02*
X11917682Y3324440D01*
X11899999Y3100001D02*
Y3306757D01*
X16289264Y4064000D02*
X16322040Y4096776D01*
X16284361Y4250000D02*
X16322040Y4212322D01*
Y4096776D02*
Y4212322D01*
X15286201Y3349998D02*
X15291106Y3354901D01*
Y3543300D01*
X14834204Y4250002D02*
X15032202D01*
X14809203Y3937698D02*
Y4072330D01*
X14808505Y3937000D02*
X14809203Y3937698D01*
X14896318Y3100004D02*
X14921191Y3124878D01*
Y3238988D01*
X14795805Y4356100D02*
X14809203Y4342701D01*
Y4227672D02*
Y4342701D01*
X15396318Y3100004D02*
X15534206Y3237891D01*
Y3344659D01*
X15519705Y3514500D02*
Y3632200D01*
Y3514500D02*
X15534206Y3500000D01*
X14921191Y3238988D02*
X14982202Y3299998D01*
Y3309998D02*
X15022202Y3349998D01*
X15032202D01*
X14982202Y3299998D02*
Y3309998D01*
X12842894Y4244994D02*
X12953999Y4356100D01*
X13820609Y4237235D02*
Y4295608D01*
X13893800Y4368800D01*
X13811044Y4227672D02*
X13820609Y4237235D01*
X18801141Y3937000D02*
X18801839Y3937698D01*
Y4072330D01*
X19014839Y3349998D02*
X19024838D01*
X18974838Y3309998D02*
X19014839Y3349998D01*
X18913829Y3238988D02*
X18974838Y3299998D01*
Y3309998D01*
X18888954Y3100004D02*
X18913829Y3124878D01*
Y3238988D01*
X19278839Y4068902D02*
Y4250002D01*
Y4068902D02*
X19283742Y4064000D01*
Y3354901D02*
Y3543300D01*
X19278839Y3349998D02*
X19283742Y3354901D01*
X19512341Y3514500D02*
X19526842Y3500000D01*
X19512341Y3514500D02*
Y3632200D01*
X19526842Y3237891D02*
Y3344659D01*
X19388954Y3100004D02*
X19526842Y3237891D01*
X17802982Y3937000D02*
X17803680Y3937698D01*
Y4072330D01*
X18016679Y3349998D02*
X18026678D01*
X17976678Y3309998D02*
X18016679Y3349998D01*
X17915669Y3238988D02*
X17976678Y3299998D01*
Y3309998D01*
X17890794Y3100004D02*
X17915669Y3124878D01*
Y3238988D01*
X18280679Y4068902D02*
Y4250002D01*
Y4068902D02*
X18285582Y4064000D01*
Y3354901D02*
Y3543300D01*
X18280679Y3349998D02*
X18285582Y3354901D01*
X18514182Y3514500D02*
X18528682Y3500000D01*
X18514182Y3514500D02*
Y3632200D01*
X18528682Y3237891D02*
Y3344659D01*
X18390794Y3100004D02*
X18528682Y3237891D01*
X17018520Y3349998D02*
X17028520D01*
X16978520Y3309998D02*
X17018520Y3349998D01*
X16917509Y3238988D02*
X16978520Y3299998D01*
Y3309998D01*
X16892636Y3100004D02*
X16917509Y3124878D01*
Y3238988D01*
X16830522Y4250002D02*
X17028520D01*
X17282520Y4068902D02*
Y4250002D01*
Y4068902D02*
X17287424Y4064000D01*
Y3354901D02*
Y3543300D01*
X17282520Y3349998D02*
X17287424Y3354901D01*
X17516023Y3514500D02*
X17530524Y3500000D01*
X17516023Y3514500D02*
Y3632200D01*
X17530524Y3237891D02*
Y3344659D01*
X17392636Y3100004D02*
X17530524Y3237891D01*
X15806664Y3937000D02*
X15807362Y3937698D01*
Y4072330D01*
X16020361Y3349998D02*
X16030360D01*
X15980360Y3309998D02*
X16020361Y3349998D01*
X15919351Y3238988D02*
X15980360Y3299998D01*
Y3309998D01*
X15894476Y3100004D02*
X15919351Y3124878D01*
Y3238988D01*
X15832362Y4250002D02*
X16030360D01*
X16289264Y3354901D02*
Y3543300D01*
X16284361Y3349998D02*
X16289264Y3354901D01*
X16517863Y3514500D02*
X16532364Y3500000D01*
X16517863Y3514500D02*
Y3632200D01*
X16532364Y3237891D02*
Y3344659D01*
X16394476Y3100004D02*
X16532364Y3237891D01*
X13810345Y3937000D02*
X13811044Y3937698D01*
Y4072330D01*
X14024043Y3349998D02*
X14034042D01*
X13984042Y3309998D02*
X14024043Y3349998D01*
X13923033Y3238988D02*
X13984042Y3299998D01*
Y3309998D01*
X13898158Y3100004D02*
X13923033Y3124878D01*
Y3238988D01*
X13836044Y4250002D02*
X14034042D01*
X14288043Y4068902D02*
Y4250002D01*
Y4068902D02*
X14292946Y4064000D01*
Y3354901D02*
Y3543300D01*
X14288043Y3349998D02*
X14292946Y3354901D01*
X14521545Y3514500D02*
X14536046Y3500000D01*
X14521545Y3514500D02*
Y3632200D01*
X14536046Y3237891D02*
Y3344659D01*
X14398158Y3100004D02*
X14536046Y3237891D01*
X12812187Y3937000D02*
X12812885Y3937698D01*
Y4072330D01*
X13025883Y3349998D02*
X13035884D01*
X12985884Y3309998D02*
X13025883Y3349998D01*
X12924873Y3238988D02*
X12985884Y3299998D01*
Y3309998D01*
X12900000Y3100004D02*
X12924873Y3124878D01*
Y3238988D01*
X13294788Y3354901D02*
Y3543300D01*
X13289883Y3349998D02*
X13294788Y3354901D01*
X13523387Y3514500D02*
X13537888Y3500000D01*
X13523387Y3514500D02*
Y3632200D01*
X13537888Y3237891D02*
Y3344659D01*
X13400000Y3100004D02*
X13537888Y3237891D01*
X19786600Y4356100D02*
X19799998Y4342701D01*
Y4227672D02*
Y4342701D01*
X20276997Y4068902D02*
Y4250002D01*
Y4068902D02*
X20281900Y4064000D01*
X19972997Y3309998D02*
X20012997Y3349998D01*
X19972997Y3299998D02*
Y3309998D01*
X19911987Y3124878D02*
Y3238988D01*
X20012997Y3349998D02*
X20022998D01*
X19911987Y3238988D02*
X19972997Y3299998D01*
X19887112Y3100004D02*
X19911987Y3124878D01*
X20387112Y3100004D02*
X20525000Y3237891D01*
Y3344659D01*
X20510500Y3514500D02*
X20525000Y3500000D01*
X20510500Y3514500D02*
Y3632200D01*
X20281900Y3354901D02*
Y3543300D01*
X20276997Y3349998D02*
X20281900Y3354901D01*
X19799998Y3937698D02*
Y4072330D01*
X19799300Y3937000D02*
X19799998Y3937698D01*
X19824998Y4250002D02*
X20022998D01*
X18668280Y10388600D02*
Y10592520D01*
X18663921Y10596880D02*
X18668280Y10592520D01*
D49*
X13810561Y6439439D02*
X13820000Y6430000D01*
X14133820D02*
X14627621Y6923801D01*
X13820000Y6430000D02*
X14133820D01*
X13716660Y6296660D02*
X14155420D01*
X13820000Y6250000D02*
X14174800D01*
X17302480Y10154920D02*
Y10297160D01*
Y10154920D02*
X17399001Y10058400D01*
X17386301Y10223500D02*
X17462500D01*
X17627600Y10058400D01*
X14650752Y4274853D02*
Y4324402D01*
X15405099Y5078749D02*
Y5613400D01*
X14650752Y4324402D02*
X15405099Y5078749D01*
X14965704Y4197552D02*
X15018152Y4250000D01*
X14951688Y4133787D02*
Y4179484D01*
X14965704Y4193502D01*
X14947900Y4130000D02*
X14951688Y4133787D01*
X14965704Y4193502D02*
Y4197552D01*
X15018152Y4250000D02*
X15032202D01*
X15017097Y4038600D02*
X15164668Y4186171D01*
Y4725269D02*
X15506700Y5067300D01*
X15164668Y4186171D02*
Y4725269D01*
X14947900Y4038600D02*
X15017097D01*
X14462242Y9825238D02*
X15202249Y9085231D01*
Y9067451D02*
X15209520Y9060180D01*
X15202249Y9067451D02*
Y9085231D01*
X18627499Y5945240D02*
X18798102D01*
X18521642D02*
X18627499D01*
X18639999Y5932740D01*
Y5860000D02*
Y5932740D01*
X18627499Y5860000D02*
X18639999D01*
X18372287Y5851040D02*
X18505489Y5984240D01*
X18544540Y5993862D02*
Y6219568D01*
X18544331Y6219777D02*
X18544540Y6219568D01*
X15181709Y5011710D02*
Y5294850D01*
X15187801Y5300940D01*
X15180000Y5010000D02*
X15181709Y5011710D01*
X14862431Y5524500D02*
X15199361D01*
X14710564Y5372632D02*
X14862431Y5524500D01*
X15295880Y5593080D02*
X15754201Y6051400D01*
X14063980Y5593080D02*
X15295880D01*
X14279880Y5676900D02*
X15278101D01*
X15741685Y6140486D01*
X14409419Y5740400D02*
X15265401D01*
X14404340Y5745480D02*
X14409419Y5740400D01*
X14541499Y5816600D02*
X15267940D01*
X15582899Y6131560D01*
X18376900Y7602220D02*
X18648680Y7330440D01*
X19916141D01*
X19987260Y7401560D01*
Y7477760D01*
X15652901Y6127900D02*
Y6282801D01*
X15265401Y5740400D02*
X15652901Y6127900D01*
X14265572Y6702879D02*
X14553236Y6990544D01*
X13988562Y6550000D02*
X14141441Y6702879D01*
X14265572D01*
X13800000Y6550000D02*
X13988562D01*
X16259206Y6939317D02*
X16274722Y6923801D01*
X16189726Y6939317D02*
X16259206D01*
X16174210Y6923801D02*
X16189726Y6939317D01*
X14148729Y7112000D02*
X16114397D01*
X13822372Y6785643D02*
X14148729Y7112000D01*
X13808005Y6894825D02*
X14075980Y7162800D01*
X16366637D01*
X13216060Y9890320D02*
X14140213D01*
X11379200Y10515600D02*
X12590780D01*
X13216060Y9890320D01*
X13071289Y9825238D02*
X14462242D01*
X12628880Y10267647D02*
Y10271760D01*
X11564620Y10447020D02*
X12453620D01*
X12628880Y10271760D01*
Y10267647D02*
X13071289Y9825238D01*
X11252200Y10134600D02*
X11564620Y10447020D01*
X11252200Y10388600D02*
X11379200Y10515600D01*
X14140213Y9890320D02*
X14150813Y9900920D01*
X14564360D02*
X15349220Y9116060D01*
X14150813Y9900920D02*
X14564360D01*
X13870940Y9654540D02*
X13964920D01*
X13792200Y9733280D02*
X13870940Y9654540D01*
X16545560Y10518860D02*
X16573700Y10490720D01*
X16686240D01*
X16294504Y10482176D02*
X16343080Y10433600D01*
X16543021D01*
X16294504Y10482176D02*
Y10554104D01*
X16375380Y10515600D02*
X16542300D01*
X16545560Y10518860D01*
X16294504Y10554104D02*
X16357600Y10617200D01*
X16238220Y10167620D02*
Y10594340D01*
X16128999Y10058400D02*
X16238220Y10167620D01*
X16733521Y5791498D02*
Y5808887D01*
Y5791498D02*
X16743478Y5781539D01*
X16783823D01*
X16790182Y5775179D01*
Y5745499D02*
Y5775179D01*
X16783823Y5739139D02*
X16790182Y5745499D01*
X16694913Y5739139D02*
X16783823D01*
X16688551Y5732779D02*
X16694913Y5739139D01*
X16688551Y5703099D02*
Y5732779D01*
Y5703099D02*
X16694913Y5696739D01*
X16783823D01*
X16790182Y5690380D01*
Y5660699D02*
Y5690380D01*
X16783823Y5654339D02*
X16790182Y5660699D01*
X16694913Y5654339D02*
X16783823D01*
X16688551Y5647980D02*
X16694913Y5654339D01*
X16688551Y5618299D02*
Y5647980D01*
Y5618299D02*
X16694913Y5611939D01*
X16783823D01*
X16790182Y5605580D01*
Y5575899D02*
Y5605580D01*
X16783823Y5569540D02*
X16790182Y5575899D01*
X16694913Y5569540D02*
X16783823D01*
X16688551Y5563180D02*
X16694913Y5569540D01*
X16688551Y5533499D02*
Y5563180D01*
Y5533499D02*
X16694913Y5527140D01*
X16783823D01*
X16790182Y5520780D01*
Y5491100D02*
Y5520780D01*
X16783823Y5484740D02*
X16790182Y5491100D01*
X16694913Y5484740D02*
X16783823D01*
X16688551Y5478380D02*
X16694913Y5484740D01*
X16688551Y5448700D02*
Y5478380D01*
Y5448700D02*
X16694913Y5442340D01*
X16783823D01*
X16790182Y5435980D01*
Y5406300D02*
Y5435980D01*
X16783823Y5399940D02*
X16790182Y5406300D01*
X16694913Y5399940D02*
X16783823D01*
X16688551Y5393580D02*
X16694913Y5399940D01*
X16688551Y5363900D02*
Y5393580D01*
Y5363900D02*
X16694913Y5357540D01*
X16723563D01*
X16733521Y5347581D01*
Y5339080D02*
Y5347581D01*
X16438879Y5572760D02*
X16485840Y5619720D01*
X16506160D02*
X16558260Y5671820D01*
X16485840Y5619720D02*
X16506160D01*
X16337215Y5720080D02*
X16398383Y5781247D01*
Y5793882D02*
X16466820Y5862320D01*
X16398383Y5781247D02*
Y5793882D01*
X16113760Y5720080D02*
X16337215D01*
X17330420Y6608701D02*
Y6624320D01*
X17340379Y6598742D02*
X17500423D01*
X14848367Y6791960D02*
X17162781D01*
X17330420Y6624320D01*
Y6608701D02*
X17340379Y6598742D01*
X14765021Y6708612D02*
X14848367Y6791960D01*
X14765021Y6700520D02*
Y6708612D01*
X17010381Y6725920D02*
X17012920Y6728460D01*
X14869160Y6725920D02*
X17010381D01*
X14866620Y6723380D02*
X14869160Y6725920D01*
X17500423Y6598742D02*
X17503140Y6601460D01*
X16232481Y6654800D02*
X16266161D01*
X16222311Y6644630D02*
X16232481Y6654800D01*
X16222311Y6627393D02*
Y6644630D01*
X16212141Y6617223D02*
X16222311Y6627393D01*
X16164680Y6617223D02*
X16212141D01*
X16154510Y6627393D02*
X16164680Y6617223D01*
X16154510Y6627393D02*
Y6666433D01*
X16144341Y6676603D02*
X16154510Y6666433D01*
X16096881Y6676603D02*
X16144341D01*
X16086711Y6666433D02*
X16096881Y6676603D01*
X16086711Y6664970D02*
Y6666433D01*
X16076541Y6654800D02*
X16086711Y6664970D01*
X16068040Y6654800D02*
X16076541D01*
X16266161D02*
X16974820D01*
X15689580D02*
X16068040D01*
X15582899Y6131560D02*
Y6299200D01*
X16279221Y6923801D02*
X16357722Y6845300D01*
X16274722Y6923801D02*
X16279221D01*
X14627621D02*
X16174210D01*
X16221542Y6875062D02*
X16224466D01*
X13750000Y6650000D02*
X13810260D01*
X14208760Y7048500D02*
X16098500D01*
X13810260Y6650000D02*
X14208760Y7048500D01*
X13497560Y9344660D02*
Y9403080D01*
Y9344660D02*
X13604240Y9237980D01*
X13926820D01*
X13383260Y9733280D02*
X13792200D01*
X14155420Y6296660D02*
X14437360Y6578600D01*
X15335400D01*
X15420340Y6663540D01*
X12355008Y4179997D02*
Y4304997D01*
X12279651Y4104640D02*
X12355008Y4179997D01*
X12047480Y4104640D02*
X12279651D01*
X11927682Y4224438D02*
X12047480Y4104640D01*
X11917682Y4224438D02*
X11927682D01*
X14564360Y6154420D02*
Y6162040D01*
X14706599Y6304280D01*
Y6311900D01*
X14222021Y6197600D02*
X14488722Y6464300D01*
X14168120Y5976620D02*
X14558665D01*
X14566286Y5969000D02*
X14947900D01*
X14558665Y5976620D02*
X14566286Y5969000D01*
X16974820Y6654800D02*
X17216119Y6413500D01*
X16311880Y7470140D02*
X16314420Y7467600D01*
X16057208Y7305040D02*
X16324580D01*
X16105643Y7470140D02*
X16311880D01*
X14150000Y6350000D02*
X14650000Y6850000D01*
X16196481D01*
X14000000Y6350000D02*
X14150000D01*
X16196481Y6850000D02*
X16221542Y6875062D01*
X16357722Y6845300D02*
X16572318D01*
X16576105Y6527800D02*
X16582605Y6534300D01*
X16649699D01*
X14174800Y6250000D02*
X14452600Y6527800D01*
X16649699Y6534300D02*
X16668600Y6553200D01*
X14452600Y6527800D02*
X16576105D01*
X16668600Y6553200D02*
X16725900D01*
X16114397Y7112000D02*
X16120247Y7117850D01*
X16098500Y7048500D02*
X16100000Y7050000D01*
X16572318Y6845300D02*
X16600557Y6873539D01*
X16840199D01*
X14488722Y6464300D02*
X16611600D01*
X15303500Y6172200D02*
Y6235700D01*
X15024100Y5892800D02*
X15303500Y6172200D01*
X14262100Y5892800D02*
X15024100D01*
X15214600Y6235700D02*
Y6324600D01*
X14947900Y5969000D02*
X15214600Y6235700D01*
X15741685Y6140486D02*
Y6229386D01*
X15748000Y6235700D01*
X15652901Y6282801D02*
X15683249Y6313151D01*
X15754201Y6051400D02*
Y6099595D01*
X15795206Y6140600D01*
X15798466D01*
X15824200Y6166334D01*
Y6172200D01*
X15793845Y6031315D02*
X15824200Y6061670D01*
Y6070600D01*
X15793845Y6002144D02*
Y6031315D01*
X15405099Y5613400D02*
X15793845Y6002144D01*
X16069800Y6214600D02*
X16069800D01*
X15506700Y5067300D02*
Y5651500D01*
X16069800Y6214600D01*
X16069800D02*
X16135387Y6280186D01*
X15557500Y4953000D02*
Y5638800D01*
X16103600Y6184900D02*
X16178741D01*
X15557500Y5638800D02*
X16103600Y6184900D01*
X15697200Y4965700D02*
Y5715000D01*
X16116299Y6134100D02*
X16256000D01*
X15697200Y5715000D02*
X16116299Y6134100D01*
X15811501Y4940300D02*
Y5778500D01*
X15925800Y5892800D02*
X16179800D01*
X15811501Y5778500D02*
X15925800Y5892800D01*
X16135387Y6280186D02*
Y6309356D01*
X16190762Y6199633D02*
X16217900Y6226770D01*
X16190762Y6196921D02*
Y6199633D01*
X16217900Y6226770D02*
Y6235700D01*
X16178741Y6184900D02*
X16190762Y6196921D01*
X16179800Y5892800D02*
X16306799Y6019800D01*
X15595599Y4724400D02*
X15811501Y4940300D01*
X15595599Y4123737D02*
Y4724400D01*
Y4123737D02*
X15651364Y4067973D01*
X15506700Y4775200D02*
X15697200Y4965700D01*
X15506700Y4074277D02*
Y4775200D01*
Y4074277D02*
X15556306Y4024669D01*
X15405099Y4800600D02*
X15557500Y4953000D01*
X15405099Y4076882D02*
Y4800600D01*
Y4076882D02*
X15497183Y3984798D01*
Y3960219D02*
X15503497Y3953904D01*
X15497183Y3960219D02*
Y3984798D01*
X15684500Y3886200D02*
X15722600Y3924300D01*
Y4142909D01*
X15770256Y4190565D01*
X15804692Y4227672D02*
X15807362D01*
X15770256Y4193236D02*
X15804692Y4227672D01*
X15770256Y4190565D02*
Y4193236D01*
X16027400Y10354270D02*
Y10363200D01*
X15999950Y10056350D02*
Y10326820D01*
X16027400Y10354270D01*
X15741991Y10280991D02*
X15748000Y10287000D01*
X15741991Y10255591D02*
Y10280991D01*
X15697200Y10058400D02*
Y10210800D01*
X15741991Y10255591D01*
X15786099Y10058400D02*
Y10147300D01*
X15849600Y10210800D01*
X16733521Y5808887D02*
Y6129020D01*
Y5312198D02*
Y5339080D01*
X16756380Y5285740D02*
Y5289338D01*
X16733521Y5312198D02*
X16756380Y5289338D01*
X16857980Y5204460D02*
Y6014785D01*
Y5204460D02*
X16957040Y5105400D01*
X16838780Y6033985D02*
Y6091975D01*
Y6033985D02*
X16857980Y6014785D01*
X16838780Y6091975D02*
X16889880Y6143075D01*
Y6196480D01*
X15934654Y5800054D02*
X16241994D01*
X16393159Y5951220D01*
X15928340Y5793740D02*
X15934654Y5800054D01*
X17216119Y6413500D02*
X17454880D01*
X16393159Y5951220D02*
X16469360D01*
X17929860Y6055360D02*
X18044160Y6169660D01*
Y6360160D01*
X18554163Y5984240D02*
X18602837D01*
X18505489D02*
X18554163D01*
X18544540Y5993862D02*
X18554163Y5984240D01*
X18833296Y5965199D02*
X18878699Y5919797D01*
X18833296Y5965199D02*
Y6058944D01*
X18824817Y6067423D02*
X18833296Y6058944D01*
X18799376Y6067423D02*
X18824817D01*
X18790897Y6058944D02*
X18799376Y6067423D01*
X18790897Y5992720D02*
Y6058944D01*
X18782417Y5984240D02*
X18790897Y5992720D01*
X18756976Y5984240D02*
X18782417D01*
X18748495Y5992720D02*
X18756976Y5984240D01*
X18748495Y5992720D02*
Y6058944D01*
X18740018Y6067423D02*
X18748495Y6058944D01*
X18714577Y6067423D02*
X18740018D01*
X18706096Y6058944D02*
X18714577Y6067423D01*
X18706096Y5992720D02*
Y6058944D01*
X18697617Y5984240D02*
X18706096Y5992720D01*
X18672176Y5984240D02*
X18697617D01*
X18663696Y5992720D02*
X18672176Y5984240D01*
X18663696Y5992720D02*
Y6058944D01*
X18655217Y6067423D02*
X18663696Y6058944D01*
X18629776Y6067423D02*
X18655217D01*
X18621297Y6058944D02*
X18629776Y6067423D01*
X18621297Y5994198D02*
Y6058944D01*
X18611337Y5984240D02*
X18621297Y5994198D01*
X18602837Y5984240D02*
X18611337D01*
X18878699Y5919797D02*
X18885797Y5912698D01*
X18388441Y5812040D02*
X18521642Y5945240D01*
X18131512Y5799940D02*
X18143613Y5812040D01*
X18110077Y5869940D02*
X18128976Y5851040D01*
X18372287D01*
X18102519Y5869940D02*
X18110077D01*
X18143613Y5812040D02*
X18388441D01*
X18110077Y5781040D02*
X18128976Y5799940D01*
X18102519Y5781040D02*
X18110077D01*
X18128976Y5799940D02*
X18131512D01*
X18950607Y5697699D02*
X18996986D01*
X18846797Y5801509D02*
X18950607Y5697699D01*
X18798102Y5945240D02*
X18846797Y5896544D01*
X18942824Y5845499D02*
X18952997D01*
X18846797Y5801509D02*
Y5896544D01*
X18885797Y5902525D02*
Y5912698D01*
Y5902525D02*
X18942824Y5845499D01*
X18996986Y5697699D02*
X19206998Y5487688D01*
Y5464499D02*
Y5487688D01*
D50*
X14860001Y9340000D02*
X14950000Y9250000D01*
Y9150000D02*
Y9250000D01*
D51*
X14841220Y5080000D02*
X14919299D01*
X15047214Y5207914D01*
X16500000Y8900000D02*
X16780136D01*
X17579517Y9699380D02*
X18298160D01*
X16780136Y8900000D02*
X17579517Y9699380D01*
X15047214Y5207914D02*
X15050301D01*
X14922086D02*
X15047214D01*
X14889999Y5240000D02*
X14922086Y5207914D01*
X18845779Y7513320D02*
X18954999Y7404100D01*
X19580820D02*
X19848810Y7672090D01*
X18954999Y7404100D02*
X19580820D01*
X18841721Y7513320D02*
X18845779D01*
X18308392Y8813873D02*
X18679160Y9184640D01*
X16521298Y8813873D02*
X18308392D01*
X17176241Y10706694D02*
X17183099Y10713554D01*
X17176241Y10623220D02*
Y10706694D01*
X17183099Y10713554D02*
Y10716260D01*
X17173740Y10620720D02*
X17176241Y10623220D01*
X17126241Y10620720D02*
X17173740D01*
X17101820Y9982200D02*
X17132300Y10012680D01*
Y10250894D01*
Y10253980D02*
Y10419660D01*
X17607280Y5836041D02*
X17679700Y5908461D01*
X17607280Y5008880D02*
Y5836041D01*
Y5008880D02*
X18187669Y4428490D01*
X18403571D01*
X18669000Y4163060D01*
Y2527300D02*
Y4163060D01*
X17607280Y6195155D02*
Y6865620D01*
X17679700Y5908461D02*
Y6122735D01*
X17607280Y6195155D02*
X17679700Y6122735D01*
X17221201Y7251700D02*
X17607280Y6865620D01*
X18679160Y9184640D02*
Y9699380D01*
X17132300Y7251700D02*
X17221201D01*
X17346300Y7342500D02*
X17805400Y6883400D01*
X17159599Y7342500D02*
X17346300D01*
X17805400Y5906458D02*
Y6883400D01*
Y5772462D02*
X18637563Y4940300D01*
X17805180Y5906238D02*
X17805400Y5906458D01*
Y5772462D02*
Y5838502D01*
X17805180Y5838722D02*
X17805400Y5838502D01*
X17805180Y5838722D02*
Y5906238D01*
X18503900Y2362200D02*
X18669000Y2527300D01*
X11285613Y2362200D02*
X18503900D01*
X18637563Y4940300D02*
X18999200D01*
X19659599Y4279900D01*
Y2501900D02*
Y4279900D01*
X19405600Y2247900D02*
X19659599Y2501900D01*
X11214100Y2247900D02*
X19405600D01*
X11125200Y2522613D02*
X11285613Y2362200D01*
X11030305Y2431695D02*
X11214100Y2247900D01*
X11125200Y5575202D02*
X11449998Y5900001D01*
X11125200Y2522613D02*
Y5575202D01*
X11030305Y2431695D02*
Y5680307D01*
X11449998Y6100000D01*
X17157700Y7340600D02*
X17159599Y7342500D01*
D52*
X18428964Y10008876D02*
X18559779Y9878060D01*
X18428964Y10008876D02*
Y10220576D01*
X18425160Y10224380D02*
Y10254380D01*
X18552161Y10149840D02*
X18694400Y10007600D01*
X18552161Y10149840D02*
Y10224380D01*
X18694400Y10007600D02*
X19557600D01*
X19800000Y10250000D01*
X18559779Y9878060D02*
X19649440D01*
X19777499Y9750000D02*
X19800000D01*
X19649440Y9878060D02*
X19777499Y9750000D01*
X18409920Y10269620D02*
X18425160Y10254380D01*
X18409920Y10269620D02*
Y10596880D01*
X18554660Y10226880D02*
Y10364980D01*
X18578281Y10388600D01*
X18552161Y10224380D02*
X18554660Y10226880D01*
D54*
X14553236Y6990544D02*
X16224336D01*
X16230247Y6996455D01*
X16350320D02*
X16427660Y6919116D01*
X16230247Y6996455D02*
X16350320D01*
X16224750Y7117850D02*
X16243300Y7099300D01*
X16397778D01*
X16120247Y7117850D02*
X16224750D01*
X16397778Y7099300D02*
X16428957Y7068122D01*
X16100000Y7050000D02*
X16200000D01*
D56*
X16393159Y4546600D02*
D03*
X16139160D02*
D03*
X11252200Y9880600D02*
D03*
Y10134600D02*
D03*
X19848810Y7672090D02*
D03*
X19594810D02*
D03*
X16167101Y9253220D02*
D03*
X15913100D02*
D03*
X16164560Y9540240D02*
D03*
X15910561D02*
D03*
D57*
X15885159Y4546600D02*
D03*
X19340810Y7672090D02*
D03*
X15659100Y9253220D02*
D03*
X15656560Y9540240D02*
D03*
D58*
X15232381Y9725660D02*
D03*
X18046700Y6939279D02*
D03*
X18966182Y6695439D02*
D03*
X19260823Y6951980D02*
D03*
X18671539Y6697979D02*
D03*
X18409920Y10596880D02*
D03*
X14147800Y4927600D02*
D03*
Y4635500D02*
D03*
D59*
X15232381Y9471660D02*
D03*
X18966182Y6949439D02*
D03*
X19260823Y6697980D02*
D03*
X18671539Y6951979D02*
D03*
D60*
X11252200Y10388600D02*
D03*
D61*
X18300699Y6939279D02*
D03*
X18663921Y10596880D02*
D03*
X14401801Y4927600D02*
D03*
Y4635500D02*
D03*
D62*
X11649999Y4300001D02*
D03*
D63*
X11449998D02*
D03*
X11649999Y4500001D02*
D03*
X11449998D02*
D03*
X11649999Y4700001D02*
D03*
X11449998D02*
D03*
X11649999Y4900001D02*
D03*
X11449998D02*
D03*
X11649999Y5100000D02*
D03*
X11449998D02*
D03*
X11649999Y5300001D02*
D03*
X11449998D02*
D03*
X11649999Y5500000D02*
D03*
X11449998D02*
D03*
X11649999Y5700001D02*
D03*
X11449998D02*
D03*
X11649999Y5900001D02*
D03*
X11449998D02*
D03*
X11649999Y6100000D02*
D03*
X11449998D02*
D03*
X11649999Y6300001D02*
D03*
X11449998D02*
D03*
X11649999Y6500000D02*
D03*
X11449998D02*
D03*
X11649999Y6700001D02*
D03*
X11449998D02*
D03*
X11649999Y6900000D02*
D03*
X11449998D02*
D03*
X11649999Y7100001D02*
D03*
X11449998D02*
D03*
X11649999Y7300001D02*
D03*
X11449998D02*
D03*
X11649999Y7500000D02*
D03*
X11449998D02*
D03*
X11649999Y7700001D02*
D03*
X11449998D02*
D03*
X11649999Y7900000D02*
D03*
X11449998D02*
D03*
X11649999Y8100001D02*
D03*
X11449998D02*
D03*
X11649999Y8300000D02*
D03*
X11449998D02*
D03*
X11649999Y8500001D02*
D03*
X11449998D02*
D03*
X11649999Y8700001D02*
D03*
X11449998D02*
D03*
X11649999Y8900000D02*
D03*
X11449998D02*
D03*
X11649999Y9100001D02*
D03*
X11449998D02*
D03*
D64*
X16419200Y11747080D02*
D03*
X18566440Y11750000D02*
D03*
X14277341Y11747500D02*
D03*
D65*
X16419200Y11493080D02*
D03*
X16165199Y11747080D02*
D03*
Y11493080D02*
D03*
X15911200Y11747080D02*
D03*
Y11493080D02*
D03*
X15657201Y11747080D02*
D03*
Y11493080D02*
D03*
X15403200Y11747080D02*
D03*
Y11493080D02*
D03*
X18566440Y11496000D02*
D03*
X18312440Y11750000D02*
D03*
Y11496000D02*
D03*
X18058440Y11750000D02*
D03*
Y11496000D02*
D03*
X17804440Y11750000D02*
D03*
Y11496000D02*
D03*
X17550439Y11750000D02*
D03*
Y11496000D02*
D03*
X14277341Y11493500D02*
D03*
X14023340Y11747500D02*
D03*
Y11493500D02*
D03*
X13769341Y11747500D02*
D03*
Y11493500D02*
D03*
X13515340Y11747500D02*
D03*
Y11493500D02*
D03*
X13261340Y11747500D02*
D03*
Y11493500D02*
D03*
D66*
X16837660Y9243060D02*
D03*
X16710660D02*
D03*
X16837660Y9370060D02*
D03*
X16710660D02*
D03*
X16837660Y9497060D02*
D03*
X16710660D02*
D03*
X16837660Y9624060D02*
D03*
X16710660D02*
D03*
X16837660Y9751060D02*
D03*
X16710660D02*
D03*
X11912600Y9817100D02*
D03*
X11785600D02*
D03*
X11912600Y9944100D02*
D03*
X11785600D02*
D03*
X11912600Y10071100D02*
D03*
X11785600D02*
D03*
X11912600Y10198100D02*
D03*
X11785600D02*
D03*
X11912600Y10325100D02*
D03*
X11785600D02*
D03*
D67*
X18952998Y6099498D02*
D03*
X19206998Y5972498D02*
D03*
X18952998Y5845498D02*
D03*
X19206998Y5718498D02*
D03*
X18952998Y5591498D02*
D03*
X19206998Y5464498D02*
D03*
X18952998Y5337498D02*
D03*
X19206998Y5210498D02*
D03*
D68*
X20096999Y4974998D02*
D03*
X20299998D02*
D03*
X20096999Y6334998D02*
D03*
X20299998D02*
D03*
D69*
X19537000Y4867498D02*
D03*
Y6442498D02*
D03*
D70*
X19841998Y5083498D02*
D03*
Y6226498D02*
D03*
D71*
X19799998Y10750002D02*
D03*
X20299998D02*
D03*
X19799997Y11250002D02*
D03*
X20299998D02*
D03*
X19799998Y9250002D02*
D03*
X20299998D02*
D03*
X20387115Y3100002D02*
D03*
Y2600002D02*
D03*
X19388956Y3100002D02*
D03*
Y2600002D02*
D03*
X18390797Y3100002D02*
D03*
Y2600002D02*
D03*
X17392638Y3100002D02*
D03*
Y2600002D02*
D03*
X16394479Y3100002D02*
D03*
Y2600002D02*
D03*
X15396320Y3100002D02*
D03*
Y2600002D02*
D03*
X14398161Y3100000D02*
D03*
Y2600000D02*
D03*
X13400002Y3100002D02*
D03*
Y2600002D02*
D03*
X19887115Y3100002D02*
D03*
Y2600002D02*
D03*
X18888956Y3100002D02*
D03*
Y2600002D02*
D03*
X17890797Y3100002D02*
D03*
Y2600002D02*
D03*
X16892638Y3100002D02*
D03*
Y2600002D02*
D03*
X15894479Y3100002D02*
D03*
Y2600002D02*
D03*
X14896320Y3100002D02*
D03*
Y2600002D02*
D03*
X13898161Y3099999D02*
D03*
Y2599999D02*
D03*
X12900002Y3100002D02*
D03*
Y2600002D02*
D03*
X11900000Y3100000D02*
D03*
Y2600000D02*
D03*
X12400002Y3099998D02*
D03*
Y2599998D02*
D03*
X19800000Y10250000D02*
D03*
X20300000D02*
D03*
X19800000Y9750000D02*
D03*
X20300000D02*
D03*
X19800000Y11750000D02*
D03*
X20300000D02*
D03*
X19800000Y8250000D02*
D03*
X20300000D02*
D03*
X19799995Y8750044D02*
D03*
X20299995D02*
D03*
X11300000Y11100000D02*
D03*
Y11600000D02*
D03*
X11400000Y3100000D02*
D03*
Y2600000D02*
D03*
X12300000Y11100000D02*
D03*
Y11600000D02*
D03*
X11800000Y11100000D02*
D03*
Y11600000D02*
D03*
D72*
X20386600Y7002602D02*
D03*
Y7402603D02*
D03*
D73*
X11870000Y3730000D02*
D03*
X11890000Y3630000D02*
D03*
X18570000Y4490000D02*
D03*
X14560001Y8860000D02*
D03*
X14748241Y6108869D02*
D03*
X14860001Y9340000D02*
D03*
X18639999Y5860000D02*
D03*
X18544331Y6219777D02*
D03*
X17920000Y8930000D02*
D03*
X18570000Y5390000D02*
D03*
X16880000Y10710000D02*
D03*
X16730000Y10720000D02*
D03*
X15187801Y5300940D02*
D03*
X15180000Y5010000D02*
D03*
X20549994Y11699996D02*
D03*
X20399994Y11399997D02*
D03*
X20549994Y11099997D02*
D03*
Y10499997D02*
D03*
Y9899997D02*
D03*
X20399994Y9599997D02*
D03*
X20549994Y9299997D02*
D03*
X20399994Y8999997D02*
D03*
X20549994Y8699997D02*
D03*
X20399994Y8399997D02*
D03*
X20549994Y8099998D02*
D03*
X20399994Y7799998D02*
D03*
Y6599998D02*
D03*
Y5999998D02*
D03*
Y5399998D02*
D03*
X20549994Y5099998D02*
D03*
X20399994Y4799999D02*
D03*
X20549994Y4499999D02*
D03*
Y3899999D02*
D03*
X20399994Y3599999D02*
D03*
X20549994Y2699999D02*
D03*
X20399994Y2399999D02*
D03*
X20099994Y11399997D02*
D03*
X20249994Y11099997D02*
D03*
Y10499997D02*
D03*
Y9899997D02*
D03*
X20099994Y9599997D02*
D03*
Y8999997D02*
D03*
Y8399997D02*
D03*
X20249994Y8099998D02*
D03*
X20099994Y7799998D02*
D03*
X20249994Y6899998D02*
D03*
X20099994Y5999998D02*
D03*
X20249994Y5699998D02*
D03*
X20099994Y5399998D02*
D03*
X20249994Y4499999D02*
D03*
Y3899999D02*
D03*
X20099994Y3599999D02*
D03*
Y2999999D02*
D03*
X20249994Y2699999D02*
D03*
X20099994Y2399999D02*
D03*
X19949994Y11699996D02*
D03*
Y11099997D02*
D03*
Y10499997D02*
D03*
Y9899997D02*
D03*
X19799994Y8999997D02*
D03*
X19949994Y8099998D02*
D03*
X19799994Y6599998D02*
D03*
X19949994Y5699998D02*
D03*
X19799994Y5399998D02*
D03*
Y4799999D02*
D03*
X19949994Y4499999D02*
D03*
Y3899999D02*
D03*
X19799994Y3599999D02*
D03*
Y2399999D02*
D03*
X19649994Y11699996D02*
D03*
X19499994Y11399997D02*
D03*
X19649994Y11099997D02*
D03*
X19499994Y10799997D02*
D03*
Y10199997D02*
D03*
Y9599997D02*
D03*
Y8999997D02*
D03*
X19649994Y8699997D02*
D03*
X19499994Y8399997D02*
D03*
X19649994Y8099998D02*
D03*
X19499994Y7799998D02*
D03*
Y5999998D02*
D03*
X19649994Y5699998D02*
D03*
X19499994Y5399998D02*
D03*
X19649994Y4499999D02*
D03*
X19499994Y4199999D02*
D03*
X19349994Y11699996D02*
D03*
X19199994Y11399997D02*
D03*
X19349994Y11099997D02*
D03*
X19199994Y10799997D02*
D03*
X19349994Y10499997D02*
D03*
Y9299997D02*
D03*
X19199994Y8999997D02*
D03*
X19349994Y8699997D02*
D03*
X19199994Y8399997D02*
D03*
X19349994Y8099998D02*
D03*
Y7499998D02*
D03*
Y6299998D02*
D03*
Y5699998D02*
D03*
Y5099998D02*
D03*
Y3899999D02*
D03*
X19199994Y3599999D02*
D03*
Y2999999D02*
D03*
Y2399999D02*
D03*
X19049994Y11699996D02*
D03*
X18899994Y11399997D02*
D03*
X19049994Y11099997D02*
D03*
Y10499997D02*
D03*
Y9299997D02*
D03*
X18899994Y8999997D02*
D03*
X19049994Y8699997D02*
D03*
X18899994Y8399997D02*
D03*
X19049994Y7499998D02*
D03*
Y6299998D02*
D03*
Y5099998D02*
D03*
X18899994Y4799999D02*
D03*
X19049994Y4499999D02*
D03*
X18899994Y3599999D02*
D03*
X19049994Y2699999D02*
D03*
X18899994Y2399999D02*
D03*
X18749994Y11699996D02*
D03*
X18599994Y10799997D02*
D03*
Y8399997D02*
D03*
X18749994Y8099998D02*
D03*
X18599994Y7799998D02*
D03*
X18749994Y7499998D02*
D03*
Y6299998D02*
D03*
Y5699998D02*
D03*
Y5099998D02*
D03*
X18599994Y4799999D02*
D03*
X18749994Y4499999D02*
D03*
Y3299999D02*
D03*
Y2699999D02*
D03*
X18449994Y8699997D02*
D03*
X18299994Y7799998D02*
D03*
Y7199998D02*
D03*
X18449994Y6899998D02*
D03*
X18299994Y4799999D02*
D03*
X18449994Y3899999D02*
D03*
X17999994Y10199997D02*
D03*
X18149994Y9299997D02*
D03*
X17999994Y7199998D02*
D03*
X18149994Y3899999D02*
D03*
X17999994Y3599999D02*
D03*
X18149994Y2699999D02*
D03*
X17849995Y9299997D02*
D03*
Y8699997D02*
D03*
X17699995Y8399997D02*
D03*
Y7799998D02*
D03*
Y7199998D02*
D03*
X17849995Y5099998D02*
D03*
X17699995Y4799999D02*
D03*
Y3599999D02*
D03*
X17849995Y3299999D02*
D03*
X17699995Y2999999D02*
D03*
X17399995Y11399997D02*
D03*
Y8399997D02*
D03*
Y4799999D02*
D03*
X17549995Y3899999D02*
D03*
X17399995Y3599999D02*
D03*
X17549995Y2699999D02*
D03*
X17249995Y11699996D02*
D03*
X17099995Y11399997D02*
D03*
X17249995Y11099997D02*
D03*
X17099995Y10799997D02*
D03*
Y8999997D02*
D03*
X17249995Y8699997D02*
D03*
X17099995Y8399997D02*
D03*
Y7799998D02*
D03*
X17249995Y7499998D02*
D03*
X17099995Y4799999D02*
D03*
X17249995Y3899999D02*
D03*
X17099995Y3599999D02*
D03*
Y2999999D02*
D03*
X17249995Y2699999D02*
D03*
X16949995Y11699996D02*
D03*
X16799995Y11399997D02*
D03*
X16949995Y11099997D02*
D03*
Y9299997D02*
D03*
Y8699997D02*
D03*
Y7499998D02*
D03*
Y6899998D02*
D03*
X16799995Y4799999D02*
D03*
X16949995Y3899999D02*
D03*
X16799995Y3599999D02*
D03*
X16649995Y11699996D02*
D03*
Y11099997D02*
D03*
X16499995Y5399998D02*
D03*
Y4799999D02*
D03*
X16649995Y3899999D02*
D03*
Y3299999D02*
D03*
Y2699999D02*
D03*
X16349995Y9299997D02*
D03*
X16199995Y5399998D02*
D03*
X16349995Y5099998D02*
D03*
X16199995Y4799999D02*
D03*
X16349995Y3899999D02*
D03*
X16199995Y3599999D02*
D03*
Y2999999D02*
D03*
X15899995Y8399997D02*
D03*
Y5399998D02*
D03*
X16049995Y5099998D02*
D03*
X15899995Y3599999D02*
D03*
X16049995Y2699999D02*
D03*
X15599995Y8399997D02*
D03*
X15749995Y3299999D02*
D03*
X15599995Y2999999D02*
D03*
X15749995Y2699999D02*
D03*
X15449995Y11099997D02*
D03*
X15299995Y10799997D02*
D03*
Y8399997D02*
D03*
X15149995Y11699996D02*
D03*
X14999995Y11399997D02*
D03*
X15149995Y11099997D02*
D03*
X14999995Y10799997D02*
D03*
Y9599997D02*
D03*
Y4799999D02*
D03*
Y3599999D02*
D03*
X15149995Y2699999D02*
D03*
X14849995Y11699996D02*
D03*
X14699995Y11399997D02*
D03*
X14849995Y11099997D02*
D03*
X14699995Y10799997D02*
D03*
Y3599999D02*
D03*
X14849995Y3299999D02*
D03*
X14699995Y2999999D02*
D03*
X14549995Y11699996D02*
D03*
Y11099997D02*
D03*
X14399995Y10799997D02*
D03*
X14549995Y10499997D02*
D03*
X14399995Y9599997D02*
D03*
X14549995Y3899999D02*
D03*
X14399995Y3599999D02*
D03*
X14549995Y2699999D02*
D03*
X14249995Y11099997D02*
D03*
Y9299997D02*
D03*
X14099995Y4799999D02*
D03*
X14249995Y3899999D02*
D03*
X14099995Y3599999D02*
D03*
Y2999999D02*
D03*
X14249995Y2699999D02*
D03*
X13799995Y4799999D02*
D03*
X13949995Y3899999D02*
D03*
X13799995Y3599999D02*
D03*
X13499995Y4799999D02*
D03*
X13649995Y2699999D02*
D03*
X13199995Y10799997D02*
D03*
X13349995Y3899999D02*
D03*
X13199995Y3599999D02*
D03*
Y2999999D02*
D03*
X13049995Y11699996D02*
D03*
X12899995Y11399997D02*
D03*
X13049995Y11099997D02*
D03*
X12899995Y3599999D02*
D03*
X13049995Y2699999D02*
D03*
X12749996Y11699996D02*
D03*
X12599996Y11399997D02*
D03*
X12749996Y11099997D02*
D03*
Y9899997D02*
D03*
Y7499998D02*
D03*
Y3299999D02*
D03*
X12599996Y2999999D02*
D03*
X12749996Y2699999D02*
D03*
X12449996Y11699996D02*
D03*
X12299996Y10799997D02*
D03*
Y6599998D02*
D03*
X12449996Y3299999D02*
D03*
X12149996Y11699996D02*
D03*
X11999996Y11399997D02*
D03*
Y10799997D02*
D03*
Y8399997D02*
D03*
Y7799998D02*
D03*
Y7199998D02*
D03*
Y6599998D02*
D03*
Y5999998D02*
D03*
Y5399998D02*
D03*
Y4799999D02*
D03*
X12149996Y2699999D02*
D03*
X11699996Y11399997D02*
D03*
Y2999999D02*
D03*
X11549996Y11699996D02*
D03*
X11399997Y11399997D02*
D03*
X11549996Y11099997D02*
D03*
X11399997Y10799997D02*
D03*
X11549996Y9899997D02*
D03*
X11399997Y3599999D02*
D03*
X11549996Y3299999D02*
D03*
Y2699999D02*
D03*
X11099997Y11399997D02*
D03*
Y10799997D02*
D03*
Y10199997D02*
D03*
Y8399997D02*
D03*
X11249997Y8099998D02*
D03*
X11099997Y7799998D02*
D03*
X11249997Y7499998D02*
D03*
Y6899998D02*
D03*
Y6299998D02*
D03*
Y3299999D02*
D03*
Y2699999D02*
D03*
X14710001Y4680000D02*
D03*
X13830000Y5140000D02*
D03*
X18262601Y10751820D02*
D03*
X16804031Y3940774D02*
D03*
X16675101Y4178300D02*
D03*
X15199361Y5524500D02*
D03*
X15326360Y5488940D02*
D03*
X14710564Y5372632D02*
D03*
X14279880Y5676900D02*
D03*
X14404340Y5745480D02*
D03*
X14541499Y5816600D02*
D03*
X14063980Y5593080D02*
D03*
X13619479Y5059680D02*
D03*
X19164981Y7095217D02*
D03*
X18841721Y7513320D02*
D03*
X18376900Y7602220D02*
D03*
X18635622Y6423204D02*
D03*
X18263226Y6099948D02*
D03*
X13241618Y4083008D02*
D03*
X13560910Y7842989D02*
D03*
X12758420Y9248140D02*
D03*
X14695792Y8859726D02*
D03*
X12481560Y10271760D02*
D03*
X14274800Y9984740D02*
D03*
X13964920Y9654540D02*
D03*
X13256261Y10441940D02*
D03*
X14114780Y9951720D02*
D03*
X16375380Y10515600D02*
D03*
X16332201Y10370820D02*
D03*
X16469360Y10685780D02*
D03*
X16357600Y10617200D02*
D03*
X17101163Y9980161D02*
D03*
X17183099Y10716260D02*
D03*
X17259300Y10375900D02*
D03*
X16581120Y10695940D02*
D03*
X16857980Y10360660D02*
D03*
X17571719Y10330180D02*
D03*
X17302480Y10297160D02*
D03*
X16238220Y10594340D02*
D03*
X13289281Y10525760D02*
D03*
X15359045Y3840736D02*
D03*
X15159204Y3750000D02*
D03*
X19987260Y7477760D02*
D03*
X14114780Y10594340D02*
D03*
X15284933Y4070369D02*
D03*
X15057120Y3914140D02*
D03*
X16438879Y5572760D02*
D03*
X16558260Y5671820D02*
D03*
X16466820Y5862320D02*
D03*
X17012920Y6728460D02*
D03*
X14765021Y6700520D02*
D03*
X17503140Y6601460D02*
D03*
X15770000Y9070000D02*
D03*
X16366637Y7162800D02*
D03*
X18450000Y5718100D02*
D03*
X15823940Y8863528D02*
D03*
X16521298Y8813873D02*
D03*
X16500000Y8900000D02*
D03*
X14300000Y9650000D02*
D03*
X13300000Y10300000D02*
D03*
X17000000Y6500000D02*
D03*
X17101872Y6636781D02*
D03*
X18500000Y8500000D02*
D03*
X18100000Y9900000D02*
D03*
X17677489Y8675975D02*
D03*
X17350000Y9700000D02*
D03*
X17240421Y9655980D02*
D03*
X14950000Y9150000D02*
D03*
X14650000Y9400000D02*
D03*
X14500000Y9150000D02*
D03*
X17028160Y7091680D02*
D03*
X17005299Y7668260D02*
D03*
X16997681Y7764780D02*
D03*
X17002760Y7198360D02*
D03*
X17272000Y6987540D02*
D03*
X15324612Y4441254D02*
D03*
X14841220Y5080000D02*
D03*
X15986760Y6304280D02*
D03*
X15473680Y6121400D02*
D03*
X12857480Y8808720D02*
D03*
X12504420Y9243060D02*
D03*
X16224466Y6875062D02*
D03*
X15379700Y8183880D02*
D03*
X15735300Y8872220D02*
D03*
X15722858Y8181711D02*
D03*
X15689580Y6654800D02*
D03*
X12308840Y8757920D02*
D03*
X11920220Y9192260D02*
D03*
X12019280Y9202420D02*
D03*
X13931900Y6672580D02*
D03*
X14053819Y6497320D02*
D03*
X13926820Y9237980D02*
D03*
X13497560Y9403080D02*
D03*
X13383260Y9733280D02*
D03*
X14058900Y9207500D02*
D03*
X11541760Y10284460D02*
D03*
X13065759Y9202420D02*
D03*
X13296899Y9199880D02*
D03*
X13441679Y9217660D02*
D03*
X12446000Y4419600D02*
D03*
X12501880Y5153660D02*
D03*
X11871960Y4508500D02*
D03*
X12473940Y3670300D02*
D03*
X14541499Y6344920D02*
D03*
X14564360Y6154420D02*
D03*
X13027660Y4053840D02*
D03*
X12070080Y3601720D02*
D03*
X14168120Y5976620D02*
D03*
X15420340Y6663540D02*
D03*
X15476221Y9067800D02*
D03*
X15349220Y9116060D02*
D03*
X15209520Y9060180D02*
D03*
X14152879Y9077960D02*
D03*
X13870940Y7835900D02*
D03*
X16154401Y8923020D02*
D03*
X16172180Y8798560D02*
D03*
X14442439Y6273800D02*
D03*
X16103600Y8399780D02*
D03*
X16289020Y8382000D02*
D03*
X16380460Y8163560D02*
D03*
X16225520Y8061960D02*
D03*
X16357600Y8318500D02*
D03*
X16304260Y7973060D02*
D03*
X16334740Y7632700D02*
D03*
X16217900Y7734300D02*
D03*
X16353975Y7818900D02*
D03*
X16218787Y7894320D02*
D03*
X13563600Y7579360D02*
D03*
X16207739Y7383780D02*
D03*
X16202660Y7551420D02*
D03*
X16314420Y7467600D02*
D03*
X16324580Y7305040D02*
D03*
X16202660Y7233920D02*
D03*
X17132300Y7251700D02*
D03*
X17158650Y7341550D02*
D03*
X16200000Y7050000D02*
D03*
X16428957Y7068122D02*
D03*
X16427660Y6919116D02*
D03*
X14846300Y6108700D02*
D03*
X15379700Y6134100D02*
D03*
X15303500Y6235700D02*
D03*
X15748000D02*
D03*
X15887700Y6311900D02*
D03*
X15683249Y6313151D02*
D03*
X15582899Y6299200D02*
D03*
X15824200Y6172200D02*
D03*
Y6070600D02*
D03*
X14262100Y5892800D02*
D03*
X16217900Y6235700D02*
D03*
X16141701Y6324600D02*
D03*
X15214600D02*
D03*
X14706599Y6311900D02*
D03*
X16840199Y6873539D02*
D03*
X16611600Y6464300D02*
D03*
X16725900Y6553200D02*
D03*
X14947900Y4130000D02*
D03*
Y4038600D02*
D03*
X16256000Y6134100D02*
D03*
X16306799Y6019800D02*
D03*
X14650752Y4274853D02*
D03*
X15556306Y4024669D02*
D03*
X15651364Y4067973D02*
D03*
X15503497Y3953904D02*
D03*
X15684500Y3886200D02*
D03*
X15062505Y3822700D02*
D03*
X15291106Y3543300D02*
D03*
X14807713Y3940774D02*
D03*
X15519705Y3632200D02*
D03*
X14795805Y4356100D02*
D03*
X12953999D02*
D03*
X13893800Y4368800D02*
D03*
X17525999Y4546600D02*
D03*
X19055141Y3822700D02*
D03*
X18800351Y3940774D02*
D03*
X19283742Y4064000D02*
D03*
Y3543300D02*
D03*
X19512341Y3632200D02*
D03*
X18056982Y3822700D02*
D03*
X17802191Y3940774D02*
D03*
X18285582Y4064000D02*
D03*
Y3543300D02*
D03*
X18514182Y3632200D02*
D03*
X17058823Y3822700D02*
D03*
X17287424Y4064000D02*
D03*
Y3543300D02*
D03*
X17516023Y3632200D02*
D03*
X16060664Y3822700D02*
D03*
X15805873Y3940774D02*
D03*
X16289264Y4064000D02*
D03*
Y3543300D02*
D03*
X16517863Y3632200D02*
D03*
X14064346Y3822700D02*
D03*
X13809555Y3940774D02*
D03*
X14292946Y4064000D02*
D03*
Y3543300D02*
D03*
X14521545Y3632200D02*
D03*
X13066187Y3822700D02*
D03*
X12811395Y3940774D02*
D03*
X13294788Y3543300D02*
D03*
X13523387Y3632200D02*
D03*
X19786600Y4356100D02*
D03*
X20281900Y4064000D02*
D03*
X20053300Y3822700D02*
D03*
X20510500Y3632200D02*
D03*
X20281900Y3543300D02*
D03*
X19798511Y3940774D02*
D03*
X17284700Y10541000D02*
D03*
X16243300Y9994900D02*
D03*
X15444051Y10541000D02*
D03*
X15430499Y10439400D02*
D03*
X15544800Y9918700D02*
D03*
X17791138Y10086939D02*
D03*
X17386301Y10223500D02*
D03*
X17627600Y10058400D02*
D03*
X17399001D02*
D03*
X16128999D02*
D03*
X15999950Y10056350D02*
D03*
X15697200Y10058400D02*
D03*
X15786099D02*
D03*
X15849600Y10210800D02*
D03*
X15748000Y10287000D02*
D03*
X16027400Y10363200D02*
D03*
X18577560Y9324340D02*
D03*
X18427699Y9321800D02*
D03*
X17736819Y9116060D02*
D03*
X17518600Y9320202D02*
D03*
X17592039Y9263380D02*
D03*
X17597121Y9382760D02*
D03*
X17439639Y9385300D02*
D03*
X17447260Y9260840D02*
D03*
X17396460Y8963660D02*
D03*
X17307561Y8966200D02*
D03*
X17213580Y8968740D02*
D03*
X17307561Y9055100D02*
D03*
X16728439Y8488680D02*
D03*
X13649960Y7416800D02*
D03*
X13756641Y7185660D02*
D03*
X13840460Y7061200D02*
D03*
X14229080Y8051800D02*
D03*
X14155420Y8135620D02*
D03*
X14259560Y7655560D02*
D03*
X14254799Y7566979D02*
D03*
X15458440Y8856980D02*
D03*
X15367000D02*
D03*
X15951199Y8872220D02*
D03*
X16822420Y8404860D02*
D03*
X20269200Y7457440D02*
D03*
X20388580Y7520940D02*
D03*
X20436839Y6903720D02*
D03*
X19880580Y6957060D02*
D03*
X19878040Y7439660D02*
D03*
X16957040Y5105400D02*
D03*
X16756380Y5285740D02*
D03*
X16733521Y6129020D02*
D03*
X16113760Y5720080D02*
D03*
X15928340Y5793740D02*
D03*
X14866620Y6723380D02*
D03*
X18366740Y6771640D02*
D03*
X19900900Y6540500D02*
D03*
X19997420Y4612640D02*
D03*
X16515080Y5496560D02*
D03*
X16002000Y5715000D02*
D03*
X16469360Y5951220D02*
D03*
X16532860Y5778500D02*
D03*
X17886681Y5872480D02*
D03*
X18041620Y5651500D02*
D03*
X18224500Y5732780D02*
D03*
X14399260Y6972300D02*
D03*
X14176982Y6788453D02*
D03*
X14234160Y6918960D02*
D03*
X16600690Y6353316D02*
D03*
X16931641Y5732780D02*
D03*
X16621761Y6047740D02*
D03*
X17122141Y5651500D02*
D03*
X16908780Y6062980D02*
D03*
X16889880Y6196480D02*
D03*
X16819881Y6283960D02*
D03*
X17696179Y5438860D02*
D03*
X17412680Y6660142D02*
D03*
X17454880Y6413500D02*
D03*
X17218660Y6604000D02*
D03*
X17962880Y6515100D02*
D03*
X17940021Y6220460D02*
D03*
X18044160Y6360160D02*
D03*
Y6055360D02*
D03*
X17929860D02*
D03*
X18638519Y6159500D02*
D03*
X18618201Y5717540D02*
D03*
X18448019Y6223000D02*
D03*
X18102519Y5781040D02*
D03*
Y5869940D02*
D03*
D74*
X17525699Y6015598D02*
D03*
Y5867598D02*
D03*
X17451698Y5941598D02*
D03*
X17525699Y6163598D02*
D03*
X17303699Y6089598D02*
D03*
X17377699Y6163598D02*
D03*
Y5867598D02*
D03*
X17451698Y6089598D02*
D03*
X17303699Y5941598D02*
D03*
X17599699Y6089598D02*
D03*
Y5941598D02*
D03*
X17377699Y6015598D02*
D03*
D75*
X20277000Y3350000D02*
D03*
X20023000D02*
D03*
Y4250000D02*
D03*
X20277000D02*
D03*
X19278841Y3350000D02*
D03*
X19024840D02*
D03*
Y4250000D02*
D03*
X19278841D02*
D03*
X18280681Y3350000D02*
D03*
X18026682D02*
D03*
Y4250000D02*
D03*
X18280681D02*
D03*
X17282523Y3350000D02*
D03*
X17028522D02*
D03*
Y4250000D02*
D03*
X17282523D02*
D03*
X16284363Y3350000D02*
D03*
X16030363D02*
D03*
Y4250000D02*
D03*
X16284363D02*
D03*
X15286205Y3354052D02*
D03*
X15032204D02*
D03*
Y4254052D02*
D03*
X15286205D02*
D03*
X14288045Y3350000D02*
D03*
X14034045D02*
D03*
Y4250000D02*
D03*
X14288045D02*
D03*
X13289886Y3350000D02*
D03*
X13035886D02*
D03*
Y4250000D02*
D03*
X13289886D02*
D03*
X11917680Y4224440D02*
D03*
X12171680D02*
D03*
Y3324440D02*
D03*
X11917680D02*
D03*
D76*
X16906239Y10523220D02*
D03*
D77*
X17126241Y10425720D02*
D03*
Y10490720D02*
D03*
Y10555720D02*
D03*
Y10620720D02*
D03*
X16686240D02*
D03*
Y10555720D02*
D03*
Y10490720D02*
D03*
Y10425720D02*
D03*
D78*
X17101820Y9982200D02*
D03*
X16691820D02*
D03*
D79*
X16691380Y10241280D02*
D03*
X16821381D02*
D03*
D80*
X18679160Y9699380D02*
D03*
X18552161D02*
D03*
X18425160D02*
D03*
X18298160D02*
D03*
X18679160Y10224380D02*
D03*
X18552161D02*
D03*
X18425160D02*
D03*
X18298160D02*
D03*
D81*
X18425160Y9576440D02*
X18446120Y9555480D01*
X18425160Y9576440D02*
Y9699380D01*
X18427699Y9438207D02*
X18428619Y9439127D01*
X18427699Y9321800D02*
Y9438207D01*
X18428619Y9537980D02*
X18446120Y9555480D01*
X18428619Y9439127D02*
Y9537980D01*
%TF.MD5,79d90774dba26b3935a5567a2ae1e2ef*%
M02*
