%TF.GenerationSoftware,Altium Limited,Altium Designer,23.2.1 (34)*%
G04 Layer_Color=128*
%FSLAX45Y45*%
%MOMM*%
%TF.SameCoordinates,C170FB48-CBA5-4DC5-83A8-8A264B0792BE*%
%TF.FilePolarity,Positive*%
%TF.FileFunction,Paste,Bot*%
%TF.Part,Single*%
G01*
G75*
%TA.AperFunction,SMDPad,CuDef*%
%ADD10R,0.85872X0.91213*%
%ADD11R,0.52000X0.52000*%
%ADD13R,0.55000X0.55000*%
%ADD14R,0.91213X0.85872*%
%ADD16R,0.55000X0.55000*%
%ADD43R,0.80650X0.86822*%
%ADD44R,0.86822X0.80650*%
%ADD45R,0.52000X0.52000*%
%ADD75R,1.50000X1.30000*%
%ADD76R,1.84600X2.15000*%
%ADD77R,1.40000X0.45000*%
%ADD78R,2.20000X1.55000*%
%ADD79R,0.70000X0.65000*%
G04:AMPARAMS|DCode=80|XSize=0.55mm|YSize=1.25mm|CornerRadius=0.0495mm|HoleSize=0mm|Usage=FLASHONLY|Rotation=0.000|XOffset=0mm|YOffset=0mm|HoleType=Round|Shape=RoundedRectangle|*
%AMROUNDEDRECTD80*
21,1,0.55000,1.15100,0,0,0.0*
21,1,0.45100,1.25000,0,0,0.0*
1,1,0.09900,0.22550,-0.57550*
1,1,0.09900,-0.22550,-0.57550*
1,1,0.09900,-0.22550,0.57550*
1,1,0.09900,0.22550,0.57550*
%
%ADD80ROUNDEDRECTD80*%
D10*
X12172329Y3575000D02*
D03*
X12327671D02*
D03*
X16475510Y10792460D02*
D03*
X16630852D02*
D03*
D11*
X14889999Y5320000D02*
D03*
Y5240000D02*
D03*
D13*
X16543021Y10433600D02*
D03*
Y10343600D02*
D03*
X16545560Y10608860D02*
D03*
Y10518860D02*
D03*
D14*
X16805524Y4072329D02*
D03*
Y4227671D02*
D03*
X19800000D02*
D03*
Y4072329D02*
D03*
X18801842Y4227671D02*
D03*
Y4072329D02*
D03*
X17803682Y4227671D02*
D03*
Y4072329D02*
D03*
X15807364Y4227671D02*
D03*
Y4072329D02*
D03*
X14809206Y4227671D02*
D03*
Y4072329D02*
D03*
X13811046Y4227670D02*
D03*
Y4072329D02*
D03*
X12812888Y4227671D02*
D03*
Y4072329D02*
D03*
X20525000Y3500000D02*
D03*
Y3344659D02*
D03*
X19526842Y3500000D02*
D03*
Y3344659D02*
D03*
X18528682Y3500000D02*
D03*
Y3344659D02*
D03*
X17530524Y3500000D02*
D03*
Y3344659D02*
D03*
X16532364Y3500000D02*
D03*
Y3344659D02*
D03*
X15534206Y3500000D02*
D03*
Y3344659D02*
D03*
X14536046Y3500000D02*
D03*
Y3344659D02*
D03*
X13537888Y3500000D02*
D03*
Y3344659D02*
D03*
D16*
X12355010Y4179999D02*
D03*
X12445010D02*
D03*
X12355010Y4304999D02*
D03*
X12445010D02*
D03*
X18578281Y10388600D02*
D03*
X18668280D02*
D03*
D43*
X17132300Y10253980D02*
D03*
X17007129D02*
D03*
D44*
X15050301Y5207914D02*
D03*
Y5333086D02*
D03*
D45*
X18526120Y9555480D02*
D03*
X18446120D02*
D03*
D75*
X20277000Y3350000D02*
D03*
X20023000D02*
D03*
Y4250000D02*
D03*
X20277000D02*
D03*
X19278841Y3350000D02*
D03*
X19024840D02*
D03*
Y4250000D02*
D03*
X19278841D02*
D03*
X18280681Y3350000D02*
D03*
X18026682D02*
D03*
Y4250000D02*
D03*
X18280681D02*
D03*
X17282523Y3350000D02*
D03*
X17028522D02*
D03*
Y4250000D02*
D03*
X17282523D02*
D03*
X16284363Y3350000D02*
D03*
X16030363D02*
D03*
Y4250000D02*
D03*
X16284363D02*
D03*
X15286205Y3354052D02*
D03*
X15032204D02*
D03*
Y4254052D02*
D03*
X15286205D02*
D03*
X14288045Y3350000D02*
D03*
X14034045D02*
D03*
Y4250000D02*
D03*
X14288045D02*
D03*
X13289886Y3350000D02*
D03*
X13035886D02*
D03*
Y4250000D02*
D03*
X13289886D02*
D03*
X11917680Y4224440D02*
D03*
X12171680D02*
D03*
Y3324440D02*
D03*
X11917680D02*
D03*
D76*
X16906239Y10523220D02*
D03*
D77*
X17126241Y10425720D02*
D03*
Y10490720D02*
D03*
Y10555720D02*
D03*
Y10620720D02*
D03*
X16686240D02*
D03*
Y10555720D02*
D03*
Y10490720D02*
D03*
Y10425720D02*
D03*
D78*
X17101820Y9982200D02*
D03*
X16691820D02*
D03*
D79*
X16691380Y10241280D02*
D03*
X16821381D02*
D03*
D80*
X18679160Y9699380D02*
D03*
X18552161D02*
D03*
X18425160D02*
D03*
X18298160D02*
D03*
X18679160Y10224380D02*
D03*
X18552161D02*
D03*
X18425160D02*
D03*
X18298160D02*
D03*
%TF.MD5,5c5064f25d375ded64803279a82b9fb5*%
M02*
