%TF.GenerationSoftware,Altium Limited,Altium Designer,23.2.1 (34)*%
G04 Layer_Color=8388736*
%FSLAX45Y45*%
%MOMM*%
%TF.SameCoordinates,C170FB48-CBA5-4DC5-83A8-8A264B0792BE*%
%TF.FilePolarity,Negative*%
%TF.FileFunction,Soldermask,Top*%
%TF.Part,Single*%
G01*
G75*
%TA.AperFunction,SMDPad,CuDef*%
%ADD10R,0.85872X0.91213*%
%ADD11R,0.52000X0.52000*%
%ADD12R,0.80000X0.80000*%
%ADD14R,0.91213X0.85872*%
G04:AMPARAMS|DCode=21|XSize=1.05mm|YSize=0.3mm|CornerRadius=0.0495mm|HoleSize=0mm|Usage=FLASHONLY|Rotation=0.000|XOffset=0mm|YOffset=0mm|HoleType=Round|Shape=RoundedRectangle|*
%AMROUNDEDRECTD21*
21,1,1.05000,0.20100,0,0,0.0*
21,1,0.95100,0.30000,0,0,0.0*
1,1,0.09900,0.47550,-0.10050*
1,1,0.09900,-0.47550,-0.10050*
1,1,0.09900,-0.47550,0.10050*
1,1,0.09900,0.47550,0.10050*
%
%ADD21ROUNDEDRECTD21*%
%ADD22R,1.80000X1.20000*%
%ADD26R,0.90606X0.85822*%
%ADD27R,0.80000X0.80000*%
%ADD29R,0.65000X0.70000*%
%ADD30R,0.80606X0.85822*%
%ADD43R,0.80650X0.86822*%
%ADD44R,0.86822X0.80650*%
%ADD45R,0.52000X0.52000*%
%TA.AperFunction,ComponentPad*%
%ADD65C,1.65000*%
%TA.AperFunction,SMDPad,CuDef*%
%ADD93R,0.67000X0.67000*%
%ADD94R,1.79000X2.14000*%
%ADD95R,0.67000X0.67000*%
%ADD96R,0.72000X0.92000*%
%ADD97R,0.72000X1.32000*%
%ADD98R,2.27000X1.96600*%
%ADD99R,0.57000X1.52000*%
%ADD100R,1.67000X2.32000*%
%ADD101O,0.37000X1.67000*%
%ADD102O,1.67000X0.37000*%
%ADD103R,0.97000X0.67000*%
%ADD104R,1.32000X1.32000*%
%ADD105R,1.72000X1.62000*%
%ADD106R,1.32000X1.32000*%
%ADD107R,1.62000X1.72000*%
G04:AMPARAMS|DCode=108|XSize=0.37mm|YSize=0.72mm|CornerRadius=0.11mm|HoleSize=0mm|Usage=FLASHONLY|Rotation=180.000|XOffset=0mm|YOffset=0mm|HoleType=Round|Shape=RoundedRectangle|*
%AMROUNDEDRECTD108*
21,1,0.37000,0.50000,0,0,180.0*
21,1,0.15000,0.72000,0,0,180.0*
1,1,0.22000,-0.07500,0.25000*
1,1,0.22000,0.07500,0.25000*
1,1,0.22000,0.07500,-0.25000*
1,1,0.22000,-0.07500,-0.25000*
%
%ADD108ROUNDEDRECTD108*%
G04:AMPARAMS|DCode=109|XSize=4.72mm|YSize=4.72mm|CornerRadius=0.106mm|HoleSize=0mm|Usage=FLASHONLY|Rotation=90.000|XOffset=0mm|YOffset=0mm|HoleType=Round|Shape=RoundedRectangle|*
%AMROUNDEDRECTD109*
21,1,4.72000,4.50800,0,0,90.0*
21,1,4.50800,4.72000,0,0,90.0*
1,1,0.21200,2.25400,2.25400*
1,1,0.21200,2.25400,-2.25400*
1,1,0.21200,-2.25400,-2.25400*
1,1,0.21200,-2.25400,2.25400*
%
%ADD109ROUNDEDRECTD109*%
G04:AMPARAMS|DCode=110|XSize=0.37mm|YSize=0.72mm|CornerRadius=0.11mm|HoleSize=0mm|Usage=FLASHONLY|Rotation=90.000|XOffset=0mm|YOffset=0mm|HoleType=Round|Shape=RoundedRectangle|*
%AMROUNDEDRECTD110*
21,1,0.37000,0.50000,0,0,90.0*
21,1,0.15000,0.72000,0,0,90.0*
1,1,0.22000,0.25000,0.07500*
1,1,0.22000,0.25000,-0.07500*
1,1,0.22000,-0.25000,-0.07500*
1,1,0.22000,-0.25000,0.07500*
%
%ADD110ROUNDEDRECTD110*%
%ADD111O,1.62000X0.57000*%
%ADD112R,1.47000X0.52000*%
%ADD113R,2.02000X2.02000*%
%ADD114R,1.82000X0.92000*%
%ADD115R,0.72000X1.22000*%
G04:AMPARAMS|DCode=116|XSize=0.57mm|YSize=1.52mm|CornerRadius=0.1095mm|HoleSize=0mm|Usage=FLASHONLY|Rotation=0.000|XOffset=0mm|YOffset=0mm|HoleType=Round|Shape=RoundedRectangle|*
%AMROUNDEDRECTD116*
21,1,0.57000,1.30100,0,0,0.0*
21,1,0.35100,1.52000,0,0,0.0*
1,1,0.21900,0.17550,-0.65050*
1,1,0.21900,-0.17550,-0.65050*
1,1,0.21900,-0.17550,0.65050*
1,1,0.21900,0.17550,0.65050*
%
%ADD116ROUNDEDRECTD116*%
%TA.AperFunction,ComponentPad*%
%ADD117C,1.84500*%
%ADD118R,1.84500X1.84500*%
%ADD119C,1.52000*%
%ADD120R,1.52000X1.52000*%
%ADD121R,1.84500X1.84500*%
%ADD122R,1.52000X1.52000*%
%ADD123R,1.62000X1.62000*%
%ADD124C,1.62000*%
%ADD125R,1.77000X1.77000*%
%ADD126C,1.77000*%
%ADD127C,1.27000*%
%ADD128C,1.56600*%
%ADD129C,2.47500*%
%ADD130C,1.74500*%
%ADD131C,1.92000*%
%ADD132C,0.39500*%
%TA.AperFunction,WasherPad*%
%ADD133C,0.12000*%
%TA.AperFunction,ViaPad*%
%ADD134C,0.62000*%
D10*
X18232329Y5490000D02*
D03*
X18387671D02*
D03*
X17922330D02*
D03*
X18077670D02*
D03*
X14822371Y5628640D02*
D03*
X14667029D02*
D03*
X15235989Y5631180D02*
D03*
X15391331D02*
D03*
X17388258Y8595200D02*
D03*
X17543599D02*
D03*
X18915918Y7192101D02*
D03*
X19071260D02*
D03*
D11*
X13830000Y5250000D02*
D03*
Y5330000D02*
D03*
X14610001Y4690000D02*
D03*
Y4770000D02*
D03*
X14353540Y7654920D02*
D03*
Y7574920D02*
D03*
X16900000Y7685000D02*
D03*
Y7764999D02*
D03*
X16900003Y7120002D02*
D03*
Y7200002D02*
D03*
X16642081Y6127120D02*
D03*
Y6207120D02*
D03*
X17873979Y6144258D02*
D03*
Y6224258D02*
D03*
X17020540Y5732140D02*
D03*
Y5652140D02*
D03*
X18519141Y5601960D02*
D03*
Y5521960D02*
D03*
X18641060Y5605140D02*
D03*
Y5525140D02*
D03*
X17873981Y6411603D02*
D03*
Y6331603D02*
D03*
X18201639Y6200139D02*
D03*
Y6280139D02*
D03*
X14151520Y9650000D02*
D03*
Y9570000D02*
D03*
X15544800Y10517500D02*
D03*
Y10437500D02*
D03*
X17386301Y10519400D02*
D03*
Y10439400D02*
D03*
X13390880Y10499720D02*
D03*
Y10419720D02*
D03*
D12*
X18122900Y10283140D02*
D03*
Y10118140D02*
D03*
X18721260Y7202099D02*
D03*
Y7367099D02*
D03*
X14846300Y9681160D02*
D03*
Y9516160D02*
D03*
X16484599Y10582860D02*
D03*
Y10417860D02*
D03*
D14*
X15565120Y4799129D02*
D03*
Y4954471D02*
D03*
X15557500Y5218229D02*
D03*
Y5373571D02*
D03*
X14651041Y9678030D02*
D03*
Y9522689D02*
D03*
D21*
X15399998Y4349999D02*
D03*
Y4300000D02*
D03*
Y4250000D02*
D03*
Y4199999D02*
D03*
Y4150000D02*
D03*
Y4099999D02*
D03*
Y4050000D02*
D03*
Y4000000D02*
D03*
X15099998D02*
D03*
Y4050000D02*
D03*
Y4099999D02*
D03*
Y4150000D02*
D03*
Y4199999D02*
D03*
Y4250000D02*
D03*
Y4300000D02*
D03*
Y4349999D02*
D03*
D22*
X13506480Y7186300D02*
D03*
X13906480D02*
D03*
Y7426300D02*
D03*
X13506480D02*
D03*
D26*
X19071262Y7392098D02*
D03*
X18956044D02*
D03*
D27*
X17358598Y8820199D02*
D03*
X17193599D02*
D03*
X19957500Y3725000D02*
D03*
X19792500D02*
D03*
X18959341D02*
D03*
X18794341D02*
D03*
X17961182D02*
D03*
X17796182D02*
D03*
X16963023D02*
D03*
X16798022D02*
D03*
X15964864D02*
D03*
X15799864D02*
D03*
X14966705D02*
D03*
X14801704D02*
D03*
X13968546Y3725003D02*
D03*
X13803546D02*
D03*
X12970387Y3725000D02*
D03*
X12805386D02*
D03*
X12164998Y3724998D02*
D03*
X11999998D02*
D03*
X20292500Y3725000D02*
D03*
X20457500D02*
D03*
X19294341D02*
D03*
X19459341D02*
D03*
X18296182D02*
D03*
X18461182D02*
D03*
X17298022D02*
D03*
X17463023D02*
D03*
X16299864D02*
D03*
X16464864D02*
D03*
X15301704D02*
D03*
X15466705D02*
D03*
X14303546D02*
D03*
X14468546D02*
D03*
X13305386D02*
D03*
X13470387D02*
D03*
D29*
X17193600Y9080200D02*
D03*
Y9210200D02*
D03*
X18049997Y6274999D02*
D03*
Y6144999D02*
D03*
D30*
X14287498Y6512561D02*
D03*
X14162282D02*
D03*
D43*
X14708226Y8757920D02*
D03*
X14583054D02*
D03*
X14286586Y6695440D02*
D03*
X14161414D02*
D03*
D44*
X16924998Y8300002D02*
D03*
Y8425173D02*
D03*
X16502380Y6211926D02*
D03*
Y6086754D02*
D03*
X17193600Y9545370D02*
D03*
Y9420199D02*
D03*
X19246260Y7317269D02*
D03*
Y7192098D02*
D03*
X18571260Y7329686D02*
D03*
Y7204514D02*
D03*
D45*
X13673460Y7571740D02*
D03*
X13753461D02*
D03*
X13661398Y7053578D02*
D03*
X13741399D02*
D03*
X15405099Y6206500D02*
D03*
X15485100D02*
D03*
X14257660Y8140700D02*
D03*
X14337660D02*
D03*
X14240521Y7005322D02*
D03*
X14320522D02*
D03*
X14772000Y6219200D02*
D03*
X14852000D02*
D03*
X15911200Y6206500D02*
D03*
X15991200D02*
D03*
X16900003Y8575002D02*
D03*
X16820003D02*
D03*
X15955640Y8770620D02*
D03*
X15875639D02*
D03*
X15450180Y8765540D02*
D03*
X15370180D02*
D03*
X14237981Y6847838D02*
D03*
X14317979D02*
D03*
X17228180Y6507480D02*
D03*
X17148180D02*
D03*
X15239204Y3858104D02*
D03*
X15159204D02*
D03*
D65*
X20096999Y4974998D02*
D03*
X20299998D02*
D03*
X20096999Y6334998D02*
D03*
X20299998D02*
D03*
D93*
X18221960Y10493460D02*
D03*
Y10583460D02*
D03*
X15445740Y9208220D02*
D03*
Y9298220D02*
D03*
X18393600Y8455199D02*
D03*
Y8545199D02*
D03*
X17543600Y8755201D02*
D03*
Y8845202D02*
D03*
X18481039Y6701240D02*
D03*
Y6791240D02*
D03*
X18199100Y6007820D02*
D03*
Y6097820D02*
D03*
Y5912400D02*
D03*
Y5822400D02*
D03*
X18550000Y6325000D02*
D03*
Y6415000D02*
D03*
X17952721Y5744760D02*
D03*
Y5654760D02*
D03*
X17602199Y5452280D02*
D03*
Y5542280D02*
D03*
X16997681Y6191800D02*
D03*
Y6101800D02*
D03*
X17787619Y5452280D02*
D03*
Y5542280D02*
D03*
X16992603Y6301741D02*
D03*
Y6391741D02*
D03*
X17729201Y6802840D02*
D03*
Y6892840D02*
D03*
X14137640Y7501340D02*
D03*
Y7591340D02*
D03*
X18421260Y7227099D02*
D03*
Y7317099D02*
D03*
X16294099Y10724600D02*
D03*
Y10814600D02*
D03*
X14109700Y10724600D02*
D03*
Y10814600D02*
D03*
X18135600Y10724600D02*
D03*
Y10814600D02*
D03*
X16192500D02*
D03*
Y10724600D02*
D03*
X14008099Y10814600D02*
D03*
Y10724600D02*
D03*
X18034000Y10814600D02*
D03*
Y10724600D02*
D03*
X16090900Y10724600D02*
D03*
Y10814600D02*
D03*
X13906500Y10724600D02*
D03*
Y10814600D02*
D03*
X17932401Y10724600D02*
D03*
Y10814600D02*
D03*
X15989301D02*
D03*
Y10724600D02*
D03*
X13804900Y10814600D02*
D03*
Y10724600D02*
D03*
X17830800Y10814600D02*
D03*
Y10724600D02*
D03*
X15887700Y10724600D02*
D03*
Y10814600D02*
D03*
X13703300Y10724600D02*
D03*
Y10814600D02*
D03*
X17729201Y10724600D02*
D03*
Y10814600D02*
D03*
X15786099D02*
D03*
Y10724600D02*
D03*
X13601700Y10814600D02*
D03*
Y10724600D02*
D03*
X17627600Y10814600D02*
D03*
Y10724600D02*
D03*
X15684500Y10724600D02*
D03*
Y10814600D02*
D03*
X13500101Y10724600D02*
D03*
Y10814600D02*
D03*
X17525999Y10724600D02*
D03*
Y10814600D02*
D03*
X15582899D02*
D03*
Y10724600D02*
D03*
X13398500Y10814600D02*
D03*
Y10724600D02*
D03*
X17424400Y10814600D02*
D03*
Y10724600D02*
D03*
X11455400Y10118260D02*
D03*
Y10208260D02*
D03*
Y10435420D02*
D03*
Y10345420D02*
D03*
D94*
X18418600Y10295202D02*
D03*
Y9895202D02*
D03*
D95*
X15197540Y9301480D02*
D03*
X15287540D02*
D03*
X15827460Y8983980D02*
D03*
X15917461D02*
D03*
X14344099Y9235440D02*
D03*
X14434100D02*
D03*
X20090680Y4729480D02*
D03*
X20000681D02*
D03*
X17499879Y6507480D02*
D03*
X17409880D02*
D03*
X17778180Y6522720D02*
D03*
X17868179D02*
D03*
X18406259Y7442100D02*
D03*
X18496259D02*
D03*
X20083060Y6543040D02*
D03*
X19993060D02*
D03*
D96*
X17525002Y6780001D02*
D03*
X17345001D02*
D03*
Y6900001D02*
D03*
X17525002D02*
D03*
D97*
X18545000Y5850000D02*
D03*
X18450000D02*
D03*
X18355000D02*
D03*
Y6100000D02*
D03*
X18450000D02*
D03*
X18545000D02*
D03*
D98*
X17518600Y9320200D02*
D03*
D99*
X17421100Y9540200D02*
D03*
X17486099D02*
D03*
X17551100D02*
D03*
X17616100D02*
D03*
Y9100200D02*
D03*
X17551100D02*
D03*
X17486099D02*
D03*
X17421100D02*
D03*
D100*
X18318600Y9525200D02*
D03*
Y9115200D02*
D03*
X18693600Y9525200D02*
D03*
Y9115200D02*
D03*
X17918600Y9525200D02*
D03*
Y9115200D02*
D03*
D101*
X14732001Y8578000D02*
D03*
X14782001D02*
D03*
X14832001D02*
D03*
X14882001D02*
D03*
X14932001D02*
D03*
X14982001D02*
D03*
X15032001D02*
D03*
X15082001D02*
D03*
X15132001D02*
D03*
X15182001D02*
D03*
X15232001D02*
D03*
X15282001D02*
D03*
X15332001D02*
D03*
X15382001D02*
D03*
X15432001D02*
D03*
X15482001D02*
D03*
X15532001D02*
D03*
X15582001D02*
D03*
X15632001D02*
D03*
X15682001D02*
D03*
X15732001D02*
D03*
X15782001D02*
D03*
X15832001D02*
D03*
X15882001D02*
D03*
X15932001D02*
D03*
X15982001D02*
D03*
X16032001D02*
D03*
X16082001D02*
D03*
X16132001D02*
D03*
X16182001D02*
D03*
X16232001D02*
D03*
X16282001D02*
D03*
X16332001D02*
D03*
X16382001D02*
D03*
X16432001D02*
D03*
X16482001D02*
D03*
Y6473000D02*
D03*
X16432001D02*
D03*
X16382001D02*
D03*
X16332001D02*
D03*
X16282001D02*
D03*
X16232001D02*
D03*
X16182001D02*
D03*
X16132001D02*
D03*
X16082001D02*
D03*
X16032001D02*
D03*
X15982001D02*
D03*
X15932001D02*
D03*
X15882001D02*
D03*
X15832001D02*
D03*
X15782001D02*
D03*
X15732001D02*
D03*
X15682001D02*
D03*
X15632001D02*
D03*
X15582001D02*
D03*
X15532001D02*
D03*
X15482001D02*
D03*
X15432001D02*
D03*
X15382001D02*
D03*
X15332001D02*
D03*
X15282001D02*
D03*
X15232001D02*
D03*
X15182001D02*
D03*
X15132001D02*
D03*
X15082001D02*
D03*
X15032001D02*
D03*
X14982001D02*
D03*
X14932001D02*
D03*
X14882001D02*
D03*
X14832001D02*
D03*
X14782001D02*
D03*
X14732001D02*
D03*
D102*
X16659500Y8400500D02*
D03*
Y8350500D02*
D03*
Y8300500D02*
D03*
Y8250500D02*
D03*
Y8200500D02*
D03*
Y8150500D02*
D03*
Y8100500D02*
D03*
Y8050500D02*
D03*
Y8000500D02*
D03*
Y7950500D02*
D03*
Y7900500D02*
D03*
Y7850500D02*
D03*
Y7800500D02*
D03*
Y7750500D02*
D03*
Y7700500D02*
D03*
Y7650500D02*
D03*
Y7600500D02*
D03*
Y7550500D02*
D03*
Y7500500D02*
D03*
Y7450500D02*
D03*
Y7400500D02*
D03*
Y7350500D02*
D03*
Y7300500D02*
D03*
Y7250500D02*
D03*
Y7200500D02*
D03*
Y7150500D02*
D03*
Y7100500D02*
D03*
Y7050500D02*
D03*
Y7000500D02*
D03*
Y6950500D02*
D03*
Y6900500D02*
D03*
Y6850500D02*
D03*
Y6800500D02*
D03*
Y6750500D02*
D03*
Y6700500D02*
D03*
Y6650500D02*
D03*
X14554500D02*
D03*
Y6700500D02*
D03*
Y6750500D02*
D03*
Y6800500D02*
D03*
Y6850500D02*
D03*
Y6900500D02*
D03*
Y6950500D02*
D03*
Y7000500D02*
D03*
Y7050500D02*
D03*
Y7100500D02*
D03*
Y7150500D02*
D03*
Y7200500D02*
D03*
Y7250500D02*
D03*
Y7300500D02*
D03*
Y7350500D02*
D03*
Y7400500D02*
D03*
Y7450500D02*
D03*
Y7500500D02*
D03*
Y7550500D02*
D03*
Y7600500D02*
D03*
Y7650500D02*
D03*
Y7700500D02*
D03*
Y7750500D02*
D03*
Y7800500D02*
D03*
Y7850500D02*
D03*
Y7900500D02*
D03*
Y7950500D02*
D03*
Y8000500D02*
D03*
Y8050500D02*
D03*
Y8100500D02*
D03*
Y8150500D02*
D03*
Y8200500D02*
D03*
Y8250500D02*
D03*
Y8300500D02*
D03*
Y8350500D02*
D03*
Y8400500D02*
D03*
D103*
X13715421Y7740900D02*
D03*
Y7930900D02*
D03*
X13960420D02*
D03*
Y7835900D02*
D03*
Y7740900D02*
D03*
D104*
X18143600Y8445202D02*
D03*
X17943600D02*
D03*
X13052119Y10136960D02*
D03*
X13252119D02*
D03*
X12418720Y10134600D02*
D03*
X12618720D02*
D03*
D105*
X18043600Y8770202D02*
D03*
X13152119Y9811960D02*
D03*
X12518720Y9809600D02*
D03*
D106*
X14142900Y5259400D02*
D03*
Y5459400D02*
D03*
X14866800Y4687900D02*
D03*
Y4887900D02*
D03*
X17020300Y10620680D02*
D03*
Y10420680D02*
D03*
D107*
X14467900Y5359400D02*
D03*
X15191800Y4787900D02*
D03*
X16695300Y10520680D02*
D03*
D108*
X17676698Y5725598D02*
D03*
X17626698D02*
D03*
X17576698D02*
D03*
X17526698D02*
D03*
X17476698D02*
D03*
X17426698D02*
D03*
X17376698D02*
D03*
X17326698D02*
D03*
X17276698D02*
D03*
X17226698Y6305598D02*
D03*
X17276698D02*
D03*
X17326698D02*
D03*
X17376698D02*
D03*
X17426698D02*
D03*
X17476698D02*
D03*
X17526698D02*
D03*
X17576698D02*
D03*
X17626698D02*
D03*
X17676698D02*
D03*
X17226698Y5725598D02*
D03*
D109*
X17451698Y6015598D02*
D03*
D110*
X17161697Y5790598D02*
D03*
Y5840598D02*
D03*
Y5890598D02*
D03*
Y5940598D02*
D03*
Y5990598D02*
D03*
Y6040598D02*
D03*
Y6090598D02*
D03*
Y6140598D02*
D03*
Y6190598D02*
D03*
Y6240598D02*
D03*
X17741699D02*
D03*
Y6190598D02*
D03*
Y6140598D02*
D03*
Y6090598D02*
D03*
Y6040598D02*
D03*
Y5990598D02*
D03*
Y5940598D02*
D03*
Y5890598D02*
D03*
Y5840598D02*
D03*
Y5790598D02*
D03*
D111*
X15302800Y5173000D02*
D03*
Y5238000D02*
D03*
Y5303000D02*
D03*
Y5368000D02*
D03*
X14897800Y5173000D02*
D03*
Y5238000D02*
D03*
Y5303000D02*
D03*
Y5368000D02*
D03*
D112*
X20334100Y7072603D02*
D03*
Y7332603D02*
D03*
Y7137602D02*
D03*
Y7202603D02*
D03*
Y7267603D02*
D03*
D113*
X20601601Y6807603D02*
D03*
Y7082603D02*
D03*
Y7322603D02*
D03*
Y7597603D02*
D03*
D114*
X14381480Y9755960D02*
D03*
Y9415960D02*
D03*
D115*
X19975000Y7085000D02*
D03*
X19880000D02*
D03*
X19785001D02*
D03*
Y7325000D02*
D03*
X19880000D02*
D03*
X19975000D02*
D03*
D116*
X13528680Y9920238D02*
D03*
X13593680D02*
D03*
X13658681D02*
D03*
X13723680D02*
D03*
X13788680D02*
D03*
X13853680D02*
D03*
X13918680D02*
D03*
X13983681D02*
D03*
X13528680Y10510238D02*
D03*
X13593680D02*
D03*
X13658681D02*
D03*
X13723680D02*
D03*
X13788680D02*
D03*
X13853680D02*
D03*
X13918680D02*
D03*
X13983681D02*
D03*
X15672900Y9920238D02*
D03*
X15737900D02*
D03*
X15802901D02*
D03*
X15867900D02*
D03*
X15932899D02*
D03*
X15997900D02*
D03*
X16062900D02*
D03*
X16127901D02*
D03*
X15672900Y10510238D02*
D03*
X15737900D02*
D03*
X15802901D02*
D03*
X15867900D02*
D03*
X15932899D02*
D03*
X15997900D02*
D03*
X16062900D02*
D03*
X16127901D02*
D03*
X17514400Y9920238D02*
D03*
X17579401D02*
D03*
X17644400D02*
D03*
X17709399D02*
D03*
X17774400D02*
D03*
X17839400D02*
D03*
X17904401D02*
D03*
X17969400D02*
D03*
X17514400Y10510238D02*
D03*
X17579401D02*
D03*
X17644400D02*
D03*
X17709399D02*
D03*
X17774400D02*
D03*
X17839400D02*
D03*
X17904401D02*
D03*
X17969400D02*
D03*
D117*
X16393159Y4546600D02*
D03*
X16139160D02*
D03*
X11252200Y9880600D02*
D03*
Y10134600D02*
D03*
X19848810Y7672090D02*
D03*
X19594810D02*
D03*
X16167101Y9253220D02*
D03*
X15913100D02*
D03*
X16164560Y9540240D02*
D03*
X15910561D02*
D03*
D118*
X15885159Y4546600D02*
D03*
X19340810Y7672090D02*
D03*
X15659100Y9253220D02*
D03*
X15656560Y9540240D02*
D03*
D119*
X15232381Y9725660D02*
D03*
X18046700Y6939279D02*
D03*
X18966182Y6695439D02*
D03*
X19260823Y6951980D02*
D03*
X18671539Y6697979D02*
D03*
X18409920Y10596880D02*
D03*
X14147800Y4927600D02*
D03*
Y4635500D02*
D03*
D120*
X15232381Y9471660D02*
D03*
X18966182Y6949439D02*
D03*
X19260823Y6697980D02*
D03*
X18671539Y6951979D02*
D03*
D121*
X11252200Y10388600D02*
D03*
D122*
X18300699Y6939279D02*
D03*
X18663921Y10596880D02*
D03*
X14401801Y4927600D02*
D03*
Y4635500D02*
D03*
D123*
X11649999Y4300001D02*
D03*
D124*
X11449998D02*
D03*
X11649999Y4500001D02*
D03*
X11449998D02*
D03*
X11649999Y4700001D02*
D03*
X11449998D02*
D03*
X11649999Y4900001D02*
D03*
X11449998D02*
D03*
X11649999Y5100000D02*
D03*
X11449998D02*
D03*
X11649999Y5300001D02*
D03*
X11449998D02*
D03*
X11649999Y5500000D02*
D03*
X11449998D02*
D03*
X11649999Y5700001D02*
D03*
X11449998D02*
D03*
X11649999Y5900001D02*
D03*
X11449998D02*
D03*
X11649999Y6100000D02*
D03*
X11449998D02*
D03*
X11649999Y6300001D02*
D03*
X11449998D02*
D03*
X11649999Y6500000D02*
D03*
X11449998D02*
D03*
X11649999Y6700001D02*
D03*
X11449998D02*
D03*
X11649999Y6900000D02*
D03*
X11449998D02*
D03*
X11649999Y7100001D02*
D03*
X11449998D02*
D03*
X11649999Y7300001D02*
D03*
X11449998D02*
D03*
X11649999Y7500000D02*
D03*
X11449998D02*
D03*
X11649999Y7700001D02*
D03*
X11449998D02*
D03*
X11649999Y7900000D02*
D03*
X11449998D02*
D03*
X11649999Y8100001D02*
D03*
X11449998D02*
D03*
X11649999Y8300000D02*
D03*
X11449998D02*
D03*
X11649999Y8500001D02*
D03*
X11449998D02*
D03*
X11649999Y8700001D02*
D03*
X11449998D02*
D03*
X11649999Y8900000D02*
D03*
X11449998D02*
D03*
X11649999Y9100001D02*
D03*
X11449998D02*
D03*
D125*
X16419200Y11747080D02*
D03*
X18566440Y11750000D02*
D03*
X14277341Y11747500D02*
D03*
D126*
X16419200Y11493080D02*
D03*
X16165199Y11747080D02*
D03*
Y11493080D02*
D03*
X15911200Y11747080D02*
D03*
Y11493080D02*
D03*
X15657201Y11747080D02*
D03*
Y11493080D02*
D03*
X15403200Y11747080D02*
D03*
Y11493080D02*
D03*
X18566440Y11496000D02*
D03*
X18312440Y11750000D02*
D03*
Y11496000D02*
D03*
X18058440Y11750000D02*
D03*
Y11496000D02*
D03*
X17804440Y11750000D02*
D03*
Y11496000D02*
D03*
X17550439Y11750000D02*
D03*
Y11496000D02*
D03*
X14277341Y11493500D02*
D03*
X14023340Y11747500D02*
D03*
Y11493500D02*
D03*
X13769341Y11747500D02*
D03*
Y11493500D02*
D03*
X13515340Y11747500D02*
D03*
Y11493500D02*
D03*
X13261340Y11747500D02*
D03*
Y11493500D02*
D03*
D127*
X16837660Y9243060D02*
D03*
X16710660D02*
D03*
X16837660Y9370060D02*
D03*
X16710660D02*
D03*
X16837660Y9497060D02*
D03*
X16710660D02*
D03*
X16837660Y9624060D02*
D03*
X16710660D02*
D03*
X16837660Y9751060D02*
D03*
X16710660D02*
D03*
X11912600Y9817100D02*
D03*
X11785600D02*
D03*
X11912600Y9944100D02*
D03*
X11785600D02*
D03*
X11912600Y10071100D02*
D03*
X11785600D02*
D03*
X11912600Y10198100D02*
D03*
X11785600D02*
D03*
X11912600Y10325100D02*
D03*
X11785600D02*
D03*
D128*
X18952998Y6099498D02*
D03*
X19206998Y5972498D02*
D03*
X18952998Y5845498D02*
D03*
X19206998Y5718498D02*
D03*
X18952998Y5591498D02*
D03*
X19206998Y5464498D02*
D03*
X18952998Y5337498D02*
D03*
X19206998Y5210498D02*
D03*
D129*
X19537000Y4867498D02*
D03*
Y6442498D02*
D03*
D130*
X19841998Y5083498D02*
D03*
Y6226498D02*
D03*
D131*
X19799998Y10750002D02*
D03*
X20299998D02*
D03*
X19799997Y11250002D02*
D03*
X20299998D02*
D03*
X19799998Y9250002D02*
D03*
X20299998D02*
D03*
X20387115Y3100002D02*
D03*
Y2600002D02*
D03*
X19388956Y3100002D02*
D03*
Y2600002D02*
D03*
X18390797Y3100002D02*
D03*
Y2600002D02*
D03*
X17392638Y3100002D02*
D03*
Y2600002D02*
D03*
X16394479Y3100002D02*
D03*
Y2600002D02*
D03*
X15396320Y3100002D02*
D03*
Y2600002D02*
D03*
X14398161Y3100000D02*
D03*
Y2600000D02*
D03*
X13400002Y3100002D02*
D03*
Y2600002D02*
D03*
X19887115Y3100002D02*
D03*
Y2600002D02*
D03*
X18888956Y3100002D02*
D03*
Y2600002D02*
D03*
X17890797Y3100002D02*
D03*
Y2600002D02*
D03*
X16892638Y3100002D02*
D03*
Y2600002D02*
D03*
X15894479Y3100002D02*
D03*
Y2600002D02*
D03*
X14896320Y3100002D02*
D03*
Y2600002D02*
D03*
X13898161Y3099999D02*
D03*
Y2599999D02*
D03*
X12900002Y3100002D02*
D03*
Y2600002D02*
D03*
X11900000Y3100000D02*
D03*
Y2600000D02*
D03*
X12400002Y3099998D02*
D03*
Y2599998D02*
D03*
X19800000Y10250000D02*
D03*
X20300000D02*
D03*
X19800000Y9750000D02*
D03*
X20300000D02*
D03*
X19800000Y11750000D02*
D03*
X20300000D02*
D03*
X19800000Y8250000D02*
D03*
X20300000D02*
D03*
X19799995Y8750044D02*
D03*
X20299995D02*
D03*
X11300000Y11100000D02*
D03*
Y11600000D02*
D03*
X11400000Y3100000D02*
D03*
Y2600000D02*
D03*
X12300000Y11100000D02*
D03*
Y11600000D02*
D03*
X11800000Y11100000D02*
D03*
Y11600000D02*
D03*
D132*
X20386600Y7002602D02*
D03*
Y7402603D02*
D03*
D133*
X18854420Y10929620D02*
D03*
X13426440Y4564380D02*
D03*
X18046700Y7858760D02*
D03*
X12908279Y10787380D02*
D03*
X18046700Y4924913D02*
D03*
D134*
X17525699Y6015598D02*
D03*
Y5867598D02*
D03*
X17451698Y5941598D02*
D03*
X17525699Y6163598D02*
D03*
X17303699Y6089598D02*
D03*
X17377699Y6163598D02*
D03*
Y5867598D02*
D03*
X17451698Y6089598D02*
D03*
X17303699Y5941598D02*
D03*
X17599699Y6089598D02*
D03*
Y5941598D02*
D03*
X17377699Y6015598D02*
D03*
%TF.MD5,bbc8fe3c36c73a22310382d1bd7d32a8*%
M02*
