G04*
G04 #@! TF.GenerationSoftware,Altium Limited,Altium Designer,23.2.1 (34)*
G04*
G04 Layer_Color=32768*
%FSLAX44Y44*%
%MOMM*%
G71*
G04*
G04 #@! TF.SameCoordinates,4AEFFC81-8D6A-4C92-BCC4-55949A9363D9*
G04*
G04*
G04 #@! TF.FilePolarity,Positive*
G04*
G01*
G75*
%ADD87C,0.1000*%
%ADD88C,0.0500*%
D87*
X1555000Y506149D02*
Y710849D01*
X595000D02*
X1555000D01*
X595000Y506149D02*
Y710849D01*
Y506149D02*
X1555000D01*
X2070240Y15809D02*
Y71809D01*
Y15809D02*
X2139600D01*
Y71809D01*
X2070240D02*
X2139600D01*
X2069183Y533456D02*
Y602816D01*
X2125183D01*
Y533456D02*
Y602816D01*
X2069183Y533456D02*
X2125183D01*
X130567Y353787D02*
X136067D01*
X133317Y351037D02*
Y356537D01*
X155817Y351037D02*
Y356537D01*
X153067Y353787D02*
X158567D01*
X138067Y427287D02*
X143567D01*
X140817Y424537D02*
Y430037D01*
X162817Y424537D02*
Y430037D01*
X160067Y427287D02*
X165567D01*
X184505Y273659D02*
X190005D01*
X187255Y270909D02*
Y276409D01*
X209755Y270909D02*
Y276409D01*
X207005Y273659D02*
X212505D01*
X192005Y347159D02*
X197505D01*
X194755Y344408D02*
Y349908D01*
X216755Y344408D02*
Y349908D01*
X214005Y347159D02*
X219505D01*
X236159Y353592D02*
X241658D01*
X238909Y350843D02*
Y356343D01*
X261409Y350843D02*
Y356343D01*
X258659Y353592D02*
X264159D01*
X243659Y427093D02*
X249158D01*
X246409Y424342D02*
Y429842D01*
X268409Y424342D02*
Y429842D01*
X265658Y427093D02*
X271159D01*
X290435Y273405D02*
X295935D01*
X293185Y270655D02*
Y276154D01*
X315685Y270655D02*
Y276154D01*
X312935Y273405D02*
X318435D01*
X297935Y346904D02*
X303435D01*
X300685Y344155D02*
Y349655D01*
X322685Y344155D02*
Y349655D01*
X319935Y346904D02*
X325435D01*
X342149Y353533D02*
X347649D01*
X344899Y350783D02*
Y356283D01*
X367399Y350783D02*
Y356283D01*
X364649Y353533D02*
X370149D01*
X349649Y427033D02*
X355149D01*
X352399Y424283D02*
Y429783D01*
X374399Y424283D02*
Y429783D01*
X371649Y427033D02*
X377149D01*
X395845Y273405D02*
X401345D01*
X398595Y270655D02*
Y276154D01*
X421095Y270655D02*
Y276154D01*
X418345Y273405D02*
X423845D01*
X403345Y346904D02*
X408845D01*
X406095Y344155D02*
Y349655D01*
X428095Y344155D02*
Y349655D01*
X425345Y346904D02*
X430845D01*
X447813Y353533D02*
X453313D01*
X450563Y350783D02*
Y356283D01*
X473063Y350783D02*
Y356283D01*
X470313Y353533D02*
X475813D01*
X455313Y427033D02*
X460813D01*
X458063Y424283D02*
Y429783D01*
X480063Y424283D02*
Y429783D01*
X477313Y427033D02*
X482813D01*
X501255Y273405D02*
X506755D01*
X504005Y270655D02*
Y276154D01*
X526505Y270655D02*
Y276154D01*
X523755Y273405D02*
X529255D01*
X508755Y346904D02*
X514255D01*
X511505Y344155D02*
Y349655D01*
X533505Y344155D02*
Y349655D01*
X530755Y346904D02*
X536255D01*
X553477Y353533D02*
X558977D01*
X556227Y350783D02*
Y356283D01*
X578727Y350783D02*
Y356283D01*
X575977Y353533D02*
X581477D01*
X560977Y427033D02*
X566477D01*
X563727Y424283D02*
Y429783D01*
X585727Y424283D02*
Y429783D01*
X582977Y427033D02*
X588477D01*
X606919Y273405D02*
X612419D01*
X609669Y270655D02*
Y276154D01*
X632169Y270655D02*
Y276154D01*
X629419Y273405D02*
X634919D01*
X614419Y346904D02*
X619919D01*
X617169Y344155D02*
Y349655D01*
X639169Y344155D02*
Y349655D01*
X636419Y346904D02*
X641919D01*
X659141Y353533D02*
X664641D01*
X661891Y350783D02*
Y356283D01*
X684391Y350783D02*
Y356283D01*
X681641Y353533D02*
X687141D01*
X666641Y427033D02*
X672141D01*
X669391Y424283D02*
Y429783D01*
X691391Y424283D02*
Y429783D01*
X688641Y427033D02*
X694141D01*
X712329Y273405D02*
X717829D01*
X715079Y270655D02*
Y276154D01*
X737579Y270655D02*
Y276154D01*
X734829Y273405D02*
X740329D01*
X719829Y346904D02*
X725329D01*
X722579Y344155D02*
Y349655D01*
X744579Y344155D02*
Y349655D01*
X741829Y346904D02*
X747329D01*
X764805Y353533D02*
X770305D01*
X767555Y350783D02*
Y356283D01*
X790055Y350783D02*
Y356283D01*
X787305Y353533D02*
X792805D01*
X772305Y427033D02*
X777805D01*
X775055Y424283D02*
Y429783D01*
X797055Y424283D02*
Y429783D01*
X794305Y427033D02*
X799805D01*
X817993Y273405D02*
X823493D01*
X820743Y270655D02*
Y276154D01*
X843243Y270655D02*
Y276154D01*
X840493Y273405D02*
X845993D01*
X825493Y346904D02*
X830993D01*
X828243Y344155D02*
Y349655D01*
X850243Y344155D02*
Y349655D01*
X847493Y346904D02*
X852993D01*
X870469Y353533D02*
X875969D01*
X873219Y350783D02*
Y356283D01*
X895719Y350783D02*
Y356283D01*
X892969Y353533D02*
X898469D01*
X877969Y427033D02*
X883469D01*
X880719Y424283D02*
Y429783D01*
X902719Y424283D02*
Y429783D01*
X899969Y427033D02*
X905469D01*
X923403Y273405D02*
X928903D01*
X926153Y270655D02*
Y276154D01*
X948653Y270655D02*
Y276154D01*
X945903Y273405D02*
X951403D01*
X930903Y346904D02*
X936403D01*
X933653Y344155D02*
Y349655D01*
X955653Y344155D02*
Y349655D01*
X952903Y346904D02*
X958403D01*
X976133Y353533D02*
X981633D01*
X978883Y350783D02*
Y356283D01*
X1001383Y350783D02*
Y356283D01*
X998633Y353533D02*
X1004133D01*
X983633Y427033D02*
X989133D01*
X986383Y424283D02*
Y429783D01*
X1008383Y424283D02*
Y429783D01*
X1005633Y427033D02*
X1011133D01*
X1028813Y273405D02*
X1034313D01*
X1031563Y270655D02*
Y276154D01*
X1054063Y270655D02*
Y276154D01*
X1051313Y273405D02*
X1056813D01*
X1036313Y346904D02*
X1041813D01*
X1039063Y344155D02*
Y349655D01*
X1061063Y344155D02*
Y349655D01*
X1058313Y346904D02*
X1063813D01*
X1081797Y353533D02*
X1087297D01*
X1084547Y350783D02*
Y356283D01*
X1107047Y350783D02*
Y356283D01*
X1104297Y353533D02*
X1109797D01*
X1089297Y427033D02*
X1094797D01*
X1092047Y424283D02*
Y429783D01*
X1114047Y424283D02*
Y429783D01*
X1111297Y427033D02*
X1116797D01*
X1134477Y273405D02*
X1139977D01*
X1137227Y270655D02*
Y276154D01*
X1159727Y270655D02*
Y276154D01*
X1156977Y273405D02*
X1162477D01*
X1141977Y346904D02*
X1147477D01*
X1144727Y344155D02*
Y349655D01*
X1166727Y344155D02*
Y349655D01*
X1163977Y346904D02*
X1169477D01*
X1187461Y353533D02*
X1192961D01*
X1190211Y350783D02*
Y356283D01*
X1212711Y350783D02*
Y356283D01*
X1209961Y353533D02*
X1215461D01*
X1194961Y427033D02*
X1200461D01*
X1197711Y424283D02*
Y429783D01*
X1219711Y424283D02*
Y429783D01*
X1216961Y427033D02*
X1222461D01*
X1239887Y273405D02*
X1245387D01*
X1242637Y270655D02*
Y276154D01*
X1265137Y270655D02*
Y276154D01*
X1262387Y273405D02*
X1267887D01*
X1247387Y346904D02*
X1252887D01*
X1250137Y344155D02*
Y349655D01*
X1272137Y344155D02*
Y349655D01*
X1269387Y346904D02*
X1274887D01*
X1293125Y353533D02*
X1298625D01*
X1295875Y350783D02*
Y356283D01*
X1318375Y350783D02*
Y356283D01*
X1315625Y353533D02*
X1321125D01*
X1300625Y427033D02*
X1306125D01*
X1303375Y424283D02*
Y429783D01*
X1325375Y424283D02*
Y429783D01*
X1322625Y427033D02*
X1328125D01*
X1345551Y273405D02*
X1351051D01*
X1348301Y270655D02*
Y276154D01*
X1370801Y270655D02*
Y276154D01*
X1368051Y273405D02*
X1373551D01*
X1353051Y346904D02*
X1358551D01*
X1355801Y344155D02*
Y349655D01*
X1377801Y344155D02*
Y349655D01*
X1375051Y346904D02*
X1380551D01*
X1398789Y353533D02*
X1404289D01*
X1401539Y350783D02*
Y356283D01*
X1424039Y350783D02*
Y356283D01*
X1421289Y353533D02*
X1426789D01*
X1406289Y427033D02*
X1411789D01*
X1409039Y424283D02*
Y429783D01*
X1431039Y424283D02*
Y429783D01*
X1428289Y427033D02*
X1433789D01*
X1450961Y273405D02*
X1456461D01*
X1453711Y270655D02*
Y276154D01*
X1476211Y270655D02*
Y276154D01*
X1473461Y273405D02*
X1478961D01*
X1458461Y346904D02*
X1463961D01*
X1461211Y344155D02*
Y349655D01*
X1483211Y344155D02*
Y349655D01*
X1480461Y346904D02*
X1485961D01*
X1504453Y353533D02*
X1509953D01*
X1507203Y350783D02*
Y356283D01*
X1529703Y350783D02*
Y356283D01*
X1526953Y353533D02*
X1532453D01*
X1511953Y427033D02*
X1517453D01*
X1514703Y424283D02*
Y429783D01*
X1536703Y424283D02*
Y429783D01*
X1533953Y427033D02*
X1539453D01*
X1556625Y273405D02*
X1562125D01*
X1559375Y270655D02*
Y276154D01*
X1581875Y270655D02*
Y276154D01*
X1579125Y273405D02*
X1584625D01*
X1564125Y346904D02*
X1569625D01*
X1566875Y344155D02*
Y349655D01*
X1588875Y344155D02*
Y349655D01*
X1586125Y346904D02*
X1591625D01*
X1610117Y353533D02*
X1615617D01*
X1612867Y350783D02*
Y356283D01*
X1635367Y350783D02*
Y356283D01*
X1632617Y353533D02*
X1638117D01*
X1617617Y427033D02*
X1623117D01*
X1620367Y424283D02*
Y429783D01*
X1642367Y424283D02*
Y429783D01*
X1639617Y427033D02*
X1645117D01*
X1662035Y273405D02*
X1667535D01*
X1664785Y270655D02*
Y276154D01*
X1687285Y270655D02*
Y276154D01*
X1684535Y273405D02*
X1690035D01*
X1669535Y346904D02*
X1675035D01*
X1672285Y344155D02*
Y349655D01*
X1694285Y344155D02*
Y349655D01*
X1691535Y346904D02*
X1697035D01*
X1715781Y353533D02*
X1721281D01*
X1718531Y350783D02*
Y356283D01*
X1741031Y350783D02*
Y356283D01*
X1738281Y353533D02*
X1743781D01*
X1723281Y427033D02*
X1728781D01*
X1726031Y424283D02*
Y429783D01*
X1748031Y424283D02*
Y429783D01*
X1745281Y427033D02*
X1750781D01*
X1767445Y273405D02*
X1772945D01*
X1770195Y270655D02*
Y276154D01*
X1792695Y270655D02*
Y276154D01*
X1789945Y273405D02*
X1795445D01*
X1774945Y346904D02*
X1780445D01*
X1777695Y344155D02*
Y349655D01*
X1799695Y344155D02*
Y349655D01*
X1796945Y346904D02*
X1802445D01*
X1821445Y353533D02*
X1826945D01*
X1824195Y350783D02*
Y356283D01*
X1846695Y350783D02*
Y356283D01*
X1843945Y353533D02*
X1849445D01*
X1828945Y427033D02*
X1834445D01*
X1831695Y424283D02*
Y429783D01*
X1853695Y424283D02*
Y429783D01*
X1850945Y427033D02*
X1856445D01*
X1873109Y273405D02*
X1878609D01*
X1875859Y270655D02*
Y276154D01*
X1898359Y270655D02*
Y276154D01*
X1895609Y273405D02*
X1901109D01*
X1880609Y346904D02*
X1886109D01*
X1883359Y344155D02*
Y349655D01*
X1905359Y344155D02*
Y349655D01*
X1902609Y346904D02*
X1908109D01*
X1927109Y353533D02*
X1932609D01*
X1929859Y350783D02*
Y356283D01*
X1952359Y350783D02*
Y356283D01*
X1949609Y353533D02*
X1955109D01*
X1934609Y427033D02*
X1940109D01*
X1937359Y424283D02*
Y429783D01*
X1959359Y424283D02*
Y429783D01*
X1956609Y427033D02*
X1962109D01*
X1978519Y273405D02*
X1984019D01*
X1981269Y270655D02*
Y276154D01*
X2003769Y270655D02*
Y276154D01*
X2001019Y273405D02*
X2006519D01*
X1986019Y346904D02*
X1991519D01*
X1988769Y344155D02*
Y349655D01*
X2010769Y344155D02*
Y349655D01*
X2008019Y346904D02*
X2013519D01*
X2032773Y353533D02*
X2038273D01*
X2035523Y350783D02*
Y356283D01*
X2058023Y350783D02*
Y356283D01*
X2055273Y353533D02*
X2060773D01*
X2040273Y427033D02*
X2045773D01*
X2043023Y424283D02*
Y429783D01*
X2065023Y424283D02*
Y429783D01*
X2062273Y427033D02*
X2067773D01*
X2084183Y273405D02*
X2089683D01*
X2086933Y270655D02*
Y276154D01*
X2109433Y270655D02*
Y276154D01*
X2106683Y273405D02*
X2112183D01*
X2091683Y346904D02*
X2097183D01*
X2094433Y344155D02*
Y349655D01*
X2116433Y344155D02*
Y349655D01*
X2113683Y346904D02*
X2119183D01*
X54587Y427372D02*
X60086D01*
X57337Y424622D02*
Y430122D01*
X35336Y424622D02*
Y430122D01*
X32587Y427372D02*
X38087D01*
X47586Y353872D02*
X53087D01*
X50336Y351122D02*
Y356622D01*
X27836Y351122D02*
Y356622D01*
X25087Y353872D02*
X30587D01*
X2081930Y71589D02*
X2087430D01*
X2084680Y68839D02*
Y74339D01*
X2056530Y33489D02*
X2062030D01*
X2059280Y30739D02*
Y36239D01*
X2069683Y543706D02*
Y549206D01*
X2066933Y546456D02*
X2072433D01*
X2110143Y515446D02*
Y520946D01*
X2107393Y518196D02*
X2112893D01*
X78841Y273659D02*
X84341D01*
X81591Y270909D02*
Y276409D01*
X103574Y271150D02*
Y276650D01*
X100824Y273900D02*
X106325D01*
X86341Y347159D02*
X91841D01*
X89091Y344408D02*
Y349908D01*
X111091Y344408D02*
Y349908D01*
X108341Y347159D02*
X113841D01*
X2060633Y12012D02*
X2066133D01*
X2063383Y9262D02*
Y14762D01*
X1994720Y551754D02*
X2000220D01*
X1997470Y549004D02*
Y554504D01*
X364183Y196132D02*
X374183D01*
X369183Y191132D02*
Y201132D01*
X302467Y196422D02*
X312467D01*
X307467Y191422D02*
Y201422D01*
X575473Y196132D02*
X585473D01*
X580473Y191132D02*
Y201132D01*
X513757Y196422D02*
X523757D01*
X518757Y191422D02*
Y201422D01*
X786763Y196132D02*
X796763D01*
X791763Y191132D02*
Y201132D01*
X725047Y196422D02*
X735047D01*
X730047Y191422D02*
Y201422D01*
X998052Y196132D02*
X1008052D01*
X1003052Y191132D02*
Y201132D01*
X936336Y196422D02*
X946336D01*
X941336Y191422D02*
Y201422D01*
X1209342Y196132D02*
X1219342D01*
X1214342Y191132D02*
Y201132D01*
X1147626Y196422D02*
X1157626D01*
X1152626Y191422D02*
Y201422D01*
X1420632Y196132D02*
X1430632D01*
X1425632Y191132D02*
Y201132D01*
X1358916Y196422D02*
X1368916D01*
X1363916Y191422D02*
Y201422D01*
X1631922Y196132D02*
X1641922D01*
X1636922Y191132D02*
Y201132D01*
X1570206Y196422D02*
X1580206D01*
X1575206Y191422D02*
Y201422D01*
X1843211Y196132D02*
X1853211D01*
X1848211Y191132D02*
Y201132D01*
X1781495Y196422D02*
X1791495D01*
X1786495Y191422D02*
Y201422D01*
X2054501Y196132D02*
X2064501D01*
X2059501Y191132D02*
Y201132D01*
X1992785Y196422D02*
X2002785D01*
X1997785Y191422D02*
Y201422D01*
X152848Y196329D02*
X162848D01*
X157848Y191329D02*
Y201329D01*
X91132Y196619D02*
X101132D01*
X96132Y191619D02*
Y201619D01*
D88*
X1370750Y-14750D02*
Y84250D01*
X839250Y-14750D02*
X1370750D01*
X839250D02*
Y84250D01*
X1370750D01*
X2139000Y77999D02*
Y110899D01*
X2071000D02*
X2139000D01*
X2071000Y77999D02*
Y110899D01*
Y77999D02*
X2139000D01*
X2061133Y529956D02*
Y597956D01*
X2028233Y529956D02*
X2061133D01*
X2028233D02*
Y597956D01*
X2061133D01*
X2070960Y25649D02*
Y61649D01*
Y25649D02*
X2133960D01*
Y61649D01*
X2070960D02*
X2133960D01*
X2079183Y532456D02*
Y595456D01*
X2115183D01*
Y532456D02*
Y595456D01*
X2079183Y532456D02*
X2115183D01*
X142317Y349287D02*
Y358287D01*
X124317Y349287D02*
Y358287D01*
X142317D01*
X124317Y349287D02*
X142317D01*
X146817Y358287D02*
X164817D01*
X146817Y349287D02*
X164817D01*
Y358287D01*
X146817Y349287D02*
Y358287D01*
X149817Y422787D02*
Y431787D01*
X131817Y422787D02*
Y431787D01*
Y422787D02*
X149817D01*
X131817Y431787D02*
X149817D01*
X153817Y422787D02*
X171817D01*
X153817Y431787D02*
X171817D01*
Y422787D02*
Y431787D01*
X153817Y422787D02*
Y431787D01*
X196255Y269158D02*
Y278158D01*
X178255Y269158D02*
Y278158D01*
X196255D01*
X178255Y269158D02*
X196255D01*
X200755Y278158D02*
X218755D01*
X200755Y269158D02*
X218755D01*
Y278158D01*
X200755Y269158D02*
Y278158D01*
X203755Y342659D02*
Y351659D01*
X185755Y342659D02*
Y351659D01*
Y342659D02*
X203755D01*
X185755Y351659D02*
X203755D01*
X207755Y342659D02*
X225755D01*
X207755Y351659D02*
X225755D01*
Y342659D02*
Y351659D01*
X207755Y342659D02*
Y351659D01*
X247908Y349092D02*
Y358092D01*
X229909Y349092D02*
Y358092D01*
X247908D01*
X229909Y349092D02*
X247908D01*
X252409Y358092D02*
X270409D01*
X252409Y349092D02*
X270409D01*
Y358092D01*
X252409Y349092D02*
Y358092D01*
X255408Y422593D02*
Y431592D01*
X237409Y422593D02*
Y431592D01*
Y422593D02*
X255408D01*
X237409Y431592D02*
X255408D01*
X259408Y422593D02*
X277409D01*
X259408Y431592D02*
X277409D01*
Y422593D02*
Y431592D01*
X259408Y422593D02*
Y431592D01*
X302185Y268904D02*
Y277904D01*
X284185Y268904D02*
Y277904D01*
X302185D01*
X284185Y268904D02*
X302185D01*
X306685Y277904D02*
X324685D01*
X306685Y268904D02*
X324685D01*
Y277904D01*
X306685Y268904D02*
Y277904D01*
X309685Y342405D02*
Y351404D01*
X291685Y342405D02*
Y351404D01*
Y342405D02*
X309685D01*
X291685Y351404D02*
X309685D01*
X313685Y342405D02*
X331685D01*
X313685Y351404D02*
X331685D01*
Y342405D02*
Y351404D01*
X313685Y342405D02*
Y351404D01*
X353899Y349033D02*
Y358033D01*
X335899Y349033D02*
Y358033D01*
X353899D01*
X335899Y349033D02*
X353899D01*
X358399Y358033D02*
X376399D01*
X358399Y349033D02*
X376399D01*
Y358033D01*
X358399Y349033D02*
Y358033D01*
X361399Y422533D02*
Y431533D01*
X343399Y422533D02*
Y431533D01*
Y422533D02*
X361399D01*
X343399Y431533D02*
X361399D01*
X365399Y422533D02*
X383399D01*
X365399Y431533D02*
X383399D01*
Y422533D02*
Y431533D01*
X365399Y422533D02*
Y431533D01*
X407595Y268904D02*
Y277904D01*
X389595Y268904D02*
Y277904D01*
X407595D01*
X389595Y268904D02*
X407595D01*
X412095Y277904D02*
X430095D01*
X412095Y268904D02*
X430095D01*
Y277904D01*
X412095Y268904D02*
Y277904D01*
X415095Y342405D02*
Y351404D01*
X397095Y342405D02*
Y351404D01*
Y342405D02*
X415095D01*
X397095Y351404D02*
X415095D01*
X419095Y342405D02*
X437095D01*
X419095Y351404D02*
X437095D01*
Y342405D02*
Y351404D01*
X419095Y342405D02*
Y351404D01*
X459563Y349033D02*
Y358033D01*
X441563Y349033D02*
Y358033D01*
X459563D01*
X441563Y349033D02*
X459563D01*
X464063Y358033D02*
X482063D01*
X464063Y349033D02*
X482063D01*
Y358033D01*
X464063Y349033D02*
Y358033D01*
X467063Y422533D02*
Y431533D01*
X449063Y422533D02*
Y431533D01*
Y422533D02*
X467063D01*
X449063Y431533D02*
X467063D01*
X471063Y422533D02*
X489063D01*
X471063Y431533D02*
X489063D01*
Y422533D02*
Y431533D01*
X471063Y422533D02*
Y431533D01*
X513005Y268904D02*
Y277904D01*
X495005Y268904D02*
Y277904D01*
X513005D01*
X495005Y268904D02*
X513005D01*
X517505Y277904D02*
X535505D01*
X517505Y268904D02*
X535505D01*
Y277904D01*
X517505Y268904D02*
Y277904D01*
X520505Y342405D02*
Y351404D01*
X502505Y342405D02*
Y351404D01*
Y342405D02*
X520505D01*
X502505Y351404D02*
X520505D01*
X524505Y342405D02*
X542505D01*
X524505Y351404D02*
X542505D01*
Y342405D02*
Y351404D01*
X524505Y342405D02*
Y351404D01*
X565227Y349033D02*
Y358033D01*
X547227Y349033D02*
Y358033D01*
X565227D01*
X547227Y349033D02*
X565227D01*
X569727Y358033D02*
X587727D01*
X569727Y349033D02*
X587727D01*
Y358033D01*
X569727Y349033D02*
Y358033D01*
X572727Y422533D02*
Y431533D01*
X554727Y422533D02*
Y431533D01*
Y422533D02*
X572727D01*
X554727Y431533D02*
X572727D01*
X576727Y422533D02*
X594727D01*
X576727Y431533D02*
X594727D01*
Y422533D02*
Y431533D01*
X576727Y422533D02*
Y431533D01*
X618669Y268904D02*
Y277904D01*
X600669Y268904D02*
Y277904D01*
X618669D01*
X600669Y268904D02*
X618669D01*
X623169Y277904D02*
X641169D01*
X623169Y268904D02*
X641169D01*
Y277904D01*
X623169Y268904D02*
Y277904D01*
X626169Y342405D02*
Y351404D01*
X608169Y342405D02*
Y351404D01*
Y342405D02*
X626169D01*
X608169Y351404D02*
X626169D01*
X630169Y342405D02*
X648169D01*
X630169Y351404D02*
X648169D01*
Y342405D02*
Y351404D01*
X630169Y342405D02*
Y351404D01*
X670891Y349033D02*
Y358033D01*
X652891Y349033D02*
Y358033D01*
X670891D01*
X652891Y349033D02*
X670891D01*
X675391Y358033D02*
X693391D01*
X675391Y349033D02*
X693391D01*
Y358033D01*
X675391Y349033D02*
Y358033D01*
X678391Y422533D02*
Y431533D01*
X660391Y422533D02*
Y431533D01*
Y422533D02*
X678391D01*
X660391Y431533D02*
X678391D01*
X682391Y422533D02*
X700391D01*
X682391Y431533D02*
X700391D01*
Y422533D02*
Y431533D01*
X682391Y422533D02*
Y431533D01*
X724079Y268904D02*
Y277904D01*
X706079Y268904D02*
Y277904D01*
X724079D01*
X706079Y268904D02*
X724079D01*
X728579Y277904D02*
X746579D01*
X728579Y268904D02*
X746579D01*
Y277904D01*
X728579Y268904D02*
Y277904D01*
X731579Y342405D02*
Y351404D01*
X713579Y342405D02*
Y351404D01*
Y342405D02*
X731579D01*
X713579Y351404D02*
X731579D01*
X735579Y342405D02*
X753579D01*
X735579Y351404D02*
X753579D01*
Y342405D02*
Y351404D01*
X735579Y342405D02*
Y351404D01*
X776555Y349033D02*
Y358033D01*
X758555Y349033D02*
Y358033D01*
X776555D01*
X758555Y349033D02*
X776555D01*
X781055Y358033D02*
X799055D01*
X781055Y349033D02*
X799055D01*
Y358033D01*
X781055Y349033D02*
Y358033D01*
X784055Y422533D02*
Y431533D01*
X766055Y422533D02*
Y431533D01*
Y422533D02*
X784055D01*
X766055Y431533D02*
X784055D01*
X788055Y422533D02*
X806055D01*
X788055Y431533D02*
X806055D01*
Y422533D02*
Y431533D01*
X788055Y422533D02*
Y431533D01*
X829743Y268904D02*
Y277904D01*
X811743Y268904D02*
Y277904D01*
X829743D01*
X811743Y268904D02*
X829743D01*
X834243Y277904D02*
X852243D01*
X834243Y268904D02*
X852243D01*
Y277904D01*
X834243Y268904D02*
Y277904D01*
X837243Y342405D02*
Y351404D01*
X819243Y342405D02*
Y351404D01*
Y342405D02*
X837243D01*
X819243Y351404D02*
X837243D01*
X841243Y342405D02*
X859243D01*
X841243Y351404D02*
X859243D01*
Y342405D02*
Y351404D01*
X841243Y342405D02*
Y351404D01*
X882219Y349033D02*
Y358033D01*
X864219Y349033D02*
Y358033D01*
X882219D01*
X864219Y349033D02*
X882219D01*
X886719Y358033D02*
X904719D01*
X886719Y349033D02*
X904719D01*
Y358033D01*
X886719Y349033D02*
Y358033D01*
X889719Y422533D02*
Y431533D01*
X871719Y422533D02*
Y431533D01*
Y422533D02*
X889719D01*
X871719Y431533D02*
X889719D01*
X893719Y422533D02*
X911719D01*
X893719Y431533D02*
X911719D01*
Y422533D02*
Y431533D01*
X893719Y422533D02*
Y431533D01*
X935153Y268904D02*
Y277904D01*
X917153Y268904D02*
Y277904D01*
X935153D01*
X917153Y268904D02*
X935153D01*
X939653Y277904D02*
X957653D01*
X939653Y268904D02*
X957653D01*
Y277904D01*
X939653Y268904D02*
Y277904D01*
X942653Y342405D02*
Y351404D01*
X924653Y342405D02*
Y351404D01*
Y342405D02*
X942653D01*
X924653Y351404D02*
X942653D01*
X946653Y342405D02*
X964653D01*
X946653Y351404D02*
X964653D01*
Y342405D02*
Y351404D01*
X946653Y342405D02*
Y351404D01*
X987883Y349033D02*
Y358033D01*
X969883Y349033D02*
Y358033D01*
X987883D01*
X969883Y349033D02*
X987883D01*
X992383Y358033D02*
X1010383D01*
X992383Y349033D02*
X1010383D01*
Y358033D01*
X992383Y349033D02*
Y358033D01*
X995383Y422533D02*
Y431533D01*
X977383Y422533D02*
Y431533D01*
Y422533D02*
X995383D01*
X977383Y431533D02*
X995383D01*
X999383Y422533D02*
X1017383D01*
X999383Y431533D02*
X1017383D01*
Y422533D02*
Y431533D01*
X999383Y422533D02*
Y431533D01*
X1040563Y268904D02*
Y277904D01*
X1022563Y268904D02*
Y277904D01*
X1040563D01*
X1022563Y268904D02*
X1040563D01*
X1045063Y277904D02*
X1063063D01*
X1045063Y268904D02*
X1063063D01*
Y277904D01*
X1045063Y268904D02*
Y277904D01*
X1048063Y342405D02*
Y351404D01*
X1030063Y342405D02*
Y351404D01*
Y342405D02*
X1048063D01*
X1030063Y351404D02*
X1048063D01*
X1052063Y342405D02*
X1070063D01*
X1052063Y351404D02*
X1070063D01*
Y342405D02*
Y351404D01*
X1052063Y342405D02*
Y351404D01*
X1093547Y349033D02*
Y358033D01*
X1075547Y349033D02*
Y358033D01*
X1093547D01*
X1075547Y349033D02*
X1093547D01*
X1098047Y358033D02*
X1116047D01*
X1098047Y349033D02*
X1116047D01*
Y358033D01*
X1098047Y349033D02*
Y358033D01*
X1101047Y422533D02*
Y431533D01*
X1083047Y422533D02*
Y431533D01*
Y422533D02*
X1101047D01*
X1083047Y431533D02*
X1101047D01*
X1105047Y422533D02*
X1123047D01*
X1105047Y431533D02*
X1123047D01*
Y422533D02*
Y431533D01*
X1105047Y422533D02*
Y431533D01*
X1146227Y268904D02*
Y277904D01*
X1128227Y268904D02*
Y277904D01*
X1146227D01*
X1128227Y268904D02*
X1146227D01*
X1150727Y277904D02*
X1168727D01*
X1150727Y268904D02*
X1168727D01*
Y277904D01*
X1150727Y268904D02*
Y277904D01*
X1153727Y342405D02*
Y351404D01*
X1135727Y342405D02*
Y351404D01*
Y342405D02*
X1153727D01*
X1135727Y351404D02*
X1153727D01*
X1157727Y342405D02*
X1175727D01*
X1157727Y351404D02*
X1175727D01*
Y342405D02*
Y351404D01*
X1157727Y342405D02*
Y351404D01*
X1199211Y349033D02*
Y358033D01*
X1181211Y349033D02*
Y358033D01*
X1199211D01*
X1181211Y349033D02*
X1199211D01*
X1203711Y358033D02*
X1221711D01*
X1203711Y349033D02*
X1221711D01*
Y358033D01*
X1203711Y349033D02*
Y358033D01*
X1206711Y422533D02*
Y431533D01*
X1188711Y422533D02*
Y431533D01*
Y422533D02*
X1206711D01*
X1188711Y431533D02*
X1206711D01*
X1210711Y422533D02*
X1228711D01*
X1210711Y431533D02*
X1228711D01*
Y422533D02*
Y431533D01*
X1210711Y422533D02*
Y431533D01*
X1251637Y268904D02*
Y277904D01*
X1233637Y268904D02*
Y277904D01*
X1251637D01*
X1233637Y268904D02*
X1251637D01*
X1256137Y277904D02*
X1274137D01*
X1256137Y268904D02*
X1274137D01*
Y277904D01*
X1256137Y268904D02*
Y277904D01*
X1259137Y342405D02*
Y351404D01*
X1241137Y342405D02*
Y351404D01*
Y342405D02*
X1259137D01*
X1241137Y351404D02*
X1259137D01*
X1263137Y342405D02*
X1281137D01*
X1263137Y351404D02*
X1281137D01*
Y342405D02*
Y351404D01*
X1263137Y342405D02*
Y351404D01*
X1304875Y349033D02*
Y358033D01*
X1286875Y349033D02*
Y358033D01*
X1304875D01*
X1286875Y349033D02*
X1304875D01*
X1309375Y358033D02*
X1327375D01*
X1309375Y349033D02*
X1327375D01*
Y358033D01*
X1309375Y349033D02*
Y358033D01*
X1312375Y422533D02*
Y431533D01*
X1294375Y422533D02*
Y431533D01*
Y422533D02*
X1312375D01*
X1294375Y431533D02*
X1312375D01*
X1316375Y422533D02*
X1334375D01*
X1316375Y431533D02*
X1334375D01*
Y422533D02*
Y431533D01*
X1316375Y422533D02*
Y431533D01*
X1357301Y268904D02*
Y277904D01*
X1339301Y268904D02*
Y277904D01*
X1357301D01*
X1339301Y268904D02*
X1357301D01*
X1361801Y277904D02*
X1379801D01*
X1361801Y268904D02*
X1379801D01*
Y277904D01*
X1361801Y268904D02*
Y277904D01*
X1364801Y342405D02*
Y351404D01*
X1346801Y342405D02*
Y351404D01*
Y342405D02*
X1364801D01*
X1346801Y351404D02*
X1364801D01*
X1368801Y342405D02*
X1386801D01*
X1368801Y351404D02*
X1386801D01*
Y342405D02*
Y351404D01*
X1368801Y342405D02*
Y351404D01*
X1410539Y349033D02*
Y358033D01*
X1392539Y349033D02*
Y358033D01*
X1410539D01*
X1392539Y349033D02*
X1410539D01*
X1415039Y358033D02*
X1433039D01*
X1415039Y349033D02*
X1433039D01*
Y358033D01*
X1415039Y349033D02*
Y358033D01*
X1418039Y422533D02*
Y431533D01*
X1400039Y422533D02*
Y431533D01*
Y422533D02*
X1418039D01*
X1400039Y431533D02*
X1418039D01*
X1422039Y422533D02*
X1440039D01*
X1422039Y431533D02*
X1440039D01*
Y422533D02*
Y431533D01*
X1422039Y422533D02*
Y431533D01*
X1462711Y268904D02*
Y277904D01*
X1444711Y268904D02*
Y277904D01*
X1462711D01*
X1444711Y268904D02*
X1462711D01*
X1467211Y277904D02*
X1485211D01*
X1467211Y268904D02*
X1485211D01*
Y277904D01*
X1467211Y268904D02*
Y277904D01*
X1470211Y342405D02*
Y351404D01*
X1452211Y342405D02*
Y351404D01*
Y342405D02*
X1470211D01*
X1452211Y351404D02*
X1470211D01*
X1474211Y342405D02*
X1492211D01*
X1474211Y351404D02*
X1492211D01*
Y342405D02*
Y351404D01*
X1474211Y342405D02*
Y351404D01*
X1516203Y349033D02*
Y358033D01*
X1498203Y349033D02*
Y358033D01*
X1516203D01*
X1498203Y349033D02*
X1516203D01*
X1520703Y358033D02*
X1538703D01*
X1520703Y349033D02*
X1538703D01*
Y358033D01*
X1520703Y349033D02*
Y358033D01*
X1523703Y422533D02*
Y431533D01*
X1505703Y422533D02*
Y431533D01*
Y422533D02*
X1523703D01*
X1505703Y431533D02*
X1523703D01*
X1527703Y422533D02*
X1545703D01*
X1527703Y431533D02*
X1545703D01*
Y422533D02*
Y431533D01*
X1527703Y422533D02*
Y431533D01*
X1568375Y268904D02*
Y277904D01*
X1550375Y268904D02*
Y277904D01*
X1568375D01*
X1550375Y268904D02*
X1568375D01*
X1572875Y277904D02*
X1590875D01*
X1572875Y268904D02*
X1590875D01*
Y277904D01*
X1572875Y268904D02*
Y277904D01*
X1575875Y342405D02*
Y351404D01*
X1557875Y342405D02*
Y351404D01*
Y342405D02*
X1575875D01*
X1557875Y351404D02*
X1575875D01*
X1579875Y342405D02*
X1597875D01*
X1579875Y351404D02*
X1597875D01*
Y342405D02*
Y351404D01*
X1579875Y342405D02*
Y351404D01*
X1621867Y349033D02*
Y358033D01*
X1603867Y349033D02*
Y358033D01*
X1621867D01*
X1603867Y349033D02*
X1621867D01*
X1626367Y358033D02*
X1644367D01*
X1626367Y349033D02*
X1644367D01*
Y358033D01*
X1626367Y349033D02*
Y358033D01*
X1629367Y422533D02*
Y431533D01*
X1611367Y422533D02*
Y431533D01*
Y422533D02*
X1629367D01*
X1611367Y431533D02*
X1629367D01*
X1633367Y422533D02*
X1651367D01*
X1633367Y431533D02*
X1651367D01*
Y422533D02*
Y431533D01*
X1633367Y422533D02*
Y431533D01*
X1673785Y268904D02*
Y277904D01*
X1655785Y268904D02*
Y277904D01*
X1673785D01*
X1655785Y268904D02*
X1673785D01*
X1678285Y277904D02*
X1696285D01*
X1678285Y268904D02*
X1696285D01*
Y277904D01*
X1678285Y268904D02*
Y277904D01*
X1681285Y342405D02*
Y351404D01*
X1663285Y342405D02*
Y351404D01*
Y342405D02*
X1681285D01*
X1663285Y351404D02*
X1681285D01*
X1685285Y342405D02*
X1703285D01*
X1685285Y351404D02*
X1703285D01*
Y342405D02*
Y351404D01*
X1685285Y342405D02*
Y351404D01*
X1727531Y349033D02*
Y358033D01*
X1709531Y349033D02*
Y358033D01*
X1727531D01*
X1709531Y349033D02*
X1727531D01*
X1732031Y358033D02*
X1750031D01*
X1732031Y349033D02*
X1750031D01*
Y358033D01*
X1732031Y349033D02*
Y358033D01*
X1735031Y422533D02*
Y431533D01*
X1717031Y422533D02*
Y431533D01*
Y422533D02*
X1735031D01*
X1717031Y431533D02*
X1735031D01*
X1739031Y422533D02*
X1757031D01*
X1739031Y431533D02*
X1757031D01*
Y422533D02*
Y431533D01*
X1739031Y422533D02*
Y431533D01*
X1779195Y268904D02*
Y277904D01*
X1761195Y268904D02*
Y277904D01*
X1779195D01*
X1761195Y268904D02*
X1779195D01*
X1783695Y277904D02*
X1801695D01*
X1783695Y268904D02*
X1801695D01*
Y277904D01*
X1783695Y268904D02*
Y277904D01*
X1786695Y342405D02*
Y351404D01*
X1768695Y342405D02*
Y351404D01*
Y342405D02*
X1786695D01*
X1768695Y351404D02*
X1786695D01*
X1790695Y342405D02*
X1808695D01*
X1790695Y351404D02*
X1808695D01*
Y342405D02*
Y351404D01*
X1790695Y342405D02*
Y351404D01*
X1833195Y349033D02*
Y358033D01*
X1815195Y349033D02*
Y358033D01*
X1833195D01*
X1815195Y349033D02*
X1833195D01*
X1837695Y358033D02*
X1855695D01*
X1837695Y349033D02*
X1855695D01*
Y358033D01*
X1837695Y349033D02*
Y358033D01*
X1840695Y422533D02*
Y431533D01*
X1822695Y422533D02*
Y431533D01*
Y422533D02*
X1840695D01*
X1822695Y431533D02*
X1840695D01*
X1844695Y422533D02*
X1862695D01*
X1844695Y431533D02*
X1862695D01*
Y422533D02*
Y431533D01*
X1844695Y422533D02*
Y431533D01*
X1884859Y268904D02*
Y277904D01*
X1866859Y268904D02*
Y277904D01*
X1884859D01*
X1866859Y268904D02*
X1884859D01*
X1889359Y277904D02*
X1907359D01*
X1889359Y268904D02*
X1907359D01*
Y277904D01*
X1889359Y268904D02*
Y277904D01*
X1892359Y342405D02*
Y351404D01*
X1874359Y342405D02*
Y351404D01*
Y342405D02*
X1892359D01*
X1874359Y351404D02*
X1892359D01*
X1896359Y342405D02*
X1914359D01*
X1896359Y351404D02*
X1914359D01*
Y342405D02*
Y351404D01*
X1896359Y342405D02*
Y351404D01*
X1938859Y349033D02*
Y358033D01*
X1920859Y349033D02*
Y358033D01*
X1938859D01*
X1920859Y349033D02*
X1938859D01*
X1943359Y358033D02*
X1961359D01*
X1943359Y349033D02*
X1961359D01*
Y358033D01*
X1943359Y349033D02*
Y358033D01*
X1946359Y422533D02*
Y431533D01*
X1928359Y422533D02*
Y431533D01*
Y422533D02*
X1946359D01*
X1928359Y431533D02*
X1946359D01*
X1950359Y422533D02*
X1968359D01*
X1950359Y431533D02*
X1968359D01*
Y422533D02*
Y431533D01*
X1950359Y422533D02*
Y431533D01*
X1990269Y268904D02*
Y277904D01*
X1972269Y268904D02*
Y277904D01*
X1990269D01*
X1972269Y268904D02*
X1990269D01*
X1994769Y277904D02*
X2012769D01*
X1994769Y268904D02*
X2012769D01*
Y277904D01*
X1994769Y268904D02*
Y277904D01*
X1997769Y342405D02*
Y351404D01*
X1979769Y342405D02*
Y351404D01*
Y342405D02*
X1997769D01*
X1979769Y351404D02*
X1997769D01*
X2001769Y342405D02*
X2019769D01*
X2001769Y351404D02*
X2019769D01*
Y342405D02*
Y351404D01*
X2001769Y342405D02*
Y351404D01*
X2044523Y349033D02*
Y358033D01*
X2026523Y349033D02*
Y358033D01*
X2044523D01*
X2026523Y349033D02*
X2044523D01*
X2049023Y358033D02*
X2067023D01*
X2049023Y349033D02*
X2067023D01*
Y358033D01*
X2049023Y349033D02*
Y358033D01*
X2052023Y422533D02*
Y431533D01*
X2034023Y422533D02*
Y431533D01*
Y422533D02*
X2052023D01*
X2034023Y431533D02*
X2052023D01*
X2056023Y422533D02*
X2074023D01*
X2056023Y431533D02*
X2074023D01*
Y422533D02*
Y431533D01*
X2056023Y422533D02*
Y431533D01*
X2095933Y268904D02*
Y277904D01*
X2077933Y268904D02*
Y277904D01*
X2095933D01*
X2077933Y268904D02*
X2095933D01*
X2100433Y277904D02*
X2118433D01*
X2100433Y268904D02*
X2118433D01*
Y277904D01*
X2100433Y268904D02*
Y277904D01*
X2103433Y342405D02*
Y351404D01*
X2085433Y342405D02*
Y351404D01*
Y342405D02*
X2103433D01*
X2085433Y351404D02*
X2103433D01*
X2107433Y342405D02*
X2125433D01*
X2107433Y351404D02*
X2125433D01*
Y342405D02*
Y351404D01*
X2107433Y342405D02*
Y351404D01*
X48337Y422872D02*
Y431872D01*
X66336Y422872D02*
Y431872D01*
X48337D02*
X66336D01*
X48337Y422872D02*
X66336D01*
X26337Y431872D02*
X44337D01*
X26337Y422872D02*
X44337D01*
X26337D02*
Y431872D01*
X44337Y422872D02*
Y431872D01*
X41336Y349372D02*
Y358372D01*
X59337Y349372D02*
Y358372D01*
X41336Y349372D02*
X59337D01*
X41336Y358372D02*
X59337D01*
X18836Y349372D02*
X36837D01*
X18836Y358372D02*
X36837D01*
X18836Y349372D02*
Y358372D01*
X36837Y349372D02*
Y358372D01*
X2075680Y67089D02*
Y76089D01*
X2093680Y67089D02*
Y76089D01*
X2075680D02*
X2093680D01*
X2075680Y67089D02*
X2093680D01*
X2054780Y24489D02*
Y42489D01*
X2063780Y24489D02*
Y42489D01*
X2054780Y24489D02*
X2063780D01*
X2054780Y42489D02*
X2063780D01*
X2065183Y537456D02*
X2074183D01*
X2065183Y555456D02*
X2074183D01*
X2065183Y537456D02*
Y555456D01*
X2074183Y537456D02*
Y555456D01*
X2101143Y513696D02*
X2119143D01*
X2101143Y522696D02*
X2119143D01*
Y513696D02*
Y522696D01*
X2101143Y513696D02*
Y522696D01*
X90591Y269158D02*
Y278158D01*
X72591Y269158D02*
Y278158D01*
X90591D01*
X72591Y269158D02*
X90591D01*
X94574Y278400D02*
X112575D01*
X94574Y269400D02*
X112575D01*
Y278400D01*
X94574Y269400D02*
Y278400D01*
X98091Y342659D02*
Y351659D01*
X80091Y342659D02*
Y351659D01*
Y342659D02*
X98091D01*
X80091Y351659D02*
X98091D01*
X102091Y342659D02*
X120091D01*
X102091Y351659D02*
X120091D01*
Y342659D02*
Y351659D01*
X102091Y342659D02*
Y351659D01*
X2072383Y7512D02*
Y16512D01*
X2054383Y7512D02*
Y16512D01*
Y7512D02*
X2072383D01*
X2054383Y16512D02*
X2072383D01*
X1992970Y542754D02*
Y560754D01*
X2001970Y542754D02*
Y560754D01*
X1992970Y542754D02*
X2001970D01*
X1992970Y560754D02*
X2001970D01*
X116067Y363287D02*
Y418287D01*
X190567D01*
Y363287D02*
Y418287D01*
X116067Y363287D02*
X190567D01*
X170005Y283158D02*
Y338158D01*
X244505D01*
Y283158D02*
Y338158D01*
X170005Y283158D02*
X244505D01*
X221659Y363092D02*
Y418092D01*
X296159D01*
Y363092D02*
Y418092D01*
X221659Y363092D02*
X296159D01*
X275935Y282904D02*
Y337905D01*
X350435D01*
Y282904D02*
Y337905D01*
X275935Y282904D02*
X350435D01*
X327649Y363033D02*
Y418033D01*
X402149D01*
Y363033D02*
Y418033D01*
X327649Y363033D02*
X402149D01*
X381345Y282904D02*
Y337905D01*
X455845D01*
Y282904D02*
Y337905D01*
X381345Y282904D02*
X455845D01*
X433313Y363033D02*
Y418033D01*
X507813D01*
Y363033D02*
Y418033D01*
X433313Y363033D02*
X507813D01*
X486755Y282904D02*
Y337905D01*
X561255D01*
Y282904D02*
Y337905D01*
X486755Y282904D02*
X561255D01*
X538977Y363033D02*
Y418033D01*
X613477D01*
Y363033D02*
Y418033D01*
X538977Y363033D02*
X613477D01*
X592419Y282904D02*
Y337905D01*
X666919D01*
Y282904D02*
Y337905D01*
X592419Y282904D02*
X666919D01*
X644641Y363033D02*
Y418033D01*
X719141D01*
Y363033D02*
Y418033D01*
X644641Y363033D02*
X719141D01*
X697829Y282904D02*
Y337905D01*
X772329D01*
Y282904D02*
Y337905D01*
X697829Y282904D02*
X772329D01*
X750305Y363033D02*
Y418033D01*
X824805D01*
Y363033D02*
Y418033D01*
X750305Y363033D02*
X824805D01*
X803493Y282904D02*
Y337905D01*
X877993D01*
Y282904D02*
Y337905D01*
X803493Y282904D02*
X877993D01*
X855969Y363033D02*
Y418033D01*
X930469D01*
Y363033D02*
Y418033D01*
X855969Y363033D02*
X930469D01*
X908903Y282904D02*
Y337905D01*
X983403D01*
Y282904D02*
Y337905D01*
X908903Y282904D02*
X983403D01*
X961633Y363033D02*
Y418033D01*
X1036133D01*
Y363033D02*
Y418033D01*
X961633Y363033D02*
X1036133D01*
X1014313Y282904D02*
Y337905D01*
X1088813D01*
Y282904D02*
Y337905D01*
X1014313Y282904D02*
X1088813D01*
X1067297Y363033D02*
Y418033D01*
X1141797D01*
Y363033D02*
Y418033D01*
X1067297Y363033D02*
X1141797D01*
X1119977Y282904D02*
Y337905D01*
X1194477D01*
Y282904D02*
Y337905D01*
X1119977Y282904D02*
X1194477D01*
X1172961Y363033D02*
Y418033D01*
X1247461D01*
Y363033D02*
Y418033D01*
X1172961Y363033D02*
X1247461D01*
X1225387Y282904D02*
Y337905D01*
X1299887D01*
Y282904D02*
Y337905D01*
X1225387Y282904D02*
X1299887D01*
X1278625Y363033D02*
Y418033D01*
X1353125D01*
Y363033D02*
Y418033D01*
X1278625Y363033D02*
X1353125D01*
X1331051Y282904D02*
Y337905D01*
X1405551D01*
Y282904D02*
Y337905D01*
X1331051Y282904D02*
X1405551D01*
X1384289Y363033D02*
Y418033D01*
X1458789D01*
Y363033D02*
Y418033D01*
X1384289Y363033D02*
X1458789D01*
X1436461Y282904D02*
Y337905D01*
X1510961D01*
Y282904D02*
Y337905D01*
X1436461Y282904D02*
X1510961D01*
X1489953Y363033D02*
Y418033D01*
X1564453D01*
Y363033D02*
Y418033D01*
X1489953Y363033D02*
X1564453D01*
X1542125Y282904D02*
Y337905D01*
X1616625D01*
Y282904D02*
Y337905D01*
X1542125Y282904D02*
X1616625D01*
X1595617Y363033D02*
Y418033D01*
X1670117D01*
Y363033D02*
Y418033D01*
X1595617Y363033D02*
X1670117D01*
X1647535Y282904D02*
Y337905D01*
X1722035D01*
Y282904D02*
Y337905D01*
X1647535Y282904D02*
X1722035D01*
X1701281Y363033D02*
Y418033D01*
X1775781D01*
Y363033D02*
Y418033D01*
X1701281Y363033D02*
X1775781D01*
X1752945Y282904D02*
Y337905D01*
X1827445D01*
Y282904D02*
Y337905D01*
X1752945Y282904D02*
X1827445D01*
X1806945Y363033D02*
Y418033D01*
X1881445D01*
Y363033D02*
Y418033D01*
X1806945Y363033D02*
X1881445D01*
X1858609Y282904D02*
Y337905D01*
X1933109D01*
Y282904D02*
Y337905D01*
X1858609Y282904D02*
X1933109D01*
X1912609Y363033D02*
Y418033D01*
X1987109D01*
Y363033D02*
Y418033D01*
X1912609Y363033D02*
X1987109D01*
X1964019Y282904D02*
Y337905D01*
X2038519D01*
Y282904D02*
Y337905D01*
X1964019Y282904D02*
X2038519D01*
X2018273Y363033D02*
Y418033D01*
X2092773D01*
Y363033D02*
Y418033D01*
X2018273Y363033D02*
X2092773D01*
X2069683Y282904D02*
Y337905D01*
X2144183D01*
Y282904D02*
Y337905D01*
X2069683Y282904D02*
X2144183D01*
X10587Y363372D02*
Y418372D01*
X85086D01*
Y363372D02*
Y418372D01*
X10587Y363372D02*
X85086D01*
X64341Y283158D02*
Y338158D01*
X138841D01*
Y283158D02*
Y338158D01*
X64341Y283158D02*
X138841D01*
X186067Y433287D02*
Y467287D01*
X153567D02*
X186067D01*
X153567Y433287D02*
Y467287D01*
Y433287D02*
X186067D01*
X117567D02*
Y467287D01*
Y433287D02*
X150067D01*
Y467287D01*
X117567D02*
X150067D01*
X240005Y353158D02*
Y387159D01*
X207505D02*
X240005D01*
X207505Y353158D02*
Y387159D01*
Y353158D02*
X240005D01*
X171505D02*
Y387159D01*
Y353158D02*
X204005D01*
Y387159D01*
X171505D02*
X204005D01*
X291658Y433092D02*
Y467093D01*
X259158D02*
X291658D01*
X259158Y433092D02*
Y467093D01*
Y433092D02*
X291658D01*
X223158D02*
Y467093D01*
Y433092D02*
X255658D01*
Y467093D01*
X223158D02*
X255658D01*
X345935Y352905D02*
Y386904D01*
X313435D02*
X345935D01*
X313435Y352905D02*
Y386904D01*
Y352905D02*
X345935D01*
X277435D02*
Y386904D01*
Y352905D02*
X309935D01*
Y386904D01*
X277435D02*
X309935D01*
X397649Y433033D02*
Y467033D01*
X365149D02*
X397649D01*
X365149Y433033D02*
Y467033D01*
Y433033D02*
X397649D01*
X329149D02*
Y467033D01*
Y433033D02*
X361649D01*
Y467033D01*
X329149D02*
X361649D01*
X451345Y352905D02*
Y386904D01*
X418845D02*
X451345D01*
X418845Y352905D02*
Y386904D01*
Y352905D02*
X451345D01*
X382845D02*
Y386904D01*
Y352905D02*
X415345D01*
Y386904D01*
X382845D02*
X415345D01*
X503313Y433033D02*
Y467033D01*
X470813D02*
X503313D01*
X470813Y433033D02*
Y467033D01*
Y433033D02*
X503313D01*
X434813D02*
Y467033D01*
Y433033D02*
X467313D01*
Y467033D01*
X434813D02*
X467313D01*
X556755Y352905D02*
Y386904D01*
X524255D02*
X556755D01*
X524255Y352905D02*
Y386904D01*
Y352905D02*
X556755D01*
X488255D02*
Y386904D01*
Y352905D02*
X520755D01*
Y386904D01*
X488255D02*
X520755D01*
X608977Y433033D02*
Y467033D01*
X576477D02*
X608977D01*
X576477Y433033D02*
Y467033D01*
Y433033D02*
X608977D01*
X540477D02*
Y467033D01*
Y433033D02*
X572977D01*
Y467033D01*
X540477D02*
X572977D01*
X662419Y352905D02*
Y386904D01*
X629919D02*
X662419D01*
X629919Y352905D02*
Y386904D01*
Y352905D02*
X662419D01*
X593919D02*
Y386904D01*
Y352905D02*
X626419D01*
Y386904D01*
X593919D02*
X626419D01*
X714641Y433033D02*
Y467033D01*
X682141D02*
X714641D01*
X682141Y433033D02*
Y467033D01*
Y433033D02*
X714641D01*
X646141D02*
Y467033D01*
Y433033D02*
X678641D01*
Y467033D01*
X646141D02*
X678641D01*
X767829Y352905D02*
Y386904D01*
X735329D02*
X767829D01*
X735329Y352905D02*
Y386904D01*
Y352905D02*
X767829D01*
X699329D02*
Y386904D01*
Y352905D02*
X731829D01*
Y386904D01*
X699329D02*
X731829D01*
X820305Y433033D02*
Y467033D01*
X787805D02*
X820305D01*
X787805Y433033D02*
Y467033D01*
Y433033D02*
X820305D01*
X751805D02*
Y467033D01*
Y433033D02*
X784305D01*
Y467033D01*
X751805D02*
X784305D01*
X873493Y352905D02*
Y386904D01*
X840993D02*
X873493D01*
X840993Y352905D02*
Y386904D01*
Y352905D02*
X873493D01*
X804993D02*
Y386904D01*
Y352905D02*
X837493D01*
Y386904D01*
X804993D02*
X837493D01*
X925969Y433033D02*
Y467033D01*
X893469D02*
X925969D01*
X893469Y433033D02*
Y467033D01*
Y433033D02*
X925969D01*
X857469D02*
Y467033D01*
Y433033D02*
X889969D01*
Y467033D01*
X857469D02*
X889969D01*
X978903Y352905D02*
Y386904D01*
X946403D02*
X978903D01*
X946403Y352905D02*
Y386904D01*
Y352905D02*
X978903D01*
X910403D02*
Y386904D01*
Y352905D02*
X942903D01*
Y386904D01*
X910403D02*
X942903D01*
X1031633Y433033D02*
Y467033D01*
X999133D02*
X1031633D01*
X999133Y433033D02*
Y467033D01*
Y433033D02*
X1031633D01*
X963133D02*
Y467033D01*
Y433033D02*
X995633D01*
Y467033D01*
X963133D02*
X995633D01*
X1084313Y352905D02*
Y386904D01*
X1051813D02*
X1084313D01*
X1051813Y352905D02*
Y386904D01*
Y352905D02*
X1084313D01*
X1015813D02*
Y386904D01*
Y352905D02*
X1048313D01*
Y386904D01*
X1015813D02*
X1048313D01*
X1137297Y433033D02*
Y467033D01*
X1104797D02*
X1137297D01*
X1104797Y433033D02*
Y467033D01*
Y433033D02*
X1137297D01*
X1068797D02*
Y467033D01*
Y433033D02*
X1101297D01*
Y467033D01*
X1068797D02*
X1101297D01*
X1189977Y352905D02*
Y386904D01*
X1157477D02*
X1189977D01*
X1157477Y352905D02*
Y386904D01*
Y352905D02*
X1189977D01*
X1121477D02*
Y386904D01*
Y352905D02*
X1153977D01*
Y386904D01*
X1121477D02*
X1153977D01*
X1242961Y433033D02*
Y467033D01*
X1210461D02*
X1242961D01*
X1210461Y433033D02*
Y467033D01*
Y433033D02*
X1242961D01*
X1174461D02*
Y467033D01*
Y433033D02*
X1206961D01*
Y467033D01*
X1174461D02*
X1206961D01*
X1295387Y352905D02*
Y386904D01*
X1262887D02*
X1295387D01*
X1262887Y352905D02*
Y386904D01*
Y352905D02*
X1295387D01*
X1226887D02*
Y386904D01*
Y352905D02*
X1259387D01*
Y386904D01*
X1226887D02*
X1259387D01*
X1348625Y433033D02*
Y467033D01*
X1316125D02*
X1348625D01*
X1316125Y433033D02*
Y467033D01*
Y433033D02*
X1348625D01*
X1280125D02*
Y467033D01*
Y433033D02*
X1312625D01*
Y467033D01*
X1280125D02*
X1312625D01*
X1401051Y352905D02*
Y386904D01*
X1368551D02*
X1401051D01*
X1368551Y352905D02*
Y386904D01*
Y352905D02*
X1401051D01*
X1332551D02*
Y386904D01*
Y352905D02*
X1365051D01*
Y386904D01*
X1332551D02*
X1365051D01*
X1454289Y433033D02*
Y467033D01*
X1421789D02*
X1454289D01*
X1421789Y433033D02*
Y467033D01*
Y433033D02*
X1454289D01*
X1385789D02*
Y467033D01*
Y433033D02*
X1418289D01*
Y467033D01*
X1385789D02*
X1418289D01*
X1506461Y352905D02*
Y386904D01*
X1473961D02*
X1506461D01*
X1473961Y352905D02*
Y386904D01*
Y352905D02*
X1506461D01*
X1437961D02*
Y386904D01*
Y352905D02*
X1470461D01*
Y386904D01*
X1437961D02*
X1470461D01*
X1559953Y433033D02*
Y467033D01*
X1527453D02*
X1559953D01*
X1527453Y433033D02*
Y467033D01*
Y433033D02*
X1559953D01*
X1491453D02*
Y467033D01*
Y433033D02*
X1523953D01*
Y467033D01*
X1491453D02*
X1523953D01*
X1612125Y352905D02*
Y386904D01*
X1579625D02*
X1612125D01*
X1579625Y352905D02*
Y386904D01*
Y352905D02*
X1612125D01*
X1543625D02*
Y386904D01*
Y352905D02*
X1576125D01*
Y386904D01*
X1543625D02*
X1576125D01*
X1665617Y433033D02*
Y467033D01*
X1633117D02*
X1665617D01*
X1633117Y433033D02*
Y467033D01*
Y433033D02*
X1665617D01*
X1597117D02*
Y467033D01*
Y433033D02*
X1629617D01*
Y467033D01*
X1597117D02*
X1629617D01*
X1717535Y352905D02*
Y386904D01*
X1685035D02*
X1717535D01*
X1685035Y352905D02*
Y386904D01*
Y352905D02*
X1717535D01*
X1649035D02*
Y386904D01*
Y352905D02*
X1681535D01*
Y386904D01*
X1649035D02*
X1681535D01*
X1771281Y433033D02*
Y467033D01*
X1738781D02*
X1771281D01*
X1738781Y433033D02*
Y467033D01*
Y433033D02*
X1771281D01*
X1702781D02*
Y467033D01*
Y433033D02*
X1735281D01*
Y467033D01*
X1702781D02*
X1735281D01*
X1822945Y352905D02*
Y386904D01*
X1790445D02*
X1822945D01*
X1790445Y352905D02*
Y386904D01*
Y352905D02*
X1822945D01*
X1754445D02*
Y386904D01*
Y352905D02*
X1786945D01*
Y386904D01*
X1754445D02*
X1786945D01*
X1876945Y433033D02*
Y467033D01*
X1844445D02*
X1876945D01*
X1844445Y433033D02*
Y467033D01*
Y433033D02*
X1876945D01*
X1808445D02*
Y467033D01*
Y433033D02*
X1840945D01*
Y467033D01*
X1808445D02*
X1840945D01*
X1928609Y352905D02*
Y386904D01*
X1896109D02*
X1928609D01*
X1896109Y352905D02*
Y386904D01*
Y352905D02*
X1928609D01*
X1860109D02*
Y386904D01*
Y352905D02*
X1892609D01*
Y386904D01*
X1860109D02*
X1892609D01*
X1982609Y433033D02*
Y467033D01*
X1950109D02*
X1982609D01*
X1950109Y433033D02*
Y467033D01*
Y433033D02*
X1982609D01*
X1914109D02*
Y467033D01*
Y433033D02*
X1946609D01*
Y467033D01*
X1914109D02*
X1946609D01*
X2034019Y352905D02*
Y386904D01*
X2001519D02*
X2034019D01*
X2001519Y352905D02*
Y386904D01*
Y352905D02*
X2034019D01*
X1965519D02*
Y386904D01*
Y352905D02*
X1998019D01*
Y386904D01*
X1965519D02*
X1998019D01*
X2088273Y433033D02*
Y467033D01*
X2055773D02*
X2088273D01*
X2055773Y433033D02*
Y467033D01*
Y433033D02*
X2088273D01*
X2019773D02*
Y467033D01*
Y433033D02*
X2052273D01*
Y467033D01*
X2019773D02*
X2052273D01*
X2139683Y352905D02*
Y386904D01*
X2107183D02*
X2139683D01*
X2107183Y352905D02*
Y386904D01*
Y352905D02*
X2139683D01*
X2071183D02*
Y386904D01*
Y352905D02*
X2103683D01*
Y386904D01*
X2071183D02*
X2103683D01*
X12086Y433372D02*
Y467372D01*
Y433372D02*
X44587D01*
Y467372D01*
X12086D02*
X44587D01*
X80587Y433372D02*
Y467372D01*
X48087D02*
X80587D01*
X48087Y433372D02*
Y467372D01*
Y433372D02*
X80587D01*
X134341Y353158D02*
Y387159D01*
X101841D02*
X134341D01*
X101841Y353158D02*
Y387159D01*
Y353158D02*
X134341D01*
X65841D02*
Y387159D01*
Y353158D02*
X98341D01*
Y387159D01*
X65841D02*
X98341D01*
X111567Y386087D02*
Y421487D01*
Y386087D02*
X150067D01*
Y421487D01*
X111567D02*
X150067D01*
X192567Y386087D02*
Y421487D01*
X154067D02*
X192567D01*
X154067Y386087D02*
Y421487D01*
Y386087D02*
X192567D01*
X165505Y305958D02*
Y341358D01*
Y305958D02*
X204005D01*
Y341358D01*
X165505D02*
X204005D01*
X246505Y305958D02*
Y341358D01*
X208005D02*
X246505D01*
X208005Y305958D02*
Y341358D01*
Y305958D02*
X246505D01*
X217159Y385892D02*
Y421292D01*
Y385892D02*
X255658D01*
Y421292D01*
X217159D02*
X255658D01*
X298158Y385892D02*
Y421292D01*
X259659D02*
X298158D01*
X259659Y385892D02*
Y421292D01*
Y385892D02*
X298158D01*
X271435Y305704D02*
Y341105D01*
Y305704D02*
X309935D01*
Y341105D01*
X271435D02*
X309935D01*
X352435Y305704D02*
Y341105D01*
X313935D02*
X352435D01*
X313935Y305704D02*
Y341105D01*
Y305704D02*
X352435D01*
X323149Y385833D02*
Y421233D01*
Y385833D02*
X361649D01*
Y421233D01*
X323149D02*
X361649D01*
X404149Y385833D02*
Y421233D01*
X365649D02*
X404149D01*
X365649Y385833D02*
Y421233D01*
Y385833D02*
X404149D01*
X376845Y305704D02*
Y341105D01*
Y305704D02*
X415345D01*
Y341105D01*
X376845D02*
X415345D01*
X457845Y305704D02*
Y341105D01*
X419345D02*
X457845D01*
X419345Y305704D02*
Y341105D01*
Y305704D02*
X457845D01*
X428813Y385833D02*
Y421233D01*
Y385833D02*
X467313D01*
Y421233D01*
X428813D02*
X467313D01*
X509813Y385833D02*
Y421233D01*
X471313D02*
X509813D01*
X471313Y385833D02*
Y421233D01*
Y385833D02*
X509813D01*
X482255Y305704D02*
Y341105D01*
Y305704D02*
X520755D01*
Y341105D01*
X482255D02*
X520755D01*
X563255Y305704D02*
Y341105D01*
X524755D02*
X563255D01*
X524755Y305704D02*
Y341105D01*
Y305704D02*
X563255D01*
X534477Y385833D02*
Y421233D01*
Y385833D02*
X572977D01*
Y421233D01*
X534477D02*
X572977D01*
X615477Y385833D02*
Y421233D01*
X576977D02*
X615477D01*
X576977Y385833D02*
Y421233D01*
Y385833D02*
X615477D01*
X587919Y305704D02*
Y341105D01*
Y305704D02*
X626419D01*
Y341105D01*
X587919D02*
X626419D01*
X668919Y305704D02*
Y341105D01*
X630419D02*
X668919D01*
X630419Y305704D02*
Y341105D01*
Y305704D02*
X668919D01*
X640141Y385833D02*
Y421233D01*
Y385833D02*
X678641D01*
Y421233D01*
X640141D02*
X678641D01*
X721141Y385833D02*
Y421233D01*
X682641D02*
X721141D01*
X682641Y385833D02*
Y421233D01*
Y385833D02*
X721141D01*
X693329Y305704D02*
Y341105D01*
Y305704D02*
X731829D01*
Y341105D01*
X693329D02*
X731829D01*
X774329Y305704D02*
Y341105D01*
X735829D02*
X774329D01*
X735829Y305704D02*
Y341105D01*
Y305704D02*
X774329D01*
X745805Y385833D02*
Y421233D01*
Y385833D02*
X784305D01*
Y421233D01*
X745805D02*
X784305D01*
X826805Y385833D02*
Y421233D01*
X788305D02*
X826805D01*
X788305Y385833D02*
Y421233D01*
Y385833D02*
X826805D01*
X798993Y305704D02*
Y341105D01*
Y305704D02*
X837493D01*
Y341105D01*
X798993D02*
X837493D01*
X879993Y305704D02*
Y341105D01*
X841493D02*
X879993D01*
X841493Y305704D02*
Y341105D01*
Y305704D02*
X879993D01*
X851469Y385833D02*
Y421233D01*
Y385833D02*
X889969D01*
Y421233D01*
X851469D02*
X889969D01*
X932469Y385833D02*
Y421233D01*
X893969D02*
X932469D01*
X893969Y385833D02*
Y421233D01*
Y385833D02*
X932469D01*
X904403Y305704D02*
Y341105D01*
Y305704D02*
X942903D01*
Y341105D01*
X904403D02*
X942903D01*
X985403Y305704D02*
Y341105D01*
X946903D02*
X985403D01*
X946903Y305704D02*
Y341105D01*
Y305704D02*
X985403D01*
X957133Y385833D02*
Y421233D01*
Y385833D02*
X995633D01*
Y421233D01*
X957133D02*
X995633D01*
X1038133Y385833D02*
Y421233D01*
X999633D02*
X1038133D01*
X999633Y385833D02*
Y421233D01*
Y385833D02*
X1038133D01*
X1009813Y305704D02*
Y341105D01*
Y305704D02*
X1048313D01*
Y341105D01*
X1009813D02*
X1048313D01*
X1090813Y305704D02*
Y341105D01*
X1052313D02*
X1090813D01*
X1052313Y305704D02*
Y341105D01*
Y305704D02*
X1090813D01*
X1062797Y385833D02*
Y421233D01*
Y385833D02*
X1101297D01*
Y421233D01*
X1062797D02*
X1101297D01*
X1143797Y385833D02*
Y421233D01*
X1105297D02*
X1143797D01*
X1105297Y385833D02*
Y421233D01*
Y385833D02*
X1143797D01*
X1115477Y305704D02*
Y341105D01*
Y305704D02*
X1153977D01*
Y341105D01*
X1115477D02*
X1153977D01*
X1196477Y305704D02*
Y341105D01*
X1157977D02*
X1196477D01*
X1157977Y305704D02*
Y341105D01*
Y305704D02*
X1196477D01*
X1168461Y385833D02*
Y421233D01*
Y385833D02*
X1206961D01*
Y421233D01*
X1168461D02*
X1206961D01*
X1249461Y385833D02*
Y421233D01*
X1210961D02*
X1249461D01*
X1210961Y385833D02*
Y421233D01*
Y385833D02*
X1249461D01*
X1220887Y305704D02*
Y341105D01*
Y305704D02*
X1259387D01*
Y341105D01*
X1220887D02*
X1259387D01*
X1301887Y305704D02*
Y341105D01*
X1263387D02*
X1301887D01*
X1263387Y305704D02*
Y341105D01*
Y305704D02*
X1301887D01*
X1274125Y385833D02*
Y421233D01*
Y385833D02*
X1312625D01*
Y421233D01*
X1274125D02*
X1312625D01*
X1355125Y385833D02*
Y421233D01*
X1316625D02*
X1355125D01*
X1316625Y385833D02*
Y421233D01*
Y385833D02*
X1355125D01*
X1326551Y305704D02*
Y341105D01*
Y305704D02*
X1365051D01*
Y341105D01*
X1326551D02*
X1365051D01*
X1407551Y305704D02*
Y341105D01*
X1369051D02*
X1407551D01*
X1369051Y305704D02*
Y341105D01*
Y305704D02*
X1407551D01*
X1379789Y385833D02*
Y421233D01*
Y385833D02*
X1418289D01*
Y421233D01*
X1379789D02*
X1418289D01*
X1460789Y385833D02*
Y421233D01*
X1422289D02*
X1460789D01*
X1422289Y385833D02*
Y421233D01*
Y385833D02*
X1460789D01*
X1431961Y305704D02*
Y341105D01*
Y305704D02*
X1470461D01*
Y341105D01*
X1431961D02*
X1470461D01*
X1512961Y305704D02*
Y341105D01*
X1474461D02*
X1512961D01*
X1474461Y305704D02*
Y341105D01*
Y305704D02*
X1512961D01*
X1485453Y385833D02*
Y421233D01*
Y385833D02*
X1523953D01*
Y421233D01*
X1485453D02*
X1523953D01*
X1566453Y385833D02*
Y421233D01*
X1527953D02*
X1566453D01*
X1527953Y385833D02*
Y421233D01*
Y385833D02*
X1566453D01*
X1537625Y305704D02*
Y341105D01*
Y305704D02*
X1576125D01*
Y341105D01*
X1537625D02*
X1576125D01*
X1618625Y305704D02*
Y341105D01*
X1580125D02*
X1618625D01*
X1580125Y305704D02*
Y341105D01*
Y305704D02*
X1618625D01*
X1591117Y385833D02*
Y421233D01*
Y385833D02*
X1629617D01*
Y421233D01*
X1591117D02*
X1629617D01*
X1672117Y385833D02*
Y421233D01*
X1633617D02*
X1672117D01*
X1633617Y385833D02*
Y421233D01*
Y385833D02*
X1672117D01*
X1643035Y305704D02*
Y341105D01*
Y305704D02*
X1681535D01*
Y341105D01*
X1643035D02*
X1681535D01*
X1724035Y305704D02*
Y341105D01*
X1685535D02*
X1724035D01*
X1685535Y305704D02*
Y341105D01*
Y305704D02*
X1724035D01*
X1696781Y385833D02*
Y421233D01*
Y385833D02*
X1735281D01*
Y421233D01*
X1696781D02*
X1735281D01*
X1777781Y385833D02*
Y421233D01*
X1739281D02*
X1777781D01*
X1739281Y385833D02*
Y421233D01*
Y385833D02*
X1777781D01*
X1748445Y305704D02*
Y341105D01*
Y305704D02*
X1786945D01*
Y341105D01*
X1748445D02*
X1786945D01*
X1829445Y305704D02*
Y341105D01*
X1790945D02*
X1829445D01*
X1790945Y305704D02*
Y341105D01*
Y305704D02*
X1829445D01*
X1802445Y385833D02*
Y421233D01*
Y385833D02*
X1840945D01*
Y421233D01*
X1802445D02*
X1840945D01*
X1883445Y385833D02*
Y421233D01*
X1844945D02*
X1883445D01*
X1844945Y385833D02*
Y421233D01*
Y385833D02*
X1883445D01*
X1854109Y305704D02*
Y341105D01*
Y305704D02*
X1892609D01*
Y341105D01*
X1854109D02*
X1892609D01*
X1935109Y305704D02*
Y341105D01*
X1896609D02*
X1935109D01*
X1896609Y305704D02*
Y341105D01*
Y305704D02*
X1935109D01*
X1908109Y385833D02*
Y421233D01*
Y385833D02*
X1946609D01*
Y421233D01*
X1908109D02*
X1946609D01*
X1989109Y385833D02*
Y421233D01*
X1950609D02*
X1989109D01*
X1950609Y385833D02*
Y421233D01*
Y385833D02*
X1989109D01*
X1959519Y305704D02*
Y341105D01*
Y305704D02*
X1998019D01*
Y341105D01*
X1959519D02*
X1998019D01*
X2040519Y305704D02*
Y341105D01*
X2002019D02*
X2040519D01*
X2002019Y305704D02*
Y341105D01*
Y305704D02*
X2040519D01*
X2013773Y385833D02*
Y421233D01*
Y385833D02*
X2052273D01*
Y421233D01*
X2013773D02*
X2052273D01*
X2094773Y385833D02*
Y421233D01*
X2056273D02*
X2094773D01*
X2056273Y385833D02*
Y421233D01*
Y385833D02*
X2094773D01*
X2065183Y305704D02*
Y341105D01*
Y305704D02*
X2103683D01*
Y341105D01*
X2065183D02*
X2103683D01*
X2146183Y305704D02*
Y341105D01*
X2107683D02*
X2146183D01*
X2107683Y305704D02*
Y341105D01*
Y305704D02*
X2146183D01*
X87086Y386172D02*
Y421572D01*
X48587D02*
X87086D01*
X48587Y386172D02*
Y421572D01*
Y386172D02*
X87086D01*
X6087D02*
Y421572D01*
Y386172D02*
X44587D01*
Y421572D01*
X6087D02*
X44587D01*
X59841Y305958D02*
Y341358D01*
Y305958D02*
X98341D01*
Y341358D01*
X59841D02*
X98341D01*
X140841Y305958D02*
Y341358D01*
X102341D02*
X140841D01*
X102341Y305958D02*
Y341358D01*
Y305958D02*
X140841D01*
X341183Y157132D02*
Y235132D01*
X397183Y157132D02*
Y235132D01*
X341183Y157132D02*
X397183D01*
X341183Y235132D02*
X397183D01*
X279467Y157422D02*
Y235422D01*
X335467Y157422D02*
Y235422D01*
X279467Y157422D02*
X335467D01*
X279467Y235422D02*
X335467D01*
X552473Y157132D02*
Y235132D01*
X608473Y157132D02*
Y235132D01*
X552473Y157132D02*
X608473D01*
X552473Y235132D02*
X608473D01*
X490757Y157422D02*
Y235422D01*
X546757Y157422D02*
Y235422D01*
X490757Y157422D02*
X546757D01*
X490757Y235422D02*
X546757D01*
X763763Y157132D02*
Y235132D01*
X819763Y157132D02*
Y235132D01*
X763763Y157132D02*
X819763D01*
X763763Y235132D02*
X819763D01*
X702047Y157422D02*
Y235422D01*
X758047Y157422D02*
Y235422D01*
X702047Y157422D02*
X758047D01*
X702047Y235422D02*
X758047D01*
X975052Y157132D02*
Y235132D01*
X1031052Y157132D02*
Y235132D01*
X975052Y157132D02*
X1031052D01*
X975052Y235132D02*
X1031052D01*
X913336Y157422D02*
Y235422D01*
X969336Y157422D02*
Y235422D01*
X913336Y157422D02*
X969336D01*
X913336Y235422D02*
X969336D01*
X1186342Y157132D02*
Y235132D01*
X1242342Y157132D02*
Y235132D01*
X1186342Y157132D02*
X1242342D01*
X1186342Y235132D02*
X1242342D01*
X1124626Y157422D02*
Y235422D01*
X1180626Y157422D02*
Y235422D01*
X1124626Y157422D02*
X1180626D01*
X1124626Y235422D02*
X1180626D01*
X1397632Y157132D02*
Y235132D01*
X1453632Y157132D02*
Y235132D01*
X1397632Y157132D02*
X1453632D01*
X1397632Y235132D02*
X1453632D01*
X1335916Y157422D02*
Y235422D01*
X1391916Y157422D02*
Y235422D01*
X1335916Y157422D02*
X1391916D01*
X1335916Y235422D02*
X1391916D01*
X1608922Y157132D02*
Y235132D01*
X1664922Y157132D02*
Y235132D01*
X1608922Y157132D02*
X1664922D01*
X1608922Y235132D02*
X1664922D01*
X1547206Y157422D02*
Y235422D01*
X1603206Y157422D02*
Y235422D01*
X1547206Y157422D02*
X1603206D01*
X1547206Y235422D02*
X1603206D01*
X1820211Y157132D02*
Y235132D01*
X1876211Y157132D02*
Y235132D01*
X1820211Y157132D02*
X1876211D01*
X1820211Y235132D02*
X1876211D01*
X1758495Y157422D02*
Y235422D01*
X1814495Y157422D02*
Y235422D01*
X1758495Y157422D02*
X1814495D01*
X1758495Y235422D02*
X1814495D01*
X2031501Y157132D02*
Y235132D01*
X2087501Y157132D02*
Y235132D01*
X2031501Y157132D02*
X2087501D01*
X2031501Y235132D02*
X2087501D01*
X1969785Y157422D02*
Y235422D01*
X2025785Y157422D02*
Y235422D01*
X1969785Y157422D02*
X2025785D01*
X1969785Y235422D02*
X2025785D01*
X129848Y157330D02*
Y235329D01*
X185848Y157330D02*
Y235329D01*
X129848Y157330D02*
X185848D01*
X129848Y235329D02*
X185848D01*
X68132Y157619D02*
Y235620D01*
X124132Y157619D02*
Y235620D01*
X68132Y157619D02*
X124132D01*
X68132Y235620D02*
X124132D01*
M02*
