G04*
G04 #@! TF.GenerationSoftware,Altium Limited,Altium Designer,23.2.1 (34)*
G04*
G04 Layer_Color=128*
%FSLAX44Y44*%
%MOMM*%
G71*
G04*
G04 #@! TF.SameCoordinates,4AEFFC81-8D6A-4C92-BCC4-55949A9363D9*
G04*
G04*
G04 #@! TF.FilePolarity,Positive*
G04*
G01*
G75*
%ADD93C,0.0508*%
D93*
X860000Y51750D02*
X870000D01*
X865000Y46750D02*
Y56750D01*
X860000Y71750D02*
X870000D01*
X865000Y66750D02*
Y76750D01*
X880000Y51750D02*
X890000D01*
X885000Y46750D02*
Y56750D01*
X880000Y71750D02*
X890000D01*
X885000Y66750D02*
Y76750D01*
X900000Y51750D02*
X910000D01*
X905000Y46750D02*
Y56750D01*
X900000Y71750D02*
X910000D01*
X905000Y66750D02*
Y76750D01*
X920000Y51750D02*
X930000D01*
X925000Y46750D02*
Y56750D01*
X920000Y71750D02*
X930000D01*
X925000Y66750D02*
Y76750D01*
X940000Y51750D02*
X950000D01*
X945000Y46750D02*
Y56750D01*
X940000Y71750D02*
X950000D01*
X945000Y66750D02*
Y76750D01*
X960000Y51750D02*
X970000D01*
X965000Y46750D02*
Y56750D01*
X960000Y71750D02*
X970000D01*
X965000Y66750D02*
Y76750D01*
X980000Y51750D02*
X990000D01*
X985000Y46750D02*
Y56750D01*
X980000Y71750D02*
X990000D01*
X985000Y66750D02*
Y76750D01*
X1000000Y51750D02*
X1010000D01*
X1005000Y46750D02*
Y56750D01*
X1000000Y71750D02*
X1010000D01*
X1005000Y66750D02*
Y76750D01*
X1020000Y51750D02*
X1030000D01*
X1025000Y46750D02*
Y56750D01*
X1020000Y71750D02*
X1030000D01*
X1025000Y66750D02*
Y76750D01*
X1040000Y51750D02*
X1050000D01*
X1045000Y46750D02*
Y56750D01*
X1040000Y71750D02*
X1050000D01*
X1045000Y66750D02*
Y76750D01*
X1060000Y51750D02*
X1070000D01*
X1065000Y46750D02*
Y56750D01*
X1060000Y71750D02*
X1070000D01*
X1065000Y66750D02*
Y76750D01*
X1080000Y51750D02*
X1090000D01*
X1085000Y46750D02*
Y56750D01*
X1080000Y71750D02*
X1090000D01*
X1085000Y66750D02*
Y76750D01*
X1100000Y51750D02*
X1110000D01*
X1105000Y46750D02*
Y56750D01*
X1100000Y71750D02*
X1110000D01*
X1105000Y66750D02*
Y76750D01*
X1120000Y51750D02*
X1130000D01*
X1125000Y46750D02*
Y56750D01*
X1120000Y71750D02*
X1130000D01*
X1125000Y66750D02*
Y76750D01*
X1140000Y51750D02*
X1150000D01*
X1145000Y46750D02*
Y56750D01*
X1140000Y71750D02*
X1150000D01*
X1145000Y66750D02*
Y76750D01*
X1160000Y51750D02*
X1170000D01*
X1165000Y46750D02*
Y56750D01*
X1160000Y71750D02*
X1170000D01*
X1165000Y66750D02*
Y76750D01*
X1180000Y51750D02*
X1190000D01*
X1185000Y46750D02*
Y56750D01*
X1180000Y71750D02*
X1190000D01*
X1185000Y66750D02*
Y76750D01*
X1200000Y51750D02*
X1210000D01*
X1205000Y46750D02*
Y56750D01*
X1200000Y71750D02*
X1210000D01*
X1205000Y66750D02*
Y76750D01*
X1220000Y51750D02*
X1230000D01*
X1225000Y46750D02*
Y56750D01*
X1220000Y71750D02*
X1230000D01*
X1225000Y66750D02*
Y76750D01*
X1240000Y51750D02*
X1250000D01*
X1245000Y46750D02*
Y56750D01*
X1240000Y71750D02*
X1250000D01*
X1245000Y66750D02*
Y76750D01*
X1260000Y51750D02*
X1270000D01*
X1265000Y46750D02*
Y56750D01*
X1260000Y71750D02*
X1270000D01*
X1265000Y66750D02*
Y76750D01*
X1280000Y51750D02*
X1290000D01*
X1285000Y46750D02*
Y56750D01*
X1280000Y71750D02*
X1290000D01*
X1285000Y66750D02*
Y76750D01*
X1300000Y51750D02*
X1310000D01*
X1305000Y46750D02*
Y56750D01*
X1300000Y71750D02*
X1310000D01*
X1305000Y66750D02*
Y76750D01*
X1320000Y51750D02*
X1330000D01*
X1325000Y46750D02*
Y56750D01*
X1320000Y71750D02*
X1330000D01*
X1325000Y66750D02*
Y76750D01*
X1340000Y51750D02*
X1350000D01*
X1345000Y46750D02*
Y56750D01*
X1340000Y71750D02*
X1350000D01*
X1345000Y66750D02*
Y76750D01*
X616500Y599849D02*
X644500D01*
X630500Y585849D02*
Y613849D01*
X1505500Y599849D02*
X1533500D01*
X1519500Y585849D02*
Y613849D01*
X1463700Y523649D02*
X1473700D01*
X1468700Y518649D02*
Y528649D01*
X1438300Y523649D02*
X1448300D01*
X1443300Y518649D02*
Y528649D01*
X1412900Y523649D02*
X1422900D01*
X1417900Y518649D02*
Y528649D01*
X1387500Y523649D02*
X1397500D01*
X1392500Y518649D02*
Y528649D01*
X1362100Y523649D02*
X1372100D01*
X1367100Y518649D02*
Y528649D01*
X1336700Y523649D02*
X1346700D01*
X1341700Y518649D02*
Y528649D01*
X1311300Y523649D02*
X1321300D01*
X1316300Y518649D02*
Y528649D01*
X1285900Y523649D02*
X1295900D01*
X1290900Y518649D02*
Y528649D01*
X1260500Y523649D02*
X1270500D01*
X1265500Y518649D02*
Y528649D01*
X1235100Y523649D02*
X1245100D01*
X1240100Y518649D02*
Y528649D01*
X1209700Y523649D02*
X1219700D01*
X1214700Y518649D02*
Y528649D01*
X1184300Y523649D02*
X1194300D01*
X1189300Y518649D02*
Y528649D01*
X1158900Y523649D02*
X1168900D01*
X1163900Y518649D02*
Y528649D01*
X1133500Y523649D02*
X1143500D01*
X1138500Y518649D02*
Y528649D01*
X1108100Y523649D02*
X1118100D01*
X1113100Y518649D02*
Y528649D01*
X1082700Y523649D02*
X1092700D01*
X1087700Y518649D02*
Y528649D01*
X1057300Y523649D02*
X1067300D01*
X1062300Y518649D02*
Y528649D01*
X1031900Y523649D02*
X1041900D01*
X1036900Y518649D02*
Y528649D01*
X1006500Y523649D02*
X1016500D01*
X1011500Y518649D02*
Y528649D01*
X981100Y523649D02*
X991100D01*
X986100Y518649D02*
Y528649D01*
X955700Y523649D02*
X965700D01*
X960700Y518649D02*
Y528649D01*
X930300Y523649D02*
X940300D01*
X935300Y518649D02*
Y528649D01*
X904900Y523649D02*
X914900D01*
X909900Y518649D02*
Y528649D01*
X879500Y523649D02*
X889500D01*
X884500Y518649D02*
Y528649D01*
X854100Y523649D02*
X864100D01*
X859100Y518649D02*
Y528649D01*
X828700Y523649D02*
X838700D01*
X833700Y518649D02*
Y528649D01*
X803300Y523649D02*
X813300D01*
X808300Y518649D02*
Y528649D01*
X777900Y523649D02*
X787900D01*
X782900Y518649D02*
Y528649D01*
X752500Y523649D02*
X762500D01*
X757500Y518649D02*
Y528649D01*
X727100Y523649D02*
X737100D01*
X732100Y518649D02*
Y528649D01*
X701700Y523649D02*
X711700D01*
X706700Y518649D02*
Y528649D01*
X676300Y523649D02*
X686300D01*
X681300Y518649D02*
Y528649D01*
X1463700Y549049D02*
X1473700D01*
X1468700Y544049D02*
Y554049D01*
X1438300Y549049D02*
X1448300D01*
X1443300Y544049D02*
Y554049D01*
X1412900Y549049D02*
X1422900D01*
X1417900Y544049D02*
Y554049D01*
X1387500Y549049D02*
X1397500D01*
X1392500Y544049D02*
Y554049D01*
X1362100Y549049D02*
X1372100D01*
X1367100Y544049D02*
Y554049D01*
X1336700Y549049D02*
X1346700D01*
X1341700Y544049D02*
Y554049D01*
X1311300Y549049D02*
X1321300D01*
X1316300Y544049D02*
Y554049D01*
X1285900Y549049D02*
X1295900D01*
X1290900Y544049D02*
Y554049D01*
X1260500Y549049D02*
X1270500D01*
X1265500Y544049D02*
Y554049D01*
X1235100Y549049D02*
X1245100D01*
X1240100Y544049D02*
Y554049D01*
X1209700Y549049D02*
X1219700D01*
X1214700Y544049D02*
Y554049D01*
X1184300Y549049D02*
X1194300D01*
X1189300Y544049D02*
Y554049D01*
X1158900Y549049D02*
X1168900D01*
X1163900Y544049D02*
Y554049D01*
X1133500Y549049D02*
X1143500D01*
X1138500Y544049D02*
Y554049D01*
X1108100Y549049D02*
X1118100D01*
X1113100Y544049D02*
Y554049D01*
X1082700Y549049D02*
X1092700D01*
X1087700Y544049D02*
Y554049D01*
X1057300Y549049D02*
X1067300D01*
X1062300Y544049D02*
Y554049D01*
X1031900Y549049D02*
X1041900D01*
X1036900Y544049D02*
Y554049D01*
X1006500Y549049D02*
X1016500D01*
X1011500Y544049D02*
Y554049D01*
X981100Y549049D02*
X991100D01*
X986100Y544049D02*
Y554049D01*
X955700Y549049D02*
X965700D01*
X960700Y544049D02*
Y554049D01*
X930300Y549049D02*
X940300D01*
X935300Y544049D02*
Y554049D01*
X904900Y549049D02*
X914900D01*
X909900Y544049D02*
Y554049D01*
X879500Y549049D02*
X889500D01*
X884500Y544049D02*
Y554049D01*
X854100Y549049D02*
X864100D01*
X859100Y544049D02*
Y554049D01*
X828700Y549049D02*
X838700D01*
X833700Y544049D02*
Y554049D01*
X803300Y549049D02*
X813300D01*
X808300Y544049D02*
Y554049D01*
X777900Y549049D02*
X787900D01*
X782900Y544049D02*
Y554049D01*
X752500Y549049D02*
X762500D01*
X757500Y544049D02*
Y554049D01*
X727100Y549049D02*
X737100D01*
X732100Y544049D02*
Y554049D01*
X701700Y549049D02*
X711700D01*
X706700Y544049D02*
Y554049D01*
X676300Y549049D02*
X686300D01*
X681300Y544049D02*
Y554049D01*
X1463700Y574449D02*
X1473700D01*
X1468700Y569449D02*
Y579449D01*
X1438300Y574449D02*
X1448300D01*
X1443300Y569449D02*
Y579449D01*
X1412900Y574449D02*
X1422900D01*
X1417900Y569449D02*
Y579449D01*
X1387500Y574449D02*
X1397500D01*
X1392500Y569449D02*
Y579449D01*
X1362100Y574449D02*
X1372100D01*
X1367100Y569449D02*
Y579449D01*
X1336700Y574449D02*
X1346700D01*
X1341700Y569449D02*
Y579449D01*
X1311300Y574449D02*
X1321300D01*
X1316300Y569449D02*
Y579449D01*
X1285900Y574449D02*
X1295900D01*
X1290900Y569449D02*
Y579449D01*
X1260500Y574449D02*
X1270500D01*
X1265500Y569449D02*
Y579449D01*
X1235100Y574449D02*
X1245100D01*
X1240100Y569449D02*
Y579449D01*
X1209700Y574449D02*
X1219700D01*
X1214700Y569449D02*
Y579449D01*
X1184300Y574449D02*
X1194300D01*
X1189300Y569449D02*
Y579449D01*
X1158900Y574449D02*
X1168900D01*
X1163900Y569449D02*
Y579449D01*
X1133500Y574449D02*
X1143500D01*
X1138500Y569449D02*
Y579449D01*
X1108100Y574449D02*
X1118100D01*
X1113100Y569449D02*
Y579449D01*
X1082700Y574449D02*
X1092700D01*
X1087700Y569449D02*
Y579449D01*
X1057300Y574449D02*
X1067300D01*
X1062300Y569449D02*
Y579449D01*
X1031900Y574449D02*
X1041900D01*
X1036900Y569449D02*
Y579449D01*
X1006500Y574449D02*
X1016500D01*
X1011500Y569449D02*
Y579449D01*
X981100Y574449D02*
X991100D01*
X986100Y569449D02*
Y579449D01*
X955700Y574449D02*
X965700D01*
X960700Y569449D02*
Y579449D01*
X930300Y574449D02*
X940300D01*
X935300Y569449D02*
Y579449D01*
X904900Y574449D02*
X914900D01*
X909900Y569449D02*
Y579449D01*
X879500Y574449D02*
X889500D01*
X884500Y569449D02*
Y579449D01*
X854100Y574449D02*
X864100D01*
X859100Y569449D02*
Y579449D01*
X828700Y574449D02*
X838700D01*
X833700Y569449D02*
Y579449D01*
X803300Y574449D02*
X813300D01*
X808300Y569449D02*
Y579449D01*
X777900Y574449D02*
X787900D01*
X782900Y569449D02*
Y579449D01*
X752500Y574449D02*
X762500D01*
X757500Y569449D02*
Y579449D01*
X727100Y574449D02*
X737100D01*
X732100Y569449D02*
Y579449D01*
X701700Y574449D02*
X711700D01*
X706700Y569449D02*
Y579449D01*
X676300Y574449D02*
X686300D01*
X681300Y569449D02*
Y579449D01*
X2025914Y71589D02*
X2034814D01*
X2030364Y67139D02*
Y76039D01*
X2025914Y46189D02*
X2034814D01*
X2030364Y41739D02*
Y50639D01*
X2025914Y20789D02*
X2034814D01*
X2030364Y16339D02*
Y25239D01*
X1971960Y551256D02*
X1980860D01*
X1976410Y546806D02*
Y555706D01*
X1971960Y576656D02*
X1980860D01*
X1976410Y572206D02*
Y581106D01*
X1971960Y602056D02*
X1980860D01*
X1976410Y597606D02*
Y606506D01*
X1804000Y34014D02*
X1836000D01*
X1820000Y18015D02*
Y50015D01*
X37438Y53204D02*
X69438D01*
X53438Y37204D02*
Y69204D01*
X37438Y590000D02*
X69438D01*
X53438Y574000D02*
Y606000D01*
X1804000Y590000D02*
X1836000D01*
X1820000Y574000D02*
Y606000D01*
X1898714Y224453D02*
X1930714D01*
X1914714Y208453D02*
Y240453D01*
X205532Y224453D02*
X237532D01*
X221532Y208453D02*
Y240453D01*
X29969Y361949D02*
X32169D01*
X31068Y360849D02*
Y363049D01*
X138360Y361949D02*
X140560D01*
X139460Y360849D02*
Y363049D01*
X242900Y360949D02*
X245100D01*
X244000Y359849D02*
Y362049D01*
X358179Y362949D02*
X360379D01*
X359279Y361849D02*
Y364049D01*
X455900Y361949D02*
X458100D01*
X457000Y360849D02*
Y363049D01*
X571900Y362949D02*
X574100D01*
X573000Y361849D02*
Y364049D01*
X666360Y362949D02*
X668560D01*
X667460Y361849D02*
Y364049D01*
X781900Y370949D02*
X784100D01*
X783000Y369849D02*
Y372049D01*
X879900Y360949D02*
X882100D01*
X881000Y359849D02*
Y362049D01*
X992976Y364949D02*
X995176D01*
X994076Y363849D02*
Y366049D01*
X1089360Y361949D02*
X1091560D01*
X1090460Y360849D02*
Y363049D01*
X1407900Y360949D02*
X1410100D01*
X1409000Y359849D02*
Y362049D01*
X1509900Y362949D02*
X1512100D01*
X1511000Y361849D02*
Y364049D01*
X1616900Y361949D02*
X1619100D01*
X1618000Y360849D02*
Y363049D01*
X1723900Y361949D02*
X1726100D01*
X1725000Y360849D02*
Y363049D01*
X1838157Y361949D02*
X1840357D01*
X1839257Y360849D02*
Y363049D01*
X1933900Y361949D02*
X1936100D01*
X1935000Y360849D02*
Y363049D01*
X2045900Y361949D02*
X2048100D01*
X2047000Y360849D02*
Y363049D01*
X297029Y281949D02*
X299228D01*
X298129Y280849D02*
Y283049D01*
X403900Y282949D02*
X406100D01*
X405000Y281849D02*
Y284049D01*
X506900Y282949D02*
X509100D01*
X508000Y281849D02*
Y284049D01*
X718733Y281949D02*
X720932D01*
X719833Y280849D02*
Y283049D01*
X828900Y283949D02*
X831100D01*
X830000Y282849D02*
Y285049D01*
X929996Y282949D02*
X932197D01*
X931096Y281849D02*
Y284049D01*
X1038900Y281949D02*
X1041100D01*
X1040000Y280849D02*
Y283049D01*
X1141900Y281949D02*
X1144100D01*
X1143000Y280849D02*
Y283049D01*
X1252831Y281949D02*
X1255031D01*
X1253931Y280849D02*
Y283049D01*
X1354900Y288949D02*
X1357100D01*
X1356000Y287849D02*
Y290049D01*
X1463905Y284949D02*
X1466104D01*
X1465004Y283849D02*
Y286049D01*
X1562900Y281949D02*
X1565100D01*
X1564000Y280849D02*
Y283049D01*
X1672900Y282949D02*
X1675100D01*
X1674000Y281849D02*
Y284049D01*
X1775900Y282949D02*
X1778100D01*
X1777000Y281849D02*
Y284049D01*
X1884900Y282949D02*
X1887100D01*
X1886000Y281849D02*
Y284049D01*
X1988900Y285949D02*
X1991100D01*
X1990000Y284849D02*
Y287049D01*
X614900Y281949D02*
X617100D01*
X616000Y280849D02*
Y283049D01*
X1200647Y364696D02*
X1202847D01*
X1201747Y363596D02*
Y365796D01*
X2094900Y281949D02*
X2097100D01*
X2096000Y280849D02*
Y283049D01*
X192431Y290489D02*
X194631D01*
X193531Y289389D02*
Y291589D01*
X1306408Y363949D02*
X1308608D01*
X1307508Y362849D02*
Y365049D01*
X83900Y281949D02*
X86100D01*
X85000Y280849D02*
Y283049D01*
X2133900Y585000D02*
X2136100D01*
X2135000Y583900D02*
Y586100D01*
X2133900Y535000D02*
X2136100D01*
X2135000Y533900D02*
Y536100D01*
X2133900Y485000D02*
X2136100D01*
X2135000Y483900D02*
Y486100D01*
X2133900Y435000D02*
X2136100D01*
X2135000Y433900D02*
Y436100D01*
X2133900Y235000D02*
X2136100D01*
X2135000Y233900D02*
Y236100D01*
X2133900Y185000D02*
X2136100D01*
X2135000Y183900D02*
Y186100D01*
X2121400Y610000D02*
X2123600D01*
X2122500Y608900D02*
Y611100D01*
X2121400Y560000D02*
X2123600D01*
X2122500Y558900D02*
Y561100D01*
X2108900Y485000D02*
X2111100D01*
X2110000Y483900D02*
Y486100D01*
X2121400Y460000D02*
X2123600D01*
X2122500Y458900D02*
Y461100D01*
X2108900Y235000D02*
X2111100D01*
X2110000Y233900D02*
Y236100D01*
X2121400Y210000D02*
X2123600D01*
X2122500Y208900D02*
Y211100D01*
X2108900Y185000D02*
X2111100D01*
X2110000Y183900D02*
Y186100D01*
X2108900Y135000D02*
X2111100D01*
X2110000Y133900D02*
Y136100D01*
X2121400Y110000D02*
X2123600D01*
X2122500Y108900D02*
Y111100D01*
X2083900Y485000D02*
X2086100D01*
X2085000Y483900D02*
Y486100D01*
X2096400Y210000D02*
X2098600D01*
X2097500Y208900D02*
Y211100D01*
X2096400Y110000D02*
X2098600D01*
X2097500Y108900D02*
Y111100D01*
X2071400Y510000D02*
X2073600D01*
X2072500Y508900D02*
Y511100D01*
X2058900Y85000D02*
X2061100D01*
X2060000Y83900D02*
Y86100D01*
X2046400Y510000D02*
X2048600D01*
X2047500Y508900D02*
Y511100D01*
X2046400Y60000D02*
X2048600D01*
X2047500Y58900D02*
Y61100D01*
X2021400Y510000D02*
X2023600D01*
X2022500Y508900D02*
Y511100D01*
X1983900Y35000D02*
X1986100D01*
X1985000Y33900D02*
Y36100D01*
X1958900Y585000D02*
X1961100D01*
X1960000Y583900D02*
Y586100D01*
X1958900Y35000D02*
X1961100D01*
X1960000Y33900D02*
Y36100D01*
X1946400Y610000D02*
X1948600D01*
X1947500Y608900D02*
Y611100D01*
X1933900Y585000D02*
X1936100D01*
X1935000Y583900D02*
Y586100D01*
X1946400Y510000D02*
X1948600D01*
X1947500Y508900D02*
Y511100D01*
X1933900Y285000D02*
X1936100D01*
X1935000Y283900D02*
Y286100D01*
X1933900Y35000D02*
X1936100D01*
X1935000Y33900D02*
Y36100D01*
X1921400Y610000D02*
X1923600D01*
X1922500Y608900D02*
Y611100D01*
X1908900Y585000D02*
X1911100D01*
X1910000Y583900D02*
Y586100D01*
X1908900Y435000D02*
X1911100D01*
X1910000Y433900D02*
Y436100D01*
X1921400Y260000D02*
X1923600D01*
X1922500Y258900D02*
Y261100D01*
X1908900Y35000D02*
X1911100D01*
X1910000Y33900D02*
Y36100D01*
X1896400Y610000D02*
X1898600D01*
X1897500Y608900D02*
Y611100D01*
X1883900Y585000D02*
X1886100D01*
X1885000Y583900D02*
Y586100D01*
X1883900Y35000D02*
X1886100D01*
X1885000Y33900D02*
Y36100D01*
X1871400Y610000D02*
X1873600D01*
X1872500Y608900D02*
Y611100D01*
X1858900Y585000D02*
X1861100D01*
X1860000Y583900D02*
Y586100D01*
X1858900Y435000D02*
X1861100D01*
X1860000Y433900D02*
Y436100D01*
X1858900Y35000D02*
X1861100D01*
X1860000Y33900D02*
Y36100D01*
X1846400Y610000D02*
X1848600D01*
X1847500Y608900D02*
Y611100D01*
X1796400Y610000D02*
X1798600D01*
X1797500Y608900D02*
Y611100D01*
X1783900Y585000D02*
X1786100D01*
X1785000Y583900D02*
Y586100D01*
X1771400Y610000D02*
X1773600D01*
X1772500Y608900D02*
Y611100D01*
X1758900Y585000D02*
X1761100D01*
X1760000Y583900D02*
Y586100D01*
X1746400Y610000D02*
X1748600D01*
X1747500Y608900D02*
Y611100D01*
X1733900Y585000D02*
X1736100D01*
X1735000Y583900D02*
Y586100D01*
X1721400Y610000D02*
X1723600D01*
X1722500Y608900D02*
Y611100D01*
X1708900Y585000D02*
X1711100D01*
X1710000Y583900D02*
Y586100D01*
X1721400Y260000D02*
X1723600D01*
X1722500Y258900D02*
Y261100D01*
X1708900Y235000D02*
X1711100D01*
X1710000Y233900D02*
Y236100D01*
X1708900Y185000D02*
X1711100D01*
X1710000Y183900D02*
Y186100D01*
X1696400Y610000D02*
X1698600D01*
X1697500Y608900D02*
Y611100D01*
X1683900Y585000D02*
X1686100D01*
X1685000Y583900D02*
Y586100D01*
X1696400Y360000D02*
X1698600D01*
X1697500Y358900D02*
Y361100D01*
X1683900Y235000D02*
X1686100D01*
X1685000Y233900D02*
Y236100D01*
X1671400Y610000D02*
X1673600D01*
X1672500Y608900D02*
Y611100D01*
X1658900Y585000D02*
X1661100D01*
X1660000Y583900D02*
Y586100D01*
X1646400Y610000D02*
X1648600D01*
X1647500Y608900D02*
Y611100D01*
X1633900Y585000D02*
X1636100D01*
X1635000Y583900D02*
Y586100D01*
X1621400Y610000D02*
X1623600D01*
X1622500Y608900D02*
Y611100D01*
X1608900Y585000D02*
X1611100D01*
X1610000Y583900D02*
Y586100D01*
X1596400Y610000D02*
X1598600D01*
X1597500Y608900D02*
Y611100D01*
X1583900Y585000D02*
X1586100D01*
X1585000Y583900D02*
Y586100D01*
X1596400Y360000D02*
X1598600D01*
X1597500Y358900D02*
Y361100D01*
X1571400Y610000D02*
X1573600D01*
X1572500Y608900D02*
Y611100D01*
X1558900Y585000D02*
X1561100D01*
X1560000Y583900D02*
Y586100D01*
X1546400Y610000D02*
X1548600D01*
X1547500Y608900D02*
Y611100D01*
X1508900Y235000D02*
X1511100D01*
X1510000Y233900D02*
Y236100D01*
X1496400Y610000D02*
X1498600D01*
X1497500Y608900D02*
Y611100D01*
X1496400Y260000D02*
X1498600D01*
X1497500Y258900D02*
Y261100D01*
X1483900Y235000D02*
X1486100D01*
X1485000Y233900D02*
Y236100D01*
X1458900Y435000D02*
X1461100D01*
X1460000Y433900D02*
Y436100D01*
X1433900Y435000D02*
X1436100D01*
X1435000Y433900D02*
Y436100D01*
X1333900Y435000D02*
X1336100D01*
X1335000Y433900D02*
Y436100D01*
X1296400Y260000D02*
X1298600D01*
X1297500Y258900D02*
Y261100D01*
X1283900Y235000D02*
X1286100D01*
X1285000Y233900D02*
Y236100D01*
X1258900Y235000D02*
X1261100D01*
X1260000Y233900D02*
Y236100D01*
X1246400Y260000D02*
X1248600D01*
X1247500Y258900D02*
Y261100D01*
X1221400Y610000D02*
X1223600D01*
X1222500Y608900D02*
Y611100D01*
X1196400Y610000D02*
X1198600D01*
X1197500Y608900D02*
Y611100D01*
X1171400Y610000D02*
X1173600D01*
X1172500Y608900D02*
Y611100D01*
X1171400Y360000D02*
X1173600D01*
X1172500Y358900D02*
Y361100D01*
X1158900Y35000D02*
X1161100D01*
X1160000Y33900D02*
Y36100D01*
X1146400Y610000D02*
X1148600D01*
X1147500Y608900D02*
Y611100D01*
X1133900Y35000D02*
X1136100D01*
X1135000Y33900D02*
Y36100D01*
X1121400Y610000D02*
X1123600D01*
X1122500Y608900D02*
Y611100D01*
X1108900Y135000D02*
X1111100D01*
X1110000Y133900D02*
Y136100D01*
X1121400Y110000D02*
X1123600D01*
X1122500Y108900D02*
Y111100D01*
X1108900Y35000D02*
X1111100D01*
X1110000Y33900D02*
Y36100D01*
X1096400Y610000D02*
X1098600D01*
X1097500Y608900D02*
Y611100D01*
X1083900Y235000D02*
X1086100D01*
X1085000Y233900D02*
Y236100D01*
X1083900Y185000D02*
X1086100D01*
X1085000Y183900D02*
Y186100D01*
X1096400Y160000D02*
X1098600D01*
X1097500Y158900D02*
Y161100D01*
X1083900Y135000D02*
X1086100D01*
X1085000Y133900D02*
Y136100D01*
X1096400Y110000D02*
X1098600D01*
X1097500Y108900D02*
Y111100D01*
X1083900Y35000D02*
X1086100D01*
X1085000Y33900D02*
Y36100D01*
X1071400Y610000D02*
X1073600D01*
X1072500Y608900D02*
Y611100D01*
X1071400Y260000D02*
X1073600D01*
X1072500Y258900D02*
Y261100D01*
X1058900Y235000D02*
X1061100D01*
X1060000Y233900D02*
Y236100D01*
X1071400Y210000D02*
X1073600D01*
X1072500Y208900D02*
Y211100D01*
X1058900Y185000D02*
X1061100D01*
X1060000Y183900D02*
Y186100D01*
X1071400Y160000D02*
X1073600D01*
X1072500Y158900D02*
Y161100D01*
X1058900Y35000D02*
X1061100D01*
X1060000Y33900D02*
Y36100D01*
X1046400Y610000D02*
X1048600D01*
X1047500Y608900D02*
Y611100D01*
X1033900Y435000D02*
X1036100D01*
X1035000Y433900D02*
Y436100D01*
X1046400Y210000D02*
X1048600D01*
X1047500Y208900D02*
Y211100D01*
X1033900Y185000D02*
X1036100D01*
X1035000Y183900D02*
Y186100D01*
X1033900Y35000D02*
X1036100D01*
X1035000Y33900D02*
Y36100D01*
X1021400Y610000D02*
X1023600D01*
X1022500Y608900D02*
Y611100D01*
X1008900Y35000D02*
X1011100D01*
X1010000Y33900D02*
Y36100D01*
X996400Y610000D02*
X998600D01*
X997500Y608900D02*
Y611100D01*
X983900Y35000D02*
X986100D01*
X985000Y33900D02*
Y36100D01*
X971400Y610000D02*
X973600D01*
X972500Y608900D02*
Y611100D01*
X958900Y435000D02*
X961100D01*
X960000Y433900D02*
Y436100D01*
X958900Y35000D02*
X961100D01*
X960000Y33900D02*
Y36100D01*
X946400Y610000D02*
X948600D01*
X947500Y608900D02*
Y611100D01*
X921400Y610000D02*
X923600D01*
X922500Y608900D02*
Y611100D01*
X908900Y435000D02*
X911100D01*
X910000Y433900D02*
Y436100D01*
X921400Y260000D02*
X923600D01*
X922500Y258900D02*
Y261100D01*
X896400Y610000D02*
X898600D01*
X897500Y608900D02*
Y611100D01*
X871400Y610000D02*
X873600D01*
X872500Y608900D02*
Y611100D01*
X858900Y235000D02*
X861100D01*
X860000Y233900D02*
Y236100D01*
X846400Y610000D02*
X848600D01*
X847500Y608900D02*
Y611100D01*
X846400Y210000D02*
X848600D01*
X847500Y208900D02*
Y211100D01*
X846400Y60000D02*
X848600D01*
X847500Y58900D02*
Y61100D01*
X821400Y610000D02*
X823600D01*
X822500Y608900D02*
Y611100D01*
X821400Y210000D02*
X823600D01*
X822500Y208900D02*
Y211100D01*
X796400Y610000D02*
X798600D01*
X797500Y608900D02*
Y611100D01*
X771400Y610000D02*
X773600D01*
X772500Y608900D02*
Y611100D01*
X746400Y610000D02*
X748600D01*
X747500Y608900D02*
Y611100D01*
X746400Y360000D02*
X748600D01*
X747500Y358900D02*
Y361100D01*
X721400Y610000D02*
X723600D01*
X722500Y608900D02*
Y611100D01*
X696400Y610000D02*
X698600D01*
X697500Y608900D02*
Y611100D01*
X671400Y610000D02*
X673600D01*
X672500Y608900D02*
Y611100D01*
X658900Y235000D02*
X661100D01*
X660000Y233900D02*
Y236100D01*
X646400Y360000D02*
X648600D01*
X647500Y358900D02*
Y361100D01*
X646400Y260000D02*
X648600D01*
X647500Y258900D02*
Y261100D01*
X633900Y235000D02*
X636100D01*
X635000Y233900D02*
Y236100D01*
X646400Y210000D02*
X648600D01*
X647500Y208900D02*
Y211100D01*
X608900Y585000D02*
X611100D01*
X610000Y583900D02*
Y586100D01*
X621400Y210000D02*
X623600D01*
X622500Y208900D02*
Y211100D01*
X596400Y610000D02*
X598600D01*
X597500Y608900D02*
Y611100D01*
X583900Y585000D02*
X586100D01*
X585000Y583900D02*
Y586100D01*
X571400Y610000D02*
X573600D01*
X572500Y608900D02*
Y611100D01*
X558900Y585000D02*
X561100D01*
X560000Y583900D02*
Y586100D01*
X546400Y610000D02*
X548600D01*
X547500Y608900D02*
Y611100D01*
X533900Y585000D02*
X536100D01*
X535000Y583900D02*
Y586100D01*
X521400Y610000D02*
X523600D01*
X522500Y608900D02*
Y611100D01*
X508900Y585000D02*
X511100D01*
X510000Y583900D02*
Y586100D01*
X496400Y610000D02*
X498600D01*
X497500Y608900D02*
Y611100D01*
X483900Y585000D02*
X486100D01*
X485000Y583900D02*
Y586100D01*
X483900Y435000D02*
X486100D01*
X485000Y433900D02*
Y436100D01*
X496400Y260000D02*
X498600D01*
X497500Y258900D02*
Y261100D01*
X471400Y610000D02*
X473600D01*
X472500Y608900D02*
Y611100D01*
X458900Y585000D02*
X461100D01*
X460000Y583900D02*
Y586100D01*
X446400Y610000D02*
X448600D01*
X447500Y608900D02*
Y611100D01*
X433900Y585000D02*
X436100D01*
X435000Y583900D02*
Y586100D01*
X446400Y260000D02*
X448600D01*
X447500Y258900D02*
Y261100D01*
X433900Y235000D02*
X436100D01*
X435000Y233900D02*
Y236100D01*
X446400Y210000D02*
X448600D01*
X447500Y208900D02*
Y211100D01*
X421400Y610000D02*
X423600D01*
X422500Y608900D02*
Y611100D01*
X408900Y585000D02*
X411100D01*
X410000Y583900D02*
Y586100D01*
X421400Y210000D02*
X423600D01*
X422500Y208900D02*
Y211100D01*
X396400Y610000D02*
X398600D01*
X397500Y608900D02*
Y611100D01*
X383900Y585000D02*
X386100D01*
X385000Y583900D02*
Y586100D01*
X383900Y435000D02*
X386100D01*
X385000Y433900D02*
Y436100D01*
X371400Y610000D02*
X373600D01*
X372500Y608900D02*
Y611100D01*
X358900Y585000D02*
X361100D01*
X360000Y583900D02*
Y586100D01*
X346400Y610000D02*
X348600D01*
X347500Y608900D02*
Y611100D01*
X333900Y585000D02*
X336100D01*
X335000Y583900D02*
Y586100D01*
X321400Y610000D02*
X323600D01*
X322500Y608900D02*
Y611100D01*
X308900Y585000D02*
X311100D01*
X310000Y583900D02*
Y586100D01*
X296400Y610000D02*
X298600D01*
X297500Y608900D02*
Y611100D01*
X283900Y585000D02*
X286100D01*
X285000Y583900D02*
Y586100D01*
X271400Y610000D02*
X273600D01*
X272500Y608900D02*
Y611100D01*
X258900Y585000D02*
X261100D01*
X260000Y583900D02*
Y586100D01*
X246400Y610000D02*
X248600D01*
X247500Y608900D02*
Y611100D01*
X233900Y585000D02*
X236100D01*
X235000Y583900D02*
Y586100D01*
X221400Y610000D02*
X223600D01*
X222500Y608900D02*
Y611100D01*
X208900Y585000D02*
X211100D01*
X210000Y583900D02*
Y586100D01*
X221400Y360000D02*
X223600D01*
X222500Y358900D02*
Y361100D01*
X221400Y260000D02*
X223600D01*
X222500Y258900D02*
Y261100D01*
X196400Y610000D02*
X198600D01*
X197500Y608900D02*
Y611100D01*
X183900Y585000D02*
X186100D01*
X185000Y583900D02*
Y586100D01*
X196400Y210000D02*
X198600D01*
X197500Y208900D02*
Y211100D01*
X171400Y610000D02*
X173600D01*
X172500Y608900D02*
Y611100D01*
X158900Y585000D02*
X161100D01*
X160000Y583900D02*
Y586100D01*
X171400Y60000D02*
X173600D01*
X172500Y58900D02*
Y61100D01*
X146400Y610000D02*
X148600D01*
X147500Y608900D02*
Y611100D01*
X133900Y585000D02*
X136100D01*
X135000Y583900D02*
Y586100D01*
X133900Y535000D02*
X136100D01*
X135000Y533900D02*
Y536100D01*
X121400Y610000D02*
X123600D01*
X122500Y608900D02*
Y611100D01*
X108900Y585000D02*
X111100D01*
X110000Y583900D02*
Y586100D01*
X108900Y35000D02*
X111100D01*
X110000Y33900D02*
Y36100D01*
X96400Y610000D02*
X98600D01*
X97500Y608900D02*
Y611100D01*
X83900Y585000D02*
X86100D01*
X85000Y583900D02*
Y586100D01*
X96400Y560000D02*
X98600D01*
X97500Y558900D02*
Y561100D01*
X83900Y535000D02*
X86100D01*
X85000Y533900D02*
Y536100D01*
X83900Y485000D02*
X86100D01*
X85000Y483900D02*
Y486100D01*
X83900Y435000D02*
X86100D01*
X85000Y433900D02*
Y436100D01*
X96400Y60000D02*
X98600D01*
X97500Y58900D02*
Y61100D01*
X83900Y35000D02*
X86100D01*
X85000Y33900D02*
Y36100D01*
X71400Y610000D02*
X73600D01*
X72500Y608900D02*
Y611100D01*
X71400Y560000D02*
X73600D01*
X72500Y558900D02*
Y561100D01*
X58900Y535000D02*
X61100D01*
X60000Y533900D02*
Y536100D01*
X58900Y135000D02*
X61100D01*
X60000Y133900D02*
Y136100D01*
X58900Y85000D02*
X61100D01*
X60000Y83900D02*
Y86100D01*
X46400Y560000D02*
X48600D01*
X47500Y558900D02*
Y561100D01*
X33900Y535000D02*
X36100D01*
X35000Y533900D02*
Y536100D01*
X46400Y510000D02*
X48600D01*
X47500Y508900D02*
Y511100D01*
X33900Y485000D02*
X36100D01*
X35000Y483900D02*
Y486100D01*
X33900Y185000D02*
X36100D01*
X35000Y183900D02*
Y186100D01*
X46400Y160000D02*
X48600D01*
X47500Y158900D02*
Y161100D01*
X33900Y135000D02*
X36100D01*
X35000Y133900D02*
Y136100D01*
X46400Y110000D02*
X48600D01*
X47500Y108900D02*
Y111100D01*
X33900Y85000D02*
X36100D01*
X35000Y83900D02*
Y86100D01*
X33900Y35000D02*
X36100D01*
X35000Y33900D02*
Y36100D01*
X467049Y66855D02*
X469249D01*
X468149Y65755D02*
Y67955D01*
X488900Y72170D02*
X491100D01*
X490000Y71070D02*
Y73270D01*
X638494Y72170D02*
X640694D01*
X639594Y71070D02*
Y73270D01*
X248900Y140000D02*
X251100D01*
X250000Y138900D02*
Y141100D01*
X1011997Y142189D02*
X1014197D01*
X1013097Y141089D02*
Y143289D01*
X873900Y230000D02*
X876100D01*
X875000Y228900D02*
Y231100D01*
X205774Y142549D02*
X207974D01*
X206874Y141449D02*
Y143649D01*
X417538Y142295D02*
X419738D01*
X418638Y141195D02*
Y143395D01*
X628900Y140000D02*
X631100D01*
X630000Y138900D02*
Y141100D01*
X1729550Y165101D02*
X1731750D01*
X1730650Y164001D02*
Y166201D01*
X1511243Y54406D02*
X1513443D01*
X1512343Y53306D02*
Y55506D01*
X1758900Y140000D02*
X1761100D01*
X1760000Y138900D02*
Y141100D01*
X1808900Y95000D02*
X1811100D01*
X1810000Y93900D02*
Y96100D01*
X566127Y55310D02*
X568327D01*
X567227Y54210D02*
Y56410D01*
X626242Y45139D02*
X628442D01*
X627342Y44039D02*
Y46239D01*
X1953276Y85720D02*
X1955476D01*
X1954376Y84620D02*
Y86820D01*
X1952383Y75552D02*
X1954583D01*
X1953483Y74452D02*
Y76652D01*
X1966069Y80015D02*
X1968269D01*
X1967169Y78915D02*
Y81115D01*
X1993900Y84507D02*
X1996100D01*
X1995000Y83407D02*
Y85607D01*
X1977534Y80050D02*
X1979734D01*
X1978634Y78950D02*
Y81150D01*
X1933900Y200000D02*
X1936100D01*
X1935000Y198900D02*
Y201100D01*
X718123Y583591D02*
X722123D01*
X720123Y581591D02*
Y585591D01*
X2132500Y15000D02*
X2137500D01*
X2135000Y12500D02*
Y17500D01*
X2102500Y10000D02*
X2107500D01*
X2105000Y7500D02*
Y12500D01*
X2082110Y18210D02*
X2084310D01*
X2083210Y17110D02*
Y19310D01*
X1998900Y570000D02*
X2001100D01*
X2000000Y568900D02*
Y571100D01*
X2003000Y455000D02*
X2007000D01*
X2005000Y453000D02*
Y457000D01*
X2109415Y430000D02*
X2113414D01*
X2111414Y428000D02*
Y432000D01*
X1999056Y594879D02*
X2001256D01*
X2000156Y593778D02*
Y595979D01*
X1186150Y341296D02*
X1188350D01*
X1187250Y340196D02*
Y342396D01*
X1177898Y343718D02*
X1180098D01*
X1178998Y342618D02*
Y344818D01*
X1291461Y340849D02*
X1293661D01*
X1292561Y339749D02*
Y341949D01*
X1282992Y342348D02*
X1285192D01*
X1284092Y341248D02*
Y343448D01*
X342116Y341051D02*
X344316D01*
X343216Y339951D02*
Y342151D01*
X333720Y342915D02*
X335920D01*
X334820Y341815D02*
Y344015D01*
X1082024Y340974D02*
X1084224D01*
X1083124Y339874D02*
Y342074D01*
X1714898Y340465D02*
X1717098D01*
X1715998Y339365D02*
Y341565D01*
X976945Y340843D02*
X979145D01*
X978045Y339743D02*
Y341943D01*
X659907Y340752D02*
X662107D01*
X661007Y339652D02*
Y341852D01*
X1009408Y324070D02*
X1011609D01*
X1010508Y322970D02*
Y325170D01*
X871106Y340876D02*
X873306D01*
X872206Y339776D02*
Y341976D01*
X1398541Y341124D02*
X1400741D01*
X1399641Y340024D02*
Y342224D01*
X1925938Y340593D02*
X1928138D01*
X1927038Y339493D02*
Y341693D01*
X447368Y341073D02*
X449568D01*
X448468Y339973D02*
Y342173D01*
X440382Y346088D02*
X442581D01*
X441482Y344988D02*
Y347188D01*
X1316297Y459538D02*
X1320297D01*
X1318297Y457538D02*
Y461538D01*
X1609332Y340471D02*
X1611532D01*
X1610432Y339371D02*
Y341571D01*
X766102Y340743D02*
X768302D01*
X767202Y339643D02*
Y341843D01*
X237321Y340834D02*
X239521D01*
X238421Y339734D02*
Y341934D01*
X1820169Y340487D02*
X1822369D01*
X1821269Y339387D02*
Y341587D01*
X2031226Y340471D02*
X2033426D01*
X2032326Y339371D02*
Y341571D01*
X1543000Y580000D02*
X1547000D01*
X1545000Y578000D02*
Y582000D01*
X31460Y305000D02*
X36460D01*
X33960Y302500D02*
Y307500D01*
X970012Y167840D02*
X974012D01*
X972012Y165840D02*
Y169840D01*
X2141523Y341059D02*
X2143723D01*
X2142623Y339959D02*
Y342159D01*
X2127800Y346188D02*
X2130000D01*
X2128900Y345088D02*
Y347288D01*
X582990Y35319D02*
X585190D01*
X584090Y34220D02*
Y36419D01*
X578900Y65000D02*
X581100D01*
X580000Y63900D02*
Y66100D01*
X783900Y35000D02*
X786100D01*
X785000Y33900D02*
Y36100D01*
X795362Y41462D02*
X797562D01*
X796462Y40362D02*
Y42562D01*
X793900Y55000D02*
X796100D01*
X795000Y53900D02*
Y56100D01*
X793900Y70000D02*
X796100D01*
X795000Y68900D02*
Y71100D01*
X193900Y60000D02*
X196100D01*
X195000Y58900D02*
Y61100D01*
X83900Y100000D02*
X86100D01*
X85000Y98900D02*
Y101100D01*
X138900Y55000D02*
X141100D01*
X140000Y53900D02*
Y56100D01*
X118900Y90000D02*
X121100D01*
X120000Y88900D02*
Y91100D01*
X158900Y70000D02*
X161100D01*
X160000Y68900D02*
Y71100D01*
X208900Y80000D02*
X211100D01*
X210000Y78900D02*
Y81100D01*
X474097Y173568D02*
X476297D01*
X475197Y172468D02*
Y174668D01*
X472596Y160065D02*
X474796D01*
X473696Y158966D02*
Y161166D01*
X261140Y70000D02*
X263340D01*
X262240Y68900D02*
Y71100D01*
X336350Y60075D02*
X338550D01*
X337450Y58975D02*
Y61175D01*
X370318Y51923D02*
X372519D01*
X371418Y50823D02*
Y53023D01*
X365789Y34259D02*
X367989D01*
X366889Y33159D02*
Y35359D01*
X1551333Y100000D02*
X1553533D01*
X1552433Y98900D02*
Y101100D01*
X1723156Y62600D02*
X1725356D01*
X1724256Y61500D02*
Y63700D01*
X1722895Y71402D02*
X1725095D01*
X1723995Y70302D02*
Y72502D01*
X1723900Y80000D02*
X1726100D01*
X1725000Y78900D02*
Y81100D01*
X1723942Y44730D02*
X1726142D01*
X1725042Y43630D02*
Y45830D01*
X1723214Y54000D02*
X1725414D01*
X1724314Y52900D02*
Y55100D01*
X1947422Y92020D02*
X1949622D01*
X1948522Y90920D02*
Y93120D01*
X1518610Y37600D02*
X1520810D01*
X1519710Y36500D02*
Y38700D01*
X1518610Y29000D02*
X1520810D01*
X1519710Y27900D02*
Y30100D01*
X1518610Y20400D02*
X1520810D01*
X1519710Y19300D02*
Y21500D01*
X1517808Y46402D02*
X1520008D01*
X1518908Y45302D02*
Y47502D01*
X335235Y42803D02*
X337435D01*
X336335Y41703D02*
Y43903D01*
X335235Y24803D02*
X337435D01*
X336335Y23703D02*
Y25903D01*
X778900Y102710D02*
X781100D01*
X780000Y101610D02*
Y103810D01*
X793900Y100000D02*
X796100D01*
X795000Y98900D02*
Y101100D01*
X790912Y117846D02*
X793112D01*
X792012Y116746D02*
Y118946D01*
X798049Y122643D02*
X800249D01*
X799149Y121543D02*
Y123743D01*
X808900Y136540D02*
X811100D01*
X810000Y135440D02*
Y137640D01*
X1400043Y39608D02*
X1402243D01*
X1401143Y38508D02*
Y40708D01*
X1388900Y45000D02*
X1391100D01*
X1390000Y43900D02*
Y46100D01*
X1377777Y49580D02*
X1379977D01*
X1378877Y48480D02*
Y50680D01*
X1364554Y51357D02*
X1366754D01*
X1365654Y50258D02*
Y52457D01*
X1119509Y169576D02*
X1121709D01*
X1120609Y168476D02*
Y170676D01*
X1273505Y190308D02*
X1275705D01*
X1274605Y189208D02*
Y191408D01*
X1383900Y75000D02*
X1386100D01*
X1385000Y73900D02*
Y76100D01*
X1413900Y108924D02*
X1416100D01*
X1415000Y107824D02*
Y110024D01*
X1433900Y100000D02*
X1436100D01*
X1435000Y98900D02*
Y101100D01*
X1350383Y105698D02*
X1352583D01*
X1351483Y104599D02*
Y106798D01*
X1357360Y97706D02*
X1359560D01*
X1358460Y96606D02*
Y98806D01*
X1328900Y112290D02*
X1331100D01*
X1330000Y111190D02*
Y113390D01*
X1320691Y118207D02*
X1322891D01*
X1321791Y117107D02*
Y119307D01*
X1238900Y117514D02*
X1241100D01*
X1240000Y116414D02*
Y118614D01*
X1218505Y125308D02*
X1220705D01*
X1219605Y124208D02*
Y126408D01*
X1198505Y135308D02*
X1200705D01*
X1199605Y134208D02*
Y136408D01*
X1189652Y144041D02*
X1191852D01*
X1190752Y142941D02*
Y145141D01*
X1114013Y180354D02*
X1116213D01*
X1115113Y179254D02*
Y181454D01*
X1182900Y169949D02*
X1185100D01*
X1184000Y168849D02*
Y171049D01*
X1156036Y178962D02*
X1158236D01*
X1157136Y177862D02*
Y180062D01*
X941300Y127600D02*
X943500D01*
X942400Y126500D02*
Y128700D01*
X983629Y134866D02*
X985829D01*
X984729Y133766D02*
Y135966D01*
X924531Y123750D02*
X926731D01*
X925631Y122650D02*
Y124850D01*
X901333Y116370D02*
X903533D01*
X902433Y115270D02*
Y117470D01*
X919750Y116370D02*
X921950D01*
X920850Y115270D02*
Y117470D01*
X1321900Y164949D02*
X1324100D01*
X1323000Y163849D02*
Y166049D01*
X1530900Y164949D02*
X1533100D01*
X1532000Y163849D02*
Y166049D01*
X1957073Y164550D02*
X1959273D01*
X1958173Y163451D02*
Y165651D01*
X990533Y127914D02*
X992733D01*
X991633Y126813D02*
Y129014D01*
X993900Y120000D02*
X996100D01*
X995000Y118900D02*
Y121100D01*
X1013257Y188236D02*
X1015457D01*
X1014357Y187136D02*
Y189336D01*
X800252Y144853D02*
X802452D01*
X801352Y143753D02*
Y145953D01*
X893900Y160239D02*
X896100D01*
X895000Y159139D02*
Y161339D01*
X706407Y130000D02*
X708607D01*
X707507Y128900D02*
Y131100D01*
X948099Y139868D02*
X950299D01*
X949199Y138768D02*
Y140968D01*
X594574Y106400D02*
X596774D01*
X595674Y105300D02*
Y107500D01*
X594574Y115000D02*
X596774D01*
X595674Y113900D02*
Y116100D01*
X594574Y97800D02*
X596774D01*
X595674Y96700D02*
Y98900D01*
X761623Y143850D02*
X763823D01*
X762723Y142750D02*
Y144950D01*
X956585Y141264D02*
X958785D01*
X957685Y140163D02*
Y142364D01*
X594874Y140995D02*
X597074D01*
X595974Y139895D02*
Y142095D01*
X830601Y145659D02*
X832801D01*
X831701Y144559D02*
Y146759D01*
X594574Y132400D02*
X596774D01*
X595674Y131300D02*
Y133500D01*
X594574Y123800D02*
X596774D01*
X595674Y122700D02*
Y124900D01*
X534006Y153039D02*
X536206D01*
X535106Y151939D02*
Y154139D01*
X534006Y141384D02*
X536206D01*
X535106Y140284D02*
Y142484D01*
X1006627Y195277D02*
X1008827D01*
X1007727Y194177D02*
Y196377D01*
X1020675Y180818D02*
X1022875D01*
X1021775Y179718D02*
Y181918D01*
X998396Y179876D02*
X1000596D01*
X999496Y178776D02*
Y180976D01*
X1049450Y260648D02*
X1051650D01*
X1050550Y259548D02*
Y261748D01*
X986458Y267252D02*
X988658D01*
X987558Y266152D02*
Y268352D01*
X1000808Y253092D02*
X1003008D01*
X1001908Y251992D02*
Y254192D01*
X1019937Y250054D02*
X1022137D01*
X1021037Y248954D02*
Y251154D01*
X1003730Y267252D02*
X1005930D01*
X1004830Y266152D02*
Y268352D01*
X994528Y275321D02*
X996728D01*
X995628Y274221D02*
Y276421D01*
X985950Y246932D02*
X988150D01*
X987050Y245832D02*
Y248032D01*
X1004868Y281949D02*
X1007068D01*
X1005968Y280849D02*
Y283049D01*
X992554Y240328D02*
X994754D01*
X993654Y239228D02*
Y241428D01*
X1005912Y240478D02*
X1008112D01*
X1007012Y239378D02*
Y241578D01*
X969186Y248710D02*
X971386D01*
X970286Y247610D02*
Y249810D01*
X979092Y240074D02*
X981292D01*
X980192Y238974D02*
Y241174D01*
X943174Y239208D02*
X945374D01*
X944274Y238108D02*
Y240308D01*
X941926Y252288D02*
X944126D01*
X943026Y251188D02*
Y253388D01*
X914830Y240074D02*
X917030D01*
X915930Y238974D02*
Y241174D01*
X923212Y245662D02*
X925412D01*
X924312Y244562D02*
Y246762D01*
X930094Y239058D02*
X932294D01*
X931194Y237958D02*
Y240158D01*
X950787Y257913D02*
X952987D01*
X951887Y256814D02*
Y259014D01*
X929667Y252288D02*
X931867D01*
X930767Y251188D02*
Y253388D01*
X2107500Y164449D02*
X2112500D01*
X2110000Y161949D02*
Y166949D01*
X2127500Y154449D02*
X2132500D01*
X2130000Y151949D02*
Y156949D01*
X2002500Y35000D02*
X2007500D01*
X2005000Y32500D02*
Y37500D01*
X2093676Y514380D02*
X2097677D01*
X2095677Y512380D02*
Y516380D01*
X28637Y457820D02*
X32637D01*
X30637Y455820D02*
Y459820D01*
X1378261Y431921D02*
X1383261D01*
X1380761Y429421D02*
Y434421D01*
X1394322Y421889D02*
X1396522D01*
X1395422Y420789D02*
Y422989D01*
X2036938Y440794D02*
X2040938D01*
X2038938Y438794D02*
Y442794D01*
X2036836Y454174D02*
X2040836D01*
X2038836Y452174D02*
Y456174D01*
X1931519Y440895D02*
X1935520D01*
X1933519Y438895D02*
Y442895D01*
X1928783Y454376D02*
X1932783D01*
X1930783Y452376D02*
Y456376D01*
X1824886Y440490D02*
X1828886D01*
X1826886Y438490D02*
Y442490D01*
X1823872Y453363D02*
X1827872D01*
X1825872Y451363D02*
Y455363D01*
X1749635Y456557D02*
X1753635D01*
X1751635Y454557D02*
Y458557D01*
X1719277Y440416D02*
X1723277D01*
X1721277Y438416D02*
Y442416D01*
X1717974Y453449D02*
X1721974D01*
X1719974Y451449D02*
Y455449D01*
X1644588Y455755D02*
X1648587D01*
X1646588Y453755D02*
Y457755D01*
X1612807Y440115D02*
X1616807D01*
X1614807Y438115D02*
Y442115D01*
X1612406Y453950D02*
X1616406D01*
X1614406Y451950D02*
Y455950D01*
X1537917Y456959D02*
X1541917D01*
X1539917Y454959D02*
Y458959D01*
X1508527Y453650D02*
X1512527D01*
X1510527Y451650D02*
Y455650D01*
X1509027Y440706D02*
X1513027D01*
X1511027Y438706D02*
Y442706D01*
X1403175Y440618D02*
X1407175D01*
X1405175Y438618D02*
Y442618D01*
X1432643Y455856D02*
X1436643D01*
X1434643Y453856D02*
Y457856D01*
X1402373Y453550D02*
X1406373D01*
X1404373Y451550D02*
Y455550D01*
X1327197Y454726D02*
X1331197D01*
X1329197Y452726D02*
Y456726D01*
X1296403Y454478D02*
X1300403D01*
X1298403Y452477D02*
Y456478D01*
X1221816Y449287D02*
X1225816D01*
X1223816Y447287D02*
Y451287D01*
X1191003Y440796D02*
X1195003D01*
X1193003Y438796D02*
Y442796D01*
X1191535Y453605D02*
X1195535D01*
X1193535Y451605D02*
Y455605D01*
X1115844Y458358D02*
X1119844D01*
X1117844Y456358D02*
Y460358D01*
X1085871Y452063D02*
X1089871D01*
X1087871Y450063D02*
Y454063D01*
X1085988Y439995D02*
X1089988D01*
X1087988Y437995D02*
Y441996D01*
X1011397Y455972D02*
X1015397D01*
X1013397Y453972D02*
Y457972D01*
X980707Y439196D02*
X984707D01*
X982707Y437196D02*
Y441196D01*
X980207Y455672D02*
X984207D01*
X982207Y453672D02*
Y457672D01*
X873898Y453975D02*
X877898D01*
X875899Y451975D02*
Y455975D01*
X896665Y472348D02*
X900665D01*
X898665Y470348D02*
Y474348D01*
X766276Y459373D02*
X770276D01*
X768276Y457373D02*
Y461373D01*
X766802Y437616D02*
X770801D01*
X768801Y435616D02*
Y439616D01*
X805409Y459073D02*
X809409D01*
X807409Y457073D02*
Y461073D01*
X780005Y461074D02*
X784005D01*
X782005Y459074D02*
Y463074D01*
X696111Y459312D02*
X700111D01*
X698111Y457312D02*
Y461311D01*
X682513Y461869D02*
X686513D01*
X684513Y459869D02*
Y463869D01*
X662524Y440057D02*
X666525D01*
X664525Y438057D02*
Y442057D01*
X661321Y453732D02*
X665321D01*
X663321Y451732D02*
Y455732D01*
X619311Y461937D02*
X623311D01*
X621311Y459938D02*
Y463937D01*
X556077Y441698D02*
X560076D01*
X558077Y439698D02*
Y443698D01*
X555639Y454608D02*
X559639D01*
X557639Y452608D02*
Y456608D01*
X576147Y459914D02*
X580146D01*
X578147Y457914D02*
Y461914D01*
X483000Y454449D02*
X487000D01*
X485000Y452449D02*
Y456449D01*
X448000Y454449D02*
X452000D01*
X450000Y452449D02*
Y456449D01*
X448000Y439449D02*
X452000D01*
X450000Y437449D02*
Y441449D01*
X378000Y454449D02*
X382000D01*
X380000Y452449D02*
Y456449D01*
X343000Y439449D02*
X347000D01*
X345000Y437449D02*
Y441449D01*
X346223Y454449D02*
X350223D01*
X348223Y452449D02*
Y456449D01*
X273000Y459449D02*
X277000D01*
X275000Y457449D02*
Y461449D01*
X238000Y439449D02*
X242000D01*
X240000Y437449D02*
Y441449D01*
X164900Y454902D02*
X168900D01*
X166901Y452902D02*
Y456902D01*
X133000Y439449D02*
X137000D01*
X135000Y437449D02*
Y441449D01*
X133000Y454449D02*
X137000D01*
X135000Y452449D02*
Y456449D01*
X28000Y439449D02*
X32000D01*
X30000Y437449D02*
Y441449D01*
X63000Y459449D02*
X67000D01*
X65000Y457449D02*
Y461449D01*
X2128900Y134449D02*
X2131100D01*
X2130000Y133349D02*
Y135549D01*
X2142000Y53809D02*
X2144200D01*
X2143100Y52709D02*
Y54909D01*
X2065800Y30949D02*
X2068000D01*
X2066900Y29849D02*
Y32049D01*
X2065800Y43649D02*
X2068000D01*
X2066900Y42549D02*
Y44749D01*
X2096280Y71589D02*
X2098480D01*
X2097380Y70489D02*
Y72689D01*
X2101360Y43649D02*
X2103560D01*
X2102460Y42549D02*
Y44749D01*
X2106440Y36029D02*
X2108640D01*
X2107540Y34929D02*
Y37129D01*
X2106440Y51269D02*
X2108640D01*
X2107540Y50169D02*
Y52369D01*
X2078500Y61429D02*
X2080700D01*
X2079600Y60329D02*
Y62529D01*
X2070880Y71589D02*
X2073080D01*
X2071980Y70489D02*
Y72689D01*
X2088660Y61429D02*
X2090860D01*
X2089760Y60329D02*
Y62529D01*
X2077665Y110741D02*
X2079865D01*
X2078765Y109641D02*
Y111841D01*
X2065800Y94449D02*
X2068000D01*
X2066900Y93349D02*
Y95549D01*
X122975Y341400D02*
X125175D01*
X124074Y340300D02*
Y342500D01*
X61470Y323195D02*
X63670D01*
X62570Y322095D02*
Y324295D01*
X108568Y306744D02*
X110768D01*
X109668Y305644D02*
Y307845D01*
X91900Y313949D02*
X94100D01*
X93000Y312849D02*
Y315049D01*
X105204Y336630D02*
X107404D01*
X106304Y335530D02*
Y337730D01*
X91974Y336400D02*
X94174D01*
X93075Y335300D02*
Y337500D01*
X73594Y347483D02*
X75795D01*
X74694Y346384D02*
Y348583D01*
X132201Y340746D02*
X134401D01*
X133301Y339646D02*
Y341846D01*
X112594Y377483D02*
X114795D01*
X113694Y376384D02*
Y378583D01*
X86889Y377656D02*
X89088D01*
X87989Y376556D02*
Y378756D01*
X85315Y360764D02*
X87515D01*
X86415Y359664D02*
Y361864D01*
X104189Y461949D02*
X108189D01*
X106189Y459949D02*
Y463949D01*
X91785Y302010D02*
X93984D01*
X92885Y300910D02*
Y303110D01*
X111919Y290453D02*
X114120D01*
X113020Y289353D02*
Y291553D01*
X58165Y370894D02*
X60365D01*
X59265Y369794D02*
Y371994D01*
X507087Y252288D02*
X509287D01*
X508187Y251188D02*
Y253388D01*
X597358Y250054D02*
X599558D01*
X598458Y248954D02*
Y251154D01*
X581151Y267252D02*
X583351D01*
X582251Y266152D02*
Y268352D01*
X578228Y253092D02*
X580428D01*
X579328Y251992D02*
Y254192D01*
X569975Y240328D02*
X572175D01*
X571075Y239228D02*
Y241428D01*
X583333Y240478D02*
X585533D01*
X584433Y239378D02*
Y241578D01*
X556513Y240074D02*
X558713D01*
X557613Y238974D02*
Y241174D01*
X563371Y246932D02*
X565571D01*
X564471Y245832D02*
Y248032D01*
X563879Y267252D02*
X566079D01*
X564979Y266152D02*
Y268352D01*
X579119Y280332D02*
X581319D01*
X580219Y279232D02*
Y281432D01*
X546607Y248710D02*
X548807D01*
X547707Y247610D02*
Y249810D01*
X528208Y257913D02*
X530408D01*
X529308Y256814D02*
Y259014D01*
X499363Y189737D02*
X501563D01*
X500463Y188637D02*
Y190837D01*
X626043Y260024D02*
X628242D01*
X627142Y258924D02*
Y261124D01*
X584047Y195277D02*
X586247D01*
X585147Y194177D02*
Y196377D01*
X591185Y188071D02*
X593385D01*
X592285Y186971D02*
Y189171D01*
X575817Y179876D02*
X578017D01*
X576917Y178776D02*
Y180976D01*
X598095Y180818D02*
X600295D01*
X599195Y179718D02*
Y181918D01*
X492251Y240074D02*
X494451D01*
X493351Y238974D02*
Y241174D01*
X507515Y239058D02*
X509715D01*
X508615Y237958D02*
Y240158D01*
X500633Y245662D02*
X502833D01*
X501733Y244562D02*
Y246762D01*
X520595Y239208D02*
X522795D01*
X521695Y238108D02*
Y240308D01*
X519346Y252288D02*
X521546D01*
X520446Y251188D02*
Y253388D01*
X1594886Y545199D02*
X1598886D01*
X1596886Y543199D02*
Y547199D01*
X1703000Y474449D02*
X1707000D01*
X1705000Y472449D02*
Y476449D01*
X1583000Y459449D02*
X1587000D01*
X1585000Y457449D02*
Y461449D01*
X1548000Y549449D02*
X1552000D01*
X1550000Y547449D02*
Y551449D01*
X1554281Y523707D02*
X1558281D01*
X1556281Y521707D02*
Y525706D01*
X1950483Y475409D02*
X1954483D01*
X1952483Y473409D02*
Y477409D01*
X1718000Y534449D02*
X1722000D01*
X1720000Y532449D02*
Y536449D01*
X1678000Y464449D02*
X1682000D01*
X1680000Y462449D02*
Y466449D01*
X1818000Y514449D02*
X1822000D01*
X1820000Y512449D02*
Y516449D01*
X1787792Y475409D02*
X1791792D01*
X1789792Y473409D02*
Y477409D01*
X1841711Y473360D02*
X1845711D01*
X1843711Y471360D02*
Y475360D01*
X1833000Y464449D02*
X1837000D01*
X1835000Y462449D02*
Y466449D01*
X1868000Y504449D02*
X1872000D01*
X1870000Y502449D02*
Y506449D01*
X1743000Y474449D02*
X1747000D01*
X1745000Y472449D02*
Y476449D01*
X1897502Y471627D02*
X1901502D01*
X1899502Y469627D02*
Y473627D01*
X1963000Y494449D02*
X1967000D01*
X1965000Y492449D02*
Y496449D01*
X1990003Y458816D02*
X1994003D01*
X1992003Y456816D02*
Y460816D01*
X2045130Y467974D02*
X2049130D01*
X2047130Y465974D02*
Y469974D01*
X1094765Y460200D02*
X1098765D01*
X1096765Y458200D02*
Y462200D01*
X1211261Y455766D02*
X1215261D01*
X1213261Y453766D02*
Y457766D01*
X1477291Y452385D02*
X1481291D01*
X1479291Y450385D02*
Y454385D01*
X1570529Y442356D02*
X1574529D01*
X1572529Y440356D02*
Y444356D01*
X1528831Y465362D02*
X1532831D01*
X1530831Y463362D02*
Y467362D01*
X1466734Y450357D02*
X1470735D01*
X1468734Y448357D02*
Y452357D01*
X1412027Y465701D02*
X1416027D01*
X1414027Y463701D02*
Y467701D01*
X1148000Y449449D02*
X1152000D01*
X1150000Y447449D02*
Y451449D01*
X1159708Y447740D02*
X1163708D01*
X1161709Y445740D02*
Y449740D01*
X1371279Y459449D02*
X1375280D01*
X1373280Y457449D02*
Y461449D01*
X1251036Y445532D02*
X1255036D01*
X1253036Y443532D02*
Y447532D01*
X948000Y479449D02*
X952000D01*
X950000Y477449D02*
Y481449D01*
X988000Y464449D02*
X992000D01*
X990000Y462449D02*
Y466449D01*
X1000045Y470791D02*
X1004045D01*
X1002045Y468791D02*
Y472791D01*
X233000Y539449D02*
X237000D01*
X235000Y537449D02*
Y541449D01*
X293000Y519449D02*
X297000D01*
X295000Y517449D02*
Y521449D01*
X403000Y559449D02*
X407000D01*
X405000Y557449D02*
Y561449D01*
X648000Y519449D02*
X652000D01*
X650000Y517449D02*
Y521449D01*
X653000Y539449D02*
X657000D01*
X655000Y537449D02*
Y541449D01*
X662259Y561349D02*
X666259D01*
X664259Y559349D02*
Y563349D01*
X93000Y474449D02*
X97000D01*
X95000Y472449D02*
Y476449D01*
X37894Y471860D02*
X41894D01*
X39894Y469860D02*
Y473860D01*
X48351Y469365D02*
X52351D01*
X50351Y467365D02*
Y471365D01*
X830082Y446943D02*
X834082D01*
X832083Y444943D02*
Y448943D01*
X844788Y444291D02*
X848788D01*
X846788Y442291D02*
Y446291D01*
X786787Y437710D02*
X788987D01*
X787887Y436610D02*
Y438810D01*
X672092Y460224D02*
X676092D01*
X674092Y458223D02*
Y462224D01*
X737146Y461074D02*
X741146D01*
X739146Y459074D02*
Y463074D01*
X423000Y459449D02*
X427000D01*
X425000Y457449D02*
Y461449D01*
X513123Y451947D02*
X517123D01*
X515123Y449947D02*
Y453947D01*
X461213Y462048D02*
X465213D01*
X463213Y460048D02*
Y464048D01*
X365064Y459678D02*
X369064D01*
X367064Y457678D02*
Y461679D01*
X322716Y141925D02*
X324916D01*
X323816Y140825D02*
Y143025D01*
X1034900Y172949D02*
X1037100D01*
X1036000Y171849D02*
Y174049D01*
X1040716Y165133D02*
X1042916D01*
X1041816Y164033D02*
Y166233D01*
X383284Y97800D02*
X385484D01*
X384384Y96700D02*
Y98900D01*
X383284Y106400D02*
X385484D01*
X384384Y105300D02*
Y107500D01*
X383284Y115000D02*
X385484D01*
X384384Y113900D02*
Y116100D01*
X383284Y123800D02*
X385484D01*
X384384Y122700D02*
Y124900D01*
X383284Y132400D02*
X385484D01*
X384384Y131300D02*
Y133500D01*
X383585Y140995D02*
X385785D01*
X384685Y139895D02*
Y142095D01*
X172201Y141143D02*
X174401D01*
X173301Y140043D02*
Y142243D01*
X171900Y132549D02*
X174100D01*
X173000Y131449D02*
Y133649D01*
X171900Y123949D02*
X174100D01*
X173000Y122849D02*
Y125049D01*
X171900Y115149D02*
X174100D01*
X173000Y114049D02*
Y116249D01*
X171900Y106549D02*
X174100D01*
X173000Y105449D02*
Y107649D01*
X761623Y153039D02*
X763823D01*
X762723Y151939D02*
Y154139D01*
X1394479Y157010D02*
X1396679D01*
X1395579Y155910D02*
Y158110D01*
X1393637Y148452D02*
X1395837D01*
X1394737Y147352D02*
Y149552D01*
X1400048Y142720D02*
X1402248D01*
X1401148Y141620D02*
Y143820D01*
X1605559Y149088D02*
X1607759D01*
X1606659Y147988D02*
Y150188D01*
X1606270Y157659D02*
X1608470D01*
X1607370Y156559D02*
Y158759D01*
X1611338Y142720D02*
X1613538D01*
X1612438Y141620D02*
Y143820D01*
X1816900Y157949D02*
X1819100D01*
X1818000Y156849D02*
Y159049D01*
X1817340Y149027D02*
X1819540D01*
X1818440Y147927D02*
Y150127D01*
X2026900Y158949D02*
X2029100D01*
X2028000Y157849D02*
Y160049D01*
X2029361Y149365D02*
X2031561D01*
X2030461Y148265D02*
Y150464D01*
X322922Y150949D02*
X325122D01*
X324022Y149849D02*
Y152049D01*
X1255900Y157659D02*
X1258100D01*
X1257000Y156559D02*
Y158759D01*
X1168900Y153949D02*
X1171100D01*
X1170000Y152849D02*
Y155049D01*
X1399133Y132804D02*
X1401333D01*
X1400233Y131705D02*
Y133904D01*
X1400436Y124304D02*
X1402636D01*
X1401536Y123204D02*
Y125404D01*
X1400019Y115714D02*
X1402219D01*
X1401119Y114614D02*
Y116814D01*
X1610423Y132804D02*
X1612623D01*
X1611523Y131705D02*
Y133904D01*
X1611726Y124304D02*
X1613926D01*
X1612826Y123204D02*
Y125404D01*
X1611309Y115714D02*
X1613509D01*
X1612409Y114614D02*
Y116814D01*
X1612420Y107186D02*
X1614620D01*
X1613520Y106086D02*
Y108286D01*
X1612316Y98587D02*
X1614516D01*
X1613416Y97487D02*
Y99687D01*
X1821303Y141395D02*
X1823503D01*
X1822403Y140295D02*
Y142495D01*
X1821712Y132804D02*
X1823913D01*
X1822812Y131705D02*
Y133904D01*
X1823016Y124304D02*
X1825216D01*
X1824116Y123204D02*
Y125404D01*
X1822599Y115714D02*
X1824799D01*
X1823699Y114614D02*
Y116814D01*
X1823710Y107186D02*
X1825910D01*
X1824810Y106086D02*
Y108286D01*
X2034896Y98587D02*
X2037096D01*
X2035996Y97487D02*
Y99687D01*
X2034999Y107186D02*
X2037199D01*
X2036099Y106086D02*
Y108286D01*
X2033889Y115714D02*
X2036089D01*
X2034989Y114614D02*
Y116814D01*
X2034306Y124304D02*
X2036505D01*
X2035405Y123204D02*
Y125404D01*
X2033002Y132804D02*
X2035202D01*
X2034102Y131705D02*
Y133904D01*
X2032593Y141395D02*
X2034793D01*
X2033693Y140295D02*
Y142495D01*
X1677900Y147949D02*
X1680100D01*
X1679000Y146849D02*
Y149049D01*
X1365500Y305949D02*
X1370500D01*
X1368000Y303449D02*
Y308449D01*
X1354900Y314949D02*
X1357100D01*
X1356000Y313849D02*
Y316049D01*
X1368577Y336981D02*
X1370777D01*
X1369677Y335881D02*
Y338080D01*
X1379128Y309456D02*
X1381328D01*
X1380228Y308356D02*
Y310556D01*
X1364740Y291949D02*
X1366940D01*
X1365840Y290849D02*
Y293049D01*
X1357130Y336944D02*
X1359330D01*
X1358230Y335844D02*
Y338044D01*
X1303500Y391949D02*
X1308500D01*
X1306000Y389449D02*
Y394449D01*
X1306471Y463239D02*
X1310471D01*
X1308471Y461239D02*
Y465239D01*
X1431868Y375949D02*
X1434068D01*
X1432968Y374849D02*
Y377049D01*
X2065852Y376949D02*
X2068052D01*
X2066952Y375849D02*
Y378049D01*
X2066538Y360734D02*
X2068738D01*
X2067638Y359634D02*
Y361834D01*
X1883000Y471949D02*
X1887000D01*
X1885000Y469949D02*
Y473949D01*
X1622000Y471949D02*
X1626000D01*
X1624000Y469949D02*
Y473949D01*
X1057000Y462949D02*
X1061000D01*
X1059000Y460949D02*
Y464949D01*
X934000Y474949D02*
X938000D01*
X936000Y472949D02*
Y476949D01*
X356215Y472164D02*
X360215D01*
X358215Y470164D02*
Y474164D01*
X2062829Y195277D02*
X2065029D01*
X2063929Y194177D02*
Y196377D01*
X1649062Y188269D02*
X1651262D01*
X1650162Y187169D02*
Y189369D01*
X1865407Y195572D02*
X1867607D01*
X1866507Y194472D02*
Y196672D01*
X1640496Y195277D02*
X1642696D01*
X1641596Y194177D02*
Y196377D01*
X2065092Y289437D02*
X2067292D01*
X2066192Y288337D02*
Y290537D01*
X2052261Y276605D02*
X2054461D01*
X2053361Y275506D02*
Y277705D01*
X1854524Y376949D02*
X1856724D01*
X1855624Y375849D02*
Y378049D01*
X1854736Y281113D02*
X1856936D01*
X1855836Y280013D02*
Y282213D01*
X1860918Y340945D02*
X1863118D01*
X1862018Y339845D02*
Y342044D01*
X1839547Y262489D02*
X1841747D01*
X1840647Y261389D02*
Y263589D01*
X1847520Y249019D02*
X1849720D01*
X1848620Y247919D02*
Y250119D01*
X1641845Y375949D02*
X1644045D01*
X1642945Y374849D02*
Y377049D01*
X1628910Y272292D02*
X1631110D01*
X1630010Y271192D02*
Y273392D01*
X1644664Y280937D02*
X1646864D01*
X1645764Y279837D02*
Y282036D01*
X1636440Y266919D02*
X1638640D01*
X1637540Y265819D02*
Y268019D01*
X1435635Y280688D02*
X1437835D01*
X1436735Y279588D02*
Y281788D01*
X1421440Y279654D02*
X1423640D01*
X1422540Y278554D02*
Y280754D01*
X375900Y377949D02*
X378100D01*
X377000Y376849D02*
Y379049D01*
X586556Y376949D02*
X588756D01*
X587656Y375849D02*
Y378049D01*
X797900Y377949D02*
X800100D01*
X799000Y376849D02*
Y379049D01*
X1220540Y378728D02*
X1222740D01*
X1221640Y377628D02*
Y379828D01*
X1222242Y360021D02*
X1224442D01*
X1223342Y358921D02*
Y361121D01*
X1217845Y284071D02*
X1220045D01*
X1218945Y282971D02*
Y285171D01*
X1206900Y274949D02*
X1209100D01*
X1208000Y273849D02*
Y276049D01*
X798055Y286949D02*
X800255D01*
X799155Y285849D02*
Y288049D01*
X784487Y275362D02*
X786687D01*
X785587Y274262D02*
Y276462D01*
X623900Y313949D02*
X626100D01*
X625000Y312849D02*
Y315049D01*
X616900Y294949D02*
X619100D01*
X618000Y293849D02*
Y296049D01*
X376543Y291262D02*
X378743D01*
X377643Y290161D02*
Y292362D01*
X166370Y290297D02*
X168570D01*
X167470Y289197D02*
Y291397D01*
X377508Y360949D02*
X379708D01*
X378608Y359849D02*
Y362049D01*
X526000Y451949D02*
X530000D01*
X528000Y449949D02*
Y453949D01*
X1996900Y302949D02*
X1999100D01*
X1998000Y301849D02*
Y304049D01*
X1149900Y302650D02*
X1152100D01*
X1151000Y301550D02*
Y303750D01*
X2044900Y390949D02*
X2047100D01*
X2046000Y389849D02*
Y392049D01*
X1938900Y390949D02*
X1941100D01*
X1940000Y389849D02*
Y392049D01*
X1834360Y393949D02*
X1836560D01*
X1835460Y392849D02*
Y395049D01*
X1728900Y392949D02*
X1731100D01*
X1730000Y391849D02*
Y394049D01*
X1621900Y390949D02*
X1624100D01*
X1623000Y389849D02*
Y392049D01*
X1517736Y388949D02*
X1519936D01*
X1518836Y387849D02*
Y390049D01*
X1411900Y391949D02*
X1414100D01*
X1413000Y390849D02*
Y393049D01*
X1199900Y389949D02*
X1202100D01*
X1201000Y388849D02*
Y391049D01*
X1094931Y391479D02*
X1097131D01*
X1096031Y390379D02*
Y392579D01*
X988900Y391949D02*
X991100D01*
X990000Y390849D02*
Y393049D01*
X882900Y391949D02*
X885100D01*
X884000Y390849D02*
Y393049D01*
X778360Y393949D02*
X780560D01*
X779460Y392849D02*
Y395049D01*
X672420Y393949D02*
X674620D01*
X673520Y392849D02*
Y395049D01*
X568900Y394949D02*
X571100D01*
X570000Y393849D02*
Y396049D01*
X355900Y392949D02*
X358100D01*
X357000Y391849D02*
Y394049D01*
X248900Y392949D02*
X251100D01*
X250000Y391849D02*
Y394049D01*
X144776Y394949D02*
X146976D01*
X145877Y393849D02*
Y396049D01*
X49440Y394949D02*
X51640D01*
X50540Y393849D02*
Y396049D01*
X462900Y393949D02*
X465100D01*
X464000Y392849D02*
Y395049D01*
X2095778Y311071D02*
X2097978D01*
X2096878Y309971D02*
Y312171D01*
X1990114Y311071D02*
X1992314D01*
X1991214Y309971D02*
Y312171D01*
X1884704Y311071D02*
X1886904D01*
X1885804Y309971D02*
Y312171D01*
X1779040Y311071D02*
X1781240D01*
X1780140Y309971D02*
Y312171D01*
X1673630Y311071D02*
X1675830D01*
X1674730Y309971D02*
Y312171D01*
X1568220Y311071D02*
X1570420D01*
X1569320Y309971D02*
Y312171D01*
X1462556Y311071D02*
X1464756D01*
X1463656Y309971D02*
Y312171D01*
X1251482Y311071D02*
X1253682D01*
X1252582Y309971D02*
Y312171D01*
X1146072Y311071D02*
X1148272D01*
X1147172Y309971D02*
Y312171D01*
X1040900Y311949D02*
X1043100D01*
X1042000Y310849D02*
Y313049D01*
X934998Y311071D02*
X937198D01*
X936098Y309971D02*
Y312171D01*
X829588Y311071D02*
X831788D01*
X830688Y309971D02*
Y312171D01*
X723924Y311071D02*
X726124D01*
X725024Y309971D02*
Y312171D01*
X512850Y311071D02*
X515050D01*
X513950Y309971D02*
Y312171D01*
X407440Y311071D02*
X409640D01*
X408540Y309971D02*
Y312171D01*
X302030Y311071D02*
X304230D01*
X303130Y309971D02*
Y312171D01*
X196100Y311325D02*
X198300D01*
X197200Y310225D02*
Y312425D01*
X112900Y149949D02*
X115100D01*
X114000Y148849D02*
Y151049D01*
X122900Y129949D02*
X125100D01*
X124000Y128849D02*
Y131049D01*
X1720797Y214430D02*
X1722997D01*
X1721897Y213330D02*
Y215530D01*
X1510799Y214943D02*
X1512999D01*
X1511899Y213843D02*
Y216043D01*
X1297900Y214949D02*
X1300100D01*
X1299000Y213849D02*
Y216049D01*
X1105900Y193949D02*
X1108100D01*
X1107000Y192849D02*
Y195049D01*
X1747900Y185949D02*
X1750100D01*
X1749000Y184849D02*
Y187049D01*
X1319440Y187409D02*
X1321640D01*
X1320540Y186309D02*
Y188509D01*
X1525900Y187949D02*
X1528100D01*
X1527000Y186849D02*
Y189049D01*
X1952900Y184949D02*
X1955100D01*
X1954000Y183849D02*
Y186049D01*
X1225861Y188269D02*
X1228061D01*
X1226961Y187169D02*
Y189369D01*
X1437151Y188269D02*
X1439351D01*
X1438251Y187169D02*
Y189369D01*
X1859730Y188269D02*
X1861930D01*
X1860830Y187169D02*
Y189369D01*
X2071020Y188269D02*
X2073220D01*
X2072120Y187169D02*
Y189369D01*
X262540Y173029D02*
X264740D01*
X263640Y171929D02*
Y174129D01*
X900080Y170489D02*
X902280D01*
X901180Y169389D02*
Y171589D01*
X265080Y160329D02*
X267280D01*
X266180Y159229D02*
Y161429D01*
X686720Y173029D02*
X688920D01*
X687820Y171929D02*
Y174129D01*
X689260Y160329D02*
X691460D01*
X690360Y159229D02*
Y161429D01*
X252480Y202817D02*
X254680D01*
X253580Y201717D02*
Y203917D01*
X459780Y202429D02*
X461980D01*
X460880Y201329D02*
Y203529D01*
X671061Y202277D02*
X673261D01*
X672161Y201177D02*
Y203377D01*
X882587Y202272D02*
X884787D01*
X883687Y201172D02*
Y203372D01*
X802474Y188071D02*
X804674D01*
X803574Y186971D02*
Y189171D01*
X379895Y188071D02*
X382095D01*
X380995Y186971D02*
Y189171D01*
X168560Y188269D02*
X170760D01*
X169660Y187169D02*
Y189369D01*
X61880Y170489D02*
X64080D01*
X62980Y169389D02*
Y171589D01*
X61880Y180649D02*
X64080D01*
X62980Y179549D02*
Y181749D01*
X62454Y189935D02*
X64654D01*
X63554Y188834D02*
Y191035D01*
X155046Y182374D02*
X157246D01*
X156146Y181274D02*
Y183474D01*
X2086183Y604556D02*
X2088383D01*
X2087283Y603456D02*
Y605656D01*
X2068403Y602016D02*
X2070603D01*
X2069503Y600916D02*
Y603116D01*
X2043003Y602016D02*
X2045203D01*
X2044103Y600916D02*
Y603116D01*
X2043633Y561363D02*
X2045833D01*
X2044733Y560263D02*
Y562463D01*
X2070943Y530896D02*
X2073143D01*
X2072043Y529796D02*
Y531996D01*
X2060783Y535976D02*
X2062983D01*
X2061883Y534876D02*
Y537076D01*
X2042103Y523276D02*
X2046103D01*
X2044103Y521276D02*
Y525276D01*
X2029403Y520736D02*
X2033403D01*
X2031403Y518736D02*
Y522736D01*
X2110683Y528356D02*
X2114683D01*
X2112683Y526356D02*
Y530356D01*
X2095183Y526456D02*
X2099183D01*
X2097183Y524456D02*
Y528456D01*
X2057025Y46574D02*
X2059225D01*
X2058125Y45474D02*
Y47674D01*
X2068583Y561456D02*
X2070783D01*
X2069683Y560356D02*
Y562556D01*
X2102971Y570026D02*
X2105171D01*
X2104071Y568926D02*
Y571126D01*
X2089178Y569277D02*
X2091378D01*
X2090278Y568177D02*
Y570377D01*
X2095874Y564429D02*
X2098074D01*
X2096974Y563329D02*
Y565529D01*
X150500Y479449D02*
X154500D01*
X152500Y477449D02*
Y481449D01*
X1134502Y245662D02*
X1136702D01*
X1135602Y244562D02*
Y246762D01*
X1126120Y240074D02*
X1128320D01*
X1127220Y238974D02*
Y241174D01*
X1154464Y239208D02*
X1156664D01*
X1155564Y238108D02*
Y240308D01*
X1072946Y341146D02*
X1075146D01*
X1074046Y340046D02*
Y342246D01*
X1143529Y379404D02*
X1145729D01*
X1144629Y378304D02*
Y380504D01*
X1055176Y336376D02*
X1057376D01*
X1056276Y335276D02*
Y337476D01*
X1129230Y347229D02*
X1131431D01*
X1130331Y346129D02*
Y348330D01*
X1168231Y377229D02*
X1170431D01*
X1169331Y376129D02*
Y378330D01*
X1140950Y360509D02*
X1143150D01*
X1142050Y359409D02*
Y361609D01*
X1147610Y336146D02*
X1149810D01*
X1148710Y335046D02*
Y337246D01*
X1117106Y322941D02*
X1119306D01*
X1118206Y321841D02*
Y324041D01*
X1160840Y336376D02*
X1163040D01*
X1161940Y335276D02*
Y337476D01*
X1170090Y403069D02*
X1172290D01*
X1171190Y401969D02*
Y404169D01*
X1062567Y377229D02*
X1064766D01*
X1063667Y376129D02*
Y378330D01*
X1114876Y370327D02*
X1117076D01*
X1115976Y369227D02*
Y371427D01*
X1064426Y403069D02*
X1066627D01*
X1065527Y401969D02*
Y404169D01*
X720872Y379404D02*
X723073D01*
X721973Y378304D02*
Y380504D01*
X692220Y370327D02*
X694420D01*
X693320Y369227D02*
Y371427D01*
X707083Y347229D02*
X709283D01*
X708183Y346129D02*
Y348330D01*
X725273Y301756D02*
X727473D01*
X726373Y300656D02*
Y302856D01*
X694958Y322941D02*
X697158D01*
X696058Y321841D02*
Y324041D01*
X725462Y336146D02*
X727663D01*
X726562Y335046D02*
Y337246D01*
X738692Y336376D02*
X740892D01*
X739792Y335276D02*
Y337476D01*
X651052Y341146D02*
X653252D01*
X652152Y340046D02*
Y342246D01*
X958763Y403069D02*
X960963D01*
X959863Y401969D02*
Y404169D01*
X926223Y423275D02*
X928423D01*
X927323Y422175D02*
Y424375D01*
X896832Y416504D02*
X899032D01*
X897932Y415404D02*
Y417604D01*
X883603Y416275D02*
X885803D01*
X884703Y415175D02*
Y417375D01*
X949766Y336376D02*
X951966D01*
X950866Y335276D02*
Y337476D01*
X903548Y370327D02*
X905748D01*
X904648Y369227D02*
Y371427D01*
X929808Y360578D02*
X932008D01*
X930908Y359478D02*
Y361678D01*
X905758Y360608D02*
X907958D01*
X906858Y359508D02*
Y361708D01*
X932536Y379404D02*
X934736D01*
X933636Y378304D02*
Y380504D01*
X918157Y347229D02*
X920357D01*
X919257Y346129D02*
Y348330D01*
X936347Y301756D02*
X938547D01*
X937447Y300656D02*
Y302856D01*
X906032Y322941D02*
X908232D01*
X907132Y321841D02*
Y324041D01*
X936536Y336146D02*
X938736D01*
X937636Y335046D02*
Y337246D01*
X1002496Y416504D02*
X1004696D01*
X1003596Y415404D02*
Y417604D01*
X1125931Y421275D02*
X1128131D01*
X1127031Y420175D02*
Y422375D01*
X1108160Y416504D02*
X1110360D01*
X1109260Y415404D02*
Y417604D01*
X1137551Y423275D02*
X1139751D01*
X1138651Y422175D02*
Y424375D01*
X1031887Y423275D02*
X1034087D01*
X1032987Y422175D02*
Y424375D01*
X989267Y416275D02*
X991467D01*
X990367Y415175D02*
Y417375D01*
X1020267Y421275D02*
X1022467D01*
X1021367Y420175D02*
Y422375D01*
X1076551Y427358D02*
X1078751D01*
X1077651Y426258D02*
Y428458D01*
X1094931Y416275D02*
X1097131D01*
X1096031Y415175D02*
Y417375D01*
X876043Y440638D02*
X880043D01*
X878043Y438638D02*
Y442638D01*
X1012573Y353813D02*
X1014773D01*
X1013673Y352713D02*
Y354913D01*
X1009212Y370327D02*
X1011412D01*
X1010312Y369227D02*
Y371427D01*
X1023567Y347229D02*
X1025767D01*
X1024667Y346129D02*
Y348330D01*
X1037865Y379404D02*
X1040064D01*
X1038964Y378304D02*
Y380504D01*
X1041946Y336146D02*
X1044146D01*
X1043046Y335046D02*
Y337246D01*
X1035286Y360509D02*
X1037486D01*
X1036386Y359409D02*
Y361609D01*
X967536Y341146D02*
X969736D01*
X968636Y340046D02*
Y342246D01*
X957157Y377229D02*
X959357D01*
X958257Y376129D02*
Y378330D01*
X826536Y379404D02*
X828736D01*
X827636Y378304D02*
Y380504D01*
X801245Y354434D02*
X803445D01*
X802345Y353334D02*
Y355534D01*
X812747Y347229D02*
X814947D01*
X813847Y346129D02*
Y348330D01*
X862126Y341146D02*
X864326D01*
X863226Y340046D02*
Y342246D01*
X831126Y336146D02*
X833326D01*
X832226Y335046D02*
Y337246D01*
X851747Y377229D02*
X853947D01*
X852847Y376129D02*
Y378330D01*
X824466Y360509D02*
X826666D01*
X825566Y359409D02*
Y361609D01*
X800622Y322941D02*
X802822D01*
X801722Y321841D02*
Y324041D01*
X844356Y336376D02*
X846556D01*
X845456Y335276D02*
Y337476D01*
X903323Y457358D02*
X907323D01*
X905323Y455358D02*
Y459358D01*
X710653Y189737D02*
X712853D01*
X711753Y188637D02*
Y190837D01*
X730636Y252288D02*
X732836D01*
X731736Y251188D02*
Y253388D01*
X781265Y240328D02*
X783465D01*
X782365Y239228D02*
Y241428D01*
X718377Y252288D02*
X720577D01*
X719477Y251188D02*
Y253388D01*
X774661Y246932D02*
X776861D01*
X775761Y245832D02*
Y248032D01*
X757897Y248710D02*
X760097D01*
X758997Y247610D02*
Y249810D01*
X711923Y245662D02*
X714123D01*
X713023Y244562D02*
Y246762D01*
X718805Y239058D02*
X721005D01*
X719905Y237958D02*
Y240158D01*
X794623Y240478D02*
X796823D01*
X795723Y239378D02*
Y241578D01*
X767803Y240074D02*
X770003D01*
X768903Y238974D02*
Y241174D01*
X731885Y239208D02*
X734085D01*
X732985Y238108D02*
Y240308D01*
X703541Y240074D02*
X705741D01*
X704641Y238974D02*
Y241174D01*
X795337Y195277D02*
X797537D01*
X796437Y194177D02*
Y196377D01*
X1133232Y189737D02*
X1135432D01*
X1134332Y188637D02*
Y190837D01*
X1140957Y252288D02*
X1143157D01*
X1142057Y251188D02*
Y253388D01*
X1167555Y290199D02*
X1169755D01*
X1168655Y289099D02*
Y291299D01*
X1162077Y257913D02*
X1164277D01*
X1163177Y256814D02*
Y259014D01*
X1153215Y252288D02*
X1155415D01*
X1154315Y251188D02*
Y253388D01*
X1141384Y239058D02*
X1143584D01*
X1142484Y237958D02*
Y240158D01*
X474176Y416504D02*
X476376D01*
X475276Y415404D02*
Y417604D01*
X491947Y421275D02*
X494147D01*
X493047Y420175D02*
Y422375D01*
X609231Y423275D02*
X611431D01*
X610331Y422175D02*
Y424375D01*
X579840Y416504D02*
X582040D01*
X580940Y415404D02*
Y417604D01*
X597611Y421275D02*
X599811D01*
X598711Y420175D02*
Y422375D01*
X548231Y427358D02*
X550431D01*
X549331Y426258D02*
Y428458D01*
X586331Y457358D02*
X590331D01*
X588331Y455358D02*
Y459358D01*
X536106Y403069D02*
X538307D01*
X537206Y401969D02*
Y404169D01*
X566611Y416275D02*
X568811D01*
X567711Y415175D02*
Y417375D01*
X641770Y403069D02*
X643970D01*
X642870Y401969D02*
Y404169D01*
X535009Y377229D02*
X537209D01*
X536109Y376129D02*
Y378330D01*
X620052Y336146D02*
X622253D01*
X621152Y335046D02*
Y337246D01*
X589548Y322941D02*
X591748D01*
X590648Y321841D02*
Y324041D01*
X527618Y336376D02*
X529818D01*
X528718Y335276D02*
Y337476D01*
X545388Y341146D02*
X547589D01*
X546488Y340046D02*
Y342246D01*
X589056Y360354D02*
X591256D01*
X590156Y359254D02*
Y361454D01*
X555938Y340542D02*
X558139D01*
X557038Y339442D02*
Y341642D01*
X639997Y290199D02*
X642197D01*
X641097Y289099D02*
Y291299D01*
X601673Y347229D02*
X603872D01*
X602772Y346129D02*
Y348330D01*
X613392Y360509D02*
X615592D01*
X614492Y359409D02*
Y361609D01*
X615209Y379404D02*
X617408D01*
X616309Y378304D02*
Y380504D01*
X640673Y377229D02*
X642872D01*
X641773Y376129D02*
Y378330D01*
X633282Y336376D02*
X635482D01*
X634382Y335276D02*
Y337476D01*
X496008Y347229D02*
X498209D01*
X497108Y346129D02*
Y348330D01*
X514198Y301756D02*
X516399D01*
X515299Y300656D02*
Y302856D01*
X503567Y423275D02*
X505767D01*
X504667Y422175D02*
Y424375D01*
X483884Y322941D02*
X486084D01*
X484984Y321841D02*
Y324041D01*
X514389Y336146D02*
X516589D01*
X515489Y335046D02*
Y337246D01*
X507729Y360509D02*
X509929D01*
X508829Y359409D02*
Y361609D01*
X510388Y379404D02*
X512589D01*
X511488Y378304D02*
Y380504D01*
X480892Y370327D02*
X483092D01*
X481992Y369227D02*
Y371427D01*
X534333Y290199D02*
X536534D01*
X535434Y289099D02*
Y291299D01*
X1959963Y457358D02*
X1963963D01*
X1961963Y455358D02*
Y459358D01*
X1940101Y472622D02*
X1944100D01*
X1942101Y470622D02*
Y474622D01*
X1854299Y457358D02*
X1858299D01*
X1856299Y455358D02*
Y459358D01*
X1635047Y473892D02*
X1639046D01*
X1637047Y471892D02*
Y475892D01*
X1777287Y473130D02*
X1781286D01*
X1779286Y471130D02*
Y475130D01*
X1687117Y472876D02*
X1691116D01*
X1689117Y470876D02*
Y474876D01*
X1469577Y257484D02*
X1471776D01*
X1470677Y256384D02*
Y258584D01*
X2088527Y423275D02*
X2090727D01*
X2089627Y422175D02*
Y424375D01*
X2076907Y421275D02*
X2079107D01*
X2078007Y420175D02*
Y422375D01*
X2065627Y457358D02*
X2069627D01*
X2067627Y455358D02*
Y459358D01*
X2045907Y416275D02*
X2048107D01*
X2047007Y415175D02*
Y417375D01*
X2059136Y416504D02*
X2061336D01*
X2060236Y415404D02*
Y417604D01*
X2094025Y472114D02*
X2098024D01*
X2096024Y470114D02*
Y474114D01*
X2066812Y322941D02*
X2069012D01*
X2067912Y321841D02*
Y324041D01*
X2093235Y377711D02*
X2095435D01*
X2094335Y376611D02*
Y378811D01*
X2097316Y336146D02*
X2099516D01*
X2098416Y335046D02*
Y337246D01*
X2078936Y347229D02*
X2081136D01*
X2080036Y346129D02*
Y348330D01*
X2090656Y360509D02*
X2092856D01*
X2091756Y359409D02*
Y361609D01*
X2110546Y336376D02*
X2112746D01*
X2111646Y335276D02*
Y337476D01*
X2049003Y240328D02*
X2051203D01*
X2050103Y239228D02*
Y241428D01*
X2077124Y180818D02*
X2079323D01*
X2078224Y179718D02*
Y181918D01*
X2057256Y253092D02*
X2059456D01*
X2058356Y251992D02*
Y254192D01*
X2060179Y267252D02*
X2062379D01*
X2061279Y266152D02*
Y268352D01*
X2103306Y261548D02*
X2105506D01*
X2104406Y260448D02*
Y262648D01*
X2076386Y250054D02*
X2078586D01*
X2077486Y248954D02*
Y251154D01*
X2117262Y290199D02*
X2119462D01*
X2118362Y289099D02*
Y291299D01*
X2062361Y240478D02*
X2064561D01*
X2063461Y239378D02*
Y241578D01*
X787107Y179876D02*
X789307D01*
X788207Y178776D02*
Y180976D01*
X809385Y180818D02*
X811585D01*
X810485Y179718D02*
Y181918D01*
X970887Y427358D02*
X973087D01*
X971987Y426258D02*
Y428458D01*
X914603Y421275D02*
X916803D01*
X915703Y420175D02*
Y422375D01*
X19840Y427697D02*
X22040D01*
X20940Y426597D02*
Y428797D01*
X80840Y423614D02*
X83040D01*
X81940Y422514D02*
Y424714D01*
X69220Y421614D02*
X71420D01*
X70320Y420514D02*
Y422714D01*
X38220Y416614D02*
X40420D01*
X39320Y415514D02*
Y417714D01*
X51449Y416843D02*
X53649D01*
X52549Y415743D02*
Y417943D01*
X210868Y336630D02*
X213068D01*
X211968Y335530D02*
Y337730D01*
X197638Y336400D02*
X199839D01*
X198738Y335300D02*
Y337500D01*
X179258Y347483D02*
X181458D01*
X180359Y346384D02*
Y348583D01*
X228638Y341400D02*
X230839D01*
X229739Y340300D02*
Y342500D01*
X240079Y455604D02*
X244079D01*
X242078Y453604D02*
Y457604D01*
X300023Y471606D02*
X304023D01*
X302022Y469606D02*
Y473606D01*
X209345Y472114D02*
X213344D01*
X211345Y470114D02*
Y474114D01*
X197407Y471860D02*
X201406D01*
X199407Y469860D02*
Y473860D01*
X97970Y239405D02*
X100170D01*
X99070Y238305D02*
Y240505D01*
X84890Y239256D02*
X87090D01*
X85990Y238155D02*
Y240355D01*
X96721Y252485D02*
X98921D01*
X97822Y251385D02*
Y253585D01*
X69626Y240271D02*
X71826D01*
X70726Y239172D02*
Y241371D01*
X76738Y189935D02*
X78938D01*
X77838Y188834D02*
Y191035D01*
X105583Y258111D02*
X107783D01*
X106683Y257011D02*
Y259211D01*
X84463Y252485D02*
X86663D01*
X85563Y251385D02*
Y253585D01*
X78008Y245860D02*
X80208D01*
X79108Y244760D02*
Y246959D01*
X113196Y403323D02*
X115396D01*
X114297Y402223D02*
Y404423D01*
X263817Y417034D02*
X266017D01*
X264917Y415934D02*
Y418134D01*
X280292Y421334D02*
X282492D01*
X281392Y420234D02*
Y422434D01*
X143701Y416529D02*
X145901D01*
X144801Y415429D02*
Y417629D01*
X156930Y416758D02*
X159130D01*
X158030Y415658D02*
Y417858D01*
X218509Y404803D02*
X220709D01*
X219609Y403703D02*
Y405903D01*
X125321Y427612D02*
X127521D01*
X126421Y426512D02*
Y428712D01*
X174701Y421529D02*
X176901D01*
X175801Y420429D02*
Y422629D01*
X186321Y423529D02*
X188521D01*
X187421Y422429D02*
Y424629D01*
X230912Y427417D02*
X233112D01*
X232012Y426317D02*
Y428517D01*
X291912Y423334D02*
X294112D01*
X293012Y422234D02*
Y424434D01*
X248444Y416225D02*
X250644D01*
X249545Y415125D02*
Y417325D01*
X323513Y290199D02*
X325714D01*
X324613Y289099D02*
Y291299D01*
X324188Y377229D02*
X326389D01*
X325289Y376129D02*
Y378330D01*
X335317Y248710D02*
X337517D01*
X336417Y247610D02*
Y249810D01*
X324779Y403069D02*
X326978D01*
X325878Y401969D02*
Y404169D01*
X316798Y336376D02*
X318998D01*
X317898Y335276D02*
Y337476D01*
X316918Y257913D02*
X319118D01*
X318018Y256814D02*
Y259014D01*
X336903Y427358D02*
X339103D01*
X338003Y426258D02*
Y428458D01*
X345223Y240074D02*
X347423D01*
X346323Y238974D02*
Y241174D01*
X352589Y267252D02*
X354789D01*
X353689Y266152D02*
Y268352D01*
X378474Y322941D02*
X380674D01*
X379574Y321841D02*
Y324041D01*
X355283Y416275D02*
X357483D01*
X356383Y415175D02*
Y417375D01*
X386283Y421275D02*
X388483D01*
X387383Y420175D02*
Y422375D01*
X358685Y240328D02*
X360885D01*
X359785Y239228D02*
Y241428D01*
X367829Y280332D02*
X370029D01*
X368929Y279232D02*
Y281432D01*
X386068Y250054D02*
X388268D01*
X387168Y248954D02*
Y251154D01*
X352081Y246932D02*
X354281D01*
X353181Y245832D02*
Y248032D01*
X369861Y267252D02*
X372061D01*
X370961Y266152D02*
Y268352D01*
X372043Y240478D02*
X374243D01*
X373143Y239378D02*
Y241578D01*
X368512Y416504D02*
X370712D01*
X369612Y415404D02*
Y417604D01*
X366939Y253092D02*
X369138D01*
X368038Y251992D02*
Y254192D01*
X397903Y423275D02*
X400103D01*
X399003Y422175D02*
Y424375D01*
X386805Y180818D02*
X389006D01*
X387906Y179718D02*
Y181918D01*
X402318Y360509D02*
X404519D01*
X403419Y359409D02*
Y361609D01*
X372757Y195277D02*
X374957D01*
X373857Y194177D02*
Y196377D01*
X408979Y336146D02*
X411179D01*
X410079Y335046D02*
Y337246D01*
X415581Y260648D02*
X417781D01*
X416681Y259548D02*
Y261748D01*
X422208Y336376D02*
X424408D01*
X423308Y335276D02*
Y337476D01*
X404897Y377584D02*
X407096D01*
X405997Y376484D02*
Y378685D01*
X364527Y179876D02*
X366727D01*
X365627Y178776D02*
Y180976D01*
X390598Y347229D02*
X392799D01*
X391698Y346129D02*
Y348330D01*
X147350Y240525D02*
X149550D01*
X148450Y239426D02*
Y241625D01*
X175471Y181016D02*
X177671D01*
X176571Y179916D02*
Y182116D01*
X155604Y253290D02*
X157804D01*
X156704Y252190D02*
Y254389D01*
X160708Y240675D02*
X162908D01*
X161808Y239575D02*
Y241775D01*
X174733Y250251D02*
X176933D01*
X175833Y249151D02*
Y251351D01*
X204246Y260846D02*
X206446D01*
X205346Y259746D02*
Y261945D01*
X161422Y195474D02*
X163622D01*
X162522Y194375D02*
Y196574D01*
X285189Y347229D02*
X287388D01*
X286289Y346129D02*
Y348330D01*
X167134Y323195D02*
X169334D01*
X168234Y322095D02*
Y324295D01*
X303379Y301756D02*
X305578D01*
X304478Y300656D02*
Y302856D01*
X273064Y322941D02*
X275264D01*
X274164Y321841D02*
Y324041D01*
X303568Y336146D02*
X305769D01*
X304669Y335046D02*
Y337246D01*
X217584Y290453D02*
X219783D01*
X218683Y289353D02*
Y291553D01*
X167309Y355481D02*
X169508D01*
X168409Y354381D02*
Y356581D01*
X190979Y360764D02*
X193179D01*
X192079Y359664D02*
Y361864D01*
X299569Y381557D02*
X301768D01*
X300669Y380457D02*
Y382657D01*
X296908Y360509D02*
X299109D01*
X298008Y359409D02*
Y361609D01*
X163646Y370581D02*
X165846D01*
X164746Y369481D02*
Y371681D01*
X193227Y378388D02*
X195427D01*
X194326Y377288D02*
Y379488D01*
X268832Y374324D02*
X271032D01*
X269932Y373224D02*
Y375424D01*
X218509Y377483D02*
X220709D01*
X219609Y376383D02*
Y378583D01*
X280961Y240074D02*
X283161D01*
X282061Y238974D02*
Y241174D01*
X308056Y252288D02*
X310256D01*
X309156Y251188D02*
Y253388D01*
X289343Y245662D02*
X291543D01*
X290443Y244562D02*
Y246762D01*
X296225Y239058D02*
X298425D01*
X297325Y237958D02*
Y240158D01*
X309305Y239208D02*
X311505D01*
X310405Y238108D02*
Y240308D01*
X288073Y189737D02*
X290273D01*
X289173Y188637D02*
Y190837D01*
X298965Y253994D02*
X301165D01*
X300065Y252894D02*
Y255094D01*
X140746Y247129D02*
X142946D01*
X141846Y246029D02*
Y248230D01*
X156494Y280529D02*
X158694D01*
X157594Y279429D02*
Y281630D01*
X133888Y240271D02*
X136088D01*
X134988Y239172D02*
Y241371D01*
X123982Y248908D02*
X126182D01*
X125082Y247808D02*
Y250007D01*
X141254Y267449D02*
X143454D01*
X142354Y266350D02*
Y268549D01*
X158526Y267449D02*
X160726D01*
X159626Y266350D02*
Y268549D01*
X1986116Y252288D02*
X1988316D01*
X1987216Y251188D02*
Y253388D01*
X1998374Y252288D02*
X2000574D01*
X1999474Y251188D02*
Y253388D01*
X1986543Y239058D02*
X1988743D01*
X1987643Y237958D02*
Y240158D01*
X1999623Y239208D02*
X2001823D01*
X2000723Y238108D02*
Y240308D01*
X1978391Y189737D02*
X1980591D01*
X1979491Y188637D02*
Y190837D01*
X1979661Y245662D02*
X1981861D01*
X1980761Y244562D02*
Y246762D01*
X2042399Y246932D02*
X2044599D01*
X2043499Y245832D02*
Y248032D01*
X2035541Y240074D02*
X2037741D01*
X2036641Y238974D02*
Y241174D01*
X2007236Y257913D02*
X2009436D01*
X2008336Y256814D02*
Y259014D01*
X2025635Y248710D02*
X2027835D01*
X2026735Y247610D02*
Y249810D01*
X2042907Y267252D02*
X2045107D01*
X2044007Y266152D02*
Y268352D01*
X1971279Y240074D02*
X1973479D01*
X1972379Y238974D02*
Y241174D01*
X1982863Y423275D02*
X1985063D01*
X1983963Y422175D02*
Y424375D01*
X1906862Y377229D02*
X1909062D01*
X1907962Y376129D02*
Y378330D01*
X1921863Y427358D02*
X1924063D01*
X1922963Y426258D02*
Y428458D01*
X1987652Y377621D02*
X1989852D01*
X1988752Y376521D02*
Y378721D01*
X1971243Y421275D02*
X1973443D01*
X1972343Y420175D02*
Y422375D01*
X1960188Y370327D02*
X1962388D01*
X1961288Y369227D02*
Y371427D01*
X1940243Y416275D02*
X1942443D01*
X1941343Y415175D02*
Y417375D01*
X1953472Y416504D02*
X1955672D01*
X1954572Y415404D02*
Y417604D01*
X2015403Y403069D02*
X2017603D01*
X2016503Y401969D02*
Y404169D01*
X1909738Y403069D02*
X1911938D01*
X1910838Y401969D02*
Y404169D01*
X2027527Y427358D02*
X2029727D01*
X2028627Y426258D02*
Y428458D01*
X1984993Y360509D02*
X1987193D01*
X1986093Y359409D02*
Y361609D01*
X2012272Y377229D02*
X2014473D01*
X2013372Y376129D02*
Y378330D01*
X1548587Y421275D02*
X1550787D01*
X1549687Y420175D02*
Y422375D01*
X1537532Y370327D02*
X1539732D01*
X1538632Y369227D02*
Y371427D01*
X1565759Y379404D02*
X1567959D01*
X1566859Y378304D02*
Y380504D01*
X1560207Y423275D02*
X1562407D01*
X1561307Y422175D02*
Y424375D01*
X1590379Y377229D02*
X1592578D01*
X1591478Y376129D02*
Y378330D01*
X1563098Y360509D02*
X1565298D01*
X1564198Y359409D02*
Y361609D01*
X1539254Y322941D02*
X1541454D01*
X1540354Y321841D02*
Y324041D01*
X1569758Y336146D02*
X1571958D01*
X1570858Y335046D02*
Y337246D01*
X1582988Y336376D02*
X1585188D01*
X1584088Y335276D02*
Y337476D01*
X1592746Y403069D02*
X1594946D01*
X1593846Y401969D02*
Y404169D01*
X1551378Y347229D02*
X1553578D01*
X1552478Y346129D02*
Y348330D01*
X1759915Y421275D02*
X1762115D01*
X1761015Y420175D02*
Y422375D01*
X1710535Y427358D02*
X1712735D01*
X1711635Y426258D02*
Y428458D01*
X1742144Y416504D02*
X1744344D01*
X1743244Y415404D02*
Y417604D01*
X1771535Y423275D02*
X1773735D01*
X1772635Y422175D02*
Y424375D01*
X1728915Y416275D02*
X1731115D01*
X1730015Y415175D02*
Y417375D01*
X1698410Y403069D02*
X1700611D01*
X1699510Y401969D02*
Y404169D01*
X1831617Y267252D02*
X1833817D01*
X1832717Y266152D02*
Y268352D01*
X1759989Y240074D02*
X1762189D01*
X1761089Y238974D02*
Y241174D01*
X1814345Y248710D02*
X1816545D01*
X1815445Y247610D02*
Y249810D01*
X1837713Y240328D02*
X1839913D01*
X1838813Y239228D02*
Y241428D01*
X1831109Y246932D02*
X1833309D01*
X1832209Y245832D02*
Y248032D01*
X1795946Y257913D02*
X1798146D01*
X1797046Y256814D02*
Y259014D01*
X1768371Y245662D02*
X1770571D01*
X1769471Y244562D02*
Y246762D01*
X1788333Y239208D02*
X1790533D01*
X1789433Y238108D02*
Y240308D01*
X1775253Y239058D02*
X1777453D01*
X1776353Y237958D02*
Y240158D01*
X1774826Y252288D02*
X1777026D01*
X1775926Y251188D02*
Y253388D01*
X1787085Y252288D02*
X1789285D01*
X1788185Y251188D02*
Y253388D01*
X1892740Y260786D02*
X1894940D01*
X1893840Y259686D02*
Y261886D01*
X1681667Y258754D02*
X1683866D01*
X1682767Y257654D02*
Y259854D01*
X1654544Y180818D02*
X1656744D01*
X1655644Y179718D02*
Y181918D01*
X1632266Y179876D02*
X1634466D01*
X1633366Y178776D02*
Y180976D01*
X1620328Y267252D02*
X1622528D01*
X1621428Y266152D02*
Y268352D01*
X1653807Y250054D02*
X1656007D01*
X1654907Y248954D02*
Y251154D01*
X1619820Y246932D02*
X1622020D01*
X1620920Y245832D02*
Y248032D01*
X1639782Y240478D02*
X1641982D01*
X1640882Y239378D02*
Y241578D01*
X1626424Y240328D02*
X1628624D01*
X1627524Y239228D02*
Y241428D01*
X1847808Y416504D02*
X1850008D01*
X1848908Y415404D02*
Y417604D01*
X1877199Y423275D02*
X1879399D01*
X1878299Y422175D02*
Y424375D01*
X1865579Y421275D02*
X1867779D01*
X1866679Y420175D02*
Y422375D01*
X1834579Y416275D02*
X1836779D01*
X1835679Y415175D02*
Y417375D01*
X1804075Y403069D02*
X1806275D01*
X1805175Y401969D02*
Y404169D01*
X1816199Y427358D02*
X1818399D01*
X1817299Y426258D02*
Y428458D01*
X1899472Y336376D02*
X1901672D01*
X1900572Y335276D02*
Y337476D01*
X1961148Y322941D02*
X1963348D01*
X1962248Y321841D02*
Y324041D01*
X1991653Y336146D02*
X1993853D01*
X1992753Y335046D02*
Y337246D01*
X2011597Y290199D02*
X2013797D01*
X2012697Y289099D02*
Y291299D01*
X1973273Y347229D02*
X1975473D01*
X1974373Y346129D02*
Y348330D01*
X2004882Y336376D02*
X2007082D01*
X2005982Y335276D02*
Y337476D01*
X1906187Y290199D02*
X1908387D01*
X1907287Y289099D02*
Y291299D01*
X1917242Y341146D02*
X1919442D01*
X1918342Y340046D02*
Y342246D01*
X2022652Y341146D02*
X2024852D01*
X2023752Y340046D02*
Y342246D01*
X1603056Y248710D02*
X1605256D01*
X1604156Y247610D02*
Y249810D01*
X1577044Y239208D02*
X1579244D01*
X1578144Y238108D02*
Y240308D01*
X1575795Y252288D02*
X1577995D01*
X1576895Y251188D02*
Y253388D01*
X1563536Y252288D02*
X1565736D01*
X1564636Y251188D02*
Y253388D01*
X1563964Y239058D02*
X1566164D01*
X1565064Y237958D02*
Y240158D01*
X1557082Y245662D02*
X1559282D01*
X1558182Y244562D02*
Y246762D01*
X1589704Y290199D02*
X1591904D01*
X1590804Y289099D02*
Y291299D01*
X1865834Y180818D02*
X1868034D01*
X1866934Y179718D02*
Y181918D01*
X1843555Y179876D02*
X1845755D01*
X1844655Y178776D02*
Y180976D01*
X1888900Y154949D02*
X1891100D01*
X1890000Y153849D02*
Y156049D01*
X1767101Y189737D02*
X1769301D01*
X1768201Y188637D02*
Y190837D01*
X1604871Y427358D02*
X1607071D01*
X1605971Y426258D02*
Y428458D01*
X1675314Y333746D02*
X1677514D01*
X1676414Y332646D02*
Y334846D01*
X1644390Y361155D02*
X1646590D01*
X1645490Y360055D02*
Y362255D01*
X1665871Y423275D02*
X1668071D01*
X1666971Y422175D02*
Y424375D01*
X1623251Y416275D02*
X1625451D01*
X1624351Y415175D02*
Y417375D01*
X1654251Y421275D02*
X1656451D01*
X1655351Y420175D02*
Y422375D01*
X1636480Y416504D02*
X1638680D01*
X1637580Y415404D02*
Y417604D01*
X1671169Y379004D02*
X1673369D01*
X1672269Y377904D02*
Y380104D01*
X1656788Y347229D02*
X1658988D01*
X1657888Y346129D02*
Y348330D01*
X1668508Y360509D02*
X1670708D01*
X1669608Y359409D02*
Y361609D01*
X1644664Y322941D02*
X1646864D01*
X1645764Y321841D02*
Y324041D01*
X1600759Y341146D02*
X1602959D01*
X1601859Y340046D02*
Y342246D01*
X1855464Y361125D02*
X1857664D01*
X1856564Y360025D02*
Y362225D01*
X1867863Y347229D02*
X1870063D01*
X1868963Y346129D02*
Y348330D01*
X1881906Y377711D02*
X1884106D01*
X1883006Y376611D02*
Y378811D01*
X1879583Y360509D02*
X1881783D01*
X1880683Y359409D02*
Y361609D01*
X1886243Y336146D02*
X1888443D01*
X1887343Y335046D02*
Y337246D01*
X1800524Y290199D02*
X1802724D01*
X1801624Y289099D02*
Y291299D01*
X1811579Y341146D02*
X1813779D01*
X1812679Y340046D02*
Y342246D01*
X1801198Y377229D02*
X1803398D01*
X1802298Y376129D02*
Y378330D01*
X1780388Y301756D02*
X1782589D01*
X1781488Y300656D02*
Y302856D01*
X1780578Y336146D02*
X1782778D01*
X1781678Y335046D02*
Y337246D01*
X1793808Y336376D02*
X1796008D01*
X1794908Y335276D02*
Y337476D01*
X1857595Y324426D02*
X1859795D01*
X1858695Y323326D02*
Y325526D01*
X1695114Y290199D02*
X1697314D01*
X1696214Y289099D02*
Y291299D01*
X1750074Y322941D02*
X1752274D01*
X1751174Y321841D02*
Y324041D01*
X1762198Y347229D02*
X1764398D01*
X1763298Y346129D02*
Y348330D01*
X1773918Y360509D02*
X1776118D01*
X1775018Y359409D02*
Y361609D01*
X1695789Y377229D02*
X1697988D01*
X1696888Y376129D02*
Y378330D01*
X1776496Y378337D02*
X1778696D01*
X1777596Y377237D02*
Y379437D01*
X1706169Y341146D02*
X1708369D01*
X1707269Y340046D02*
Y342246D01*
X1748860Y370327D02*
X1751060D01*
X1749960Y369227D02*
Y371427D01*
X1688398Y336376D02*
X1690598D01*
X1689498Y335276D02*
Y337476D01*
X1197240Y246932D02*
X1199440D01*
X1198340Y245832D02*
Y248032D01*
X1190382Y240074D02*
X1192582D01*
X1191482Y238974D02*
Y241174D01*
X1203844Y240328D02*
X1206044D01*
X1204944Y239228D02*
Y241428D01*
X1272965Y290199D02*
X1275165D01*
X1274065Y289099D02*
Y291299D01*
X1180476Y248710D02*
X1182676D01*
X1181576Y247610D02*
Y249810D01*
X1215020Y267252D02*
X1217220D01*
X1216120Y266152D02*
Y268352D01*
X1197748Y267252D02*
X1199948D01*
X1198848Y266152D02*
Y268352D01*
X1259265Y258500D02*
X1261464D01*
X1260365Y257400D02*
Y259600D01*
X1212097Y253092D02*
X1214297D01*
X1213197Y251992D02*
Y254192D01*
X1217202Y240478D02*
X1219402D01*
X1218302Y239378D02*
Y241578D01*
X1231227Y250054D02*
X1233427D01*
X1232327Y248954D02*
Y251154D01*
X1373367Y257913D02*
X1375567D01*
X1374467Y256814D02*
Y259014D01*
X1391766Y248710D02*
X1393966D01*
X1392866Y247610D02*
Y249810D01*
X1345792Y245662D02*
X1347992D01*
X1346892Y244562D02*
Y246762D01*
X1352674Y239058D02*
X1354874D01*
X1353774Y237958D02*
Y240158D01*
X1352246Y252288D02*
X1354446D01*
X1353346Y251188D02*
Y253388D01*
X1364505Y252288D02*
X1366705D01*
X1365605Y251188D02*
Y253388D01*
X1365754Y239208D02*
X1367954D01*
X1366854Y238108D02*
Y240308D01*
X1401672Y240074D02*
X1403872D01*
X1402772Y238974D02*
Y241174D01*
X1337410Y240074D02*
X1339610D01*
X1338510Y238974D02*
Y241174D01*
X1213824Y416504D02*
X1216024D01*
X1214924Y415404D02*
Y417604D01*
X1287879Y427358D02*
X1290079D01*
X1288979Y426258D02*
Y428458D01*
X1298699Y440638D02*
X1302699D01*
X1300699Y438638D02*
Y442638D01*
X1200595Y416275D02*
X1202795D01*
X1201695Y415175D02*
Y417375D01*
X1182215Y427358D02*
X1184415D01*
X1183315Y426258D02*
Y428458D01*
X1231595Y421275D02*
X1233795D01*
X1232695Y420175D02*
Y422375D01*
X1275754Y403069D02*
X1277954D01*
X1276854Y401969D02*
Y404169D01*
X1243215Y423275D02*
X1245415D01*
X1244315Y422175D02*
Y424375D01*
X1354684Y377621D02*
X1356884D01*
X1355784Y376521D02*
Y378721D01*
X1340305Y347229D02*
X1342504D01*
X1341405Y346129D02*
Y348330D01*
X1328180Y322941D02*
X1330380D01*
X1329280Y321841D02*
Y324041D01*
X1352025Y360509D02*
X1354225D01*
X1353125Y359409D02*
Y361609D01*
X1326204Y370327D02*
X1328404D01*
X1327304Y369227D02*
Y371427D01*
X1344522Y189737D02*
X1346722D01*
X1345622Y188637D02*
Y190837D01*
X1420976Y179876D02*
X1423176D01*
X1422076Y178776D02*
Y180976D01*
X1443254Y180818D02*
X1445454D01*
X1444354Y179718D02*
Y181918D01*
X1429206Y195277D02*
X1431406D01*
X1430306Y194177D02*
Y196377D01*
X1464900Y149949D02*
X1467100D01*
X1466000Y148849D02*
Y151049D01*
X1555812Y189737D02*
X1558012D01*
X1556912Y188637D02*
Y190837D01*
X1217916Y195277D02*
X1220116D01*
X1219016Y194177D02*
Y196377D01*
X1231964Y180818D02*
X1234165D01*
X1233064Y179718D02*
Y181918D01*
X1209686Y179876D02*
X1211886D01*
X1210786Y178776D02*
Y180976D01*
X1378629Y290199D02*
X1380829D01*
X1379729Y289099D02*
Y291299D01*
X1484039Y290199D02*
X1486239D01*
X1485139Y289099D02*
Y291299D01*
X1586352Y306490D02*
X1588552D01*
X1587452Y305390D02*
Y307591D01*
X1569568Y301756D02*
X1571768D01*
X1570668Y300656D02*
Y302856D01*
X1381418Y403069D02*
X1383618D01*
X1382518Y401969D02*
Y404169D01*
X1477324Y336376D02*
X1479524D01*
X1478424Y335276D02*
Y337476D01*
X1457435Y360509D02*
X1459635D01*
X1458535Y359409D02*
Y361609D01*
X1379305Y377229D02*
X1381505D01*
X1380405Y376129D02*
Y378330D01*
X1464095Y336146D02*
X1466295D01*
X1465195Y335046D02*
Y337246D01*
X1459758Y378134D02*
X1461958D01*
X1460858Y377034D02*
Y379234D01*
X1445715Y347229D02*
X1447914D01*
X1446815Y346129D02*
Y348330D01*
X1433590Y322941D02*
X1435790D01*
X1434690Y321841D02*
Y324041D01*
X1433316Y361191D02*
X1435516D01*
X1434416Y360091D02*
Y362291D01*
X1249020Y377621D02*
X1251220D01*
X1250120Y376521D02*
Y378721D01*
X1234641Y347229D02*
X1236841D01*
X1235741Y346129D02*
Y348330D01*
X1273641Y377229D02*
X1275841D01*
X1274741Y376129D02*
Y378330D01*
X1246360Y360509D02*
X1248560D01*
X1247460Y359409D02*
Y361609D01*
X1222516Y322941D02*
X1224716D01*
X1223616Y321841D02*
Y324041D01*
X1253020Y336146D02*
X1255220D01*
X1254120Y335046D02*
Y337246D01*
X1266250Y336376D02*
X1268450D01*
X1267350Y335276D02*
Y337476D01*
X1487083Y403069D02*
X1489283D01*
X1488183Y401969D02*
Y404169D01*
X1503718Y341092D02*
X1505918D01*
X1504818Y339992D02*
Y342192D01*
X1499207Y427358D02*
X1501407D01*
X1500307Y426258D02*
Y428458D01*
X1517587Y416275D02*
X1519787D01*
X1518687Y415175D02*
Y417375D01*
X1484715Y377229D02*
X1486915D01*
X1485815Y376129D02*
Y378330D01*
X1494469Y341050D02*
X1496669D01*
X1495569Y339950D02*
Y342150D01*
X1530816Y416504D02*
X1533016D01*
X1531916Y415404D02*
Y417604D01*
X1415134Y240328D02*
X1417334D01*
X1416234Y239228D02*
Y241428D01*
X1428492Y240478D02*
X1430692D01*
X1429592Y239378D02*
Y241578D01*
X1409038Y267252D02*
X1411238D01*
X1410138Y266152D02*
Y268352D01*
X1442517Y250054D02*
X1444717D01*
X1443617Y248954D02*
Y251154D01*
X1423387Y253092D02*
X1425587D01*
X1424487Y251992D02*
Y254192D01*
X1408530Y246932D02*
X1410730D01*
X1409630Y245832D02*
Y248032D01*
X1426310Y267252D02*
X1428510D01*
X1427410Y266152D02*
Y268352D01*
X1548700Y240074D02*
X1550900D01*
X1549800Y238974D02*
Y241174D01*
X1454543Y423275D02*
X1456743D01*
X1455643Y422175D02*
Y424375D01*
X1319488Y416504D02*
X1321688D01*
X1320588Y415404D02*
Y417604D01*
X1306259Y416275D02*
X1308459D01*
X1307359Y415175D02*
Y417375D01*
X1425152Y416504D02*
X1427352D01*
X1426252Y415404D02*
Y417604D01*
X1411923Y416275D02*
X1414123D01*
X1413023Y415175D02*
Y417375D01*
X1337259Y421275D02*
X1339459D01*
X1338359Y420175D02*
Y422375D01*
X1442923Y421275D02*
X1445123D01*
X1444023Y420175D02*
Y422375D01*
X1348879Y423275D02*
X1351079D01*
X1349979Y422175D02*
Y424375D01*
X1851071Y240478D02*
X1853271D01*
X1852171Y239378D02*
Y241578D01*
X1824251Y240074D02*
X1826451D01*
X1825351Y238974D02*
Y241174D01*
X1865096Y250054D02*
X1867296D01*
X1866196Y248954D02*
Y251154D01*
X1634677Y253092D02*
X1636877D01*
X1635777Y251992D02*
Y254192D01*
X1584657Y257913D02*
X1586857D01*
X1585757Y256814D02*
Y259014D01*
X1612962Y240074D02*
X1615162D01*
X1614062Y238974D02*
Y241174D01*
X2117937Y377229D02*
X2120137D01*
X2119037Y376129D02*
Y378330D01*
X2089900Y159949D02*
X2092100D01*
X2091000Y158849D02*
Y161049D01*
X7716Y403408D02*
X9916D01*
X8816Y402308D02*
Y404508D01*
X260907Y474400D02*
X264907D01*
X262906Y472400D02*
Y476400D01*
X2054845Y179876D02*
X2057045D01*
X2055945Y178776D02*
Y180976D01*
X430443Y403069D02*
X432643D01*
X431543Y401969D02*
Y404169D01*
X429599Y377229D02*
X431799D01*
X430699Y376129D02*
Y378330D01*
X460947Y416275D02*
X463147D01*
X462047Y415175D02*
Y417375D01*
X428923Y290199D02*
X431124D01*
X430023Y289099D02*
Y291299D01*
X442567Y427358D02*
X444767D01*
X443667Y426258D02*
Y428458D01*
X956481Y290199D02*
X958681D01*
X957581Y289099D02*
Y291299D01*
X1061891Y290199D02*
X1064091D01*
X1062991Y289099D02*
Y291299D01*
X808648Y250054D02*
X810848D01*
X809748Y248954D02*
Y251154D01*
X837371Y261294D02*
X839570D01*
X838471Y260194D02*
Y262394D01*
X739498Y257913D02*
X741697D01*
X740598Y256814D02*
Y259014D01*
X789518Y253092D02*
X791718D01*
X790618Y251992D02*
Y254192D01*
X792441Y267252D02*
X794641D01*
X793541Y266152D02*
Y268352D01*
X775169Y267252D02*
X777369D01*
X776269Y266152D02*
Y268352D01*
X851071Y290199D02*
X853271D01*
X852171Y289099D02*
Y291299D01*
X745407Y290199D02*
X747607D01*
X746507Y289099D02*
Y291299D01*
X756462Y341146D02*
X758662D01*
X757562Y340046D02*
Y342246D01*
X746404Y377229D02*
X748605D01*
X747505Y376129D02*
Y378330D01*
X718802Y360509D02*
X721003D01*
X719902Y359409D02*
Y361609D01*
X653895Y427358D02*
X656095D01*
X654995Y426258D02*
Y428458D01*
X703275Y421275D02*
X705475D01*
X704375Y420175D02*
Y422375D01*
X714895Y423275D02*
X717095D01*
X715995Y422175D02*
Y424375D01*
X865223Y427358D02*
X867423D01*
X866323Y426258D02*
Y428458D01*
X747434Y403069D02*
X749634D01*
X748534Y401969D02*
Y404169D01*
X777939Y416275D02*
X780139D01*
X779039Y415175D02*
Y417375D01*
X685504Y416504D02*
X687704D01*
X686604Y415404D02*
Y417604D01*
X672275Y416275D02*
X674475D01*
X673375Y415175D02*
Y417375D01*
X853099Y403069D02*
X855298D01*
X854199Y401969D02*
Y404169D01*
X759559Y427358D02*
X761759D01*
X760659Y426258D02*
Y428458D01*
X820559Y423275D02*
X822759D01*
X821659Y422175D02*
Y424375D01*
X808939Y421275D02*
X811139D01*
X810039Y420175D02*
Y422375D01*
X791168Y416504D02*
X793368D01*
X792268Y415404D02*
Y417604D01*
M02*
