G04*
G04 #@! TF.GenerationSoftware,Altium Limited,Altium Designer,23.2.1 (34)*
G04*
G04 Layer_Color=8388736*
%FSLAX44Y44*%
%MOMM*%
G71*
G04*
G04 #@! TF.SameCoordinates,4AEFFC81-8D6A-4C92-BCC4-55949A9363D9*
G04*
G04*
G04 #@! TF.FilePolarity,Positive*
G04*
G01*
G75*
%ADD10C,0.2000*%
%ADD87C,0.1000*%
D10*
X2130780Y118389D02*
Y126389D01*
X2114780D02*
X2130780D01*
X2114780Y118389D02*
Y126389D01*
Y118389D02*
X2130780D01*
X2013340Y594602D02*
X2021340D01*
X2013340Y578602D02*
Y594602D01*
Y578602D02*
X2021340D01*
Y594602D01*
X2078720Y117889D02*
X2095720D01*
X2078720D02*
Y126889D01*
X2095720D01*
Y117889D02*
Y126889D01*
X2021683Y539706D02*
Y556706D01*
X2012683Y539706D02*
X2021683D01*
X2012683D02*
Y556706D01*
X2021683D01*
X2054030Y52429D02*
Y70429D01*
X2064530D01*
Y52429D02*
Y70429D01*
X2054030Y52429D02*
X2064530D01*
X2069183Y513706D02*
X2087183D01*
X2069183D02*
Y524206D01*
X2087183D01*
Y513706D02*
Y524206D01*
X2112240Y67539D02*
X2128240D01*
X2112240D02*
Y75639D01*
X2128240D01*
Y67539D02*
Y75639D01*
X2073733Y570956D02*
Y586956D01*
X2065633Y570956D02*
X2073733D01*
X2065633D02*
Y586956D01*
X2073733D01*
X390729Y146646D02*
Y152146D01*
Y146646D02*
X401229D01*
Y152146D01*
X390729D02*
X401229D01*
X330250Y150199D02*
X335750D01*
X330250Y139699D02*
Y150199D01*
Y139699D02*
X335750D01*
Y150199D01*
X602019Y146646D02*
Y152146D01*
Y146646D02*
X612519D01*
Y152146D01*
X602019D02*
X612519D01*
X542250Y148199D02*
X547750D01*
X542250Y137699D02*
Y148199D01*
Y137699D02*
X547750D01*
Y148199D01*
X813309Y146646D02*
Y152146D01*
Y146646D02*
X823809D01*
Y152146D01*
X813309D02*
X823809D01*
X750405Y150900D02*
X755905D01*
X750405Y140400D02*
Y150900D01*
Y140400D02*
X755905D01*
Y150900D01*
X1024598Y146646D02*
Y152146D01*
Y146646D02*
X1035098D01*
Y152146D01*
X1024598D02*
X1035098D01*
X963250Y150199D02*
X968750D01*
X963250Y139699D02*
Y150199D01*
Y139699D02*
X968750D01*
Y150199D01*
X1235888Y146646D02*
Y152146D01*
Y146646D02*
X1246388D01*
Y152146D01*
X1235888D02*
X1246388D01*
X1178250Y150199D02*
X1183750D01*
X1178250Y139699D02*
Y150199D01*
Y139699D02*
X1183750D01*
Y150199D01*
X1447155Y146669D02*
Y152169D01*
Y146669D02*
X1457655D01*
Y152169D01*
X1447155D02*
X1457655D01*
X1384274Y150900D02*
X1389774D01*
X1384274Y140400D02*
Y150900D01*
Y140400D02*
X1389774D01*
Y150900D01*
X1658750Y146199D02*
Y151699D01*
Y146199D02*
X1669250D01*
Y151699D01*
X1658750D02*
X1669250D01*
X1595250Y153199D02*
X1600750D01*
X1595250Y142699D02*
Y153199D01*
Y142699D02*
X1600750D01*
Y153199D01*
X1869734Y146669D02*
Y152169D01*
Y146669D02*
X1880234D01*
Y152169D01*
X1869734D02*
X1880234D01*
X1806853Y150900D02*
X1812353D01*
X1806853Y140400D02*
Y150900D01*
Y140400D02*
X1812353D01*
Y150900D01*
X2081047Y146646D02*
Y152146D01*
Y146646D02*
X2091547D01*
Y152146D01*
X2081047D02*
X2091547D01*
X2018054Y150990D02*
X2023554D01*
X2018054Y140490D02*
Y150990D01*
Y140490D02*
X2023554D01*
Y150990D01*
X179750Y148199D02*
Y153699D01*
Y148199D02*
X190250D01*
Y153699D01*
X179750D02*
X190250D01*
X121250Y151199D02*
X126750D01*
X121250Y140699D02*
Y151199D01*
Y140699D02*
X126750D01*
Y151199D01*
D87*
X2018664Y10139D02*
X2042064D01*
X1964710Y540606D02*
X1988110D01*
M02*
