G04*
G04 #@! TF.GenerationSoftware,Altium Limited,Altium Designer,23.2.1 (34)*
G04*
G04 Layer_Color=16711935*
%FSLAX44Y44*%
%MOMM*%
G71*
G04*
G04 #@! TF.SameCoordinates,4AEFFC81-8D6A-4C92-BCC4-55949A9363D9*
G04*
G04*
G04 #@! TF.FilePolarity,Negative*
G04*
G01*
G75*
%ADD34R,0.5200X0.5200*%
%ADD43R,0.6500X0.6500*%
%ADD48C,1.6000*%
%ADD49R,1.6000X1.6000*%
%ADD50C,1.5000*%
%ADD51R,1.5000X1.5000*%
%ADD52C,1.1000*%
%ADD53C,0.3200*%
%ADD54C,0.6000*%
%ADD55C,0.8000*%
%ADD56C,1.3000*%
G04:AMPARAMS|DCode=78|XSize=1.05mm|YSize=0.3mm|CornerRadius=0.0495mm|HoleSize=0mm|Usage=FLASHONLY|Rotation=180.000|XOffset=0mm|YOffset=0mm|HoleType=Round|Shape=RoundedRectangle|*
%AMROUNDEDRECTD78*
21,1,1.0500,0.2010,0,0,180.0*
21,1,0.9510,0.3000,0,0,180.0*
1,1,0.0990,-0.4755,0.1005*
1,1,0.0990,0.4755,0.1005*
1,1,0.0990,0.4755,-0.1005*
1,1,0.0990,-0.4755,-0.1005*
%
%ADD78ROUNDEDRECTD78*%
%ADD80R,1.3000X1.3000*%
%ADD81R,1.6000X1.7000*%
%ADD82R,1.3000X1.3000*%
%ADD83R,1.7000X1.6000*%
%ADD84R,1.6250X0.7500*%
D34*
X308731Y225596D02*
D03*
X300731D02*
D03*
X520021D02*
D03*
X512021D02*
D03*
X731311D02*
D03*
X723311D02*
D03*
X942600D02*
D03*
X934600D02*
D03*
X1153890D02*
D03*
X1145890D02*
D03*
X1365180D02*
D03*
X1357180D02*
D03*
X1576470D02*
D03*
X1568470D02*
D03*
X1787759D02*
D03*
X1779759D02*
D03*
X1999049D02*
D03*
X1991049D02*
D03*
X97396Y225793D02*
D03*
X89396D02*
D03*
D43*
X137817Y353787D02*
D03*
X128817D02*
D03*
X160317D02*
D03*
X151317D02*
D03*
X191755Y273659D02*
D03*
X182755D02*
D03*
X214255D02*
D03*
X205255D02*
D03*
X243409Y353592D02*
D03*
X234408D02*
D03*
X265909D02*
D03*
X256909D02*
D03*
X297685Y273405D02*
D03*
X288685D02*
D03*
X320185D02*
D03*
X311185D02*
D03*
X349399Y353533D02*
D03*
X340399D02*
D03*
X371899D02*
D03*
X362899D02*
D03*
X403095Y273405D02*
D03*
X394095D02*
D03*
X425595D02*
D03*
X416595D02*
D03*
X455063Y353533D02*
D03*
X446063D02*
D03*
X477563D02*
D03*
X468563D02*
D03*
X508505Y273405D02*
D03*
X499505D02*
D03*
X531005D02*
D03*
X522005D02*
D03*
X560727Y353533D02*
D03*
X551727D02*
D03*
X583227D02*
D03*
X574227D02*
D03*
X614169Y273405D02*
D03*
X605169D02*
D03*
X636669D02*
D03*
X627669D02*
D03*
X666391Y353533D02*
D03*
X657391D02*
D03*
X688891D02*
D03*
X679891D02*
D03*
X719579Y273405D02*
D03*
X710579D02*
D03*
X742079D02*
D03*
X733079D02*
D03*
X772055Y353533D02*
D03*
X763055D02*
D03*
X794555D02*
D03*
X785555D02*
D03*
X825243Y273405D02*
D03*
X816243D02*
D03*
X847743D02*
D03*
X838743D02*
D03*
X877719Y353533D02*
D03*
X868719D02*
D03*
X900219D02*
D03*
X891219D02*
D03*
X930653Y273405D02*
D03*
X921653D02*
D03*
X953153D02*
D03*
X944153D02*
D03*
X983383Y353533D02*
D03*
X974383D02*
D03*
X1005883D02*
D03*
X996883D02*
D03*
X1036063Y273405D02*
D03*
X1027063D02*
D03*
X1058563D02*
D03*
X1049563D02*
D03*
X1089047Y353533D02*
D03*
X1080047D02*
D03*
X1111547D02*
D03*
X1102547D02*
D03*
X1141727Y273405D02*
D03*
X1132727D02*
D03*
X1164227D02*
D03*
X1155227D02*
D03*
X1194711Y353533D02*
D03*
X1185711D02*
D03*
X1217211D02*
D03*
X1208211D02*
D03*
X1247137Y273405D02*
D03*
X1238137D02*
D03*
X1269637D02*
D03*
X1260637D02*
D03*
X1300375Y353533D02*
D03*
X1291375D02*
D03*
X1322875D02*
D03*
X1313875D02*
D03*
X1352801Y273405D02*
D03*
X1343801D02*
D03*
X1375301D02*
D03*
X1366301D02*
D03*
X1406039Y353533D02*
D03*
X1397039D02*
D03*
X1428539D02*
D03*
X1419539D02*
D03*
X1458211Y273405D02*
D03*
X1449211D02*
D03*
X1480711D02*
D03*
X1471711D02*
D03*
X1511703Y353533D02*
D03*
X1502703D02*
D03*
X1534203D02*
D03*
X1525203D02*
D03*
X1563875Y273405D02*
D03*
X1554875D02*
D03*
X1586375D02*
D03*
X1577375D02*
D03*
X1617367Y353533D02*
D03*
X1608367D02*
D03*
X1639867D02*
D03*
X1630867D02*
D03*
X1669285Y273405D02*
D03*
X1660285D02*
D03*
X1691785D02*
D03*
X1682785D02*
D03*
X1723031Y353533D02*
D03*
X1714031D02*
D03*
X1745531D02*
D03*
X1736531D02*
D03*
X1774695Y273405D02*
D03*
X1765695D02*
D03*
X1797195D02*
D03*
X1788195D02*
D03*
X1828695Y353533D02*
D03*
X1819695D02*
D03*
X1851195D02*
D03*
X1842195D02*
D03*
X1880359Y273405D02*
D03*
X1871359D02*
D03*
X1902859D02*
D03*
X1893859D02*
D03*
X1934359Y353533D02*
D03*
X1925359D02*
D03*
X1956859D02*
D03*
X1947859D02*
D03*
X1985769Y273405D02*
D03*
X1976769D02*
D03*
X2008269D02*
D03*
X1999269D02*
D03*
X2040023Y353533D02*
D03*
X2031023D02*
D03*
X2062523D02*
D03*
X2053523D02*
D03*
X2091433Y273405D02*
D03*
X2082433D02*
D03*
X2113933D02*
D03*
X2104933D02*
D03*
X45837Y353872D02*
D03*
X54837D02*
D03*
X23337D02*
D03*
X32336D02*
D03*
X86091Y273659D02*
D03*
X77091D02*
D03*
X108075Y273900D02*
D03*
X99074D02*
D03*
D48*
X865000Y51750D02*
D03*
Y71750D02*
D03*
X885000Y51750D02*
D03*
Y71750D02*
D03*
X905000Y51750D02*
D03*
Y71750D02*
D03*
X925000Y51750D02*
D03*
Y71750D02*
D03*
X945000Y51750D02*
D03*
Y71750D02*
D03*
X965000Y51750D02*
D03*
Y71750D02*
D03*
X985000Y51750D02*
D03*
Y71750D02*
D03*
X1005000Y51750D02*
D03*
Y71750D02*
D03*
X1025000Y51750D02*
D03*
Y71750D02*
D03*
X1045000Y51750D02*
D03*
Y71750D02*
D03*
X1065000Y51750D02*
D03*
Y71750D02*
D03*
X1085000Y51750D02*
D03*
Y71750D02*
D03*
X1105000Y51750D02*
D03*
Y71750D02*
D03*
X1125000Y51750D02*
D03*
Y71750D02*
D03*
X1145000Y51750D02*
D03*
Y71750D02*
D03*
X1165000Y51750D02*
D03*
Y71750D02*
D03*
X1185000Y51750D02*
D03*
Y71750D02*
D03*
X1205000Y51750D02*
D03*
Y71750D02*
D03*
X1225000Y51750D02*
D03*
Y71750D02*
D03*
X1245000Y51750D02*
D03*
Y71750D02*
D03*
X1265000Y51750D02*
D03*
Y71750D02*
D03*
X1285000Y51750D02*
D03*
Y71750D02*
D03*
X1305000Y51750D02*
D03*
Y71750D02*
D03*
X1325000Y51750D02*
D03*
Y71750D02*
D03*
X1345000Y51750D02*
D03*
X1468700Y523649D02*
D03*
X1443300D02*
D03*
X1417900D02*
D03*
X1392500D02*
D03*
X1367100D02*
D03*
X1341700D02*
D03*
X1316300D02*
D03*
X1290900D02*
D03*
X1265500D02*
D03*
X1240100D02*
D03*
X1214700D02*
D03*
X1189300D02*
D03*
X1163900D02*
D03*
X1138500D02*
D03*
X1113100D02*
D03*
X1087700D02*
D03*
X1062300D02*
D03*
X1036900D02*
D03*
X1011500D02*
D03*
X986100D02*
D03*
X960700D02*
D03*
X935300D02*
D03*
X909900D02*
D03*
X884500D02*
D03*
X859100D02*
D03*
X833700D02*
D03*
X808300D02*
D03*
X782900D02*
D03*
X757500D02*
D03*
X732100D02*
D03*
X706700D02*
D03*
X681300D02*
D03*
X1468700Y549049D02*
D03*
X1443300D02*
D03*
X1417900D02*
D03*
X1392500D02*
D03*
X1367100D02*
D03*
X1341700D02*
D03*
X1316300D02*
D03*
X1290900D02*
D03*
X1265500D02*
D03*
X1240100D02*
D03*
X1214700D02*
D03*
X1189300D02*
D03*
X1163900D02*
D03*
X1138500D02*
D03*
X1113100D02*
D03*
X1087700D02*
D03*
X1062300D02*
D03*
X1036900D02*
D03*
X1011500D02*
D03*
X986100D02*
D03*
X960700D02*
D03*
X935300D02*
D03*
X909900D02*
D03*
X884500D02*
D03*
X859100D02*
D03*
X833700D02*
D03*
X808300D02*
D03*
X782900D02*
D03*
X757500D02*
D03*
X732100D02*
D03*
X706700D02*
D03*
X681300D02*
D03*
X1468700Y574449D02*
D03*
X1443300D02*
D03*
X1417900D02*
D03*
X1392500D02*
D03*
X1367100D02*
D03*
X1341700D02*
D03*
X1316300D02*
D03*
X1290900D02*
D03*
X1265500D02*
D03*
X1240100D02*
D03*
X1214700D02*
D03*
X1189300D02*
D03*
X1163900D02*
D03*
X1138500D02*
D03*
X1113100D02*
D03*
X1087700D02*
D03*
X1062300D02*
D03*
X1036900D02*
D03*
X1011500D02*
D03*
X986100D02*
D03*
X960700D02*
D03*
X935300D02*
D03*
X909900D02*
D03*
X884500D02*
D03*
X859100D02*
D03*
X833700D02*
D03*
X808300D02*
D03*
X782900D02*
D03*
X757500D02*
D03*
X732100D02*
D03*
X706700D02*
D03*
X681300D02*
D03*
D49*
X1345000Y71750D02*
D03*
D50*
X630500Y599849D02*
D03*
X1519500D02*
D03*
X2030364Y71589D02*
D03*
Y46189D02*
D03*
X1976410Y576656D02*
D03*
Y602056D02*
D03*
D51*
X2030364Y20789D02*
D03*
X1976410Y551256D02*
D03*
D52*
X1820000Y34014D02*
D03*
X53438Y53204D02*
D03*
Y590000D02*
D03*
X1820000D02*
D03*
X1914714Y224453D02*
D03*
X221532D02*
D03*
D53*
X31068Y361949D02*
D03*
D54*
X139460D02*
D03*
X244000Y360949D02*
D03*
X359279Y362949D02*
D03*
X457000Y361949D02*
D03*
X573000Y362949D02*
D03*
X667460D02*
D03*
X783000Y370949D02*
D03*
X881000Y360949D02*
D03*
X994076Y364949D02*
D03*
X1090460Y361949D02*
D03*
X1409000Y360949D02*
D03*
X1511000Y362949D02*
D03*
X1618000Y361949D02*
D03*
X1725000D02*
D03*
X1839257D02*
D03*
X1935000D02*
D03*
X2047000D02*
D03*
X298129Y281949D02*
D03*
X405000Y282949D02*
D03*
X508000D02*
D03*
X719833Y281949D02*
D03*
X830000Y283949D02*
D03*
X931096Y282949D02*
D03*
X1040000Y281949D02*
D03*
X1143000D02*
D03*
X1253931D02*
D03*
X1356000Y288949D02*
D03*
X1465004Y284949D02*
D03*
X1564000Y281949D02*
D03*
X1674000Y282949D02*
D03*
X1777000D02*
D03*
X1886000D02*
D03*
X1990000Y285949D02*
D03*
X616000Y281949D02*
D03*
X1201747Y364696D02*
D03*
X2096000Y281949D02*
D03*
X193531Y290489D02*
D03*
X1307508Y363949D02*
D03*
X85000Y281949D02*
D03*
X468149Y66855D02*
D03*
X490000Y72170D02*
D03*
X639594D02*
D03*
X250000Y140000D02*
D03*
X1013097Y142189D02*
D03*
X875000Y230000D02*
D03*
X206874Y142549D02*
D03*
X418638Y142295D02*
D03*
X630000Y140000D02*
D03*
X1730650Y165101D02*
D03*
X1512343Y54406D02*
D03*
X1760000Y140000D02*
D03*
X1810000Y95000D02*
D03*
X567227Y55310D02*
D03*
X627342Y45139D02*
D03*
X1954376Y85720D02*
D03*
X1953483Y75552D02*
D03*
X1967169Y80015D02*
D03*
X1995000Y84507D02*
D03*
X1978634Y80050D02*
D03*
X1935000Y200000D02*
D03*
X2083210Y18210D02*
D03*
X2000000Y570000D02*
D03*
X2000156Y594879D02*
D03*
X1187250Y341296D02*
D03*
X1178998Y343718D02*
D03*
X1292561Y340849D02*
D03*
X1284092Y342348D02*
D03*
X343216Y341051D02*
D03*
X334820Y342915D02*
D03*
X1083124Y340974D02*
D03*
X1715998Y340465D02*
D03*
X978045Y340843D02*
D03*
X661007Y340752D02*
D03*
X1010508Y324070D02*
D03*
X872206Y340876D02*
D03*
X1399641Y341124D02*
D03*
X1927038Y340593D02*
D03*
X448468Y341073D02*
D03*
X441482Y346088D02*
D03*
X1610432Y340471D02*
D03*
X767202Y340743D02*
D03*
X238421Y340834D02*
D03*
X1821269Y340487D02*
D03*
X2032326Y340471D02*
D03*
X2142623Y341059D02*
D03*
X2128900Y346188D02*
D03*
X584090Y35319D02*
D03*
X580000Y65000D02*
D03*
X785000Y35000D02*
D03*
X796462Y41462D02*
D03*
X795000Y55000D02*
D03*
Y70000D02*
D03*
X195000Y60000D02*
D03*
X85000Y100000D02*
D03*
X140000Y55000D02*
D03*
X120000Y90000D02*
D03*
X160000Y70000D02*
D03*
X210000Y80000D02*
D03*
X475197Y173568D02*
D03*
X473696Y160065D02*
D03*
X262240Y70000D02*
D03*
X337450Y60075D02*
D03*
X371418Y51923D02*
D03*
X366889Y34259D02*
D03*
X1552433Y100000D02*
D03*
X1724256Y62600D02*
D03*
X1723995Y71402D02*
D03*
X1725000Y80000D02*
D03*
X1725042Y44730D02*
D03*
X1724314Y54000D02*
D03*
X1948522Y92020D02*
D03*
X1519710Y37600D02*
D03*
Y29000D02*
D03*
Y20400D02*
D03*
X1518908Y46402D02*
D03*
X336335Y42803D02*
D03*
Y24803D02*
D03*
X780000Y102710D02*
D03*
X795000Y100000D02*
D03*
X792012Y117846D02*
D03*
X799149Y122643D02*
D03*
X810000Y136540D02*
D03*
X1401143Y39608D02*
D03*
X1390000Y45000D02*
D03*
X1378877Y49580D02*
D03*
X1365654Y51357D02*
D03*
X1120609Y169576D02*
D03*
X1274605Y190308D02*
D03*
X1385000Y75000D02*
D03*
X1415000Y108924D02*
D03*
X1435000Y100000D02*
D03*
X1351483Y105698D02*
D03*
X1358460Y97706D02*
D03*
X1330000Y112290D02*
D03*
X1321791Y118207D02*
D03*
X1240000Y117514D02*
D03*
X1219605Y125308D02*
D03*
X1199605Y135308D02*
D03*
X1190752Y144041D02*
D03*
X1115113Y180354D02*
D03*
X1184000Y169949D02*
D03*
X1157136Y178962D02*
D03*
X942400Y127600D02*
D03*
X984729Y134866D02*
D03*
X925631Y123750D02*
D03*
X902433Y116370D02*
D03*
X920850D02*
D03*
X1323000Y164949D02*
D03*
X1532000D02*
D03*
X1958173Y164550D02*
D03*
X991633Y127914D02*
D03*
X995000Y120000D02*
D03*
X1014357Y188236D02*
D03*
X801352Y144853D02*
D03*
X895000Y160239D02*
D03*
X707507Y130000D02*
D03*
X949199Y139868D02*
D03*
X595674Y106400D02*
D03*
Y115000D02*
D03*
Y97800D02*
D03*
X762723Y143850D02*
D03*
X957685Y141264D02*
D03*
X595974Y140995D02*
D03*
X831701Y145659D02*
D03*
X595674Y132400D02*
D03*
Y123800D02*
D03*
X535106Y153039D02*
D03*
Y141384D02*
D03*
X1007727Y195277D02*
D03*
X1021775Y180818D02*
D03*
X999496Y179876D02*
D03*
X1050550Y260648D02*
D03*
X987558Y267252D02*
D03*
X1001908Y253092D02*
D03*
X1021037Y250054D02*
D03*
X1004830Y267252D02*
D03*
X995628Y275321D02*
D03*
X987050Y246932D02*
D03*
X1005968Y281949D02*
D03*
X993654Y240328D02*
D03*
X1007012Y240478D02*
D03*
X970286Y248710D02*
D03*
X980192Y240074D02*
D03*
X944274Y239208D02*
D03*
X943026Y252288D02*
D03*
X915930Y240074D02*
D03*
X924312Y245662D02*
D03*
X931194Y239058D02*
D03*
X951887Y257913D02*
D03*
X930767Y252288D02*
D03*
X1395422Y421889D02*
D03*
X2130000Y134449D02*
D03*
X2143100Y53809D02*
D03*
X2066900Y30949D02*
D03*
Y43649D02*
D03*
X2097380Y71589D02*
D03*
X2102460Y43649D02*
D03*
X2107540Y36029D02*
D03*
Y51269D02*
D03*
X2079600Y61429D02*
D03*
X2071980Y71589D02*
D03*
X2089760Y61429D02*
D03*
X2078765Y110741D02*
D03*
X2066900Y94449D02*
D03*
X124074Y341400D02*
D03*
X62570Y323195D02*
D03*
X109668Y306744D02*
D03*
X93000Y313949D02*
D03*
X106304Y336630D02*
D03*
X93075Y336400D02*
D03*
X74694Y347483D02*
D03*
X133301Y340746D02*
D03*
X113694Y377483D02*
D03*
X87989Y377656D02*
D03*
X86415Y360764D02*
D03*
X92885Y302010D02*
D03*
X113020Y290453D02*
D03*
X59265Y370894D02*
D03*
X508187Y252288D02*
D03*
X598458Y250054D02*
D03*
X582251Y267252D02*
D03*
X579328Y253092D02*
D03*
X571075Y240328D02*
D03*
X584433Y240478D02*
D03*
X557613Y240074D02*
D03*
X564471Y246932D02*
D03*
X564979Y267252D02*
D03*
X580219Y280332D02*
D03*
X547707Y248710D02*
D03*
X529308Y257913D02*
D03*
X500463Y189737D02*
D03*
X627142Y260024D02*
D03*
X585147Y195277D02*
D03*
X592285Y188071D02*
D03*
X576917Y179876D02*
D03*
X599195Y180818D02*
D03*
X493351Y240074D02*
D03*
X508615Y239058D02*
D03*
X501733Y245662D02*
D03*
X521695Y239208D02*
D03*
X520446Y252288D02*
D03*
X787887Y437710D02*
D03*
X323816Y141925D02*
D03*
X1036000Y172949D02*
D03*
X1041816Y165133D02*
D03*
X384384Y97800D02*
D03*
Y106400D02*
D03*
Y115000D02*
D03*
Y123800D02*
D03*
Y132400D02*
D03*
X384685Y140995D02*
D03*
X173301Y141143D02*
D03*
X173000Y132549D02*
D03*
Y123949D02*
D03*
Y115149D02*
D03*
Y106549D02*
D03*
X762723Y153039D02*
D03*
X1395579Y157010D02*
D03*
X1394737Y148452D02*
D03*
X1401148Y142720D02*
D03*
X1606659Y149088D02*
D03*
X1607370Y157659D02*
D03*
X1612438Y142720D02*
D03*
X1818000Y157949D02*
D03*
X1818440Y149027D02*
D03*
X2028000Y158949D02*
D03*
X2030461Y149365D02*
D03*
X324022Y150949D02*
D03*
X1257000Y157659D02*
D03*
X1170000Y153949D02*
D03*
X1400233Y132804D02*
D03*
X1401536Y124304D02*
D03*
X1401119Y115714D02*
D03*
X1611523Y132804D02*
D03*
X1612826Y124304D02*
D03*
X1612409Y115714D02*
D03*
X1613520Y107186D02*
D03*
X1613416Y98587D02*
D03*
X1822403Y141395D02*
D03*
X1822812Y132804D02*
D03*
X1824116Y124304D02*
D03*
X1823699Y115714D02*
D03*
X1824810Y107186D02*
D03*
X2035996Y98587D02*
D03*
X2036099Y107186D02*
D03*
X2034989Y115714D02*
D03*
X2035405Y124304D02*
D03*
X2034102Y132804D02*
D03*
X2033693Y141395D02*
D03*
X1679000Y147949D02*
D03*
X1356000Y314949D02*
D03*
X1369677Y336981D02*
D03*
X1380228Y309456D02*
D03*
X1365840Y291949D02*
D03*
X1358230Y336944D02*
D03*
X1432968Y375949D02*
D03*
X2066952Y376949D02*
D03*
X2067638Y360734D02*
D03*
X2063929Y195277D02*
D03*
X1650162Y188269D02*
D03*
X1866507Y195572D02*
D03*
X1641596Y195277D02*
D03*
X2066192Y289437D02*
D03*
X2053361Y276605D02*
D03*
X1855624Y376949D02*
D03*
X1855836Y281113D02*
D03*
X1862018Y340945D02*
D03*
X1840647Y262489D02*
D03*
X1848620Y249019D02*
D03*
X1642945Y375949D02*
D03*
X1630010Y272292D02*
D03*
X1645764Y280937D02*
D03*
X1637540Y266919D02*
D03*
X1436735Y280688D02*
D03*
X1422540Y279654D02*
D03*
X377000Y377949D02*
D03*
X587656Y376949D02*
D03*
X799000Y377949D02*
D03*
X1221640Y378728D02*
D03*
X1223342Y360021D02*
D03*
X1218945Y284071D02*
D03*
X1208000Y274949D02*
D03*
X799155Y286949D02*
D03*
X785587Y275362D02*
D03*
X625000Y313949D02*
D03*
X618000Y294949D02*
D03*
X377643Y291262D02*
D03*
X167470Y290297D02*
D03*
X378608Y360949D02*
D03*
X1998000Y302949D02*
D03*
X1151000Y302650D02*
D03*
X2046000Y390949D02*
D03*
X1940000D02*
D03*
X1835460Y393949D02*
D03*
X1730000Y392949D02*
D03*
X1623000Y390949D02*
D03*
X1518836Y388949D02*
D03*
X1413000Y391949D02*
D03*
X1201000Y389949D02*
D03*
X1096031Y391479D02*
D03*
X990000Y391949D02*
D03*
X884000D02*
D03*
X779460Y393949D02*
D03*
X673520D02*
D03*
X570000Y394949D02*
D03*
X357000Y392949D02*
D03*
X250000D02*
D03*
X145877Y394949D02*
D03*
X50540D02*
D03*
X464000Y393949D02*
D03*
X2096878Y311071D02*
D03*
X1991214D02*
D03*
X1885804D02*
D03*
X1780140D02*
D03*
X1674730D02*
D03*
X1569320D02*
D03*
X1463656D02*
D03*
X1252582D02*
D03*
X1147172D02*
D03*
X1042000Y311949D02*
D03*
X936098Y311071D02*
D03*
X830688D02*
D03*
X725024D02*
D03*
X513950D02*
D03*
X408540D02*
D03*
X303130D02*
D03*
X197200Y311325D02*
D03*
X114000Y149949D02*
D03*
X124000Y129949D02*
D03*
X1721897Y214430D02*
D03*
X1511899Y214943D02*
D03*
X1299000Y214949D02*
D03*
X1107000Y193949D02*
D03*
X1749000Y185949D02*
D03*
X1320540Y187409D02*
D03*
X1527000Y187949D02*
D03*
X1954000Y184949D02*
D03*
X1226961Y188269D02*
D03*
X1438251D02*
D03*
X1860830D02*
D03*
X2072120D02*
D03*
X263640Y173029D02*
D03*
X901180Y170489D02*
D03*
X266180Y160329D02*
D03*
X687820Y173029D02*
D03*
X690360Y160329D02*
D03*
X253580Y202817D02*
D03*
X460880Y202429D02*
D03*
X672161Y202277D02*
D03*
X883687Y202272D02*
D03*
X803574Y188071D02*
D03*
X380995D02*
D03*
X169660Y188269D02*
D03*
X62980Y170489D02*
D03*
Y180649D02*
D03*
X63554Y189935D02*
D03*
X156146Y182374D02*
D03*
X2087283Y604556D02*
D03*
X2069503Y602016D02*
D03*
X2044103D02*
D03*
X2044733Y561363D02*
D03*
X2072043Y530896D02*
D03*
X2061883Y535976D02*
D03*
X2058125Y46574D02*
D03*
X2069683Y561456D02*
D03*
X2104071Y570026D02*
D03*
X2090278Y569277D02*
D03*
X2096974Y564429D02*
D03*
X1135602Y245662D02*
D03*
X1127220Y240074D02*
D03*
X1155564Y239208D02*
D03*
X1074046Y341146D02*
D03*
X1144629Y379404D02*
D03*
X1056276Y336376D02*
D03*
X1130331Y347229D02*
D03*
X1169331Y377229D02*
D03*
X1142050Y360509D02*
D03*
X1148710Y336146D02*
D03*
X1118206Y322941D02*
D03*
X1161940Y336376D02*
D03*
X1171190Y403069D02*
D03*
X1063667Y377229D02*
D03*
X1115976Y370327D02*
D03*
X1065527Y403069D02*
D03*
X721973Y379404D02*
D03*
X693320Y370327D02*
D03*
X708183Y347229D02*
D03*
X726373Y301756D02*
D03*
X696058Y322941D02*
D03*
X726562Y336146D02*
D03*
X739792Y336376D02*
D03*
X652152Y341146D02*
D03*
X959863Y403069D02*
D03*
X927323Y423275D02*
D03*
X897932Y416504D02*
D03*
X884703Y416275D02*
D03*
X950866Y336376D02*
D03*
X904648Y370327D02*
D03*
X930908Y360578D02*
D03*
X906858Y360608D02*
D03*
X933636Y379404D02*
D03*
X919257Y347229D02*
D03*
X937447Y301756D02*
D03*
X907132Y322941D02*
D03*
X937636Y336146D02*
D03*
X1003596Y416504D02*
D03*
X1127031Y421275D02*
D03*
X1109260Y416504D02*
D03*
X1138651Y423275D02*
D03*
X1032987D02*
D03*
X990367Y416275D02*
D03*
X1021367Y421275D02*
D03*
X1077651Y427358D02*
D03*
X1096031Y416275D02*
D03*
X1013673Y353813D02*
D03*
X1010312Y370327D02*
D03*
X1024667Y347229D02*
D03*
X1038964Y379404D02*
D03*
X1043046Y336146D02*
D03*
X1036386Y360509D02*
D03*
X968636Y341146D02*
D03*
X958257Y377229D02*
D03*
X827636Y379404D02*
D03*
X802345Y354434D02*
D03*
X813847Y347229D02*
D03*
X863226Y341146D02*
D03*
X832226Y336146D02*
D03*
X852847Y377229D02*
D03*
X825566Y360509D02*
D03*
X801722Y322941D02*
D03*
X845456Y336376D02*
D03*
X711753Y189737D02*
D03*
X731736Y252288D02*
D03*
X782365Y240328D02*
D03*
X719477Y252288D02*
D03*
X775761Y246932D02*
D03*
X758997Y248710D02*
D03*
X713023Y245662D02*
D03*
X719905Y239058D02*
D03*
X795723Y240478D02*
D03*
X768903Y240074D02*
D03*
X732985Y239208D02*
D03*
X704641Y240074D02*
D03*
X796437Y195277D02*
D03*
X1134332Y189737D02*
D03*
X1142057Y252288D02*
D03*
X1168655Y290199D02*
D03*
X1163177Y257913D02*
D03*
X1154315Y252288D02*
D03*
X1142484Y239058D02*
D03*
X475276Y416504D02*
D03*
X493047Y421275D02*
D03*
X610331Y423275D02*
D03*
X580940Y416504D02*
D03*
X598711Y421275D02*
D03*
X549331Y427358D02*
D03*
X537206Y403069D02*
D03*
X567711Y416275D02*
D03*
X642870Y403069D02*
D03*
X536109Y377229D02*
D03*
X621152Y336146D02*
D03*
X590648Y322941D02*
D03*
X528718Y336376D02*
D03*
X546488Y341146D02*
D03*
X590156Y360354D02*
D03*
X557038Y340542D02*
D03*
X641097Y290199D02*
D03*
X602772Y347229D02*
D03*
X614492Y360509D02*
D03*
X616309Y379404D02*
D03*
X641773Y377229D02*
D03*
X634382Y336376D02*
D03*
X497108Y347229D02*
D03*
X515299Y301756D02*
D03*
X504667Y423275D02*
D03*
X484984Y322941D02*
D03*
X515489Y336146D02*
D03*
X508829Y360509D02*
D03*
X511488Y379404D02*
D03*
X481992Y370327D02*
D03*
X535434Y290199D02*
D03*
X1470677Y257484D02*
D03*
X2089627Y423275D02*
D03*
X2078007Y421275D02*
D03*
X2047007Y416275D02*
D03*
X2060236Y416504D02*
D03*
X2067912Y322941D02*
D03*
X2094335Y377711D02*
D03*
X2098416Y336146D02*
D03*
X2080036Y347229D02*
D03*
X2091756Y360509D02*
D03*
X2111646Y336376D02*
D03*
X2050103Y240328D02*
D03*
X2078224Y180818D02*
D03*
X2058356Y253092D02*
D03*
X2061279Y267252D02*
D03*
X2104406Y261548D02*
D03*
X2077486Y250054D02*
D03*
X2118362Y290199D02*
D03*
X2063461Y240478D02*
D03*
X788207Y179876D02*
D03*
X810485Y180818D02*
D03*
X971987Y427358D02*
D03*
X915703Y421275D02*
D03*
X20940Y427697D02*
D03*
X81940Y423614D02*
D03*
X70320Y421614D02*
D03*
X39320Y416614D02*
D03*
X52549Y416843D02*
D03*
X211968Y336630D02*
D03*
X198738Y336400D02*
D03*
X180359Y347483D02*
D03*
X229739Y341400D02*
D03*
X99070Y239405D02*
D03*
X85990Y239256D02*
D03*
X97822Y252485D02*
D03*
X70726Y240271D02*
D03*
X77838Y189935D02*
D03*
X106683Y258111D02*
D03*
X85563Y252485D02*
D03*
X79108Y245860D02*
D03*
X114297Y403323D02*
D03*
X264917Y417034D02*
D03*
X281392Y421334D02*
D03*
X144801Y416529D02*
D03*
X158030Y416758D02*
D03*
X219609Y404803D02*
D03*
X126421Y427612D02*
D03*
X175801Y421529D02*
D03*
X187421Y423529D02*
D03*
X232012Y427417D02*
D03*
X293012Y423334D02*
D03*
X249545Y416225D02*
D03*
X324613Y290199D02*
D03*
X325289Y377229D02*
D03*
X336417Y248710D02*
D03*
X325878Y403069D02*
D03*
X317898Y336376D02*
D03*
X318018Y257913D02*
D03*
X338003Y427358D02*
D03*
X346323Y240074D02*
D03*
X353689Y267252D02*
D03*
X379574Y322941D02*
D03*
X356383Y416275D02*
D03*
X387383Y421275D02*
D03*
X359785Y240328D02*
D03*
X368929Y280332D02*
D03*
X387168Y250054D02*
D03*
X353181Y246932D02*
D03*
X370961Y267252D02*
D03*
X373143Y240478D02*
D03*
X369612Y416504D02*
D03*
X368038Y253092D02*
D03*
X399003Y423275D02*
D03*
X387906Y180818D02*
D03*
X403419Y360509D02*
D03*
X373857Y195277D02*
D03*
X410079Y336146D02*
D03*
X416681Y260648D02*
D03*
X423308Y336376D02*
D03*
X405997Y377584D02*
D03*
X365627Y179876D02*
D03*
X391698Y347229D02*
D03*
X148450Y240525D02*
D03*
X176571Y181016D02*
D03*
X156704Y253290D02*
D03*
X161808Y240675D02*
D03*
X175833Y250251D02*
D03*
X205346Y260846D02*
D03*
X162522Y195474D02*
D03*
X286289Y347229D02*
D03*
X168234Y323195D02*
D03*
X304478Y301756D02*
D03*
X274164Y322941D02*
D03*
X304669Y336146D02*
D03*
X218683Y290453D02*
D03*
X168409Y355481D02*
D03*
X192079Y360764D02*
D03*
X300669Y381557D02*
D03*
X298008Y360509D02*
D03*
X164746Y370581D02*
D03*
X194326Y378388D02*
D03*
X269932Y374324D02*
D03*
X219609Y377483D02*
D03*
X282061Y240074D02*
D03*
X309156Y252288D02*
D03*
X290443Y245662D02*
D03*
X297325Y239058D02*
D03*
X310405Y239208D02*
D03*
X289173Y189737D02*
D03*
X300065Y253994D02*
D03*
X141846Y247129D02*
D03*
X157594Y280529D02*
D03*
X134988Y240271D02*
D03*
X125082Y248908D02*
D03*
X142354Y267449D02*
D03*
X159626D02*
D03*
X1987216Y252288D02*
D03*
X1999474D02*
D03*
X1987643Y239058D02*
D03*
X2000723Y239208D02*
D03*
X1979491Y189737D02*
D03*
X1980761Y245662D02*
D03*
X2043499Y246932D02*
D03*
X2036641Y240074D02*
D03*
X2008336Y257913D02*
D03*
X2026735Y248710D02*
D03*
X2044007Y267252D02*
D03*
X1972379Y240074D02*
D03*
X1983963Y423275D02*
D03*
X1907962Y377229D02*
D03*
X1922963Y427358D02*
D03*
X1988752Y377621D02*
D03*
X1972343Y421275D02*
D03*
X1961288Y370327D02*
D03*
X1941343Y416275D02*
D03*
X1954572Y416504D02*
D03*
X2016503Y403069D02*
D03*
X1910838D02*
D03*
X2028627Y427358D02*
D03*
X1986093Y360509D02*
D03*
X2013372Y377229D02*
D03*
X1549687Y421275D02*
D03*
X1538632Y370327D02*
D03*
X1566859Y379404D02*
D03*
X1561307Y423275D02*
D03*
X1591478Y377229D02*
D03*
X1564198Y360509D02*
D03*
X1540354Y322941D02*
D03*
X1570858Y336146D02*
D03*
X1584088Y336376D02*
D03*
X1593846Y403069D02*
D03*
X1552478Y347229D02*
D03*
X1761015Y421275D02*
D03*
X1711635Y427358D02*
D03*
X1743244Y416504D02*
D03*
X1772635Y423275D02*
D03*
X1730015Y416275D02*
D03*
X1699510Y403069D02*
D03*
X1832717Y267252D02*
D03*
X1761089Y240074D02*
D03*
X1815445Y248710D02*
D03*
X1838813Y240328D02*
D03*
X1832209Y246932D02*
D03*
X1797046Y257913D02*
D03*
X1769471Y245662D02*
D03*
X1789433Y239208D02*
D03*
X1776353Y239058D02*
D03*
X1775926Y252288D02*
D03*
X1788185D02*
D03*
X1893840Y260786D02*
D03*
X1682767Y258754D02*
D03*
X1655644Y180818D02*
D03*
X1633366Y179876D02*
D03*
X1621428Y267252D02*
D03*
X1654907Y250054D02*
D03*
X1620920Y246932D02*
D03*
X1640882Y240478D02*
D03*
X1627524Y240328D02*
D03*
X1848908Y416504D02*
D03*
X1878299Y423275D02*
D03*
X1866679Y421275D02*
D03*
X1835679Y416275D02*
D03*
X1805175Y403069D02*
D03*
X1817299Y427358D02*
D03*
X1900572Y336376D02*
D03*
X1962248Y322941D02*
D03*
X1992753Y336146D02*
D03*
X2012697Y290199D02*
D03*
X1974373Y347229D02*
D03*
X2005982Y336376D02*
D03*
X1907287Y290199D02*
D03*
X1918342Y341146D02*
D03*
X2023752D02*
D03*
X1604156Y248710D02*
D03*
X1578144Y239208D02*
D03*
X1576895Y252288D02*
D03*
X1564636D02*
D03*
X1565064Y239058D02*
D03*
X1558182Y245662D02*
D03*
X1590804Y290199D02*
D03*
X1866934Y180818D02*
D03*
X1844655Y179876D02*
D03*
X1890000Y154949D02*
D03*
X1768201Y189737D02*
D03*
X1605971Y427358D02*
D03*
X1676414Y333746D02*
D03*
X1645490Y361155D02*
D03*
X1666971Y423275D02*
D03*
X1624351Y416275D02*
D03*
X1655351Y421275D02*
D03*
X1637580Y416504D02*
D03*
X1672269Y379004D02*
D03*
X1657888Y347229D02*
D03*
X1669608Y360509D02*
D03*
X1645764Y322941D02*
D03*
X1601859Y341146D02*
D03*
X1856564Y361125D02*
D03*
X1868963Y347229D02*
D03*
X1883006Y377711D02*
D03*
X1880683Y360509D02*
D03*
X1887343Y336146D02*
D03*
X1801624Y290199D02*
D03*
X1812679Y341146D02*
D03*
X1802298Y377229D02*
D03*
X1781488Y301756D02*
D03*
X1781678Y336146D02*
D03*
X1794908Y336376D02*
D03*
X1858695Y324426D02*
D03*
X1696214Y290199D02*
D03*
X1751174Y322941D02*
D03*
X1763298Y347229D02*
D03*
X1775018Y360509D02*
D03*
X1696888Y377229D02*
D03*
X1777596Y378337D02*
D03*
X1707269Y341146D02*
D03*
X1749960Y370327D02*
D03*
X1689498Y336376D02*
D03*
X1198340Y246932D02*
D03*
X1191482Y240074D02*
D03*
X1204944Y240328D02*
D03*
X1274065Y290199D02*
D03*
X1181576Y248710D02*
D03*
X1216120Y267252D02*
D03*
X1198848D02*
D03*
X1260365Y258500D02*
D03*
X1213197Y253092D02*
D03*
X1218302Y240478D02*
D03*
X1232327Y250054D02*
D03*
X1374467Y257913D02*
D03*
X1392866Y248710D02*
D03*
X1346892Y245662D02*
D03*
X1353774Y239058D02*
D03*
X1353346Y252288D02*
D03*
X1365605D02*
D03*
X1366854Y239208D02*
D03*
X1402772Y240074D02*
D03*
X1338510D02*
D03*
X1214924Y416504D02*
D03*
X1288979Y427358D02*
D03*
X1201695Y416275D02*
D03*
X1183315Y427358D02*
D03*
X1232695Y421275D02*
D03*
X1276854Y403069D02*
D03*
X1244315Y423275D02*
D03*
X1355784Y377621D02*
D03*
X1341405Y347229D02*
D03*
X1329280Y322941D02*
D03*
X1353125Y360509D02*
D03*
X1327304Y370327D02*
D03*
X1345622Y189737D02*
D03*
X1422076Y179876D02*
D03*
X1444354Y180818D02*
D03*
X1430306Y195277D02*
D03*
X1466000Y149949D02*
D03*
X1556912Y189737D02*
D03*
X1219016Y195277D02*
D03*
X1233064Y180818D02*
D03*
X1210786Y179876D02*
D03*
X1379729Y290199D02*
D03*
X1485139D02*
D03*
X1587452Y306490D02*
D03*
X1570668Y301756D02*
D03*
X1382518Y403069D02*
D03*
X1478424Y336376D02*
D03*
X1458535Y360509D02*
D03*
X1380405Y377229D02*
D03*
X1465195Y336146D02*
D03*
X1460858Y378134D02*
D03*
X1446815Y347229D02*
D03*
X1434690Y322941D02*
D03*
X1434416Y361191D02*
D03*
X1250120Y377621D02*
D03*
X1235741Y347229D02*
D03*
X1274741Y377229D02*
D03*
X1247460Y360509D02*
D03*
X1223616Y322941D02*
D03*
X1254120Y336146D02*
D03*
X1267350Y336376D02*
D03*
X1488183Y403069D02*
D03*
X1504818Y341092D02*
D03*
X1500307Y427358D02*
D03*
X1518687Y416275D02*
D03*
X1485815Y377229D02*
D03*
X1495569Y341050D02*
D03*
X1531916Y416504D02*
D03*
X1416234Y240328D02*
D03*
X1429592Y240478D02*
D03*
X1410138Y267252D02*
D03*
X1443617Y250054D02*
D03*
X1424487Y253092D02*
D03*
X1409630Y246932D02*
D03*
X1427410Y267252D02*
D03*
X1549800Y240074D02*
D03*
X1455643Y423275D02*
D03*
X1320588Y416504D02*
D03*
X1307359Y416275D02*
D03*
X1426252Y416504D02*
D03*
X1413023Y416275D02*
D03*
X1338359Y421275D02*
D03*
X1444023D02*
D03*
X1349979Y423275D02*
D03*
X1852171Y240478D02*
D03*
X1825351Y240074D02*
D03*
X1866196Y250054D02*
D03*
X1635777Y253092D02*
D03*
X1585757Y257913D02*
D03*
X1614062Y240074D02*
D03*
X2119037Y377229D02*
D03*
X2091000Y159949D02*
D03*
X8816Y403408D02*
D03*
X2055945Y179876D02*
D03*
X431543Y403069D02*
D03*
X430699Y377229D02*
D03*
X462047Y416275D02*
D03*
X430023Y290199D02*
D03*
X443667Y427358D02*
D03*
X957581Y290199D02*
D03*
X1062991D02*
D03*
X809748Y250054D02*
D03*
X838471Y261294D02*
D03*
X740598Y257913D02*
D03*
X790618Y253092D02*
D03*
X793541Y267252D02*
D03*
X776269D02*
D03*
X852171Y290199D02*
D03*
X746507D02*
D03*
X757562Y341146D02*
D03*
X747505Y377229D02*
D03*
X719902Y360509D02*
D03*
X654995Y427358D02*
D03*
X704375Y421275D02*
D03*
X715995Y423275D02*
D03*
X866323Y427358D02*
D03*
X748534Y403069D02*
D03*
X779039Y416275D02*
D03*
X686604Y416504D02*
D03*
X673375Y416275D02*
D03*
X854199Y403069D02*
D03*
X760659Y427358D02*
D03*
X821659Y423275D02*
D03*
X810039Y421275D02*
D03*
X792268Y416504D02*
D03*
D55*
X720123Y583591D02*
D03*
X2005000Y455000D02*
D03*
X2111414Y430000D02*
D03*
X1318297Y459538D02*
D03*
X1545000Y580000D02*
D03*
X972012Y167840D02*
D03*
X2095677Y514380D02*
D03*
X30637Y457820D02*
D03*
X2038938Y440794D02*
D03*
X2038836Y454174D02*
D03*
X1933519Y440895D02*
D03*
X1930783Y454376D02*
D03*
X1826886Y440490D02*
D03*
X1825872Y453363D02*
D03*
X1751635Y456557D02*
D03*
X1721277Y440416D02*
D03*
X1719974Y453449D02*
D03*
X1646588Y455755D02*
D03*
X1614807Y440115D02*
D03*
X1614406Y453950D02*
D03*
X1539917Y456959D02*
D03*
X1510527Y453650D02*
D03*
X1511027Y440706D02*
D03*
X1405175Y440618D02*
D03*
X1434643Y455856D02*
D03*
X1404373Y453550D02*
D03*
X1329197Y454726D02*
D03*
X1298403Y454478D02*
D03*
X1223816Y449287D02*
D03*
X1193003Y440796D02*
D03*
X1193535Y453605D02*
D03*
X1117844Y458358D02*
D03*
X1087871Y452063D02*
D03*
X1087988Y439995D02*
D03*
X1013397Y455972D02*
D03*
X982707Y439196D02*
D03*
X982207Y455672D02*
D03*
X875899Y453975D02*
D03*
X898665Y472348D02*
D03*
X768276Y459373D02*
D03*
X768801Y437616D02*
D03*
X807409Y459073D02*
D03*
X782005Y461074D02*
D03*
X698111Y459312D02*
D03*
X684513Y461869D02*
D03*
X664525Y440057D02*
D03*
X663321Y453732D02*
D03*
X621311Y461937D02*
D03*
X558077Y441698D02*
D03*
X557639Y454608D02*
D03*
X578147Y459914D02*
D03*
X485000Y454449D02*
D03*
X450000D02*
D03*
Y439449D02*
D03*
X380000Y454449D02*
D03*
X345000Y439449D02*
D03*
X348223Y454449D02*
D03*
X275000Y459449D02*
D03*
X240000Y439449D02*
D03*
X166901Y454902D02*
D03*
X135000Y439449D02*
D03*
Y454449D02*
D03*
X30000Y439449D02*
D03*
X65000Y459449D02*
D03*
X106189Y461949D02*
D03*
X1596886Y545199D02*
D03*
X1705000Y474449D02*
D03*
X1585000Y459449D02*
D03*
X1550000Y549449D02*
D03*
X1556281Y523707D02*
D03*
X1952483Y475409D02*
D03*
X1720000Y534449D02*
D03*
X1680000Y464449D02*
D03*
X1820000Y514449D02*
D03*
X1789792Y475409D02*
D03*
X1843711Y473360D02*
D03*
X1835000Y464449D02*
D03*
X1870000Y504449D02*
D03*
X1745000Y474449D02*
D03*
X1899502Y471627D02*
D03*
X1965000Y494449D02*
D03*
X1992003Y458816D02*
D03*
X2047130Y467974D02*
D03*
X1096765Y460200D02*
D03*
X1213261Y455766D02*
D03*
X1479291Y452385D02*
D03*
X1572529Y442356D02*
D03*
X1530831Y465362D02*
D03*
X1468734Y450357D02*
D03*
X1414027Y465701D02*
D03*
X1150000Y449449D02*
D03*
X1161709Y447740D02*
D03*
X1373280Y459449D02*
D03*
X1253036Y445532D02*
D03*
X950000Y479449D02*
D03*
X990000Y464449D02*
D03*
X1002045Y470791D02*
D03*
X235000Y539449D02*
D03*
X295000Y519449D02*
D03*
X405000Y559449D02*
D03*
X650000Y519449D02*
D03*
X655000Y539449D02*
D03*
X664259Y561349D02*
D03*
X95000Y474449D02*
D03*
X39894Y471860D02*
D03*
X50351Y469365D02*
D03*
X832083Y446943D02*
D03*
X846788Y444291D02*
D03*
X674092Y460224D02*
D03*
X739146Y461074D02*
D03*
X425000Y459449D02*
D03*
X515123Y451947D02*
D03*
X463213Y462048D02*
D03*
X367064Y459678D02*
D03*
X1308471Y463239D02*
D03*
X1885000Y471949D02*
D03*
X1624000D02*
D03*
X1059000Y462949D02*
D03*
X936000Y474949D02*
D03*
X358215Y472164D02*
D03*
X528000Y451949D02*
D03*
X2044103Y523276D02*
D03*
X2031403Y520736D02*
D03*
X2112683Y528356D02*
D03*
X2097183Y526456D02*
D03*
X152500Y479449D02*
D03*
X878043Y440638D02*
D03*
X905323Y457358D02*
D03*
X588331D02*
D03*
X1961963D02*
D03*
X1942101Y472622D02*
D03*
X1856299Y457358D02*
D03*
X1637047Y473892D02*
D03*
X1779286Y473130D02*
D03*
X1689117Y472876D02*
D03*
X2067627Y457358D02*
D03*
X2096024Y472114D02*
D03*
X242078Y455604D02*
D03*
X302022Y471606D02*
D03*
X211345Y472114D02*
D03*
X199407Y471860D02*
D03*
X1300699Y440638D02*
D03*
X262906Y474400D02*
D03*
D56*
X2135000Y15000D02*
D03*
X2105000Y10000D02*
D03*
X33960Y305000D02*
D03*
X2110000Y164449D02*
D03*
X2130000Y154449D02*
D03*
X2005000Y35000D02*
D03*
X1380761Y431921D02*
D03*
X1368000Y305949D02*
D03*
X1306000Y391949D02*
D03*
D78*
X322179Y216680D02*
D03*
Y211680D02*
D03*
Y206680D02*
D03*
Y201680D02*
D03*
Y196680D02*
D03*
Y191680D02*
D03*
Y186680D02*
D03*
Y181680D02*
D03*
X352179D02*
D03*
Y186680D02*
D03*
Y191680D02*
D03*
Y196680D02*
D03*
Y201680D02*
D03*
Y206680D02*
D03*
Y211680D02*
D03*
Y216680D02*
D03*
X563469D02*
D03*
Y211680D02*
D03*
Y206680D02*
D03*
Y201680D02*
D03*
Y196680D02*
D03*
Y191680D02*
D03*
Y186680D02*
D03*
Y181680D02*
D03*
X533469D02*
D03*
Y186680D02*
D03*
Y191680D02*
D03*
Y196680D02*
D03*
Y201680D02*
D03*
Y206680D02*
D03*
Y211680D02*
D03*
Y216680D02*
D03*
X744759D02*
D03*
Y211680D02*
D03*
Y206680D02*
D03*
Y201680D02*
D03*
Y196680D02*
D03*
Y191680D02*
D03*
Y186680D02*
D03*
Y181680D02*
D03*
X774759D02*
D03*
Y186680D02*
D03*
Y191680D02*
D03*
Y196680D02*
D03*
Y201680D02*
D03*
Y206680D02*
D03*
Y211680D02*
D03*
Y216680D02*
D03*
X986048D02*
D03*
Y211680D02*
D03*
Y206680D02*
D03*
Y201680D02*
D03*
Y196680D02*
D03*
Y191680D02*
D03*
Y186680D02*
D03*
Y181680D02*
D03*
X956048D02*
D03*
Y186680D02*
D03*
Y191680D02*
D03*
Y196680D02*
D03*
Y201680D02*
D03*
Y206680D02*
D03*
Y211680D02*
D03*
Y216680D02*
D03*
X1167338D02*
D03*
Y211680D02*
D03*
Y206680D02*
D03*
Y201680D02*
D03*
Y196680D02*
D03*
Y191680D02*
D03*
Y186680D02*
D03*
Y181680D02*
D03*
X1197338D02*
D03*
Y186680D02*
D03*
Y191680D02*
D03*
Y196680D02*
D03*
Y201680D02*
D03*
Y206680D02*
D03*
Y211680D02*
D03*
Y216680D02*
D03*
X1408628D02*
D03*
Y211680D02*
D03*
Y206680D02*
D03*
Y201680D02*
D03*
Y196680D02*
D03*
Y191680D02*
D03*
Y186680D02*
D03*
Y181680D02*
D03*
X1378628D02*
D03*
Y186680D02*
D03*
Y191680D02*
D03*
Y196680D02*
D03*
Y201680D02*
D03*
Y206680D02*
D03*
Y211680D02*
D03*
Y216680D02*
D03*
X1589918D02*
D03*
Y211680D02*
D03*
Y206680D02*
D03*
Y201680D02*
D03*
Y196680D02*
D03*
Y191680D02*
D03*
Y186680D02*
D03*
Y181680D02*
D03*
X1619918D02*
D03*
Y186680D02*
D03*
Y191680D02*
D03*
Y196680D02*
D03*
Y201680D02*
D03*
Y206680D02*
D03*
Y211680D02*
D03*
Y216680D02*
D03*
X1831207D02*
D03*
Y211680D02*
D03*
Y206680D02*
D03*
Y201680D02*
D03*
Y196680D02*
D03*
Y191680D02*
D03*
Y186680D02*
D03*
Y181680D02*
D03*
X1801207D02*
D03*
Y186680D02*
D03*
Y191680D02*
D03*
Y196680D02*
D03*
Y201680D02*
D03*
Y206680D02*
D03*
Y211680D02*
D03*
Y216680D02*
D03*
X2012497D02*
D03*
Y211680D02*
D03*
Y206680D02*
D03*
Y201680D02*
D03*
Y196680D02*
D03*
Y191680D02*
D03*
Y186680D02*
D03*
Y181680D02*
D03*
X2042497D02*
D03*
Y186680D02*
D03*
Y191680D02*
D03*
Y196680D02*
D03*
Y201680D02*
D03*
Y206680D02*
D03*
Y211680D02*
D03*
Y216680D02*
D03*
X140844Y216877D02*
D03*
Y211877D02*
D03*
Y206877D02*
D03*
Y201877D02*
D03*
Y196877D02*
D03*
Y191877D02*
D03*
Y186877D02*
D03*
Y181877D02*
D03*
X110844D02*
D03*
Y186877D02*
D03*
Y191877D02*
D03*
Y196877D02*
D03*
Y201877D02*
D03*
Y206877D02*
D03*
Y211877D02*
D03*
Y216877D02*
D03*
D80*
X2120240Y53809D02*
D03*
Y33809D02*
D03*
D81*
X2087740Y43809D02*
D03*
D82*
X2107183Y583456D02*
D03*
X2087183D02*
D03*
D83*
X2097183Y550956D02*
D03*
D84*
X180437Y371737D02*
D03*
Y384437D02*
D03*
Y397137D02*
D03*
Y409837D02*
D03*
X126197D02*
D03*
Y397137D02*
D03*
Y384437D02*
D03*
Y371737D02*
D03*
X234375Y291609D02*
D03*
Y304308D02*
D03*
Y317008D02*
D03*
Y329709D02*
D03*
X180135D02*
D03*
Y317008D02*
D03*
Y304308D02*
D03*
Y291609D02*
D03*
X286029Y371543D02*
D03*
Y384243D02*
D03*
Y396942D02*
D03*
Y409642D02*
D03*
X231789D02*
D03*
Y396942D02*
D03*
Y384243D02*
D03*
Y371543D02*
D03*
X340305Y291355D02*
D03*
Y304055D02*
D03*
Y316754D02*
D03*
Y329454D02*
D03*
X286065D02*
D03*
Y316754D02*
D03*
Y304055D02*
D03*
Y291355D02*
D03*
X392019Y371483D02*
D03*
Y384183D02*
D03*
Y396883D02*
D03*
Y409583D02*
D03*
X337779D02*
D03*
Y396883D02*
D03*
Y384183D02*
D03*
Y371483D02*
D03*
X445715Y291355D02*
D03*
Y304055D02*
D03*
Y316754D02*
D03*
Y329454D02*
D03*
X391475D02*
D03*
Y316754D02*
D03*
Y304055D02*
D03*
Y291355D02*
D03*
X497683Y371483D02*
D03*
Y384183D02*
D03*
Y396883D02*
D03*
Y409583D02*
D03*
X443443D02*
D03*
Y396883D02*
D03*
Y384183D02*
D03*
Y371483D02*
D03*
X551125Y291355D02*
D03*
Y304055D02*
D03*
Y316754D02*
D03*
Y329454D02*
D03*
X496885D02*
D03*
Y316754D02*
D03*
Y304055D02*
D03*
Y291355D02*
D03*
X603347Y371483D02*
D03*
Y384183D02*
D03*
Y396883D02*
D03*
Y409583D02*
D03*
X549107D02*
D03*
Y396883D02*
D03*
Y384183D02*
D03*
Y371483D02*
D03*
X656789Y291355D02*
D03*
Y304055D02*
D03*
Y316754D02*
D03*
Y329454D02*
D03*
X602549D02*
D03*
Y316754D02*
D03*
Y304055D02*
D03*
Y291355D02*
D03*
X709011Y371483D02*
D03*
Y384183D02*
D03*
Y396883D02*
D03*
Y409583D02*
D03*
X654771D02*
D03*
Y396883D02*
D03*
Y384183D02*
D03*
Y371483D02*
D03*
X762199Y291355D02*
D03*
Y304055D02*
D03*
Y316754D02*
D03*
Y329454D02*
D03*
X707959D02*
D03*
Y316754D02*
D03*
Y304055D02*
D03*
Y291355D02*
D03*
X814675Y371483D02*
D03*
Y384183D02*
D03*
Y396883D02*
D03*
Y409583D02*
D03*
X760435D02*
D03*
Y396883D02*
D03*
Y384183D02*
D03*
Y371483D02*
D03*
X867863Y291355D02*
D03*
Y304055D02*
D03*
Y316754D02*
D03*
Y329454D02*
D03*
X813623D02*
D03*
Y316754D02*
D03*
Y304055D02*
D03*
Y291355D02*
D03*
X920339Y371483D02*
D03*
Y384183D02*
D03*
Y396883D02*
D03*
Y409583D02*
D03*
X866099D02*
D03*
Y396883D02*
D03*
Y384183D02*
D03*
Y371483D02*
D03*
X973273Y291355D02*
D03*
Y304055D02*
D03*
Y316754D02*
D03*
Y329454D02*
D03*
X919033D02*
D03*
Y316754D02*
D03*
Y304055D02*
D03*
Y291355D02*
D03*
X1026003Y371483D02*
D03*
Y384183D02*
D03*
Y396883D02*
D03*
Y409583D02*
D03*
X971763D02*
D03*
Y396883D02*
D03*
Y384183D02*
D03*
Y371483D02*
D03*
X1078683Y291355D02*
D03*
Y304055D02*
D03*
Y316754D02*
D03*
Y329454D02*
D03*
X1024443D02*
D03*
Y316754D02*
D03*
Y304055D02*
D03*
Y291355D02*
D03*
X1131667Y371483D02*
D03*
Y384183D02*
D03*
Y396883D02*
D03*
Y409583D02*
D03*
X1077427D02*
D03*
Y396883D02*
D03*
Y384183D02*
D03*
Y371483D02*
D03*
X1184347Y291355D02*
D03*
Y304055D02*
D03*
Y316754D02*
D03*
Y329454D02*
D03*
X1130107D02*
D03*
Y316754D02*
D03*
Y304055D02*
D03*
Y291355D02*
D03*
X1237331Y371483D02*
D03*
Y384183D02*
D03*
Y396883D02*
D03*
Y409583D02*
D03*
X1183091D02*
D03*
Y396883D02*
D03*
Y384183D02*
D03*
Y371483D02*
D03*
X1289757Y291355D02*
D03*
Y304055D02*
D03*
Y316754D02*
D03*
Y329454D02*
D03*
X1235517D02*
D03*
Y316754D02*
D03*
Y304055D02*
D03*
Y291355D02*
D03*
X1342995Y371483D02*
D03*
Y384183D02*
D03*
Y396883D02*
D03*
Y409583D02*
D03*
X1288755D02*
D03*
Y396883D02*
D03*
Y384183D02*
D03*
Y371483D02*
D03*
X1395421Y291355D02*
D03*
Y304055D02*
D03*
Y316754D02*
D03*
Y329454D02*
D03*
X1341181D02*
D03*
Y316754D02*
D03*
Y304055D02*
D03*
Y291355D02*
D03*
X1448659Y371483D02*
D03*
Y384183D02*
D03*
Y396883D02*
D03*
Y409583D02*
D03*
X1394419D02*
D03*
Y396883D02*
D03*
Y384183D02*
D03*
Y371483D02*
D03*
X1500831Y291355D02*
D03*
Y304055D02*
D03*
Y316754D02*
D03*
Y329454D02*
D03*
X1446591D02*
D03*
Y316754D02*
D03*
Y304055D02*
D03*
Y291355D02*
D03*
X1554323Y371483D02*
D03*
Y384183D02*
D03*
Y396883D02*
D03*
Y409583D02*
D03*
X1500083D02*
D03*
Y396883D02*
D03*
Y384183D02*
D03*
Y371483D02*
D03*
X1606495Y291355D02*
D03*
Y304055D02*
D03*
Y316754D02*
D03*
Y329454D02*
D03*
X1552255D02*
D03*
Y316754D02*
D03*
Y304055D02*
D03*
Y291355D02*
D03*
X1659987Y371483D02*
D03*
Y384183D02*
D03*
Y396883D02*
D03*
Y409583D02*
D03*
X1605747D02*
D03*
Y396883D02*
D03*
Y384183D02*
D03*
Y371483D02*
D03*
X1711905Y291355D02*
D03*
Y304055D02*
D03*
Y316754D02*
D03*
Y329454D02*
D03*
X1657665D02*
D03*
Y316754D02*
D03*
Y304055D02*
D03*
Y291355D02*
D03*
X1765651Y371483D02*
D03*
Y384183D02*
D03*
Y396883D02*
D03*
Y409583D02*
D03*
X1711411D02*
D03*
Y396883D02*
D03*
Y384183D02*
D03*
Y371483D02*
D03*
X1817315Y291355D02*
D03*
Y304055D02*
D03*
Y316754D02*
D03*
Y329454D02*
D03*
X1763075D02*
D03*
Y316754D02*
D03*
Y304055D02*
D03*
Y291355D02*
D03*
X1871315Y371483D02*
D03*
Y384183D02*
D03*
Y396883D02*
D03*
Y409583D02*
D03*
X1817075D02*
D03*
Y396883D02*
D03*
Y384183D02*
D03*
Y371483D02*
D03*
X1922979Y291355D02*
D03*
Y304055D02*
D03*
Y316754D02*
D03*
Y329454D02*
D03*
X1868739D02*
D03*
Y316754D02*
D03*
Y304055D02*
D03*
Y291355D02*
D03*
X1976979Y371483D02*
D03*
Y384183D02*
D03*
Y396883D02*
D03*
Y409583D02*
D03*
X1922739D02*
D03*
Y396883D02*
D03*
Y384183D02*
D03*
Y371483D02*
D03*
X2028389Y291355D02*
D03*
Y304055D02*
D03*
Y316754D02*
D03*
Y329454D02*
D03*
X1974149D02*
D03*
Y316754D02*
D03*
Y304055D02*
D03*
Y291355D02*
D03*
X2082643Y371483D02*
D03*
Y384183D02*
D03*
Y396883D02*
D03*
Y409583D02*
D03*
X2028403D02*
D03*
Y396883D02*
D03*
Y384183D02*
D03*
Y371483D02*
D03*
X2134053Y291355D02*
D03*
Y304055D02*
D03*
Y316754D02*
D03*
Y329454D02*
D03*
X2079813D02*
D03*
Y316754D02*
D03*
Y304055D02*
D03*
Y291355D02*
D03*
X74956Y371822D02*
D03*
Y384522D02*
D03*
Y397222D02*
D03*
Y409922D02*
D03*
X20717D02*
D03*
Y397222D02*
D03*
Y384522D02*
D03*
Y371822D02*
D03*
X128711Y291609D02*
D03*
Y304308D02*
D03*
Y317008D02*
D03*
Y329709D02*
D03*
X74471D02*
D03*
Y317008D02*
D03*
Y304308D02*
D03*
Y291609D02*
D03*
M02*
