G04*
G04 #@! TF.GenerationSoftware,Altium Limited,Altium Designer,23.2.1 (34)*
G04*
G04 Layer_Color=32896*
%FSLAX44Y44*%
%MOMM*%
G71*
G04*
G04 #@! TF.SameCoordinates,4AEFFC81-8D6A-4C92-BCC4-55949A9363D9*
G04*
G04*
G04 #@! TF.FilePolarity,Positive*
G04*
G01*
G75*
%ADD10C,0.2000*%
%ADD11C,0.2500*%
%ADD13C,0.2540*%
%ADD14C,0.1200*%
%ADD85C,0.0220*%
D10*
X2084240Y61809D02*
X2122240D01*
X2084240Y25809D02*
X2122240D01*
X2115183Y547456D02*
Y585456D01*
X2079183Y547456D02*
Y585456D01*
X118567Y364987D02*
X133817D01*
X137317Y366287D02*
Y415287D01*
X169317D01*
Y366287D02*
Y415287D01*
X137317Y366287D02*
X169317D01*
X172505Y284858D02*
X187755D01*
X191255Y286159D02*
Y335159D01*
X223255D01*
Y286159D02*
Y335159D01*
X191255Y286159D02*
X223255D01*
X224159Y364793D02*
X239408D01*
X242909Y366092D02*
Y415093D01*
X274909D01*
Y366092D02*
Y415093D01*
X242909Y366092D02*
X274909D01*
X278435Y284604D02*
X293685D01*
X297185Y285905D02*
Y334905D01*
X329185D01*
Y285905D02*
Y334905D01*
X297185Y285905D02*
X329185D01*
X330149Y364733D02*
X345399D01*
X348899Y366033D02*
Y415033D01*
X380899D01*
Y366033D02*
Y415033D01*
X348899Y366033D02*
X380899D01*
X383845Y284604D02*
X399095D01*
X402595Y285905D02*
Y334905D01*
X434595D01*
Y285905D02*
Y334905D01*
X402595Y285905D02*
X434595D01*
X435813Y364733D02*
X451063D01*
X454563Y366033D02*
Y415033D01*
X486563D01*
Y366033D02*
Y415033D01*
X454563Y366033D02*
X486563D01*
X489255Y284604D02*
X504505D01*
X508005Y285905D02*
Y334905D01*
X540005D01*
Y285905D02*
Y334905D01*
X508005Y285905D02*
X540005D01*
X541477Y364733D02*
X556727D01*
X560227Y366033D02*
Y415033D01*
X592227D01*
Y366033D02*
Y415033D01*
X560227Y366033D02*
X592227D01*
X594919Y284604D02*
X610169D01*
X613669Y285905D02*
Y334905D01*
X645669D01*
Y285905D02*
Y334905D01*
X613669Y285905D02*
X645669D01*
X647141Y364733D02*
X662391D01*
X665891Y366033D02*
Y415033D01*
X697891D01*
Y366033D02*
Y415033D01*
X665891Y366033D02*
X697891D01*
X700329Y284604D02*
X715579D01*
X719079Y285905D02*
Y334905D01*
X751079D01*
Y285905D02*
Y334905D01*
X719079Y285905D02*
X751079D01*
X752805Y364733D02*
X768055D01*
X771555Y366033D02*
Y415033D01*
X803555D01*
Y366033D02*
Y415033D01*
X771555Y366033D02*
X803555D01*
X805993Y284604D02*
X821243D01*
X824743Y285905D02*
Y334905D01*
X856743D01*
Y285905D02*
Y334905D01*
X824743Y285905D02*
X856743D01*
X858469Y364733D02*
X873719D01*
X877219Y366033D02*
Y415033D01*
X909219D01*
Y366033D02*
Y415033D01*
X877219Y366033D02*
X909219D01*
X911403Y284604D02*
X926653D01*
X930153Y285905D02*
Y334905D01*
X962153D01*
Y285905D02*
Y334905D01*
X930153Y285905D02*
X962153D01*
X964133Y364733D02*
X979383D01*
X982883Y366033D02*
Y415033D01*
X1014883D01*
Y366033D02*
Y415033D01*
X982883Y366033D02*
X1014883D01*
X1016813Y284604D02*
X1032063D01*
X1035563Y285905D02*
Y334905D01*
X1067563D01*
Y285905D02*
Y334905D01*
X1035563Y285905D02*
X1067563D01*
X1069797Y364733D02*
X1085047D01*
X1088547Y366033D02*
Y415033D01*
X1120547D01*
Y366033D02*
Y415033D01*
X1088547Y366033D02*
X1120547D01*
X1122477Y284604D02*
X1137727D01*
X1141227Y285905D02*
Y334905D01*
X1173227D01*
Y285905D02*
Y334905D01*
X1141227Y285905D02*
X1173227D01*
X1175461Y364733D02*
X1190711D01*
X1194211Y366033D02*
Y415033D01*
X1226211D01*
Y366033D02*
Y415033D01*
X1194211Y366033D02*
X1226211D01*
X1227887Y284604D02*
X1243137D01*
X1246637Y285905D02*
Y334905D01*
X1278637D01*
Y285905D02*
Y334905D01*
X1246637Y285905D02*
X1278637D01*
X1281125Y364733D02*
X1296375D01*
X1299875Y366033D02*
Y415033D01*
X1331875D01*
Y366033D02*
Y415033D01*
X1299875Y366033D02*
X1331875D01*
X1333551Y284604D02*
X1348801D01*
X1352301Y285905D02*
Y334905D01*
X1384301D01*
Y285905D02*
Y334905D01*
X1352301Y285905D02*
X1384301D01*
X1386789Y364733D02*
X1402039D01*
X1405539Y366033D02*
Y415033D01*
X1437539D01*
Y366033D02*
Y415033D01*
X1405539Y366033D02*
X1437539D01*
X1438961Y284604D02*
X1454211D01*
X1457711Y285905D02*
Y334905D01*
X1489711D01*
Y285905D02*
Y334905D01*
X1457711Y285905D02*
X1489711D01*
X1492453Y364733D02*
X1507703D01*
X1511203Y366033D02*
Y415033D01*
X1543203D01*
Y366033D02*
Y415033D01*
X1511203Y366033D02*
X1543203D01*
X1544625Y284604D02*
X1559875D01*
X1563375Y285905D02*
Y334905D01*
X1595375D01*
Y285905D02*
Y334905D01*
X1563375Y285905D02*
X1595375D01*
X1598117Y364733D02*
X1613367D01*
X1616867Y366033D02*
Y415033D01*
X1648867D01*
Y366033D02*
Y415033D01*
X1616867Y366033D02*
X1648867D01*
X1650035Y284604D02*
X1665285D01*
X1668785Y285905D02*
Y334905D01*
X1700785D01*
Y285905D02*
Y334905D01*
X1668785Y285905D02*
X1700785D01*
X1703781Y364733D02*
X1719031D01*
X1722531Y366033D02*
Y415033D01*
X1754531D01*
Y366033D02*
Y415033D01*
X1722531Y366033D02*
X1754531D01*
X1755445Y284604D02*
X1770695D01*
X1774195Y285905D02*
Y334905D01*
X1806195D01*
Y285905D02*
Y334905D01*
X1774195Y285905D02*
X1806195D01*
X1809445Y364733D02*
X1824695D01*
X1828195Y366033D02*
Y415033D01*
X1860195D01*
Y366033D02*
Y415033D01*
X1828195Y366033D02*
X1860195D01*
X1861109Y284604D02*
X1876359D01*
X1879859Y285905D02*
Y334905D01*
X1911859D01*
Y285905D02*
Y334905D01*
X1879859Y285905D02*
X1911859D01*
X1915109Y364733D02*
X1930359D01*
X1933859Y366033D02*
Y415033D01*
X1965859D01*
Y366033D02*
Y415033D01*
X1933859Y366033D02*
X1965859D01*
X1966519Y284604D02*
X1981769D01*
X1985269Y285905D02*
Y334905D01*
X2017269D01*
Y285905D02*
Y334905D01*
X1985269Y285905D02*
X2017269D01*
X2020773Y364733D02*
X2036023D01*
X2039523Y366033D02*
Y415033D01*
X2071523D01*
Y366033D02*
Y415033D01*
X2039523Y366033D02*
X2071523D01*
X2072183Y284604D02*
X2087433D01*
X2090933Y285905D02*
Y334905D01*
X2122933D01*
Y285905D02*
Y334905D01*
X2090933Y285905D02*
X2122933D01*
X13087Y365072D02*
X28337D01*
X31837Y366372D02*
Y415372D01*
X63836D01*
Y366372D02*
Y415372D01*
X31837Y366372D02*
X63836D01*
X66841Y284858D02*
X82091D01*
X85591Y286159D02*
Y335159D01*
X117591D01*
Y286159D02*
Y335159D01*
X85591Y286159D02*
X117591D01*
X342679Y177680D02*
Y220680D01*
X331679Y177680D02*
X342679D01*
X331679D02*
Y220680D01*
X342679D01*
X542969D02*
X553969D01*
X542969Y177680D02*
Y220680D01*
Y177680D02*
X553969D01*
Y220680D01*
X765259Y177680D02*
Y220680D01*
X754259Y177680D02*
X765259D01*
X754259D02*
Y220680D01*
X765259D01*
X965548D02*
X976548D01*
X965548Y177680D02*
Y220680D01*
Y177680D02*
X976548D01*
Y220680D01*
X1187838Y177680D02*
Y220680D01*
X1176838Y177680D02*
X1187838D01*
X1176838D02*
Y220680D01*
X1187838D01*
X1388128D02*
X1399128D01*
X1388128Y177680D02*
Y220680D01*
Y177680D02*
X1399128D01*
Y220680D01*
X1610418Y177680D02*
Y220680D01*
X1599418Y177680D02*
X1610418D01*
X1599418D02*
Y220680D01*
X1610418D01*
X1810707D02*
X1821707D01*
X1810707Y177680D02*
Y220680D01*
Y177680D02*
X1821707D01*
Y220680D01*
X2032997Y177680D02*
Y220680D01*
X2021997Y177680D02*
X2032997D01*
X2021997D02*
Y220680D01*
X2032997D01*
X120344Y220877D02*
X131344D01*
X120344Y177878D02*
Y220877D01*
Y177878D02*
X131344D01*
Y220877D01*
D11*
X364179Y216680D02*
G03*
X364179Y216680I-1250J0D01*
G01*
X575469D02*
G03*
X575469Y216680I-1250J0D01*
G01*
X786759D02*
G03*
X786759Y216680I-1250J0D01*
G01*
X998048D02*
G03*
X998048Y216680I-1250J0D01*
G01*
X1209338D02*
G03*
X1209338Y216680I-1250J0D01*
G01*
X1420628D02*
G03*
X1420628Y216680I-1250J0D01*
G01*
X1631918D02*
G03*
X1631918Y216680I-1250J0D01*
G01*
X1843207D02*
G03*
X1843207Y216680I-1250J0D01*
G01*
X2054497D02*
G03*
X2054497Y216680I-1250J0D01*
G01*
X152844Y216877D02*
G03*
X152844Y216877I-1250J0D01*
G01*
D13*
X1350000Y538110D02*
X1354103D01*
X1356129Y480603D02*
Y581592D01*
X1380000Y480000D02*
Y580989D01*
X1405000Y480000D02*
Y580989D01*
X1430000Y480000D02*
Y580989D01*
X1330000Y482287D02*
Y533110D01*
X1330293D02*
X1335293Y538110D01*
X1350000D01*
X1456550Y480440D02*
Y581429D01*
X960123Y38273D02*
X1030123D01*
X1096649Y37502D02*
X1151649D01*
D14*
X2010723Y23279D02*
X2014055D01*
Y20780D01*
X2012389Y21613D01*
X2011556D01*
X2010723Y20780D01*
Y19114D01*
X2011556Y18281D01*
X2013222D01*
X2014055Y19114D01*
X2009057Y23279D02*
Y19947D01*
X2007391Y18281D01*
X2005725Y19947D01*
Y23279D01*
X2004059Y17448D02*
X2000726D01*
X1995728Y23279D02*
X1999060D01*
Y18281D01*
X1995728D01*
X1999060Y20780D02*
X1997394D01*
X1994062Y23279D02*
X1990730Y18281D01*
Y23279D02*
X1994062Y18281D01*
X1989064Y23279D02*
X1985731D01*
X1987398D01*
Y18281D01*
X1984065Y17448D02*
X1980733D01*
X1975735Y23279D02*
X1979067D01*
Y18281D01*
X1975735D01*
X1979067Y20780D02*
X1977401D01*
X1974069Y18281D02*
Y23279D01*
X1970736Y18281D01*
Y23279D01*
X2010921Y75957D02*
X2014254D01*
Y73458D01*
X2012587Y74291D01*
X2011754D01*
X2010921Y73458D01*
Y71792D01*
X2011754Y70959D01*
X2013421D01*
X2014254Y71792D01*
X2009255Y75957D02*
Y72625D01*
X2007589Y70959D01*
X2005923Y72625D01*
Y75957D01*
X2004257Y70126D02*
X2000925D01*
X1999259Y75957D02*
X1997592D01*
X1998425D01*
Y70959D01*
X1999259D01*
X1997592D01*
X1995093D02*
Y75957D01*
X1991761Y70959D01*
Y75957D01*
X1990095D02*
X1986763D01*
X1988429D01*
Y70959D01*
X1985096Y70126D02*
X1981764D01*
X1976766Y75957D02*
X1980098D01*
Y70959D01*
X1976766D01*
X1980098Y73458D02*
X1978432D01*
X1975100Y70959D02*
Y75957D01*
X1971767Y70959D01*
Y75957D01*
X2008743Y53183D02*
X2012075D01*
Y50684D01*
X2010409Y51517D01*
X2009576D01*
X2008743Y50684D01*
Y49018D01*
X2009576Y48184D01*
X2011242D01*
X2012075Y49018D01*
X2007077Y53183D02*
Y49851D01*
X2005411Y48184D01*
X2003745Y49851D01*
Y53183D01*
X2002078Y47351D02*
X1998746D01*
X1993748Y53183D02*
X1997080D01*
Y48184D01*
X1993748D01*
X1997080Y50684D02*
X1995414D01*
X1992082Y48184D02*
Y53183D01*
X1988749Y48184D01*
Y53183D01*
X1959521Y554705D02*
Y551372D01*
X1957855Y549706D01*
X1956189Y551372D01*
Y554705D01*
X1954523Y548040D02*
Y553038D01*
X1952024D01*
X1951191Y552205D01*
Y550539D01*
X1952024Y549706D01*
X1954523D01*
X1949525D02*
X1947858D01*
X1948692D01*
Y553038D01*
X1949525D01*
X1945359Y549706D02*
Y553038D01*
X1942860D01*
X1942027Y552205D01*
Y549706D01*
X1940361D02*
X1937862D01*
X1937029Y550539D01*
X1937862Y551372D01*
X1939528D01*
X1940361Y552205D01*
X1939528Y553038D01*
X1937029D01*
X1935363Y548873D02*
X1932030D01*
X1927032Y554705D02*
X1930364D01*
Y549706D01*
X1927032D01*
X1930364Y552205D02*
X1928698D01*
X1925366Y554705D02*
X1922034Y549706D01*
Y554705D02*
X1925366Y549706D01*
X1920367Y554705D02*
X1917035D01*
X1918701D01*
Y549706D01*
X1915369Y548873D02*
X1912037D01*
X1907039Y554705D02*
X1910371D01*
Y549706D01*
X1907039D01*
X1910371Y552205D02*
X1908705D01*
X1905372Y549706D02*
Y554705D01*
X1902040Y549706D01*
Y554705D01*
X1959340Y605451D02*
Y602118D01*
X1957674Y600452D01*
X1956008Y602118D01*
Y605451D01*
X1954342Y598786D02*
Y603784D01*
X1951843D01*
X1951010Y602951D01*
Y601285D01*
X1951843Y600452D01*
X1954342D01*
X1949344D02*
X1947677D01*
X1948510D01*
Y603784D01*
X1949344D01*
X1945178Y600452D02*
Y603784D01*
X1942679D01*
X1941846Y602951D01*
Y600452D01*
X1940180D02*
X1937681D01*
X1936848Y601285D01*
X1937681Y602118D01*
X1939347D01*
X1940180Y602951D01*
X1939347Y603784D01*
X1936848D01*
X1935181Y599619D02*
X1931849D01*
X1930183Y605451D02*
X1928517D01*
X1929350D01*
Y600452D01*
X1930183D01*
X1928517D01*
X1926018D02*
Y605451D01*
X1922686Y600452D01*
Y605451D01*
X1921019D02*
X1917687D01*
X1919353D01*
Y600452D01*
X1916021Y599619D02*
X1912689D01*
X1907690Y605451D02*
X1911023D01*
Y600452D01*
X1907690D01*
X1911023Y602951D02*
X1909357D01*
X1906024Y600452D02*
Y605451D01*
X1902692Y600452D01*
Y605451D01*
X1959159Y578701D02*
Y575368D01*
X1957493Y573702D01*
X1955827Y575368D01*
Y578701D01*
X1954161Y573702D02*
Y578701D01*
X1951662D01*
X1950828Y577868D01*
Y576202D01*
X1951662Y575368D01*
X1954161D01*
X1949162Y578701D02*
X1947496D01*
X1948329D01*
Y573702D01*
X1949162D01*
X1947496D01*
X1944997D02*
Y578701D01*
X1941665Y573702D01*
Y578701D01*
X1936666Y577868D02*
X1937499Y578701D01*
X1939165D01*
X1939999Y577868D01*
Y577035D01*
X1939165Y576202D01*
X1937499D01*
X1936666Y575368D01*
Y574535D01*
X1937499Y573702D01*
X1939165D01*
X1939999Y574535D01*
X1935000Y572869D02*
X1931668D01*
X1926670Y578701D02*
X1930002D01*
Y573702D01*
X1926670D01*
X1930002Y576202D02*
X1928336D01*
X1925004Y573702D02*
Y578701D01*
X1921671Y573702D01*
Y578701D01*
X869288Y557614D02*
X872620D01*
X869288Y560946D01*
Y561779D01*
X870121Y562612D01*
X871787D01*
X872620Y561779D01*
X867622D02*
X866789Y562612D01*
X865123D01*
X864290Y561779D01*
Y560946D01*
X865123Y560113D01*
X865956D01*
X865123D01*
X864290Y559280D01*
Y558447D01*
X865123Y557614D01*
X866789D01*
X867622Y558447D01*
X894736Y557367D02*
X898068D01*
X894736Y560699D01*
Y561532D01*
X895569Y562365D01*
X897235D01*
X898068Y561532D01*
X889738Y562365D02*
X891404Y561532D01*
X893070Y559866D01*
Y558200D01*
X892237Y557367D01*
X890571D01*
X889738Y558200D01*
Y559033D01*
X890571Y559866D01*
X893070D01*
X920349Y557120D02*
X923681D01*
X920349Y560452D01*
Y561285D01*
X921182Y562118D01*
X922848D01*
X923681Y561285D01*
X918682Y557953D02*
X917849Y557120D01*
X916183D01*
X915350Y557953D01*
Y561285D01*
X916183Y562118D01*
X917849D01*
X918682Y561285D01*
Y560452D01*
X917849Y559619D01*
X915350D01*
X1351552Y563380D02*
X1350719Y564213D01*
X1349053D01*
X1348220Y563380D01*
Y562547D01*
X1349053Y561714D01*
X1348220Y560881D01*
Y560048D01*
X1349053Y559215D01*
X1350719D01*
X1351552Y560048D01*
Y560881D01*
X1350719Y561714D01*
X1351552Y562547D01*
Y563380D01*
X1350719Y561714D02*
X1349053D01*
X1346554Y563380D02*
X1345721Y564213D01*
X1344055D01*
X1343222Y563380D01*
Y560048D01*
X1344055Y559215D01*
X1345721D01*
X1346554Y560048D01*
Y563380D01*
X1047797Y558480D02*
Y563479D01*
X1050296Y560979D01*
X1046964D01*
X1042799Y558480D02*
Y563479D01*
X1045298Y560979D01*
X1041966D01*
X681887Y507213D02*
X681054Y508046D01*
X679388D01*
X678555Y507213D01*
Y506380D01*
X679388Y505547D01*
X680221D01*
X679388D01*
X678555Y504714D01*
Y503881D01*
X679388Y503048D01*
X681054D01*
X681887Y503881D01*
X703573Y508749D02*
X705239Y507916D01*
X706905Y506250D01*
Y504584D01*
X706072Y503750D01*
X704406D01*
X703573Y504584D01*
Y505416D01*
X704406Y506250D01*
X706905D01*
X731782Y504021D02*
X730949Y503188D01*
X729283D01*
X728450Y504021D01*
Y507354D01*
X729283Y508187D01*
X730949D01*
X731782Y507354D01*
Y506521D01*
X730949Y505687D01*
X728450D01*
X810641Y503258D02*
X808975D01*
X809808D01*
Y508256D01*
X810641Y507423D01*
X806476D02*
X805643Y508256D01*
X803977D01*
X803144Y507423D01*
Y506590D01*
X803977Y505757D01*
X803144Y504924D01*
Y504091D01*
X803977Y503258D01*
X805643D01*
X806476Y504091D01*
Y504924D01*
X805643Y505757D01*
X806476Y506590D01*
Y507423D01*
X805643Y505757D02*
X803977D01*
X785711Y503258D02*
X784045D01*
X784878D01*
Y508256D01*
X785711Y507423D01*
X778214Y508256D02*
X781546D01*
Y505757D01*
X779880Y506590D01*
X779047D01*
X778214Y505757D01*
Y504091D01*
X779047Y503258D01*
X780713D01*
X781546Y504091D01*
X760781Y503258D02*
X759115D01*
X759948D01*
Y508256D01*
X760781Y507423D01*
X753283Y503258D02*
X756615D01*
X753283Y506590D01*
Y507423D01*
X754116Y508256D01*
X755782D01*
X756615Y507423D01*
X914414D02*
X913581Y508256D01*
X911915D01*
X911082Y507423D01*
Y506590D01*
X911915Y505757D01*
X912748D01*
X911915D01*
X911082Y504924D01*
Y504091D01*
X911915Y503258D01*
X913581D01*
X914414Y504091D01*
X909416Y507423D02*
X908583Y508256D01*
X906917D01*
X906083Y507423D01*
Y504091D01*
X906917Y503258D01*
X908583D01*
X909416Y504091D01*
Y507423D01*
X936959D02*
X936126Y508256D01*
X934460D01*
X933627Y507423D01*
Y506590D01*
X934460Y505757D01*
X935293D01*
X934460D01*
X933627Y504924D01*
Y504091D01*
X934460Y503258D01*
X936126D01*
X936959Y504091D01*
X931961Y507423D02*
X931128Y508256D01*
X929462D01*
X928629Y507423D01*
Y506590D01*
X929462Y505757D01*
X930295D01*
X929462D01*
X928629Y504924D01*
Y504091D01*
X929462Y503258D01*
X931128D01*
X931961Y504091D01*
X964222Y507423D02*
X963389Y508256D01*
X961723D01*
X960890Y507423D01*
Y506590D01*
X961723Y505757D01*
X962556D01*
X961723D01*
X960890Y504924D01*
Y504091D01*
X961723Y503258D01*
X963389D01*
X964222Y504091D01*
X955892Y508256D02*
X957558Y507423D01*
X959224Y505757D01*
Y504091D01*
X958391Y503258D01*
X956725D01*
X955892Y504091D01*
Y504924D01*
X956725Y505757D01*
X959224D01*
X883438Y503258D02*
X886770D01*
X883438Y506590D01*
Y507423D01*
X884271Y508256D01*
X885937D01*
X886770Y507423D01*
X881771Y508256D02*
X878439D01*
Y507423D01*
X881771Y504091D01*
Y503258D01*
X858838D02*
X862170D01*
X858838Y506590D01*
Y507423D01*
X859671Y508256D01*
X861337D01*
X862170Y507423D01*
X854673Y503258D02*
Y508256D01*
X857172Y505757D01*
X853840D01*
X832240Y503258D02*
X835572D01*
X832240Y506590D01*
Y507423D01*
X833073Y508256D01*
X834739D01*
X835572Y507423D01*
X830574Y503258D02*
X828907D01*
X829740D01*
Y508256D01*
X830574Y507423D01*
X1088011Y587136D02*
Y592134D01*
X1090510Y589635D01*
X1087178D01*
X1085511Y587968D02*
X1084678Y587136D01*
X1083012D01*
X1082179Y587968D01*
Y591301D01*
X1083012Y592134D01*
X1084678D01*
X1085511Y591301D01*
Y590468D01*
X1084678Y589635D01*
X1082179D01*
X1112834Y592134D02*
X1116166D01*
Y589635D01*
X1114500Y590468D01*
X1113667D01*
X1112834Y589635D01*
Y587968D01*
X1113667Y587136D01*
X1115333D01*
X1116166Y587968D01*
X1107836Y587136D02*
X1111168D01*
X1107836Y590468D01*
Y591301D01*
X1108669Y592134D01*
X1110335D01*
X1111168Y591301D01*
X1138490Y592134D02*
X1141823D01*
Y589635D01*
X1140156Y590468D01*
X1139324D01*
X1138490Y589635D01*
Y587968D01*
X1139324Y587136D01*
X1140990D01*
X1141823Y587968D01*
X1133492Y592134D02*
X1136824D01*
Y589635D01*
X1135158Y590468D01*
X1134325D01*
X1133492Y589635D01*
Y587968D01*
X1134325Y587136D01*
X1135991D01*
X1136824Y587968D01*
X1065623Y587136D02*
Y592134D01*
X1068122Y589635D01*
X1064790D01*
X1059791Y592134D02*
X1061458Y591301D01*
X1063124Y589635D01*
Y587968D01*
X1062291Y587136D01*
X1060625D01*
X1059791Y587968D01*
Y588802D01*
X1060625Y589635D01*
X1063124D01*
X1013358Y503258D02*
Y508256D01*
X1015857Y505757D01*
X1012525D01*
X1007527Y503258D02*
X1010859D01*
X1007527Y506590D01*
Y507423D01*
X1008360Y508256D01*
X1010026D01*
X1010859Y507423D01*
X990527D02*
X989694Y508256D01*
X988028D01*
X987195Y507423D01*
Y506590D01*
X988028Y505757D01*
X988861D01*
X988028D01*
X987195Y504924D01*
Y504091D01*
X988028Y503258D01*
X989694D01*
X990527Y504091D01*
X985529D02*
X984696Y503258D01*
X983029D01*
X982196Y504091D01*
Y507423D01*
X983029Y508256D01*
X984696D01*
X985529Y507423D01*
Y506590D01*
X984696Y505757D01*
X982196D01*
X1239450Y592134D02*
X1241116Y591301D01*
X1242782Y589635D01*
Y587968D01*
X1241949Y587136D01*
X1240283D01*
X1239450Y587968D01*
Y588802D01*
X1240283Y589635D01*
X1242782D01*
X1237784Y592134D02*
X1234451D01*
Y591301D01*
X1237784Y587968D01*
Y587136D01*
X1268438Y592134D02*
X1265106D01*
Y591301D01*
X1268438Y587968D01*
Y587136D01*
X1263440Y591301D02*
X1262607Y592134D01*
X1260941D01*
X1260108Y591301D01*
Y587968D01*
X1260941Y587136D01*
X1262607D01*
X1263440Y587968D01*
Y591301D01*
X1294095Y592134D02*
X1290762D01*
Y591301D01*
X1294095Y587968D01*
Y587136D01*
X1289096Y591301D02*
X1288263Y592134D01*
X1286597D01*
X1285764Y591301D01*
Y590468D01*
X1286597Y589635D01*
X1287430D01*
X1286597D01*
X1285764Y588802D01*
Y587968D01*
X1286597Y587136D01*
X1288263D01*
X1289096Y587968D01*
X1213793Y592134D02*
X1215460Y591301D01*
X1217126Y589635D01*
Y587968D01*
X1216292Y587136D01*
X1214626D01*
X1213793Y587968D01*
Y588802D01*
X1214626Y589635D01*
X1217126D01*
X1209628Y587136D02*
Y592134D01*
X1212127Y589635D01*
X1208795D01*
X1189803Y592134D02*
X1191469Y591301D01*
X1193135Y589635D01*
Y587968D01*
X1192302Y587136D01*
X1190636D01*
X1189803Y587968D01*
Y588802D01*
X1190636Y589635D01*
X1193135D01*
X1188137Y587136D02*
X1186471D01*
X1187304D01*
Y592134D01*
X1188137Y591301D01*
X1164147Y592134D02*
X1167479D01*
Y589635D01*
X1165813Y590468D01*
X1164980D01*
X1164147Y589635D01*
Y587968D01*
X1164980Y587136D01*
X1166646D01*
X1167479Y587968D01*
X1162481Y591301D02*
X1161648Y592134D01*
X1159981D01*
X1159148Y591301D01*
Y590468D01*
X1159981Y589635D01*
X1159148Y588802D01*
Y587968D01*
X1159981Y587136D01*
X1161648D01*
X1162481Y587968D01*
Y588802D01*
X1161648Y589635D01*
X1162481Y590468D01*
Y591301D01*
X1161648Y589635D02*
X1159981D01*
X1319751Y592134D02*
X1316419D01*
Y591301D01*
X1319751Y587968D01*
Y587136D01*
X1311420Y592134D02*
X1313087Y591301D01*
X1314753Y589635D01*
Y587968D01*
X1313920Y587136D01*
X1312254D01*
X1311420Y587968D01*
Y588802D01*
X1312254Y589635D01*
X1314753D01*
X1345693Y592134D02*
X1342361D01*
Y591301D01*
X1345693Y587968D01*
Y587136D01*
X1340695Y587968D02*
X1339862Y587136D01*
X1338196D01*
X1337363Y587968D01*
Y591301D01*
X1338196Y592134D01*
X1339862D01*
X1340695Y591301D01*
Y590468D01*
X1339862Y589635D01*
X1337363D01*
X687347Y557739D02*
X690679D01*
X687347Y561071D01*
Y561904D01*
X688180Y562737D01*
X689846D01*
X690679Y561904D01*
X714484Y562299D02*
X717816D01*
Y559800D01*
X716150Y560633D01*
X715317D01*
X714484Y559800D01*
Y558134D01*
X715317Y557301D01*
X716983D01*
X717816Y558134D01*
X742545Y561247D02*
X741712Y562081D01*
X740046D01*
X739213Y561247D01*
Y560414D01*
X740046Y559581D01*
X739213Y558748D01*
Y557915D01*
X740046Y557082D01*
X741712D01*
X742545Y557915D01*
Y558748D01*
X741712Y559581D01*
X742545Y560414D01*
Y561247D01*
X741712Y559581D02*
X740046D01*
X819492Y556887D02*
X817826D01*
X818659D01*
Y561885D01*
X819492Y561052D01*
X815327Y561885D02*
X811995D01*
Y561052D01*
X815327Y557720D01*
Y556887D01*
X794624D02*
X792958D01*
X793791D01*
Y561885D01*
X794624Y561052D01*
X787959Y556887D02*
Y561885D01*
X790458Y559386D01*
X787126D01*
X769799Y556987D02*
X768133D01*
X768966D01*
Y561986D01*
X769799Y561153D01*
X765633Y556987D02*
X763967D01*
X764800D01*
Y561986D01*
X765633Y561153D01*
X949623Y561779D02*
X948790Y562612D01*
X947124D01*
X946291Y561779D01*
Y560946D01*
X947124Y560113D01*
X947957D01*
X947124D01*
X946291Y559280D01*
Y558447D01*
X947124Y557614D01*
X948790D01*
X949623Y558447D01*
X941292Y557614D02*
X944624D01*
X941292Y560946D01*
Y561779D01*
X942125Y562612D01*
X943791D01*
X944624Y561779D01*
X972868Y561052D02*
X972035Y561885D01*
X970369D01*
X969536Y561052D01*
Y560219D01*
X970369Y559386D01*
X971202D01*
X970369D01*
X969536Y558553D01*
Y557720D01*
X970369Y556887D01*
X972035D01*
X972868Y557720D01*
X964537Y561885D02*
X967869D01*
Y559386D01*
X966203Y560219D01*
X965370D01*
X964537Y559386D01*
Y557720D01*
X965370Y556887D01*
X967036D01*
X967869Y557720D01*
X845814Y557322D02*
X849146D01*
X845814Y560654D01*
Y561487D01*
X846647Y562320D01*
X848313D01*
X849146Y561487D01*
X844148D02*
X843315Y562320D01*
X841649D01*
X840816Y561487D01*
Y558155D01*
X841649Y557322D01*
X843315D01*
X844148Y558155D01*
Y561487D01*
X1064506Y503258D02*
Y508256D01*
X1067005Y505757D01*
X1063673D01*
X1062007Y507423D02*
X1061174Y508256D01*
X1059508D01*
X1058674Y507423D01*
Y506590D01*
X1059508Y505757D01*
X1058674Y504924D01*
Y504091D01*
X1059508Y503258D01*
X1061174D01*
X1062007Y504091D01*
Y504924D01*
X1061174Y505757D01*
X1062007Y506590D01*
Y507423D01*
X1061174Y505757D02*
X1059508D01*
X1087420Y508256D02*
X1090752D01*
Y505757D01*
X1089086Y506590D01*
X1088253D01*
X1087420Y505757D01*
Y504091D01*
X1088253Y503258D01*
X1089919D01*
X1090752Y504091D01*
X1085754Y503258D02*
X1084088D01*
X1084921D01*
Y508256D01*
X1085754Y507423D01*
X1113968Y508256D02*
X1117301D01*
Y505757D01*
X1115635Y506590D01*
X1114801D01*
X1113968Y505757D01*
Y504091D01*
X1114801Y503258D01*
X1116468D01*
X1117301Y504091D01*
X1109803Y503258D02*
Y508256D01*
X1112302Y505757D01*
X1108970D01*
X1039297Y503258D02*
Y508256D01*
X1041796Y505757D01*
X1038464D01*
X1033466Y508256D02*
X1036798D01*
Y505757D01*
X1035132Y506590D01*
X1034299D01*
X1033466Y505757D01*
Y504091D01*
X1034299Y503258D01*
X1035965D01*
X1036798Y504091D01*
X1021771Y556887D02*
Y561885D01*
X1024271Y559386D01*
X1020938D01*
X1019272Y556887D02*
X1017606D01*
X1018439D01*
Y561885D01*
X1019272Y561052D01*
X998569D02*
X997736Y561885D01*
X996070D01*
X995237Y561052D01*
Y560219D01*
X996070Y559386D01*
X996903D01*
X996070D01*
X995237Y558553D01*
Y557720D01*
X996070Y556887D01*
X997736D01*
X998569Y557720D01*
X993571Y561052D02*
X992738Y561885D01*
X991072D01*
X990239Y561052D01*
Y560219D01*
X991072Y559386D01*
X990239Y558553D01*
Y557720D01*
X991072Y556887D01*
X992738D01*
X993571Y557720D01*
Y558553D01*
X992738Y559386D01*
X993571Y560219D01*
Y561052D01*
X992738Y559386D02*
X991072D01*
X1215359Y508256D02*
X1217025Y507423D01*
X1218691Y505757D01*
Y504091D01*
X1217858Y503258D01*
X1216192D01*
X1215359Y504091D01*
Y504924D01*
X1216192Y505757D01*
X1218691D01*
X1210360Y508256D02*
X1212026Y507423D01*
X1213692Y505757D01*
Y504091D01*
X1212859Y503258D01*
X1211193D01*
X1210360Y504091D01*
Y504924D01*
X1211193Y505757D01*
X1213692D01*
X1241122Y508256D02*
X1242788Y507423D01*
X1244454Y505757D01*
Y504091D01*
X1243621Y503258D01*
X1241955D01*
X1241122Y504091D01*
Y504924D01*
X1241955Y505757D01*
X1244454D01*
X1239456Y504091D02*
X1238623Y503258D01*
X1236957D01*
X1236124Y504091D01*
Y507423D01*
X1236957Y508256D01*
X1238623D01*
X1239456Y507423D01*
Y506590D01*
X1238623Y505757D01*
X1236124D01*
X1270218Y508256D02*
X1266886D01*
Y507423D01*
X1270218Y504091D01*
Y503258D01*
X1261887D02*
X1265219D01*
X1261887Y506590D01*
Y507423D01*
X1262720Y508256D01*
X1264386D01*
X1265219Y507423D01*
X1189595Y508256D02*
X1191261Y507423D01*
X1192927Y505757D01*
Y504091D01*
X1192094Y503258D01*
X1190428D01*
X1189595Y504091D01*
Y504924D01*
X1190428Y505757D01*
X1192927D01*
X1187929Y507423D02*
X1187096Y508256D01*
X1185430D01*
X1184597Y507423D01*
Y506590D01*
X1185430Y505757D01*
X1186263D01*
X1185430D01*
X1184597Y504924D01*
Y504091D01*
X1185430Y503258D01*
X1187096D01*
X1187929Y504091D01*
X1163832Y508256D02*
X1165498Y507423D01*
X1167164Y505757D01*
Y504091D01*
X1166331Y503258D01*
X1164665D01*
X1163832Y504091D01*
Y504924D01*
X1164665Y505757D01*
X1167164D01*
X1162166Y507423D02*
X1161333Y508256D01*
X1159667D01*
X1158833Y507423D01*
Y504091D01*
X1159667Y503258D01*
X1161333D01*
X1162166Y504091D01*
Y507423D01*
X1139786Y508256D02*
X1143118D01*
Y505757D01*
X1141452Y506590D01*
X1140619D01*
X1139786Y505757D01*
Y504091D01*
X1140619Y503258D01*
X1142285D01*
X1143118Y504091D01*
X1138120Y508256D02*
X1134787D01*
Y507423D01*
X1138120Y504091D01*
Y503258D01*
X1295981Y508256D02*
X1292649D01*
Y507423D01*
X1295981Y504091D01*
Y503258D01*
X1287651Y508256D02*
X1290983D01*
Y505757D01*
X1289317Y506590D01*
X1288484D01*
X1287651Y505757D01*
Y504091D01*
X1288484Y503258D01*
X1290150D01*
X1290983Y504091D01*
X1321745Y507910D02*
X1318412D01*
Y507077D01*
X1321745Y503745D01*
Y502912D01*
X1316746Y507077D02*
X1315913Y507910D01*
X1314247D01*
X1313414Y507077D01*
Y506244D01*
X1314247Y505411D01*
X1313414Y504578D01*
Y503745D01*
X1314247Y502912D01*
X1315913D01*
X1316746Y503745D01*
Y504578D01*
X1315913Y505411D01*
X1316746Y506244D01*
Y507077D01*
X1315913Y505411D02*
X1314247D01*
X1329356Y561885D02*
X1326024D01*
Y561052D01*
X1329356Y557720D01*
Y556887D01*
X1324357Y561885D02*
X1321025D01*
Y561052D01*
X1324357Y557720D01*
Y556887D01*
X1303654Y561885D02*
X1300322D01*
Y561052D01*
X1303654Y557720D01*
Y556887D01*
X1296157D02*
Y561885D01*
X1298656Y559386D01*
X1295324D01*
X1147779Y561885D02*
X1151112D01*
Y559386D01*
X1149446Y560219D01*
X1148613D01*
X1147779Y559386D01*
Y557720D01*
X1148613Y556887D01*
X1150279D01*
X1151112Y557720D01*
X1142781Y561885D02*
X1144447Y561052D01*
X1146113Y559386D01*
Y557720D01*
X1145280Y556887D01*
X1143614D01*
X1142781Y557720D01*
Y558553D01*
X1143614Y559386D01*
X1146113D01*
X1173481Y561885D02*
X1176813D01*
Y559386D01*
X1175147Y560219D01*
X1174314D01*
X1173481Y559386D01*
Y557720D01*
X1174314Y556887D01*
X1175980D01*
X1176813Y557720D01*
X1171815D02*
X1170982Y556887D01*
X1169316D01*
X1168483Y557720D01*
Y561052D01*
X1169316Y561885D01*
X1170982D01*
X1171815Y561052D01*
Y560219D01*
X1170982Y559386D01*
X1168483D01*
X1199182Y561885D02*
X1200849Y561052D01*
X1202515Y559386D01*
Y557720D01*
X1201682Y556887D01*
X1200015D01*
X1199182Y557720D01*
Y558553D01*
X1200015Y559386D01*
X1202515D01*
X1194184Y556887D02*
X1197516D01*
X1194184Y560219D01*
Y561052D01*
X1195017Y561885D01*
X1196683D01*
X1197516Y561052D01*
X1279619Y561885D02*
X1276287D01*
Y561052D01*
X1279619Y557720D01*
Y556887D01*
X1274621D02*
X1272954D01*
X1273788D01*
Y561885D01*
X1274621Y561052D01*
X1250585Y561885D02*
X1252251Y561052D01*
X1253918Y559386D01*
Y557720D01*
X1253084Y556887D01*
X1251418D01*
X1250585Y557720D01*
Y558553D01*
X1251418Y559386D01*
X1253918D01*
X1248919Y561052D02*
X1248086Y561885D01*
X1246420D01*
X1245587Y561052D01*
Y560219D01*
X1246420Y559386D01*
X1245587Y558553D01*
Y557720D01*
X1246420Y556887D01*
X1248086D01*
X1248919Y557720D01*
Y558553D01*
X1248086Y559386D01*
X1248919Y560219D01*
Y561052D01*
X1248086Y559386D02*
X1246420D01*
X1224884Y561885D02*
X1226550Y561052D01*
X1228216Y559386D01*
Y557720D01*
X1227383Y556887D01*
X1225717D01*
X1224884Y557720D01*
Y558553D01*
X1225717Y559386D01*
X1228216D01*
X1219885Y561885D02*
X1223218D01*
Y559386D01*
X1221552Y560219D01*
X1220719D01*
X1219885Y559386D01*
Y557720D01*
X1220719Y556887D01*
X1222385D01*
X1223218Y557720D01*
X990126Y591301D02*
X989293Y592134D01*
X987627D01*
X986794Y591301D01*
Y590468D01*
X987627Y589635D01*
X988460D01*
X987627D01*
X986794Y588802D01*
Y587968D01*
X987627Y587136D01*
X989293D01*
X990126Y587968D01*
X985127Y592134D02*
X981795D01*
Y591301D01*
X985127Y587968D01*
Y587136D01*
X1012402D02*
Y592134D01*
X1014901Y589635D01*
X1011569D01*
X1009903Y591301D02*
X1009070Y592134D01*
X1007403D01*
X1006571Y591301D01*
Y587968D01*
X1007403Y587136D01*
X1009070D01*
X1009903Y587968D01*
Y591301D01*
X1039242Y587136D02*
Y592134D01*
X1041741Y589635D01*
X1038409D01*
X1036743Y591301D02*
X1035910Y592134D01*
X1034243D01*
X1033410Y591301D01*
Y590468D01*
X1034243Y589635D01*
X1035077D01*
X1034243D01*
X1033410Y588802D01*
Y587968D01*
X1034243Y587136D01*
X1035910D01*
X1036743Y587968D01*
X1122078Y561885D02*
X1125410D01*
Y559386D01*
X1123744Y560219D01*
X1122911D01*
X1122078Y559386D01*
Y557720D01*
X1122911Y556887D01*
X1124577D01*
X1125410Y557720D01*
X1120412Y561052D02*
X1119579Y561885D01*
X1117913D01*
X1117080Y561052D01*
Y560219D01*
X1117913Y559386D01*
X1118746D01*
X1117913D01*
X1117080Y558553D01*
Y557720D01*
X1117913Y556887D01*
X1119579D01*
X1120412Y557720D01*
X1098005Y563377D02*
X1101338D01*
Y560877D01*
X1099672Y561710D01*
X1098839D01*
X1098005Y560877D01*
Y559211D01*
X1098839Y558378D01*
X1100505D01*
X1101338Y559211D01*
X1096339Y562543D02*
X1095506Y563377D01*
X1093840D01*
X1093007Y562543D01*
Y559211D01*
X1093840Y558378D01*
X1095506D01*
X1096339Y559211D01*
Y562543D01*
X1071508Y556887D02*
Y561885D01*
X1074007Y559386D01*
X1070675D01*
X1069009Y561885D02*
X1065677D01*
Y561052D01*
X1069009Y557720D01*
Y556887D01*
X836445Y587136D02*
X834779D01*
X835612D01*
Y592134D01*
X836445Y591301D01*
X832280Y587968D02*
X831447Y587136D01*
X829781D01*
X828948Y587968D01*
Y591301D01*
X829781Y592134D01*
X831447D01*
X832280Y591301D01*
Y590468D01*
X831447Y589635D01*
X828948D01*
X861541Y587136D02*
X864873D01*
X861541Y590468D01*
Y591301D01*
X862374Y592134D01*
X864040D01*
X864873Y591301D01*
X856542Y587136D02*
X859874D01*
X856542Y590468D01*
Y591301D01*
X857375Y592134D01*
X859041D01*
X859874Y591301D01*
X885169Y587136D02*
X888501D01*
X885169Y590468D01*
Y591301D01*
X886002Y592134D01*
X887668D01*
X888501Y591301D01*
X880171Y592134D02*
X883503D01*
Y589635D01*
X881837Y590468D01*
X881004D01*
X880171Y589635D01*
Y587968D01*
X881004Y587136D01*
X882670D01*
X883503Y587968D01*
X965580Y591301D02*
X964747Y592134D01*
X963081D01*
X962248Y591301D01*
Y590468D01*
X963081Y589635D01*
X963914D01*
X963081D01*
X962248Y588802D01*
Y587968D01*
X963081Y587136D01*
X964747D01*
X965580Y587968D01*
X958082Y587136D02*
Y592134D01*
X960582Y589635D01*
X957249D01*
X938238Y591301D02*
X937405Y592134D01*
X935739D01*
X934906Y591301D01*
Y590468D01*
X935739Y589635D01*
X936572D01*
X935739D01*
X934906Y588802D01*
Y587968D01*
X935739Y587136D01*
X937405D01*
X938238Y587968D01*
X933240Y587136D02*
X931573D01*
X932406D01*
Y592134D01*
X933240Y591301D01*
X909249Y587136D02*
X912581D01*
X909249Y590468D01*
Y591301D01*
X910082Y592134D01*
X911748D01*
X912581Y591301D01*
X907583D02*
X906750Y592134D01*
X905084D01*
X904251Y591301D01*
Y590468D01*
X905084Y589635D01*
X904251Y588802D01*
Y587968D01*
X905084Y587136D01*
X906750D01*
X907583Y587968D01*
Y588802D01*
X906750Y589635D01*
X907583Y590468D01*
Y591301D01*
X906750Y589635D02*
X905084D01*
X761975Y587136D02*
X760309D01*
X761142D01*
Y592134D01*
X761975Y591301D01*
X757810D02*
X756977Y592134D01*
X755311D01*
X754478Y591301D01*
Y587968D01*
X755311Y587136D01*
X756977D01*
X757810Y587968D01*
Y591301D01*
X786799Y587136D02*
X785133D01*
X785966D01*
Y592134D01*
X786799Y591301D01*
X782634D02*
X781800Y592134D01*
X780134D01*
X779301Y591301D01*
Y590468D01*
X780134Y589635D01*
X780967D01*
X780134D01*
X779301Y588802D01*
Y587968D01*
X780134Y587136D01*
X781800D01*
X782634Y587968D01*
X811622Y587136D02*
X809956D01*
X810789D01*
Y592134D01*
X811622Y591301D01*
X804125Y592134D02*
X805791Y591301D01*
X807457Y589635D01*
Y587968D01*
X806624Y587136D01*
X804958D01*
X804125Y587968D01*
Y588802D01*
X804958Y589635D01*
X807457D01*
X732480Y592134D02*
X729148D01*
Y591301D01*
X732480Y587968D01*
Y587136D01*
X706043D02*
Y592134D01*
X708542Y589635D01*
X705210D01*
X680970Y587136D02*
X679304D01*
X680137D01*
Y592134D01*
X680970Y591301D01*
X1365225Y476431D02*
X1370224D01*
X1368557Y478097D01*
X1370224Y479763D01*
X1365225D01*
X1369391Y484761D02*
X1370224Y483928D01*
Y482262D01*
X1369391Y481429D01*
X1366058D01*
X1365225Y482262D01*
Y483928D01*
X1366058Y484761D01*
X1370224Y486427D02*
X1366058D01*
X1365225Y487261D01*
Y488927D01*
X1366058Y489760D01*
X1370224D01*
X1364392Y491426D02*
Y494758D01*
X1365225Y496424D02*
X1370224D01*
Y498923D01*
X1369391Y499756D01*
X1367724D01*
X1366891Y498923D01*
Y496424D01*
X1370224Y501423D02*
X1365225D01*
X1366891Y503089D01*
X1365225Y504755D01*
X1370224D01*
X1365225Y506421D02*
X1370224D01*
Y508920D01*
X1369391Y509753D01*
X1367724D01*
X1366891Y508920D01*
Y506421D01*
Y508087D02*
X1365225Y509753D01*
X1420974Y486325D02*
X1417642D01*
X1415976Y487991D01*
X1417642Y489657D01*
X1420974D01*
X1414310Y491324D02*
X1419308D01*
Y493823D01*
X1418475Y494656D01*
X1416809D01*
X1415976Y493823D01*
Y491324D01*
Y496322D02*
Y497988D01*
Y497155D01*
X1419308D01*
Y496322D01*
X1415976Y500487D02*
X1419308D01*
Y502986D01*
X1418475Y503819D01*
X1415976D01*
Y505485D02*
Y507985D01*
X1416809Y508818D01*
X1417642Y507985D01*
Y506319D01*
X1418475Y505485D01*
X1419308Y506319D01*
Y508818D01*
X1344902Y493104D02*
X1341569D01*
X1339903Y494770D01*
X1341569Y496436D01*
X1344902D01*
X1343235Y498102D02*
X1339903D01*
X1341569D01*
X1342402Y498935D01*
X1343235Y499768D01*
Y500602D01*
X1339903Y505600D02*
Y503934D01*
X1340736Y503101D01*
X1342402D01*
X1343235Y503934D01*
Y505600D01*
X1342402Y506433D01*
X1341569D01*
Y503101D01*
X1339903Y508932D02*
X1344069D01*
X1342402D01*
Y508099D01*
Y509765D01*
Y508932D01*
X1344069D01*
X1344902Y509765D01*
X1395521Y502333D02*
Y499001D01*
X1393022D01*
X1393855Y500667D01*
Y501500D01*
X1393022Y502333D01*
X1391356D01*
X1390522Y501500D01*
Y499834D01*
X1391356Y499001D01*
X1395521Y503999D02*
X1392189D01*
X1390522Y505666D01*
X1392189Y507332D01*
X1395521D01*
X1445006Y467831D02*
X1440007D01*
Y470330D01*
X1440840Y471163D01*
X1441673D01*
X1442506Y470330D01*
Y467831D01*
Y470330D01*
X1443340Y471163D01*
X1444173D01*
X1445006Y470330D01*
Y467831D01*
Y475328D02*
Y473662D01*
X1444173Y472829D01*
X1440840D01*
X1440007Y473662D01*
Y475328D01*
X1440840Y476161D01*
X1444173D01*
X1445006Y475328D01*
X1440007Y477827D02*
X1443340D01*
X1445006Y479494D01*
X1443340Y481160D01*
X1440007D01*
X1442506D01*
Y477827D01*
X1440007Y482826D02*
X1445006D01*
Y485325D01*
X1444173Y486158D01*
X1442506D01*
X1441673Y485325D01*
Y482826D01*
Y484492D02*
X1440007Y486158D01*
X1445006Y487824D02*
X1440007D01*
Y490323D01*
X1440840Y491156D01*
X1444173D01*
X1445006Y490323D01*
Y487824D01*
X1439174Y492823D02*
Y496155D01*
X1440007Y497821D02*
X1445006D01*
Y500320D01*
X1444173Y501153D01*
X1442506D01*
X1441673Y500320D01*
Y497821D01*
X1445006Y502819D02*
X1440007D01*
X1441673Y504485D01*
X1440007Y506152D01*
X1445006D01*
X1440007Y507818D02*
X1445006D01*
Y510317D01*
X1444173Y511150D01*
X1442506D01*
X1441673Y510317D01*
Y507818D01*
Y509484D02*
X1440007Y511150D01*
X1470898Y497901D02*
X1471731Y497068D01*
Y495401D01*
X1470898Y494568D01*
X1467565D01*
X1466732Y495401D01*
Y497068D01*
X1467565Y497901D01*
X1469232D01*
Y496235D01*
X1466732Y499567D02*
X1471731D01*
X1466732Y502899D01*
X1471731D01*
Y504565D02*
X1466732D01*
Y507064D01*
X1467565Y507897D01*
X1470898D01*
X1471731Y507064D01*
Y504565D01*
X2127865Y536200D02*
X2124532D01*
X2122866Y537866D01*
X2124532Y539532D01*
X2127865D01*
X2121200Y541198D02*
X2126198D01*
Y543698D01*
X2125365Y544531D01*
X2123699D01*
X2122866Y543698D01*
Y541198D01*
Y546197D02*
Y547863D01*
Y547030D01*
X2126198D01*
Y546197D01*
X2122866Y550362D02*
X2126198D01*
Y552861D01*
X2125365Y553694D01*
X2122866D01*
Y555360D02*
Y557860D01*
X2123699Y558693D01*
X2124532Y557860D01*
Y556194D01*
X2125365Y555360D01*
X2126198Y556194D01*
Y558693D01*
X2122033Y560359D02*
Y563691D01*
X2127865Y565357D02*
Y568689D01*
Y567023D01*
X2122866D01*
Y570355D02*
X2127865D01*
Y572855D01*
X2127031Y573688D01*
X2125365D01*
X2124532Y572855D01*
Y570355D01*
Y572022D02*
X2122866Y573688D01*
X2127865Y575354D02*
Y577020D01*
Y576187D01*
X2122866D01*
Y575354D01*
Y577020D01*
Y579519D02*
X2127865D01*
X2126198Y581185D01*
X2127865Y582851D01*
X2122866D01*
Y584518D02*
X2127865D01*
X2126198Y586184D01*
X2127865Y587850D01*
X2122866D01*
X2127865Y592848D02*
Y589516D01*
X2122866D01*
Y592848D01*
X2125365Y589516D02*
Y591182D01*
X2122866Y594514D02*
X2127865D01*
Y597014D01*
X2127031Y597846D01*
X2125365D01*
X2124532Y597014D01*
Y594514D01*
Y596180D02*
X2122866Y597846D01*
X2121966Y83660D02*
X2125299D01*
Y81161D01*
X2123633Y81994D01*
X2122799D01*
X2121966Y81161D01*
Y79495D01*
X2122799Y78662D01*
X2124465D01*
X2125299Y79495D01*
X2120300Y83660D02*
Y80328D01*
X2118634Y78662D01*
X2116968Y80328D01*
Y83660D01*
X2115302Y77829D02*
X2111970D01*
X2110303Y83660D02*
X2106971D01*
X2108637D01*
Y78662D01*
X2105305D02*
Y83660D01*
X2102806D01*
X2101973Y82828D01*
Y81161D01*
X2102806Y80328D01*
X2105305D01*
X2103639D02*
X2101973Y78662D01*
X2100307Y83660D02*
X2098641D01*
X2099474D01*
Y78662D01*
X2100307D01*
X2098641D01*
X2096141D02*
Y83660D01*
X2094475Y81994D01*
X2092809Y83660D01*
Y78662D01*
X2091143D02*
Y83660D01*
X2089477Y81994D01*
X2087811Y83660D01*
Y78662D01*
X2082812Y83660D02*
X2086145D01*
Y78662D01*
X2082812D01*
X2086145Y81161D02*
X2084479D01*
X2081146Y78662D02*
Y83660D01*
X2078647D01*
X2077814Y82828D01*
Y81161D01*
X2078647Y80328D01*
X2081146D01*
X2079480D02*
X2077814Y78662D01*
X864097Y86094D02*
X869095D01*
X864097Y89426D01*
X869095D01*
X864097Y91092D02*
Y92758D01*
Y91925D01*
X869095D01*
X868262Y91092D01*
X863263Y95257D02*
Y98590D01*
X868262Y103588D02*
X869095Y102755D01*
Y101089D01*
X868262Y100256D01*
X867429D01*
X866596Y101089D01*
Y102755D01*
X865763Y103588D01*
X864930D01*
X864097Y102755D01*
Y101089D01*
X864930Y100256D01*
X864097Y105254D02*
X869095D01*
Y107753D01*
X868262Y108586D01*
X866596D01*
X865763Y107753D01*
Y105254D01*
Y106920D02*
X864097Y108586D01*
X868262Y113585D02*
X869095Y112752D01*
Y111086D01*
X868262Y110252D01*
X864930D01*
X864097Y111086D01*
Y112752D01*
X864930Y113585D01*
X869095Y115251D02*
X864097D01*
Y118583D01*
Y120249D02*
X869095D01*
Y122748D01*
X868262Y123581D01*
X866596D01*
X865763Y122748D01*
Y120249D01*
Y121915D02*
X864097Y123581D01*
X884097Y86094D02*
X889095D01*
X884097Y89426D01*
X889095D01*
X884097Y91092D02*
Y92758D01*
Y91925D01*
X889095D01*
X888262Y91092D01*
X883263Y95257D02*
Y98590D01*
X888262Y103588D02*
X889095Y102755D01*
Y101089D01*
X888262Y100256D01*
X887429D01*
X886596Y101089D01*
Y102755D01*
X885763Y103588D01*
X884930D01*
X884097Y102755D01*
Y101089D01*
X884930Y100256D01*
X884097Y105254D02*
X889095D01*
Y107753D01*
X888262Y108586D01*
X886596D01*
X885763Y107753D01*
Y105254D01*
Y106920D02*
X884097Y108586D01*
X888262Y113585D02*
X889095Y112752D01*
Y111086D01*
X888262Y110252D01*
X884930D01*
X884097Y111086D01*
Y112752D01*
X884930Y113585D01*
X889095Y115251D02*
X884097D01*
Y118583D01*
X889095Y120249D02*
X884097D01*
X885763D01*
X889095Y123581D01*
X886596Y121082D01*
X884097Y123581D01*
X904097Y86094D02*
X909095D01*
X904097Y89426D01*
X909095D01*
X904097Y91092D02*
Y92758D01*
Y91925D01*
X909095D01*
X908262Y91092D01*
X903263Y95257D02*
Y98590D01*
X904097Y100256D02*
X909095D01*
Y102755D01*
X908262Y103588D01*
X906596D01*
X905763Y102755D01*
Y100256D01*
Y101922D02*
X904097Y103588D01*
X908262Y108586D02*
X909095Y107753D01*
Y106087D01*
X908262Y105254D01*
X904930D01*
X904097Y106087D01*
Y107753D01*
X904930Y108586D01*
X909095Y110252D02*
X904097D01*
Y113585D01*
X909095Y115251D02*
X904097D01*
X905763D01*
X909095Y118583D01*
X906596Y116084D01*
X904097Y118583D01*
X924097Y86094D02*
X929095D01*
X924097Y89426D01*
X929095D01*
X924097Y91092D02*
Y92758D01*
Y91925D01*
X929095D01*
X928262Y91092D01*
X923264Y95257D02*
Y98590D01*
X928262Y103588D02*
X929095Y102755D01*
Y101089D01*
X928262Y100256D01*
X927429D01*
X926596Y101089D01*
Y102755D01*
X925763Y103588D01*
X924930D01*
X924097Y102755D01*
Y101089D01*
X924930Y100256D01*
X929095Y108586D02*
Y105254D01*
X924097D01*
Y108586D01*
X926596Y105254D02*
Y106920D01*
X924097Y110252D02*
X929095D01*
Y112752D01*
X928262Y113585D01*
X926596D01*
X925763Y112752D01*
Y110252D01*
Y111918D02*
X924097Y113585D01*
X944097Y86094D02*
X949095D01*
X944097Y89426D01*
X949095D01*
X944097Y91092D02*
Y92758D01*
Y91925D01*
X949095D01*
X948262Y91092D01*
X943263Y95257D02*
Y98590D01*
X944097Y100256D02*
X947429D01*
Y102755D01*
X946596Y103588D01*
X944097D01*
X949095Y107753D02*
Y106087D01*
X948262Y105254D01*
X944930D01*
X944097Y106087D01*
Y107753D01*
X944930Y108586D01*
X948262D01*
X949095Y107753D01*
Y113585D02*
Y110252D01*
X944097D01*
Y113585D01*
X946596Y110252D02*
Y111918D01*
X964097Y86094D02*
X969095D01*
X967429Y87760D01*
X969095Y89426D01*
X964097D01*
X969095Y91092D02*
X964930D01*
X964097Y91925D01*
Y93591D01*
X964930Y94424D01*
X969095D01*
Y96090D02*
X964097Y99423D01*
X969095D02*
X964097Y96090D01*
Y101089D02*
Y102755D01*
Y101922D01*
X969095D01*
X968262Y101089D01*
X963263Y105254D02*
Y108586D01*
X964097Y110252D02*
X967429D01*
X969095Y111918D01*
X967429Y113585D01*
X964097D01*
X966596D01*
Y110252D01*
X964097Y118583D02*
Y115251D01*
X967429Y118583D01*
X968262D01*
X969095Y117750D01*
Y116084D01*
X968262Y115251D01*
X984097Y86094D02*
X989095D01*
X987429Y87760D01*
X989095Y89426D01*
X984097D01*
X989095Y91092D02*
X984930D01*
X984097Y91925D01*
Y93591D01*
X984930Y94424D01*
X989095D01*
Y96090D02*
X984097Y99423D01*
X989095D02*
X984097Y96090D01*
X983264Y101089D02*
Y104421D01*
X984097Y106087D02*
X987429D01*
X989095Y107753D01*
X987429Y109419D01*
X984097D01*
X986596D01*
Y106087D01*
X984097Y111086D02*
Y112752D01*
Y111919D01*
X989095D01*
X988262Y111086D01*
X1004097Y86094D02*
X1009095D01*
X1007429Y87760D01*
X1009095Y89426D01*
X1004097D01*
X1009095Y91092D02*
X1004930D01*
X1004097Y91925D01*
Y93591D01*
X1004930Y94424D01*
X1009095D01*
Y96090D02*
X1004097Y99423D01*
X1009095D02*
X1004097Y96090D01*
Y101089D02*
Y102755D01*
Y101922D01*
X1009095D01*
X1008262Y101089D01*
X1003264Y105254D02*
Y108586D01*
X1004097Y110252D02*
X1007429D01*
Y112752D01*
X1006596Y113585D01*
X1004097D01*
X1009095Y118583D02*
Y115251D01*
X1004097D01*
Y118583D01*
X1006596Y115251D02*
Y116917D01*
X1004097Y120249D02*
X1009095D01*
X1004097Y123581D01*
X1009095D01*
X1024097Y86094D02*
X1029095D01*
X1027429Y87760D01*
X1029095Y89426D01*
X1024097D01*
X1029095Y91092D02*
X1024930D01*
X1024097Y91925D01*
Y93591D01*
X1024930Y94424D01*
X1029095D01*
Y96090D02*
X1024097Y99423D01*
X1029095D02*
X1024097Y96090D01*
Y101089D02*
Y102755D01*
Y101922D01*
X1029095D01*
X1028262Y101089D01*
X1023264Y105254D02*
Y108586D01*
X1024097Y110252D02*
X1027429D01*
X1029095Y111918D01*
X1027429Y113585D01*
X1024097D01*
X1026596D01*
Y110252D01*
X1028262Y115251D02*
X1029095Y116084D01*
Y117750D01*
X1028262Y118583D01*
X1024930D01*
X1024097Y117750D01*
Y116084D01*
X1024930Y115251D01*
X1028262D01*
X1048262Y86094D02*
X1043264D01*
Y88593D01*
X1044097Y89426D01*
X1047429D01*
X1048262Y88593D01*
Y86094D01*
X1043264Y91092D02*
Y92758D01*
Y91925D01*
X1048262D01*
X1047429Y91092D01*
X1068262Y86094D02*
X1063264D01*
Y88593D01*
X1064097Y89426D01*
X1067429D01*
X1068262Y88593D01*
Y86094D01*
X1063264Y94424D02*
Y91092D01*
X1066596Y94424D01*
X1067429D01*
X1068262Y93591D01*
Y91925D01*
X1067429Y91092D01*
X1088262Y86094D02*
X1083264D01*
Y88593D01*
X1084097Y89426D01*
X1087429D01*
X1088262Y88593D01*
Y86094D01*
X1087429Y91092D02*
X1088262Y91925D01*
Y93591D01*
X1087429Y94424D01*
X1086596D01*
X1085763Y93591D01*
Y92758D01*
Y93591D01*
X1084930Y94424D01*
X1084097D01*
X1083264Y93591D01*
Y91925D01*
X1084097Y91092D01*
X1108262Y86094D02*
X1103264D01*
Y88593D01*
X1104097Y89426D01*
X1107429D01*
X1108262Y88593D01*
Y86094D01*
X1103264Y93591D02*
X1108262D01*
X1105763Y91092D01*
Y94424D01*
X1128262Y86094D02*
X1123264D01*
Y88593D01*
X1124097Y89426D01*
X1127429D01*
X1128262Y88593D01*
Y86094D01*
Y94424D02*
Y91092D01*
X1125763D01*
X1126596Y92758D01*
Y93591D01*
X1125763Y94424D01*
X1124097D01*
X1123264Y93591D01*
Y91925D01*
X1124097Y91092D01*
X1144097Y86094D02*
X1149095D01*
Y88593D01*
X1148262Y89426D01*
X1146596D01*
X1145763Y88593D01*
Y86094D01*
X1144097Y94424D02*
Y91092D01*
X1147429Y94424D01*
X1148262D01*
X1149095Y93591D01*
Y91925D01*
X1148262Y91092D01*
X1143264Y96090D02*
Y99423D01*
X1148262Y104421D02*
X1149095Y103588D01*
Y101922D01*
X1148262Y101089D01*
X1147429D01*
X1146596Y101922D01*
Y103588D01*
X1145763Y104421D01*
X1144930D01*
X1144097Y103588D01*
Y101922D01*
X1144930Y101089D01*
X1144097Y106087D02*
X1149095D01*
Y108586D01*
X1148262Y109419D01*
X1146596D01*
X1145763Y108586D01*
Y106087D01*
Y107753D02*
X1144097Y109419D01*
X1148262Y114418D02*
X1149095Y113585D01*
Y111919D01*
X1148262Y111086D01*
X1144930D01*
X1144097Y111919D01*
Y113585D01*
X1144930Y114418D01*
X1149095Y116084D02*
X1144097D01*
Y119416D01*
Y121082D02*
X1149095D01*
Y123581D01*
X1148262Y124415D01*
X1146596D01*
X1145763Y123581D01*
Y121082D01*
Y122748D02*
X1144097Y124415D01*
X1164097Y86094D02*
X1169095D01*
Y88593D01*
X1168262Y89426D01*
X1166596D01*
X1165763Y88593D01*
Y86094D01*
X1164097Y94424D02*
Y91092D01*
X1167429Y94424D01*
X1168262D01*
X1169095Y93591D01*
Y91925D01*
X1168262Y91092D01*
X1163264Y96090D02*
Y99423D01*
X1168262Y104421D02*
X1169095Y103588D01*
Y101922D01*
X1168262Y101089D01*
X1167429D01*
X1166596Y101922D01*
Y103588D01*
X1165763Y104421D01*
X1164930D01*
X1164097Y103588D01*
Y101922D01*
X1164930Y101089D01*
X1164097Y106087D02*
X1169095D01*
Y108586D01*
X1168262Y109419D01*
X1166596D01*
X1165763Y108586D01*
Y106087D01*
Y107753D02*
X1164097Y109419D01*
X1168262Y114418D02*
X1169095Y113585D01*
Y111918D01*
X1168262Y111086D01*
X1164930D01*
X1164097Y111918D01*
Y113585D01*
X1164930Y114418D01*
X1169095Y116084D02*
X1164097D01*
Y119416D01*
X1169095Y121082D02*
X1164097D01*
X1165763D01*
X1169095Y124415D01*
X1166596Y121915D01*
X1164097Y124415D01*
X1184097Y86094D02*
X1189095D01*
Y88593D01*
X1188262Y89426D01*
X1186596D01*
X1185763Y88593D01*
Y86094D01*
X1184097Y94424D02*
Y91092D01*
X1187429Y94424D01*
X1188262D01*
X1189095Y93591D01*
Y91925D01*
X1188262Y91092D01*
X1183263Y96090D02*
Y99423D01*
X1184097Y101089D02*
X1189095D01*
Y103588D01*
X1188262Y104421D01*
X1186596D01*
X1185763Y103588D01*
Y101089D01*
Y102755D02*
X1184097Y104421D01*
X1188262Y109419D02*
X1189095Y108586D01*
Y106920D01*
X1188262Y106087D01*
X1184930D01*
X1184097Y106920D01*
Y108586D01*
X1184930Y109419D01*
X1189095Y111086D02*
X1184097D01*
Y114418D01*
X1189095Y116084D02*
X1184097D01*
X1185763D01*
X1189095Y119416D01*
X1186596Y116917D01*
X1184097Y119416D01*
X1204097Y86094D02*
X1209095D01*
Y88593D01*
X1208262Y89426D01*
X1206596D01*
X1205763Y88593D01*
Y86094D01*
X1204097Y94424D02*
Y91092D01*
X1207429Y94424D01*
X1208262D01*
X1209095Y93591D01*
Y91925D01*
X1208262Y91092D01*
X1203264Y96090D02*
Y99423D01*
X1204097Y101089D02*
X1207429D01*
Y103588D01*
X1206596Y104421D01*
X1204097D01*
X1209095Y108586D02*
Y106920D01*
X1208262Y106087D01*
X1204930D01*
X1204097Y106920D01*
Y108586D01*
X1204930Y109419D01*
X1208262D01*
X1209095Y108586D01*
Y114418D02*
Y111086D01*
X1204097D01*
Y114418D01*
X1206596Y111086D02*
Y112752D01*
X1224097Y86094D02*
X1229095D01*
Y88593D01*
X1228262Y89426D01*
X1226596D01*
X1225763Y88593D01*
Y86094D01*
X1224097Y94424D02*
Y91092D01*
X1227429Y94424D01*
X1228262D01*
X1229095Y93591D01*
Y91925D01*
X1228262Y91092D01*
X1223263Y96090D02*
Y99423D01*
X1228262Y104421D02*
X1229095Y103588D01*
Y101922D01*
X1228262Y101089D01*
X1227429D01*
X1226596Y101922D01*
Y103588D01*
X1225763Y104421D01*
X1224930D01*
X1224097Y103588D01*
Y101922D01*
X1224930Y101089D01*
X1229095Y109419D02*
Y106087D01*
X1224097D01*
Y109419D01*
X1226596Y106087D02*
Y107753D01*
X1224097Y111086D02*
X1229095D01*
Y113585D01*
X1228262Y114418D01*
X1226596D01*
X1225763Y113585D01*
Y111086D01*
Y112752D02*
X1224097Y114418D01*
X1244097Y86094D02*
X1249095D01*
X1244097Y89426D01*
X1249095D01*
X1244097Y94424D02*
Y91092D01*
X1247429Y94424D01*
X1248262D01*
X1249095Y93591D01*
Y91925D01*
X1248262Y91092D01*
X1243264Y96090D02*
Y99423D01*
X1248262Y104421D02*
X1249095Y103588D01*
Y101922D01*
X1248262Y101089D01*
X1247429D01*
X1246596Y101922D01*
Y103588D01*
X1245763Y104421D01*
X1244930D01*
X1244097Y103588D01*
Y101922D01*
X1244930Y101089D01*
X1244097Y106087D02*
X1249095D01*
Y108586D01*
X1248262Y109419D01*
X1246596D01*
X1245763Y108586D01*
Y106087D01*
Y107753D02*
X1244097Y109419D01*
X1248262Y114418D02*
X1249095Y113585D01*
Y111918D01*
X1248262Y111086D01*
X1244930D01*
X1244097Y111918D01*
Y113585D01*
X1244930Y114418D01*
X1249095Y116084D02*
X1244097D01*
Y119416D01*
Y121082D02*
X1249095D01*
Y123581D01*
X1248262Y124415D01*
X1246596D01*
X1245763Y123581D01*
Y121082D01*
Y122748D02*
X1244097Y124415D01*
X1264097Y86094D02*
X1269095D01*
X1264097Y89426D01*
X1269095D01*
X1264097Y94424D02*
Y91092D01*
X1267429Y94424D01*
X1268262D01*
X1269095Y93591D01*
Y91925D01*
X1268262Y91092D01*
X1263264Y96090D02*
Y99423D01*
X1268262Y104421D02*
X1269095Y103588D01*
Y101922D01*
X1268262Y101089D01*
X1267429D01*
X1266596Y101922D01*
Y103588D01*
X1265763Y104421D01*
X1264930D01*
X1264097Y103588D01*
Y101922D01*
X1264930Y101089D01*
X1264097Y106087D02*
X1269095D01*
Y108586D01*
X1268262Y109419D01*
X1266596D01*
X1265763Y108586D01*
Y106087D01*
Y107753D02*
X1264097Y109419D01*
X1268262Y114418D02*
X1269095Y113585D01*
Y111919D01*
X1268262Y111086D01*
X1264930D01*
X1264097Y111919D01*
Y113585D01*
X1264930Y114418D01*
X1269095Y116084D02*
X1264097D01*
Y119416D01*
X1269095Y121082D02*
X1264097D01*
X1265763D01*
X1269095Y124415D01*
X1266596Y121915D01*
X1264097Y124415D01*
X1284097Y86094D02*
X1289095D01*
X1284097Y89426D01*
X1289095D01*
X1284097Y94424D02*
Y91092D01*
X1287429Y94424D01*
X1288262D01*
X1289095Y93591D01*
Y91925D01*
X1288262Y91092D01*
X1283264Y96090D02*
Y99423D01*
X1284097Y101089D02*
X1289095D01*
Y103588D01*
X1288262Y104421D01*
X1286596D01*
X1285763Y103588D01*
Y101089D01*
Y102755D02*
X1284097Y104421D01*
X1288262Y109419D02*
X1289095Y108586D01*
Y106920D01*
X1288262Y106087D01*
X1284930D01*
X1284097Y106920D01*
Y108586D01*
X1284930Y109419D01*
X1289095Y111086D02*
X1284097D01*
Y114418D01*
X1289095Y116084D02*
X1284097D01*
X1285763D01*
X1289095Y119416D01*
X1286596Y116917D01*
X1284097Y119416D01*
X1304097Y86094D02*
X1309095D01*
X1304097Y89426D01*
X1309095D01*
X1304097Y94424D02*
Y91092D01*
X1307429Y94424D01*
X1308262D01*
X1309095Y93591D01*
Y91925D01*
X1308262Y91092D01*
X1303264Y96090D02*
Y99423D01*
X1304097Y101089D02*
X1307429D01*
Y103588D01*
X1306596Y104421D01*
X1304097D01*
X1309095Y108586D02*
Y106920D01*
X1308262Y106087D01*
X1304930D01*
X1304097Y106920D01*
Y108586D01*
X1304930Y109419D01*
X1308262D01*
X1309095Y108586D01*
Y114418D02*
Y111086D01*
X1304097D01*
Y114418D01*
X1306596Y111086D02*
Y112752D01*
X1324097Y86094D02*
X1329095D01*
X1324097Y89426D01*
X1329095D01*
X1324097Y94424D02*
Y91092D01*
X1327429Y94424D01*
X1328262D01*
X1329095Y93591D01*
Y91925D01*
X1328262Y91092D01*
X1323264Y96090D02*
Y99423D01*
X1328262Y104421D02*
X1329095Y103588D01*
Y101922D01*
X1328262Y101089D01*
X1327429D01*
X1326596Y101922D01*
Y103588D01*
X1325763Y104421D01*
X1324930D01*
X1324097Y103588D01*
Y101922D01*
X1324930Y101089D01*
X1329095Y109419D02*
Y106087D01*
X1324097D01*
Y109419D01*
X1326596Y106087D02*
Y107753D01*
X1324097Y111086D02*
X1329095D01*
Y113585D01*
X1328262Y114418D01*
X1326596D01*
X1325763Y113585D01*
Y111086D01*
Y112752D02*
X1324097Y114418D01*
X1348262Y86094D02*
X1343264D01*
Y88593D01*
X1344097Y89426D01*
X1347429D01*
X1348262Y88593D01*
Y86094D01*
Y94424D02*
X1347429Y92758D01*
X1345763Y91092D01*
X1344097D01*
X1343264Y91925D01*
Y93591D01*
X1344097Y94424D01*
X1344930D01*
X1345763Y93591D01*
Y91092D01*
X862390Y11298D02*
X867388D01*
Y13797D01*
X866555Y14630D01*
X864889D01*
X864056Y13797D01*
Y11298D01*
X862390Y16296D02*
Y17963D01*
Y17130D01*
X867388D01*
X866555Y16296D01*
X861556Y20462D02*
Y23794D01*
X866555Y28793D02*
X867388Y27959D01*
Y26293D01*
X866555Y25460D01*
X865722D01*
X864889Y26293D01*
Y27959D01*
X864056Y28793D01*
X863223D01*
X862390Y27959D01*
Y26293D01*
X863223Y25460D01*
X867388Y33791D02*
Y30459D01*
X862390D01*
Y33791D01*
X864889Y30459D02*
Y32125D01*
X862390Y35457D02*
X867388D01*
Y37956D01*
X866555Y38789D01*
X864889D01*
X864056Y37956D01*
Y35457D01*
Y37123D02*
X862390Y38789D01*
X882881Y12223D02*
X887879D01*
Y14722D01*
X887046Y15555D01*
X885380D01*
X884547Y14722D01*
Y12223D01*
X882881Y17221D02*
Y18887D01*
Y18054D01*
X887879D01*
X887046Y17221D01*
X882048Y21386D02*
Y24719D01*
X882881Y26385D02*
X886213D01*
Y28884D01*
X885380Y29717D01*
X882881D01*
X887879Y33882D02*
Y32216D01*
X887046Y31383D01*
X883714D01*
X882881Y32216D01*
Y33882D01*
X883714Y34715D01*
X887046D01*
X887879Y33882D01*
Y39714D02*
Y36381D01*
X882881D01*
Y39714D01*
X885380Y36381D02*
Y38047D01*
X903218Y6368D02*
X908216D01*
Y8867D01*
X907383Y9700D01*
X905717D01*
X904884Y8867D01*
Y6368D01*
X903218Y11366D02*
Y13032D01*
Y12199D01*
X908216D01*
X907383Y11366D01*
X902385Y15532D02*
Y18864D01*
X903218Y20530D02*
X908216D01*
Y23029D01*
X907383Y23862D01*
X905717D01*
X904884Y23029D01*
Y20530D01*
Y22196D02*
X903218Y23862D01*
X907383Y28861D02*
X908216Y28028D01*
Y26361D01*
X907383Y25528D01*
X904051D01*
X903218Y26361D01*
Y28028D01*
X904051Y28861D01*
X908216Y30527D02*
X903218D01*
Y33859D01*
X908216Y35525D02*
X903218D01*
X904884D01*
X908216Y38857D01*
X905717Y36358D01*
X903218Y38857D01*
X922631Y1746D02*
X927629D01*
Y4245D01*
X926796Y5078D01*
X925130D01*
X924297Y4245D01*
Y1746D01*
X922631Y6744D02*
Y8410D01*
Y7577D01*
X927629D01*
X926796Y6744D01*
X921798Y10910D02*
Y14242D01*
X926796Y19240D02*
X927629Y18407D01*
Y16741D01*
X926796Y15908D01*
X925963D01*
X925130Y16741D01*
Y18407D01*
X924297Y19240D01*
X923464D01*
X922631Y18407D01*
Y16741D01*
X923464Y15908D01*
X922631Y20906D02*
X927629D01*
Y23405D01*
X926796Y24239D01*
X925130D01*
X924297Y23405D01*
Y20906D01*
Y22572D02*
X922631Y24239D01*
X926796Y29237D02*
X927629Y28404D01*
Y26738D01*
X926796Y25905D01*
X923464D01*
X922631Y26738D01*
Y28404D01*
X923464Y29237D01*
X927629Y30903D02*
X922631D01*
Y34235D01*
X927629Y35901D02*
X922631D01*
X924297D01*
X927629Y39234D01*
X925130Y36734D01*
X922631Y39234D01*
X942688Y2888D02*
X947686D01*
Y5387D01*
X946853Y6220D01*
X945187D01*
X944354Y5387D01*
Y2888D01*
X942688Y7887D02*
Y9553D01*
Y8720D01*
X947686D01*
X946853Y7887D01*
X941854Y12052D02*
Y15384D01*
X946853Y20382D02*
X947686Y19549D01*
Y17883D01*
X946853Y17050D01*
X946020D01*
X945187Y17883D01*
Y19549D01*
X944354Y20382D01*
X943521D01*
X942688Y19549D01*
Y17883D01*
X943521Y17050D01*
X942688Y22049D02*
X947686D01*
Y24548D01*
X946853Y25381D01*
X945187D01*
X944354Y24548D01*
Y22049D01*
Y23715D02*
X942688Y25381D01*
X946853Y30379D02*
X947686Y29546D01*
Y27880D01*
X946853Y27047D01*
X943521D01*
X942688Y27880D01*
Y29546D01*
X943521Y30379D01*
X947686Y32045D02*
X942688D01*
Y35378D01*
Y37044D02*
X947686D01*
Y39543D01*
X946853Y40376D01*
X945187D01*
X944354Y39543D01*
Y37044D01*
Y38710D02*
X942688Y40376D01*
X1000468Y30365D02*
X1001301Y31198D01*
X1002967D01*
X1003800Y30365D01*
Y27033D01*
X1002967Y26200D01*
X1001301D01*
X1000468Y27033D01*
Y28699D01*
X1002134D01*
X998802Y26200D02*
Y31198D01*
X995469Y26200D01*
Y31198D01*
X993803D02*
Y26200D01*
X991304D01*
X990471Y27033D01*
Y30365D01*
X991304Y31198D01*
X993803D01*
X1046198Y21200D02*
X1042866D01*
X1041200Y22866D01*
X1042866Y24532D01*
X1046198D01*
X1044532Y26198D02*
X1041200D01*
X1042866D01*
X1043699Y27031D01*
X1044532Y27864D01*
Y28698D01*
X1041200Y33696D02*
Y32030D01*
X1042033Y31197D01*
X1043699D01*
X1044532Y32030D01*
Y33696D01*
X1043699Y34529D01*
X1042866D01*
Y31197D01*
X1041200Y37028D02*
X1045365D01*
X1043699D01*
Y36195D01*
Y37861D01*
Y37028D01*
X1045365D01*
X1046198Y37861D01*
X1067865Y16200D02*
X1064532D01*
X1062866Y17866D01*
X1064532Y19532D01*
X1067865D01*
X1061200Y21198D02*
X1066198D01*
Y23698D01*
X1065365Y24531D01*
X1063699D01*
X1062866Y23698D01*
Y21198D01*
Y26197D02*
Y27863D01*
Y27030D01*
X1066198D01*
Y26197D01*
X1062866Y30362D02*
X1066198D01*
Y32861D01*
X1065365Y33694D01*
X1062866D01*
Y35360D02*
Y37860D01*
X1063699Y38693D01*
X1064532Y37860D01*
Y36193D01*
X1065365Y35360D01*
X1066198Y36193D01*
Y38693D01*
X1082033Y6200D02*
X1087031D01*
X1085365Y7866D01*
X1087031Y9532D01*
X1082033D01*
X1086198Y14531D02*
X1087031Y13698D01*
Y12031D01*
X1086198Y11198D01*
X1082866D01*
X1082033Y12031D01*
Y13698D01*
X1082866Y14531D01*
X1087031Y16197D02*
X1082866D01*
X1082033Y17030D01*
Y18696D01*
X1082866Y19529D01*
X1087031D01*
X1081200Y21195D02*
Y24527D01*
X1082033Y26193D02*
X1087031D01*
Y28693D01*
X1086198Y29526D01*
X1084532D01*
X1083699Y28693D01*
Y26193D01*
X1087031Y31192D02*
X1082033D01*
X1083699Y32858D01*
X1082033Y34524D01*
X1087031D01*
X1082033Y36190D02*
X1087031D01*
Y38689D01*
X1086198Y39522D01*
X1084532D01*
X1083699Y38689D01*
Y36190D01*
Y37856D02*
X1082033Y39522D01*
X1133800Y21198D02*
X1130468D01*
Y20365D01*
X1133800Y17033D01*
Y16200D01*
X1128802Y18699D02*
X1125469D01*
X1123803Y16200D02*
X1122137D01*
X1122970D01*
Y21198D01*
X1123803Y20365D01*
X1116306Y21198D02*
X1119638D01*
Y18699D01*
X1117972Y19532D01*
X1117139D01*
X1116306Y18699D01*
Y17033D01*
X1117139Y16200D01*
X1118805D01*
X1119638Y17033D01*
X1114640Y21198D02*
Y17866D01*
X1112973Y16200D01*
X1111307Y17866D01*
Y21198D01*
X1143800Y32031D02*
Y27033D01*
X1141301D01*
X1140468Y27866D01*
Y28699D01*
X1141301Y29532D01*
X1143800D01*
X1141301D01*
X1140468Y30365D01*
Y31198D01*
X1141301Y32031D01*
X1143800D01*
X1136302D02*
X1137969D01*
X1138802Y31198D01*
Y27866D01*
X1137969Y27033D01*
X1136302D01*
X1135469Y27866D01*
Y31198D01*
X1136302Y32031D01*
X1133803Y27033D02*
Y30365D01*
X1132137Y32031D01*
X1130471Y30365D01*
Y27033D01*
Y29532D01*
X1133803D01*
X1128805Y27033D02*
Y32031D01*
X1126306D01*
X1125473Y31198D01*
Y29532D01*
X1126306Y28699D01*
X1128805D01*
X1127139D02*
X1125473Y27033D01*
X1123807Y32031D02*
Y27033D01*
X1121307D01*
X1120474Y27866D01*
Y31198D01*
X1121307Y32031D01*
X1123807D01*
X1118808Y26200D02*
X1115476D01*
X1113810Y27033D02*
Y32031D01*
X1111311D01*
X1110478Y31198D01*
Y29532D01*
X1111311Y28699D01*
X1113810D01*
X1108811Y32031D02*
Y27033D01*
X1107145Y28699D01*
X1105479Y27033D01*
Y32031D01*
X1103813Y27033D02*
Y32031D01*
X1101314D01*
X1100481Y31198D01*
Y29532D01*
X1101314Y28699D01*
X1103813D01*
X1102147D02*
X1100481Y27033D01*
X1167334Y3237D02*
X1164002D01*
X1162335Y4903D01*
X1164002Y6569D01*
X1167334D01*
X1160669Y8235D02*
X1165668D01*
Y10734D01*
X1164835Y11567D01*
X1163168D01*
X1162335Y10734D01*
Y8235D01*
Y13233D02*
Y14899D01*
Y14066D01*
X1165668D01*
Y13233D01*
X1162335Y17399D02*
X1165668D01*
Y19898D01*
X1164835Y20731D01*
X1162335D01*
Y22397D02*
Y24896D01*
X1163168Y25729D01*
X1164002Y24896D01*
Y23230D01*
X1164835Y22397D01*
X1165668Y23230D01*
Y25729D01*
X1161502Y27395D02*
Y30728D01*
X1162335Y34893D02*
Y33227D01*
X1163168Y32394D01*
X1164835D01*
X1165668Y33227D01*
Y34893D01*
X1164835Y35726D01*
X1164002D01*
Y32394D01*
X1162335Y37392D02*
X1165668D01*
Y39891D01*
X1164835Y40724D01*
X1162335D01*
X1187031Y9532D02*
Y6200D01*
X1184532D01*
X1185365Y7866D01*
Y8699D01*
X1184532Y9532D01*
X1182866D01*
X1182033Y8699D01*
Y7033D01*
X1182866Y6200D01*
X1187031Y11198D02*
X1183699D01*
X1182033Y12865D01*
X1183699Y14531D01*
X1187031D01*
X1181200Y16197D02*
Y19529D01*
X1187031Y24527D02*
Y21195D01*
X1182033D01*
Y24527D01*
X1184532Y21195D02*
Y22861D01*
X1181200Y26193D02*
Y29526D01*
X1182033Y33691D02*
Y32025D01*
X1182866Y31192D01*
X1184532D01*
X1185365Y32025D01*
Y33691D01*
X1184532Y34524D01*
X1183699D01*
Y31192D01*
X1182033Y36190D02*
X1185365D01*
Y38689D01*
X1184532Y39522D01*
X1182033D01*
X1204072Y8558D02*
X1209071D01*
X1207405Y10224D01*
X1209071Y11890D01*
X1204072D01*
X1209071Y13556D02*
X1204905D01*
X1204072Y14389D01*
Y16055D01*
X1204905Y16889D01*
X1209071D01*
Y18555D02*
X1204072Y21887D01*
X1209071D02*
X1204072Y18555D01*
Y26885D02*
Y23553D01*
X1207405Y26885D01*
X1208238D01*
X1209071Y26052D01*
Y24386D01*
X1208238Y23553D01*
X1203239Y28551D02*
Y31884D01*
X1204072Y33550D02*
X1207405D01*
X1209071Y35216D01*
X1207405Y36882D01*
X1204072D01*
X1206572D01*
Y33550D01*
X1204072Y38548D02*
Y40214D01*
Y39381D01*
X1209071D01*
X1208238Y38548D01*
X1222870Y6409D02*
X1227868D01*
X1226202Y8075D01*
X1227868Y9741D01*
X1222870D01*
X1227868Y11407D02*
X1223703D01*
X1222870Y12240D01*
Y13906D01*
X1223703Y14739D01*
X1227868D01*
Y16406D02*
X1222870Y19738D01*
X1227868D02*
X1222870Y16406D01*
Y24736D02*
Y21404D01*
X1226202Y24736D01*
X1227035D01*
X1227868Y23903D01*
Y22237D01*
X1227035Y21404D01*
X1222037Y26402D02*
Y29734D01*
X1222870Y31400D02*
X1226202D01*
X1227868Y33067D01*
X1226202Y34733D01*
X1222870D01*
X1225369D01*
Y31400D01*
X1222870Y39731D02*
Y36399D01*
X1226202Y39731D01*
X1227035D01*
X1227868Y38898D01*
Y37232D01*
X1227035Y36399D01*
X1242206Y7420D02*
X1247204D01*
X1245538Y9086D01*
X1247204Y10752D01*
X1242206D01*
X1247204Y12418D02*
X1243039D01*
X1242206Y13251D01*
Y14918D01*
X1243039Y15751D01*
X1247204D01*
Y17417D02*
X1242206Y20749D01*
X1247204D02*
X1242206Y17417D01*
Y25747D02*
Y22415D01*
X1245538Y25747D01*
X1246371D01*
X1247204Y24914D01*
Y23248D01*
X1246371Y22415D01*
X1241373Y27413D02*
Y30746D01*
X1242206Y32412D02*
X1245538D01*
X1247204Y34078D01*
X1245538Y35744D01*
X1242206D01*
X1244705D01*
Y32412D01*
X1246371Y37410D02*
X1247204Y38243D01*
Y39909D01*
X1246371Y40742D01*
X1243039D01*
X1242206Y39909D01*
Y38243D01*
X1243039Y37410D01*
X1246371D01*
X1262440Y2738D02*
X1267438D01*
X1265772Y4404D01*
X1267438Y6070D01*
X1262440D01*
X1267438Y7736D02*
X1263273D01*
X1262440Y8569D01*
Y10235D01*
X1263273Y11068D01*
X1267438D01*
Y12735D02*
X1262440Y16067D01*
X1267438D02*
X1262440Y12735D01*
Y21065D02*
Y17733D01*
X1265772Y21065D01*
X1266605D01*
X1267438Y20232D01*
Y18566D01*
X1266605Y17733D01*
X1261607Y22731D02*
Y26063D01*
X1262440Y27730D02*
X1265772D01*
Y30229D01*
X1264939Y31062D01*
X1262440D01*
X1267438Y36060D02*
Y32728D01*
X1262440D01*
Y36060D01*
X1264939Y32728D02*
Y34394D01*
X1262440Y37726D02*
X1267438D01*
X1262440Y41059D01*
X1267438D01*
X1287410Y26850D02*
X1282412D01*
Y29349D01*
X1283245Y30182D01*
X1286577D01*
X1287410Y29349D01*
Y26850D01*
X1282412Y31849D02*
Y33515D01*
Y32682D01*
X1287410D01*
X1286577Y31849D01*
Y36014D02*
X1287410Y36847D01*
Y38513D01*
X1286577Y39346D01*
X1283245D01*
X1282412Y38513D01*
Y36847D01*
X1283245Y36014D01*
X1286577D01*
X1307969Y31160D02*
X1302971D01*
Y33659D01*
X1303804Y34492D01*
X1307136D01*
X1307969Y33659D01*
Y31160D01*
X1303804Y36158D02*
X1302971Y36991D01*
Y38657D01*
X1303804Y39490D01*
X1307136D01*
X1307969Y38657D01*
Y36991D01*
X1307136Y36158D01*
X1306303D01*
X1305470Y36991D01*
Y39490D01*
X1327543Y31176D02*
X1322544D01*
Y33675D01*
X1323378Y34508D01*
X1326710D01*
X1327543Y33675D01*
Y31176D01*
X1326710Y36174D02*
X1327543Y37008D01*
Y38674D01*
X1326710Y39507D01*
X1325877D01*
X1325044Y38674D01*
X1324211Y39507D01*
X1323378D01*
X1322544Y38674D01*
Y37008D01*
X1323378Y36174D01*
X1324211D01*
X1325044Y37008D01*
X1325877Y36174D01*
X1326710D01*
X1325044Y37008D02*
Y38674D01*
X1348290Y31090D02*
X1343292D01*
Y33589D01*
X1344125Y34422D01*
X1347457D01*
X1348290Y33589D01*
Y31090D01*
Y36088D02*
Y39420D01*
X1347457D01*
X1344125Y36088D01*
X1343292D01*
D85*
X2129490Y54109D02*
G03*
X2129490Y54329I0J110D01*
G01*
D02*
G03*
X2129490Y54109I0J-110D01*
G01*
X2086663Y592706D02*
G03*
X2086883Y592706I110J0D01*
G01*
D02*
G03*
X2086663Y592706I-110J0D01*
G01*
M02*
