G04*
G04 #@! TF.GenerationSoftware,Altium Limited,Altium Designer,23.2.1 (34)*
G04*
G04 Layer_Color=16711935*
%FSLAX44Y44*%
%MOMM*%
G71*
G04*
G04 #@! TF.SameCoordinates,4AEFFC81-8D6A-4C92-BCC4-55949A9363D9*
G04*
G04*
G04 #@! TF.FilePolarity,Positive*
G04*
G01*
G75*
%ADD10C,0.2000*%
D10*
X358429Y175180D02*
Y223180D01*
X315929Y175180D02*
X358429D01*
X315929D02*
Y223180D01*
X358429D01*
X527219D02*
X569719D01*
X527219Y175180D02*
Y223180D01*
Y175180D02*
X569719D01*
Y223180D01*
X781009Y175180D02*
Y223180D01*
X738509Y175180D02*
X781009D01*
X738509D02*
Y223180D01*
X781009D01*
X949798D02*
X992298D01*
X949798Y175180D02*
Y223180D01*
Y175180D02*
X992298D01*
Y223180D01*
X1203588Y175180D02*
Y223180D01*
X1161088Y175180D02*
X1203588D01*
X1161088D02*
Y223180D01*
X1203588D01*
X1372378D02*
X1414878D01*
X1372378Y175180D02*
Y223180D01*
Y175180D02*
X1414878D01*
Y223180D01*
X1626168Y175180D02*
Y223180D01*
X1583668Y175180D02*
X1626168D01*
X1583668D02*
Y223180D01*
X1626168D01*
X1794957D02*
X1837457D01*
X1794957Y175180D02*
Y223180D01*
Y175180D02*
X1837457D01*
Y223180D01*
X2048747Y175180D02*
Y223180D01*
X2006247Y175180D02*
X2048747D01*
X2006247D02*
Y223180D01*
X2048747D01*
X104594Y223377D02*
X147094D01*
X104594Y175378D02*
Y223377D01*
Y175378D02*
X147094D01*
Y223377D01*
X296731Y221596D02*
Y229596D01*
X312731D01*
Y221596D02*
Y229596D01*
X296731Y221596D02*
X312731D01*
X508021D02*
Y229596D01*
X524021D01*
Y221596D02*
Y229596D01*
X508021Y221596D02*
X524021D01*
X719311D02*
Y229596D01*
X735311D01*
Y221596D02*
Y229596D01*
X719311Y221596D02*
X735311D01*
X930600D02*
Y229596D01*
X946600D01*
Y221596D02*
Y229596D01*
X930600Y221596D02*
X946600D01*
X1141890D02*
Y229596D01*
X1157890D01*
Y221596D02*
Y229596D01*
X1141890Y221596D02*
X1157890D01*
X1353180D02*
Y229596D01*
X1369180D01*
Y221596D02*
Y229596D01*
X1353180Y221596D02*
X1369180D01*
X1564470D02*
Y229596D01*
X1580470D01*
Y221596D02*
Y229596D01*
X1564470Y221596D02*
X1580470D01*
X1775759D02*
Y229596D01*
X1791759D01*
Y221596D02*
Y229596D01*
X1775759Y221596D02*
X1791759D01*
X1987049D02*
Y229596D01*
X2003049D01*
Y221596D02*
Y229596D01*
X1987049Y221596D02*
X2003049D01*
X85396Y221793D02*
Y229793D01*
X101396D01*
Y221793D02*
Y229793D01*
X85396Y221793D02*
X101396D01*
M02*
