G04*
G04 #@! TF.GenerationSoftware,Altium Limited,Altium Designer,23.2.1 (34)*
G04*
G04 Layer_Color=65535*
%FSLAX44Y44*%
%MOMM*%
G71*
G04*
G04 #@! TF.SameCoordinates,4AEFFC81-8D6A-4C92-BCC4-55949A9363D9*
G04*
G04*
G04 #@! TF.FilePolarity,Positive*
G04*
G01*
G75*
%ADD10C,0.2000*%
%ADD11C,0.2500*%
%ADD12C,0.6000*%
%ADD13C,0.2540*%
%ADD14C,0.1200*%
%ADD15C,0.3000*%
D10*
X600300Y574449D02*
G03*
X599300Y574449I-500J0D01*
G01*
D02*
G03*
X600300Y574449I500J0D01*
G01*
D02*
G03*
X599300Y574449I-500J0D01*
G01*
X841750Y-12250D02*
Y51750D01*
Y-12250D02*
X1368250D01*
Y71750D01*
X605000Y571349D02*
Y593599D01*
Y571349D02*
Y593599D01*
Y606099D02*
Y700849D01*
Y606099D02*
Y700849D01*
X1545000Y606099D02*
Y700849D01*
Y606099D02*
Y700849D01*
Y571349D02*
Y593599D01*
Y571349D02*
Y593599D01*
X605000Y570849D02*
X667500D01*
X605000D02*
X667500D01*
X605000Y700849D02*
X1545000D01*
X605000D02*
X1545000D01*
X1482500Y570849D02*
X1545000D01*
X1482500D02*
X1545000D01*
X2079480Y107769D02*
X2130520D01*
X2079480Y81129D02*
X2130520D01*
X2058003Y538436D02*
Y589476D01*
X2031363Y538436D02*
Y589476D01*
X2073460Y59149D02*
X2087460D01*
X2081683Y534956D02*
Y548956D01*
X178817Y435187D02*
X184567D01*
X175317Y435787D02*
Y464787D01*
X164317D02*
X175317D01*
X164317Y435787D02*
Y464787D01*
Y435787D02*
X175317D01*
X119067Y465387D02*
X124817D01*
X128317Y435787D02*
Y464787D01*
Y435787D02*
X139317D01*
Y464787D01*
X128317D02*
X139317D01*
X232755Y355059D02*
X238505D01*
X229255Y355658D02*
Y384659D01*
X218255D02*
X229255D01*
X218255Y355658D02*
Y384659D01*
Y355658D02*
X229255D01*
X173005Y385258D02*
X178755D01*
X182255Y355658D02*
Y384659D01*
Y355658D02*
X193255D01*
Y384659D01*
X182255D02*
X193255D01*
X284408Y434992D02*
X290159D01*
X280909Y435592D02*
Y464593D01*
X269909D02*
X280909D01*
X269909Y435592D02*
Y464593D01*
Y435592D02*
X280909D01*
X224659Y465192D02*
X230408D01*
X233909Y435592D02*
Y464593D01*
Y435592D02*
X244909D01*
Y464593D01*
X233909D02*
X244909D01*
X338685Y354804D02*
X344435D01*
X335185Y355405D02*
Y384404D01*
X324185D02*
X335185D01*
X324185Y355405D02*
Y384404D01*
Y355405D02*
X335185D01*
X278935Y385005D02*
X284685D01*
X288185Y355405D02*
Y384404D01*
Y355405D02*
X299185D01*
Y384404D01*
X288185D02*
X299185D01*
X390399Y434933D02*
X396149D01*
X386899Y435533D02*
Y464533D01*
X375899D02*
X386899D01*
X375899Y435533D02*
Y464533D01*
Y435533D02*
X386899D01*
X330649Y465133D02*
X336399D01*
X339899Y435533D02*
Y464533D01*
Y435533D02*
X350899D01*
Y464533D01*
X339899D02*
X350899D01*
X444095Y354804D02*
X449845D01*
X440595Y355405D02*
Y384404D01*
X429595D02*
X440595D01*
X429595Y355405D02*
Y384404D01*
Y355405D02*
X440595D01*
X384345Y385005D02*
X390095D01*
X393595Y355405D02*
Y384404D01*
Y355405D02*
X404595D01*
Y384404D01*
X393595D02*
X404595D01*
X496063Y434933D02*
X501813D01*
X492563Y435533D02*
Y464533D01*
X481563D02*
X492563D01*
X481563Y435533D02*
Y464533D01*
Y435533D02*
X492563D01*
X436313Y465133D02*
X442063D01*
X445563Y435533D02*
Y464533D01*
Y435533D02*
X456563D01*
Y464533D01*
X445563D02*
X456563D01*
X549505Y354804D02*
X555255D01*
X546005Y355405D02*
Y384404D01*
X535005D02*
X546005D01*
X535005Y355405D02*
Y384404D01*
Y355405D02*
X546005D01*
X489755Y385005D02*
X495505D01*
X499005Y355405D02*
Y384404D01*
Y355405D02*
X510005D01*
Y384404D01*
X499005D02*
X510005D01*
X601727Y434933D02*
X607477D01*
X598227Y435533D02*
Y464533D01*
X587227D02*
X598227D01*
X587227Y435533D02*
Y464533D01*
Y435533D02*
X598227D01*
X541977Y465133D02*
X547727D01*
X551227Y435533D02*
Y464533D01*
Y435533D02*
X562227D01*
Y464533D01*
X551227D02*
X562227D01*
X655169Y354804D02*
X660919D01*
X651669Y355405D02*
Y384404D01*
X640669D02*
X651669D01*
X640669Y355405D02*
Y384404D01*
Y355405D02*
X651669D01*
X595419Y385005D02*
X601169D01*
X604669Y355405D02*
Y384404D01*
Y355405D02*
X615669D01*
Y384404D01*
X604669D02*
X615669D01*
X707391Y434933D02*
X713141D01*
X703891Y435533D02*
Y464533D01*
X692891D02*
X703891D01*
X692891Y435533D02*
Y464533D01*
Y435533D02*
X703891D01*
X647641Y465133D02*
X653391D01*
X656891Y435533D02*
Y464533D01*
Y435533D02*
X667891D01*
Y464533D01*
X656891D02*
X667891D01*
X760579Y354804D02*
X766329D01*
X757079Y355405D02*
Y384404D01*
X746079D02*
X757079D01*
X746079Y355405D02*
Y384404D01*
Y355405D02*
X757079D01*
X700829Y385005D02*
X706579D01*
X710079Y355405D02*
Y384404D01*
Y355405D02*
X721079D01*
Y384404D01*
X710079D02*
X721079D01*
X813055Y434933D02*
X818805D01*
X809555Y435533D02*
Y464533D01*
X798555D02*
X809555D01*
X798555Y435533D02*
Y464533D01*
Y435533D02*
X809555D01*
X753305Y465133D02*
X759055D01*
X762555Y435533D02*
Y464533D01*
Y435533D02*
X773555D01*
Y464533D01*
X762555D02*
X773555D01*
X866243Y354804D02*
X871993D01*
X862743Y355405D02*
Y384404D01*
X851743D02*
X862743D01*
X851743Y355405D02*
Y384404D01*
Y355405D02*
X862743D01*
X806493Y385005D02*
X812243D01*
X815743Y355405D02*
Y384404D01*
Y355405D02*
X826743D01*
Y384404D01*
X815743D02*
X826743D01*
X918719Y434933D02*
X924469D01*
X915219Y435533D02*
Y464533D01*
X904219D02*
X915219D01*
X904219Y435533D02*
Y464533D01*
Y435533D02*
X915219D01*
X858969Y465133D02*
X864719D01*
X868219Y435533D02*
Y464533D01*
Y435533D02*
X879219D01*
Y464533D01*
X868219D02*
X879219D01*
X971653Y354804D02*
X977403D01*
X968153Y355405D02*
Y384404D01*
X957153D02*
X968153D01*
X957153Y355405D02*
Y384404D01*
Y355405D02*
X968153D01*
X911903Y385005D02*
X917653D01*
X921153Y355405D02*
Y384404D01*
Y355405D02*
X932153D01*
Y384404D01*
X921153D02*
X932153D01*
X1024383Y434933D02*
X1030133D01*
X1020883Y435533D02*
Y464533D01*
X1009883D02*
X1020883D01*
X1009883Y435533D02*
Y464533D01*
Y435533D02*
X1020883D01*
X964633Y465133D02*
X970383D01*
X973883Y435533D02*
Y464533D01*
Y435533D02*
X984883D01*
Y464533D01*
X973883D02*
X984883D01*
X1077063Y354804D02*
X1082813D01*
X1073563Y355405D02*
Y384404D01*
X1062563D02*
X1073563D01*
X1062563Y355405D02*
Y384404D01*
Y355405D02*
X1073563D01*
X1017313Y385005D02*
X1023063D01*
X1026563Y355405D02*
Y384404D01*
Y355405D02*
X1037563D01*
Y384404D01*
X1026563D02*
X1037563D01*
X1130047Y434933D02*
X1135797D01*
X1126547Y435533D02*
Y464533D01*
X1115547D02*
X1126547D01*
X1115547Y435533D02*
Y464533D01*
Y435533D02*
X1126547D01*
X1070297Y465133D02*
X1076047D01*
X1079547Y435533D02*
Y464533D01*
Y435533D02*
X1090547D01*
Y464533D01*
X1079547D02*
X1090547D01*
X1182727Y354804D02*
X1188477D01*
X1179227Y355405D02*
Y384404D01*
X1168227D02*
X1179227D01*
X1168227Y355405D02*
Y384404D01*
Y355405D02*
X1179227D01*
X1122977Y385005D02*
X1128727D01*
X1132227Y355405D02*
Y384404D01*
Y355405D02*
X1143227D01*
Y384404D01*
X1132227D02*
X1143227D01*
X1235711Y434933D02*
X1241461D01*
X1232211Y435533D02*
Y464533D01*
X1221211D02*
X1232211D01*
X1221211Y435533D02*
Y464533D01*
Y435533D02*
X1232211D01*
X1175961Y465133D02*
X1181711D01*
X1185211Y435533D02*
Y464533D01*
Y435533D02*
X1196211D01*
Y464533D01*
X1185211D02*
X1196211D01*
X1288137Y354804D02*
X1293887D01*
X1284637Y355405D02*
Y384404D01*
X1273637D02*
X1284637D01*
X1273637Y355405D02*
Y384404D01*
Y355405D02*
X1284637D01*
X1228387Y385005D02*
X1234137D01*
X1237637Y355405D02*
Y384404D01*
Y355405D02*
X1248637D01*
Y384404D01*
X1237637D02*
X1248637D01*
X1341375Y434933D02*
X1347125D01*
X1337875Y435533D02*
Y464533D01*
X1326875D02*
X1337875D01*
X1326875Y435533D02*
Y464533D01*
Y435533D02*
X1337875D01*
X1281625Y465133D02*
X1287375D01*
X1290875Y435533D02*
Y464533D01*
Y435533D02*
X1301875D01*
Y464533D01*
X1290875D02*
X1301875D01*
X1393801Y354804D02*
X1399551D01*
X1390301Y355405D02*
Y384404D01*
X1379301D02*
X1390301D01*
X1379301Y355405D02*
Y384404D01*
Y355405D02*
X1390301D01*
X1334051Y385005D02*
X1339801D01*
X1343301Y355405D02*
Y384404D01*
Y355405D02*
X1354301D01*
Y384404D01*
X1343301D02*
X1354301D01*
X1447039Y434933D02*
X1452789D01*
X1443539Y435533D02*
Y464533D01*
X1432539D02*
X1443539D01*
X1432539Y435533D02*
Y464533D01*
Y435533D02*
X1443539D01*
X1387289Y465133D02*
X1393039D01*
X1396539Y435533D02*
Y464533D01*
Y435533D02*
X1407539D01*
Y464533D01*
X1396539D02*
X1407539D01*
X1499211Y354804D02*
X1504961D01*
X1495711Y355405D02*
Y384404D01*
X1484711D02*
X1495711D01*
X1484711Y355405D02*
Y384404D01*
Y355405D02*
X1495711D01*
X1439461Y385005D02*
X1445211D01*
X1448711Y355405D02*
Y384404D01*
Y355405D02*
X1459711D01*
Y384404D01*
X1448711D02*
X1459711D01*
X1552703Y434933D02*
X1558453D01*
X1549203Y435533D02*
Y464533D01*
X1538203D02*
X1549203D01*
X1538203Y435533D02*
Y464533D01*
Y435533D02*
X1549203D01*
X1492953Y465133D02*
X1498703D01*
X1502203Y435533D02*
Y464533D01*
Y435533D02*
X1513203D01*
Y464533D01*
X1502203D02*
X1513203D01*
X1604875Y354804D02*
X1610625D01*
X1601375Y355405D02*
Y384404D01*
X1590375D02*
X1601375D01*
X1590375Y355405D02*
Y384404D01*
Y355405D02*
X1601375D01*
X1545125Y385005D02*
X1550875D01*
X1554375Y355405D02*
Y384404D01*
Y355405D02*
X1565375D01*
Y384404D01*
X1554375D02*
X1565375D01*
X1658367Y434933D02*
X1664117D01*
X1654867Y435533D02*
Y464533D01*
X1643867D02*
X1654867D01*
X1643867Y435533D02*
Y464533D01*
Y435533D02*
X1654867D01*
X1598617Y465133D02*
X1604367D01*
X1607867Y435533D02*
Y464533D01*
Y435533D02*
X1618867D01*
Y464533D01*
X1607867D02*
X1618867D01*
X1710285Y354804D02*
X1716035D01*
X1706785Y355405D02*
Y384404D01*
X1695785D02*
X1706785D01*
X1695785Y355405D02*
Y384404D01*
Y355405D02*
X1706785D01*
X1650535Y385005D02*
X1656285D01*
X1659785Y355405D02*
Y384404D01*
Y355405D02*
X1670785D01*
Y384404D01*
X1659785D02*
X1670785D01*
X1764031Y434933D02*
X1769781D01*
X1760531Y435533D02*
Y464533D01*
X1749531D02*
X1760531D01*
X1749531Y435533D02*
Y464533D01*
Y435533D02*
X1760531D01*
X1704281Y465133D02*
X1710031D01*
X1713531Y435533D02*
Y464533D01*
Y435533D02*
X1724531D01*
Y464533D01*
X1713531D02*
X1724531D01*
X1815695Y354804D02*
X1821445D01*
X1812195Y355405D02*
Y384404D01*
X1801195D02*
X1812195D01*
X1801195Y355405D02*
Y384404D01*
Y355405D02*
X1812195D01*
X1755945Y385005D02*
X1761695D01*
X1765195Y355405D02*
Y384404D01*
Y355405D02*
X1776195D01*
Y384404D01*
X1765195D02*
X1776195D01*
X1869695Y434933D02*
X1875445D01*
X1866195Y435533D02*
Y464533D01*
X1855195D02*
X1866195D01*
X1855195Y435533D02*
Y464533D01*
Y435533D02*
X1866195D01*
X1809945Y465133D02*
X1815695D01*
X1819195Y435533D02*
Y464533D01*
Y435533D02*
X1830195D01*
Y464533D01*
X1819195D02*
X1830195D01*
X1921359Y354804D02*
X1927109D01*
X1917859Y355405D02*
Y384404D01*
X1906859D02*
X1917859D01*
X1906859Y355405D02*
Y384404D01*
Y355405D02*
X1917859D01*
X1861609Y385005D02*
X1867359D01*
X1870859Y355405D02*
Y384404D01*
Y355405D02*
X1881859D01*
Y384404D01*
X1870859D02*
X1881859D01*
X1975359Y434933D02*
X1981109D01*
X1971859Y435533D02*
Y464533D01*
X1960859D02*
X1971859D01*
X1960859Y435533D02*
Y464533D01*
Y435533D02*
X1971859D01*
X1915609Y465133D02*
X1921359D01*
X1924859Y435533D02*
Y464533D01*
Y435533D02*
X1935859D01*
Y464533D01*
X1924859D02*
X1935859D01*
X2026769Y354804D02*
X2032519D01*
X2023269Y355405D02*
Y384404D01*
X2012269D02*
X2023269D01*
X2012269Y355405D02*
Y384404D01*
Y355405D02*
X2023269D01*
X1967019Y385005D02*
X1972769D01*
X1976269Y355405D02*
Y384404D01*
Y355405D02*
X1987269D01*
Y384404D01*
X1976269D02*
X1987269D01*
X2081023Y434933D02*
X2086773D01*
X2077523Y435533D02*
Y464533D01*
X2066523D02*
X2077523D01*
X2066523Y435533D02*
Y464533D01*
Y435533D02*
X2077523D01*
X2021273Y465133D02*
X2027023D01*
X2030523Y435533D02*
Y464533D01*
Y435533D02*
X2041523D01*
Y464533D01*
X2030523D02*
X2041523D01*
X2132433Y354804D02*
X2138183D01*
X2128933Y355405D02*
Y384404D01*
X2117933D02*
X2128933D01*
X2117933Y355405D02*
Y384404D01*
Y355405D02*
X2128933D01*
X2072683Y385005D02*
X2078433D01*
X2081933Y355405D02*
Y384404D01*
Y355405D02*
X2092933D01*
Y384404D01*
X2081933D02*
X2092933D01*
X13586Y465472D02*
X19337D01*
X22836Y435872D02*
Y464872D01*
Y435872D02*
X33837D01*
Y464872D01*
X22836D02*
X33837D01*
X73337Y435272D02*
X79086D01*
X69837Y435872D02*
Y464872D01*
X58836D02*
X69837D01*
X58836Y435872D02*
Y464872D01*
Y435872D02*
X69837D01*
X127091Y355059D02*
X132841D01*
X123591Y355658D02*
Y384659D01*
X112591D02*
X123591D01*
X112591Y355658D02*
Y384659D01*
Y355658D02*
X123591D01*
X67341Y385258D02*
X73091D01*
X76591Y355658D02*
Y384659D01*
Y355658D02*
X87591D01*
Y384659D01*
X76591D02*
X87591D01*
X114067Y418787D02*
X122567D01*
X126067Y389187D02*
Y418387D01*
Y389187D02*
X135567D01*
Y418387D01*
X126067D02*
X135567D01*
X181567Y388787D02*
X190067D01*
X178067Y389187D02*
Y418387D01*
X168567D02*
X178067D01*
X168567Y389187D02*
Y418387D01*
Y389187D02*
X178067D01*
X168005Y338658D02*
X176505D01*
X180005Y309058D02*
Y338259D01*
Y309058D02*
X189505D01*
Y338259D01*
X180005D02*
X189505D01*
X235505Y308659D02*
X244005D01*
X232005Y309058D02*
Y338259D01*
X222505D02*
X232005D01*
X222505Y309058D02*
Y338259D01*
Y309058D02*
X232005D01*
X219659Y418592D02*
X228158D01*
X231658Y388993D02*
Y418192D01*
Y388993D02*
X241159D01*
Y418192D01*
X231658D02*
X241159D01*
X287159Y388592D02*
X295658D01*
X283659Y388993D02*
Y418192D01*
X274158D02*
X283659D01*
X274158Y388993D02*
Y418192D01*
Y388993D02*
X283659D01*
X273935Y338405D02*
X282435D01*
X285935Y308804D02*
Y338004D01*
Y308804D02*
X295435D01*
Y338004D01*
X285935D02*
X295435D01*
X341435Y308405D02*
X349935D01*
X337935Y308804D02*
Y338004D01*
X328435D02*
X337935D01*
X328435Y308804D02*
Y338004D01*
Y308804D02*
X337935D01*
X325649Y418533D02*
X334149D01*
X337649Y388933D02*
Y418133D01*
Y388933D02*
X347149D01*
Y418133D01*
X337649D02*
X347149D01*
X393149Y388533D02*
X401649D01*
X389649Y388933D02*
Y418133D01*
X380149D02*
X389649D01*
X380149Y388933D02*
Y418133D01*
Y388933D02*
X389649D01*
X379345Y338405D02*
X387845D01*
X391345Y308804D02*
Y338004D01*
Y308804D02*
X400845D01*
Y338004D01*
X391345D02*
X400845D01*
X446845Y308405D02*
X455345D01*
X443345Y308804D02*
Y338004D01*
X433845D02*
X443345D01*
X433845Y308804D02*
Y338004D01*
Y308804D02*
X443345D01*
X431313Y418533D02*
X439813D01*
X443313Y388933D02*
Y418133D01*
Y388933D02*
X452813D01*
Y418133D01*
X443313D02*
X452813D01*
X498813Y388533D02*
X507313D01*
X495313Y388933D02*
Y418133D01*
X485813D02*
X495313D01*
X485813Y388933D02*
Y418133D01*
Y388933D02*
X495313D01*
X484755Y338405D02*
X493255D01*
X496755Y308804D02*
Y338004D01*
Y308804D02*
X506255D01*
Y338004D01*
X496755D02*
X506255D01*
X552255Y308405D02*
X560755D01*
X548755Y308804D02*
Y338004D01*
X539255D02*
X548755D01*
X539255Y308804D02*
Y338004D01*
Y308804D02*
X548755D01*
X536977Y418533D02*
X545477D01*
X548977Y388933D02*
Y418133D01*
Y388933D02*
X558477D01*
Y418133D01*
X548977D02*
X558477D01*
X604477Y388533D02*
X612977D01*
X600977Y388933D02*
Y418133D01*
X591477D02*
X600977D01*
X591477Y388933D02*
Y418133D01*
Y388933D02*
X600977D01*
X590419Y338405D02*
X598919D01*
X602419Y308804D02*
Y338004D01*
Y308804D02*
X611919D01*
Y338004D01*
X602419D02*
X611919D01*
X657919Y308405D02*
X666419D01*
X654419Y308804D02*
Y338004D01*
X644919D02*
X654419D01*
X644919Y308804D02*
Y338004D01*
Y308804D02*
X654419D01*
X642641Y418533D02*
X651141D01*
X654641Y388933D02*
Y418133D01*
Y388933D02*
X664141D01*
Y418133D01*
X654641D02*
X664141D01*
X710141Y388533D02*
X718641D01*
X706641Y388933D02*
Y418133D01*
X697141D02*
X706641D01*
X697141Y388933D02*
Y418133D01*
Y388933D02*
X706641D01*
X695829Y338405D02*
X704329D01*
X707829Y308804D02*
Y338004D01*
Y308804D02*
X717329D01*
Y338004D01*
X707829D02*
X717329D01*
X763329Y308405D02*
X771829D01*
X759829Y308804D02*
Y338004D01*
X750329D02*
X759829D01*
X750329Y308804D02*
Y338004D01*
Y308804D02*
X759829D01*
X748305Y418533D02*
X756805D01*
X760305Y388933D02*
Y418133D01*
Y388933D02*
X769805D01*
Y418133D01*
X760305D02*
X769805D01*
X815805Y388533D02*
X824305D01*
X812305Y388933D02*
Y418133D01*
X802805D02*
X812305D01*
X802805Y388933D02*
Y418133D01*
Y388933D02*
X812305D01*
X801493Y338405D02*
X809993D01*
X813493Y308804D02*
Y338004D01*
Y308804D02*
X822993D01*
Y338004D01*
X813493D02*
X822993D01*
X868993Y308405D02*
X877493D01*
X865493Y308804D02*
Y338004D01*
X855993D02*
X865493D01*
X855993Y308804D02*
Y338004D01*
Y308804D02*
X865493D01*
X853969Y418533D02*
X862469D01*
X865969Y388933D02*
Y418133D01*
Y388933D02*
X875469D01*
Y418133D01*
X865969D02*
X875469D01*
X921469Y388533D02*
X929969D01*
X917969Y388933D02*
Y418133D01*
X908469D02*
X917969D01*
X908469Y388933D02*
Y418133D01*
Y388933D02*
X917969D01*
X906903Y338405D02*
X915403D01*
X918903Y308804D02*
Y338004D01*
Y308804D02*
X928403D01*
Y338004D01*
X918903D02*
X928403D01*
X974403Y308405D02*
X982903D01*
X970903Y308804D02*
Y338004D01*
X961403D02*
X970903D01*
X961403Y308804D02*
Y338004D01*
Y308804D02*
X970903D01*
X959633Y418533D02*
X968133D01*
X971633Y388933D02*
Y418133D01*
Y388933D02*
X981133D01*
Y418133D01*
X971633D02*
X981133D01*
X1027133Y388533D02*
X1035633D01*
X1023633Y388933D02*
Y418133D01*
X1014133D02*
X1023633D01*
X1014133Y388933D02*
Y418133D01*
Y388933D02*
X1023633D01*
X1012313Y338405D02*
X1020813D01*
X1024313Y308804D02*
Y338004D01*
Y308804D02*
X1033813D01*
Y338004D01*
X1024313D02*
X1033813D01*
X1079813Y308405D02*
X1088313D01*
X1076313Y308804D02*
Y338004D01*
X1066813D02*
X1076313D01*
X1066813Y308804D02*
Y338004D01*
Y308804D02*
X1076313D01*
X1065297Y418533D02*
X1073797D01*
X1077297Y388933D02*
Y418133D01*
Y388933D02*
X1086797D01*
Y418133D01*
X1077297D02*
X1086797D01*
X1132797Y388533D02*
X1141297D01*
X1129297Y388933D02*
Y418133D01*
X1119797D02*
X1129297D01*
X1119797Y388933D02*
Y418133D01*
Y388933D02*
X1129297D01*
X1117977Y338405D02*
X1126477D01*
X1129977Y308804D02*
Y338004D01*
Y308804D02*
X1139477D01*
Y338004D01*
X1129977D02*
X1139477D01*
X1185477Y308405D02*
X1193977D01*
X1181977Y308804D02*
Y338004D01*
X1172477D02*
X1181977D01*
X1172477Y308804D02*
Y338004D01*
Y308804D02*
X1181977D01*
X1170961Y418533D02*
X1179461D01*
X1182961Y388933D02*
Y418133D01*
Y388933D02*
X1192461D01*
Y418133D01*
X1182961D02*
X1192461D01*
X1238461Y388533D02*
X1246961D01*
X1234961Y388933D02*
Y418133D01*
X1225461D02*
X1234961D01*
X1225461Y388933D02*
Y418133D01*
Y388933D02*
X1234961D01*
X1223387Y338405D02*
X1231887D01*
X1235387Y308804D02*
Y338004D01*
Y308804D02*
X1244887D01*
Y338004D01*
X1235387D02*
X1244887D01*
X1290887Y308405D02*
X1299387D01*
X1287387Y308804D02*
Y338004D01*
X1277887D02*
X1287387D01*
X1277887Y308804D02*
Y338004D01*
Y308804D02*
X1287387D01*
X1276625Y418533D02*
X1285125D01*
X1288625Y388933D02*
Y418133D01*
Y388933D02*
X1298125D01*
Y418133D01*
X1288625D02*
X1298125D01*
X1344125Y388533D02*
X1352625D01*
X1340625Y388933D02*
Y418133D01*
X1331125D02*
X1340625D01*
X1331125Y388933D02*
Y418133D01*
Y388933D02*
X1340625D01*
X1329051Y338405D02*
X1337551D01*
X1341051Y308804D02*
Y338004D01*
Y308804D02*
X1350551D01*
Y338004D01*
X1341051D02*
X1350551D01*
X1396551Y308405D02*
X1405051D01*
X1393051Y308804D02*
Y338004D01*
X1383551D02*
X1393051D01*
X1383551Y308804D02*
Y338004D01*
Y308804D02*
X1393051D01*
X1382289Y418533D02*
X1390789D01*
X1394289Y388933D02*
Y418133D01*
Y388933D02*
X1403789D01*
Y418133D01*
X1394289D02*
X1403789D01*
X1449789Y388533D02*
X1458289D01*
X1446289Y388933D02*
Y418133D01*
X1436789D02*
X1446289D01*
X1436789Y388933D02*
Y418133D01*
Y388933D02*
X1446289D01*
X1434461Y338405D02*
X1442961D01*
X1446461Y308804D02*
Y338004D01*
Y308804D02*
X1455961D01*
Y338004D01*
X1446461D02*
X1455961D01*
X1501961Y308405D02*
X1510461D01*
X1498461Y308804D02*
Y338004D01*
X1488961D02*
X1498461D01*
X1488961Y308804D02*
Y338004D01*
Y308804D02*
X1498461D01*
X1487953Y418533D02*
X1496453D01*
X1499953Y388933D02*
Y418133D01*
Y388933D02*
X1509453D01*
Y418133D01*
X1499953D02*
X1509453D01*
X1555453Y388533D02*
X1563953D01*
X1551953Y388933D02*
Y418133D01*
X1542453D02*
X1551953D01*
X1542453Y388933D02*
Y418133D01*
Y388933D02*
X1551953D01*
X1540125Y338405D02*
X1548625D01*
X1552125Y308804D02*
Y338004D01*
Y308804D02*
X1561625D01*
Y338004D01*
X1552125D02*
X1561625D01*
X1607625Y308405D02*
X1616125D01*
X1604125Y308804D02*
Y338004D01*
X1594625D02*
X1604125D01*
X1594625Y308804D02*
Y338004D01*
Y308804D02*
X1604125D01*
X1593617Y418533D02*
X1602117D01*
X1605617Y388933D02*
Y418133D01*
Y388933D02*
X1615117D01*
Y418133D01*
X1605617D02*
X1615117D01*
X1661117Y388533D02*
X1669617D01*
X1657617Y388933D02*
Y418133D01*
X1648117D02*
X1657617D01*
X1648117Y388933D02*
Y418133D01*
Y388933D02*
X1657617D01*
X1645535Y338405D02*
X1654035D01*
X1657535Y308804D02*
Y338004D01*
Y308804D02*
X1667035D01*
Y338004D01*
X1657535D02*
X1667035D01*
X1713035Y308405D02*
X1721535D01*
X1709535Y308804D02*
Y338004D01*
X1700035D02*
X1709535D01*
X1700035Y308804D02*
Y338004D01*
Y308804D02*
X1709535D01*
X1699281Y418533D02*
X1707781D01*
X1711281Y388933D02*
Y418133D01*
Y388933D02*
X1720781D01*
Y418133D01*
X1711281D02*
X1720781D01*
X1766781Y388533D02*
X1775281D01*
X1763281Y388933D02*
Y418133D01*
X1753781D02*
X1763281D01*
X1753781Y388933D02*
Y418133D01*
Y388933D02*
X1763281D01*
X1750945Y338405D02*
X1759445D01*
X1762945Y308804D02*
Y338004D01*
Y308804D02*
X1772445D01*
Y338004D01*
X1762945D02*
X1772445D01*
X1818445Y308405D02*
X1826945D01*
X1814945Y308804D02*
Y338004D01*
X1805445D02*
X1814945D01*
X1805445Y308804D02*
Y338004D01*
Y308804D02*
X1814945D01*
X1804945Y418533D02*
X1813445D01*
X1816945Y388933D02*
Y418133D01*
Y388933D02*
X1826445D01*
Y418133D01*
X1816945D02*
X1826445D01*
X1872445Y388533D02*
X1880945D01*
X1868945Y388933D02*
Y418133D01*
X1859445D02*
X1868945D01*
X1859445Y388933D02*
Y418133D01*
Y388933D02*
X1868945D01*
X1856609Y338405D02*
X1865109D01*
X1868609Y308804D02*
Y338004D01*
Y308804D02*
X1878109D01*
Y338004D01*
X1868609D02*
X1878109D01*
X1924109Y308405D02*
X1932609D01*
X1920609Y308804D02*
Y338004D01*
X1911109D02*
X1920609D01*
X1911109Y308804D02*
Y338004D01*
Y308804D02*
X1920609D01*
X1910609Y418533D02*
X1919109D01*
X1922609Y388933D02*
Y418133D01*
Y388933D02*
X1932109D01*
Y418133D01*
X1922609D02*
X1932109D01*
X1978109Y388533D02*
X1986609D01*
X1974609Y388933D02*
Y418133D01*
X1965109D02*
X1974609D01*
X1965109Y388933D02*
Y418133D01*
Y388933D02*
X1974609D01*
X1962019Y338405D02*
X1970519D01*
X1974019Y308804D02*
Y338004D01*
Y308804D02*
X1983519D01*
Y338004D01*
X1974019D02*
X1983519D01*
X2029519Y308405D02*
X2038019D01*
X2026019Y308804D02*
Y338004D01*
X2016519D02*
X2026019D01*
X2016519Y308804D02*
Y338004D01*
Y308804D02*
X2026019D01*
X2016273Y418533D02*
X2024773D01*
X2028273Y388933D02*
Y418133D01*
Y388933D02*
X2037773D01*
Y418133D01*
X2028273D02*
X2037773D01*
X2083773Y388533D02*
X2092273D01*
X2080273Y388933D02*
Y418133D01*
X2070773D02*
X2080273D01*
X2070773Y388933D02*
Y418133D01*
Y388933D02*
X2080273D01*
X2067683Y338405D02*
X2076183D01*
X2079683Y308804D02*
Y338004D01*
Y308804D02*
X2089183D01*
Y338004D01*
X2079683D02*
X2089183D01*
X2135183Y308405D02*
X2143683D01*
X2131683Y308804D02*
Y338004D01*
X2122183D02*
X2131683D01*
X2122183Y308804D02*
Y338004D01*
Y308804D02*
X2131683D01*
X76087Y388872D02*
X84586D01*
X72586Y389272D02*
Y418472D01*
X63087D02*
X72586D01*
X63087Y389272D02*
Y418472D01*
Y389272D02*
X72586D01*
X8587Y418872D02*
X17086D01*
X20587Y389272D02*
Y418472D01*
Y389272D02*
X30087D01*
Y418472D01*
X20587D02*
X30087D01*
X62341Y338658D02*
X70841D01*
X74341Y309058D02*
Y338259D01*
Y309058D02*
X83841D01*
Y338259D01*
X74341D02*
X83841D01*
X129841Y308659D02*
X138341D01*
X126341Y309058D02*
Y338259D01*
X116841D02*
X126341D01*
X116841Y309058D02*
Y338259D01*
Y309058D02*
X126341D01*
X2078720Y114639D02*
X2095720D01*
X2078720Y130259D02*
X2095720D01*
X2024933Y539706D02*
Y556706D01*
X2009313Y539706D02*
Y556706D01*
X2050280Y52429D02*
Y70429D01*
X2068280Y52429D02*
Y70429D01*
X2056780Y78679D02*
X2061780D01*
X2059280Y76179D02*
Y81179D01*
X2069183Y509956D02*
X2087183D01*
X2069183Y527956D02*
X2087183D01*
X2060933Y516456D02*
Y521456D01*
X2058433Y518956D02*
X2063433D01*
X343683Y177632D02*
Y214632D01*
X394683Y177632D02*
Y214632D01*
X343683Y177632D02*
X394683D01*
X343683Y214632D02*
X394683D01*
X281967Y177922D02*
Y214922D01*
X332967Y177922D02*
Y214922D01*
X281967Y177922D02*
X332967D01*
X281967Y214922D02*
X332967D01*
X554973Y177632D02*
Y214632D01*
X605973Y177632D02*
Y214632D01*
X554973Y177632D02*
X605973D01*
X554973Y214632D02*
X605973D01*
X493257Y177922D02*
Y214922D01*
X544257Y177922D02*
Y214922D01*
X493257Y177922D02*
X544257D01*
X493257Y214922D02*
X544257D01*
X766263Y177632D02*
Y214632D01*
X817263Y177632D02*
Y214632D01*
X766263Y177632D02*
X817263D01*
X766263Y214632D02*
X817263D01*
X704547Y177922D02*
Y214922D01*
X755547Y177922D02*
Y214922D01*
X704547Y177922D02*
X755547D01*
X704547Y214922D02*
X755547D01*
X977552Y177632D02*
Y214632D01*
X1028552Y177632D02*
Y214632D01*
X977552Y177632D02*
X1028552D01*
X977552Y214632D02*
X1028552D01*
X915836Y177922D02*
Y214922D01*
X966836Y177922D02*
Y214922D01*
X915836Y177922D02*
X966836D01*
X915836Y214922D02*
X966836D01*
X1188842Y177632D02*
Y214632D01*
X1239842Y177632D02*
Y214632D01*
X1188842Y177632D02*
X1239842D01*
X1188842Y214632D02*
X1239842D01*
X1127126Y177922D02*
Y214922D01*
X1178126Y177922D02*
Y214922D01*
X1127126Y177922D02*
X1178126D01*
X1127126Y214922D02*
X1178126D01*
X1400132Y177632D02*
Y214632D01*
X1451132Y177632D02*
Y214632D01*
X1400132Y177632D02*
X1451132D01*
X1400132Y214632D02*
X1451132D01*
X1338416Y177922D02*
Y214922D01*
X1389416Y177922D02*
Y214922D01*
X1338416Y177922D02*
X1389416D01*
X1338416Y214922D02*
X1389416D01*
X1611422Y177632D02*
Y214632D01*
X1662422Y177632D02*
Y214632D01*
X1611422Y177632D02*
X1662422D01*
X1611422Y214632D02*
X1662422D01*
X1549706Y177922D02*
Y214922D01*
X1600706Y177922D02*
Y214922D01*
X1549706Y177922D02*
X1600706D01*
X1549706Y214922D02*
X1600706D01*
X1822711Y177632D02*
Y214632D01*
X1873711Y177632D02*
Y214632D01*
X1822711Y177632D02*
X1873711D01*
X1822711Y214632D02*
X1873711D01*
X1760995Y177922D02*
Y214922D01*
X1811995Y177922D02*
Y214922D01*
X1760995Y177922D02*
X1811995D01*
X1760995Y214922D02*
X1811995D01*
X2034001Y177632D02*
Y214632D01*
X2085001Y177632D02*
Y214632D01*
X2034001Y177632D02*
X2085001D01*
X2034001Y214632D02*
X2085001D01*
X1972285Y177922D02*
Y214922D01*
X2023285Y177922D02*
Y214922D01*
X1972285Y177922D02*
X2023285D01*
X1972285Y214922D02*
X2023285D01*
X132348Y177829D02*
Y214830D01*
X183348Y177829D02*
Y214830D01*
X132348Y177829D02*
X183348D01*
X132348Y214830D02*
X183348D01*
X70632Y178120D02*
Y215119D01*
X121632Y178120D02*
Y215119D01*
X70632Y178120D02*
X121632D01*
X70632Y215119D02*
X121632D01*
D11*
X2013414Y20789D02*
G03*
X2013414Y20789I-1250J0D01*
G01*
X1959460Y551256D02*
G03*
X1959460Y551256I-1250J0D01*
G01*
X2106470Y122389D02*
G03*
X2106470Y122389I-1250J0D01*
G01*
X2018433Y566206D02*
G03*
X2018433Y566206I-1250J0D01*
G01*
X400933Y225632D02*
G03*
X400933Y225632I-1250J0D01*
G01*
X339217Y225922D02*
G03*
X339217Y225922I-1250J0D01*
G01*
X612223Y225632D02*
G03*
X612223Y225632I-1250J0D01*
G01*
X550507Y225922D02*
G03*
X550507Y225922I-1250J0D01*
G01*
X823513Y225632D02*
G03*
X823513Y225632I-1250J0D01*
G01*
X761797Y225922D02*
G03*
X761797Y225922I-1250J0D01*
G01*
X1034802Y225632D02*
G03*
X1034802Y225632I-1250J0D01*
G01*
X973086Y225922D02*
G03*
X973086Y225922I-1250J0D01*
G01*
X1246092Y225632D02*
G03*
X1246092Y225632I-1250J0D01*
G01*
X1184376Y225922D02*
G03*
X1184376Y225922I-1250J0D01*
G01*
X1457382Y225632D02*
G03*
X1457382Y225632I-1250J0D01*
G01*
X1395666Y225922D02*
G03*
X1395666Y225922I-1250J0D01*
G01*
X1668672Y225632D02*
G03*
X1668672Y225632I-1250J0D01*
G01*
X1606956Y225922D02*
G03*
X1606956Y225922I-1250J0D01*
G01*
X1879961Y225632D02*
G03*
X1879961Y225632I-1250J0D01*
G01*
X1818245Y225922D02*
G03*
X1818245Y225922I-1250J0D01*
G01*
X2091251Y225632D02*
G03*
X2091251Y225632I-1250J0D01*
G01*
X2029535Y225922D02*
G03*
X2029535Y225922I-1250J0D01*
G01*
X189598Y225830D02*
G03*
X189598Y225830I-1250J0D01*
G01*
X127882Y226119D02*
G03*
X127882Y226119I-1250J0D01*
G01*
D12*
X387683Y204632D02*
G03*
X387683Y204632I-3000J0D01*
G01*
X325967Y204922D02*
G03*
X325967Y204922I-3000J0D01*
G01*
X598973Y204632D02*
G03*
X598973Y204632I-3000J0D01*
G01*
X537257Y204922D02*
G03*
X537257Y204922I-3000J0D01*
G01*
X810263Y204632D02*
G03*
X810263Y204632I-3000J0D01*
G01*
X748547Y204922D02*
G03*
X748547Y204922I-3000J0D01*
G01*
X1021552Y204632D02*
G03*
X1021552Y204632I-3000J0D01*
G01*
X959836Y204922D02*
G03*
X959836Y204922I-3000J0D01*
G01*
X1232842Y204632D02*
G03*
X1232842Y204632I-3000J0D01*
G01*
X1171126Y204922D02*
G03*
X1171126Y204922I-3000J0D01*
G01*
X1444132Y204632D02*
G03*
X1444132Y204632I-3000J0D01*
G01*
X1382416Y204922D02*
G03*
X1382416Y204922I-3000J0D01*
G01*
X1655422Y204632D02*
G03*
X1655422Y204632I-3000J0D01*
G01*
X1593706Y204922D02*
G03*
X1593706Y204922I-3000J0D01*
G01*
X1866711Y204632D02*
G03*
X1866711Y204632I-3000J0D01*
G01*
X1804995Y204922D02*
G03*
X1804995Y204922I-3000J0D01*
G01*
X2078001Y204632D02*
G03*
X2078001Y204632I-3000J0D01*
G01*
X2016285Y204922D02*
G03*
X2016285Y204922I-3000J0D01*
G01*
X176348Y204830D02*
G03*
X176348Y204830I-3000J0D01*
G01*
X114632Y205119D02*
G03*
X114632Y205119I-3000J0D01*
G01*
D13*
X1096649Y37502D02*
X1151649D01*
X960123Y38273D02*
X1030123D01*
X1456550Y480440D02*
Y581429D01*
X1335293Y538110D02*
X1350000D01*
X1330293Y533110D02*
X1335293Y538110D01*
X1330000Y482287D02*
Y533110D01*
X1430000Y480000D02*
Y580989D01*
X1405000Y480000D02*
Y580989D01*
X1380000Y480000D02*
Y580989D01*
X1355000Y480000D02*
Y580989D01*
X1350000Y538110D02*
X1354103D01*
D14*
X31001Y26509D02*
X24337D01*
Y21511D01*
X27669D01*
X24337D01*
Y16513D01*
X34334D02*
X37666D01*
X36000D01*
Y23177D01*
X34334D01*
X42664Y16513D02*
X45996D01*
X44330D01*
Y26509D01*
X42664D01*
X50995Y16513D02*
X54327D01*
X52661D01*
Y23177D01*
X50995D01*
X59325Y13180D02*
Y23177D01*
X64324D01*
X65990Y21511D01*
Y18179D01*
X64324Y16513D01*
X59325D01*
X79319D02*
Y26509D01*
X84318D01*
X85984Y24843D01*
Y21511D01*
X84318Y19845D01*
X79319D01*
X90982Y23177D02*
X94314D01*
X95980Y21511D01*
Y16513D01*
X90982D01*
X89316Y18179D01*
X90982Y19845D01*
X95980D01*
X99313Y23177D02*
Y18179D01*
X100979Y16513D01*
X105977D01*
Y23177D01*
X109309Y16513D02*
X112642D01*
X110976D01*
Y26509D01*
X109309D01*
X127637Y21511D02*
X134301D01*
X147630Y23177D02*
Y16513D01*
Y19845D01*
X149297Y21511D01*
X150963Y23177D01*
X152629D01*
X162626Y16513D02*
X159293D01*
X157627Y18179D01*
Y21511D01*
X159293Y23177D01*
X162626D01*
X164292Y21511D01*
Y19845D01*
X157627D01*
X167624Y23177D02*
X170956Y16513D01*
X174289Y23177D01*
X177621Y16513D02*
X180953D01*
X179287D01*
Y26509D01*
X177621Y24843D01*
X195948Y21511D02*
X202613D01*
X222606Y16513D02*
X215942D01*
X222606Y23177D01*
Y24843D01*
X220940Y26509D01*
X217608D01*
X215942Y24843D01*
X232603Y26509D02*
X229271Y24843D01*
X225938Y21511D01*
Y18179D01*
X227605Y16513D01*
X230937D01*
X232603Y18179D01*
Y19845D01*
X230937Y21511D01*
X225938D01*
X235935Y16513D02*
Y18179D01*
X237601D01*
Y16513D01*
X235935D01*
X244266D02*
X247598D01*
X245932D01*
Y26509D01*
X244266Y24843D01*
X252597Y16513D02*
X255929D01*
X254263D01*
Y26509D01*
X252597Y24843D01*
X260927Y16513D02*
Y18179D01*
X262593D01*
Y16513D01*
X260927D01*
X275922D02*
X269258D01*
X275922Y23177D01*
Y24843D01*
X274256Y26509D01*
X270924D01*
X269258Y24843D01*
X279255D02*
X280921Y26509D01*
X284253D01*
X285919Y24843D01*
Y18179D01*
X284253Y16513D01*
X280921D01*
X279255Y18179D01*
Y24843D01*
X295916Y16513D02*
X289251D01*
X295916Y23177D01*
Y24843D01*
X294250Y26509D01*
X290918D01*
X289251Y24843D01*
X305913Y16513D02*
X299248D01*
X305913Y23177D01*
Y24843D01*
X304247Y26509D01*
X300914D01*
X299248Y24843D01*
X1348290Y38690D02*
X1343292D01*
Y36190D01*
X1344125Y35357D01*
X1347457D01*
X1348290Y36190D01*
Y38690D01*
Y33691D02*
Y30359D01*
X1347457D01*
X1344125Y33691D01*
X1343292D01*
X1327543Y38776D02*
X1322544D01*
Y36277D01*
X1323378Y35444D01*
X1326710D01*
X1327543Y36277D01*
Y38776D01*
X1326710Y33778D02*
X1327543Y32945D01*
Y31279D01*
X1326710Y30445D01*
X1325877D01*
X1325044Y31279D01*
X1324211Y30445D01*
X1323378D01*
X1322544Y31279D01*
Y32945D01*
X1323378Y33778D01*
X1324211D01*
X1325044Y32945D01*
X1325877Y33778D01*
X1326710D01*
X1325044Y32945D02*
Y31279D01*
X1307969Y38760D02*
X1302971D01*
Y36260D01*
X1303804Y35427D01*
X1307136D01*
X1307969Y36260D01*
Y38760D01*
X1303804Y33761D02*
X1302971Y32928D01*
Y31262D01*
X1303804Y30429D01*
X1307136D01*
X1307969Y31262D01*
Y32928D01*
X1307136Y33761D01*
X1306303D01*
X1305470Y32928D01*
Y30429D01*
X1287491Y38242D02*
X1282493D01*
Y35743D01*
X1283326Y34910D01*
X1286658D01*
X1287491Y35743D01*
Y38242D01*
X1282493Y33244D02*
Y31577D01*
Y32411D01*
X1287491D01*
X1286658Y33244D01*
Y29078D02*
X1287491Y28245D01*
Y26579D01*
X1286658Y25746D01*
X1283326D01*
X1282493Y26579D01*
Y28245D01*
X1283326Y29078D01*
X1286658D01*
X1263681Y41335D02*
X1268679D01*
X1267013Y39668D01*
X1268679Y38002D01*
X1263681D01*
X1268679Y36336D02*
X1264514D01*
X1263681Y35503D01*
Y33837D01*
X1264514Y33004D01*
X1268679D01*
Y31338D02*
X1263681Y28005D01*
X1268679D02*
X1263681Y31338D01*
Y23007D02*
Y26339D01*
X1267013Y23007D01*
X1267846D01*
X1268679Y23840D01*
Y25506D01*
X1267846Y26339D01*
X1262848Y21341D02*
Y18009D01*
X1263681Y16343D02*
X1267013D01*
Y13843D01*
X1266180Y13010D01*
X1263681D01*
X1268679Y8012D02*
Y11344D01*
X1263681D01*
Y8012D01*
X1266180Y11344D02*
Y9678D01*
X1263681Y6346D02*
X1268679D01*
X1263681Y3014D01*
X1268679D01*
X1241682Y38930D02*
X1246680D01*
X1245014Y37264D01*
X1246680Y35598D01*
X1241682D01*
X1246680Y33932D02*
X1242515D01*
X1241682Y33099D01*
Y31433D01*
X1242515Y30600D01*
X1246680D01*
Y28934D02*
X1241682Y25601D01*
X1246680D02*
X1241682Y28934D01*
Y20603D02*
Y23935D01*
X1245014Y20603D01*
X1245847D01*
X1246680Y21436D01*
Y23102D01*
X1245847Y23935D01*
X1240848Y18937D02*
Y15605D01*
X1241682Y13938D02*
X1245014D01*
X1246680Y12272D01*
X1245014Y10606D01*
X1241682D01*
X1244181D01*
Y13938D01*
X1245847Y8940D02*
X1246680Y8107D01*
Y6441D01*
X1245847Y5608D01*
X1242515D01*
X1241682Y6441D01*
Y8107D01*
X1242515Y8940D01*
X1245847D01*
X1223268Y38930D02*
X1228267D01*
X1226601Y37264D01*
X1228267Y35598D01*
X1223268D01*
X1228267Y33932D02*
X1224101D01*
X1223268Y33099D01*
Y31433D01*
X1224101Y30600D01*
X1228267D01*
Y28934D02*
X1223268Y25601D01*
X1228267D02*
X1223268Y28934D01*
Y20603D02*
Y23935D01*
X1226601Y20603D01*
X1227434D01*
X1228267Y21436D01*
Y23102D01*
X1227434Y23935D01*
X1222435Y18937D02*
Y15605D01*
X1223268Y13938D02*
X1226601D01*
X1228267Y12272D01*
X1226601Y10606D01*
X1223268D01*
X1225768D01*
Y13938D01*
X1223268Y5608D02*
Y8940D01*
X1226601Y5608D01*
X1227434D01*
X1228267Y6441D01*
Y8107D01*
X1227434Y8940D01*
X1202446Y38930D02*
X1207444D01*
X1205778Y37264D01*
X1207444Y35598D01*
X1202446D01*
X1207444Y33932D02*
X1203279D01*
X1202446Y33099D01*
Y31433D01*
X1203279Y30600D01*
X1207444D01*
Y28934D02*
X1202446Y25601D01*
X1207444D02*
X1202446Y28934D01*
Y20603D02*
Y23935D01*
X1205778Y20603D01*
X1206611D01*
X1207444Y21436D01*
Y23102D01*
X1206611Y23935D01*
X1201613Y18937D02*
Y15605D01*
X1202446Y13938D02*
X1205778D01*
X1207444Y12272D01*
X1205778Y10606D01*
X1202446D01*
X1204945D01*
Y13938D01*
X1202446Y8940D02*
Y7274D01*
Y8107D01*
X1207444D01*
X1206611Y8940D01*
X1187031Y35468D02*
Y38800D01*
X1184532D01*
X1185365Y37134D01*
Y36301D01*
X1184532Y35468D01*
X1182866D01*
X1182033Y36301D01*
Y37967D01*
X1182866Y38800D01*
X1187031Y33802D02*
X1183699D01*
X1182033Y32136D01*
X1183699Y30469D01*
X1187031D01*
X1181200Y28803D02*
Y25471D01*
X1187031Y20473D02*
Y23805D01*
X1182033D01*
Y20473D01*
X1184532Y23805D02*
Y22139D01*
X1181200Y18807D02*
Y15474D01*
X1182033Y11309D02*
Y12975D01*
X1182866Y13808D01*
X1184532D01*
X1185365Y12975D01*
Y11309D01*
X1184532Y10476D01*
X1183699D01*
Y13808D01*
X1182033Y8810D02*
X1185365D01*
Y6311D01*
X1184532Y5477D01*
X1182033D01*
X1167665Y40823D02*
X1164333D01*
X1162667Y39157D01*
X1164333Y37491D01*
X1167665D01*
X1161001Y35825D02*
X1165999D01*
Y33326D01*
X1165166Y32493D01*
X1163500D01*
X1162667Y33326D01*
Y35825D01*
Y30826D02*
Y29160D01*
Y29994D01*
X1165999D01*
Y30826D01*
X1162667Y26661D02*
X1165999D01*
Y24162D01*
X1165166Y23329D01*
X1162667D01*
Y21663D02*
Y19164D01*
X1163500Y18331D01*
X1164333Y19164D01*
Y20830D01*
X1165166Y21663D01*
X1165999Y20830D01*
Y18331D01*
X1161834Y16665D02*
Y13332D01*
X1162667Y9167D02*
Y10833D01*
X1163500Y11666D01*
X1165166D01*
X1165999Y10833D01*
Y9167D01*
X1165166Y8334D01*
X1164333D01*
Y11666D01*
X1162667Y6668D02*
X1165999D01*
Y4169D01*
X1165166Y3336D01*
X1162667D01*
X1101200Y32031D02*
Y27033D01*
X1103699D01*
X1104532Y27866D01*
Y28699D01*
X1103699Y29532D01*
X1101200D01*
X1103699D01*
X1104532Y30365D01*
Y31198D01*
X1103699Y32031D01*
X1101200D01*
X1108698D02*
X1107031D01*
X1106198Y31198D01*
Y27866D01*
X1107031Y27033D01*
X1108698D01*
X1109531Y27866D01*
Y31198D01*
X1108698Y32031D01*
X1111197Y27033D02*
Y30365D01*
X1112863Y32031D01*
X1114529Y30365D01*
Y27033D01*
Y29532D01*
X1111197D01*
X1116195Y27033D02*
Y32031D01*
X1118694D01*
X1119527Y31198D01*
Y29532D01*
X1118694Y28699D01*
X1116195D01*
X1117861D02*
X1119527Y27033D01*
X1121193Y32031D02*
Y27033D01*
X1123693D01*
X1124526Y27866D01*
Y31198D01*
X1123693Y32031D01*
X1121193D01*
X1126192Y26200D02*
X1129524D01*
X1131190Y27033D02*
Y32031D01*
X1133689D01*
X1134522Y31198D01*
Y29532D01*
X1133689Y28699D01*
X1131190D01*
X1136189Y32031D02*
Y27033D01*
X1137855Y28699D01*
X1139521Y27033D01*
Y32031D01*
X1141187Y27033D02*
Y32031D01*
X1143686D01*
X1144519Y31198D01*
Y29532D01*
X1143686Y28699D01*
X1141187D01*
X1142853D02*
X1144519Y27033D01*
X1111200Y21198D02*
X1114532D01*
Y20365D01*
X1111200Y17033D01*
Y16200D01*
X1116198Y18699D02*
X1119531D01*
X1121197Y16200D02*
X1122863D01*
X1122030D01*
Y21198D01*
X1121197Y20365D01*
X1128694Y21198D02*
X1125362D01*
Y18699D01*
X1127028Y19532D01*
X1127861D01*
X1128694Y18699D01*
Y17033D01*
X1127861Y16200D01*
X1126195D01*
X1125362Y17033D01*
X1130360Y21198D02*
Y17866D01*
X1132027Y16200D01*
X1133693Y17866D01*
Y21198D01*
X1082033Y38800D02*
X1087031D01*
X1085365Y37134D01*
X1087031Y35468D01*
X1082033D01*
X1086198Y30469D02*
X1087031Y31302D01*
Y32968D01*
X1086198Y33802D01*
X1082866D01*
X1082033Y32968D01*
Y31302D01*
X1082866Y30469D01*
X1087031Y28803D02*
X1082866D01*
X1082033Y27970D01*
Y26304D01*
X1082866Y25471D01*
X1087031D01*
X1081200Y23805D02*
Y20473D01*
X1082033Y18807D02*
X1087031D01*
Y16307D01*
X1086198Y15474D01*
X1084532D01*
X1083699Y16307D01*
Y18807D01*
X1087031Y13808D02*
X1082033D01*
X1083699Y12142D01*
X1082033Y10476D01*
X1087031D01*
X1082033Y8810D02*
X1087031D01*
Y6311D01*
X1086198Y5477D01*
X1084532D01*
X1083699Y6311D01*
Y8810D01*
Y7144D02*
X1082033Y5477D01*
X1067865Y38800D02*
X1064532D01*
X1062866Y37134D01*
X1064532Y35468D01*
X1067865D01*
X1061200Y33802D02*
X1066198D01*
Y31302D01*
X1065365Y30469D01*
X1063699D01*
X1062866Y31302D01*
Y33802D01*
Y28803D02*
Y27137D01*
Y27970D01*
X1066198D01*
Y28803D01*
X1062866Y24638D02*
X1066198D01*
Y22139D01*
X1065365Y21306D01*
X1062866D01*
Y19640D02*
Y17140D01*
X1063699Y16307D01*
X1064532Y17140D01*
Y18807D01*
X1065365Y19640D01*
X1066198Y18807D01*
Y16307D01*
X1046198Y38800D02*
X1042866D01*
X1041200Y37134D01*
X1042866Y35468D01*
X1046198D01*
X1044532Y33802D02*
X1041200D01*
X1042866D01*
X1043699Y32968D01*
X1044532Y32136D01*
Y31302D01*
X1041200Y26304D02*
Y27970D01*
X1042033Y28803D01*
X1043699D01*
X1044532Y27970D01*
Y26304D01*
X1043699Y25471D01*
X1042866D01*
Y28803D01*
X1041200Y22972D02*
X1045365D01*
X1043699D01*
Y23805D01*
Y22139D01*
Y22972D01*
X1045365D01*
X1046198Y22139D01*
X994532Y30365D02*
X993699Y31198D01*
X992033D01*
X991200Y30365D01*
Y27033D01*
X992033Y26200D01*
X993699D01*
X994532Y27033D01*
Y28699D01*
X992866D01*
X996198Y26200D02*
Y31198D01*
X999531Y26200D01*
Y31198D01*
X1001197D02*
Y26200D01*
X1003696D01*
X1004529Y27033D01*
Y30365D01*
X1003696Y31198D01*
X1001197D01*
X942930Y39427D02*
X947928D01*
Y36928D01*
X947095Y36095D01*
X945429D01*
X944596Y36928D01*
Y39427D01*
X942930Y34429D02*
Y32763D01*
Y33596D01*
X947928D01*
X947095Y34429D01*
X942097Y30264D02*
Y26932D01*
X947095Y21933D02*
X947928Y22766D01*
Y24432D01*
X947095Y25265D01*
X946262D01*
X945429Y24432D01*
Y22766D01*
X944596Y21933D01*
X943763D01*
X942930Y22766D01*
Y24432D01*
X943763Y25265D01*
X942930Y20267D02*
X947928D01*
Y17768D01*
X947095Y16935D01*
X945429D01*
X944596Y17768D01*
Y20267D01*
Y18601D02*
X942930Y16935D01*
X947095Y11936D02*
X947928Y12769D01*
Y14436D01*
X947095Y15269D01*
X943763D01*
X942930Y14436D01*
Y12769D01*
X943763Y11936D01*
X947928Y10270D02*
X942930D01*
Y6938D01*
Y5272D02*
X947928D01*
Y2773D01*
X947095Y1940D01*
X945429D01*
X944596Y2773D01*
Y5272D01*
Y3606D02*
X942930Y1940D01*
X922908Y39726D02*
X927906D01*
Y37227D01*
X927073Y36394D01*
X925407D01*
X924574Y37227D01*
Y39726D01*
X922908Y34728D02*
Y33062D01*
Y33895D01*
X927906D01*
X927073Y34728D01*
X922075Y30563D02*
Y27230D01*
X927073Y22232D02*
X927906Y23065D01*
Y24731D01*
X927073Y25564D01*
X926240D01*
X925407Y24731D01*
Y23065D01*
X924574Y22232D01*
X923741D01*
X922908Y23065D01*
Y24731D01*
X923741Y25564D01*
X922908Y20566D02*
X927906D01*
Y18067D01*
X927073Y17234D01*
X925407D01*
X924574Y18067D01*
Y20566D01*
Y18900D02*
X922908Y17234D01*
X927073Y12235D02*
X927906Y13068D01*
Y14734D01*
X927073Y15567D01*
X923741D01*
X922908Y14734D01*
Y13068D01*
X923741Y12235D01*
X927906Y10569D02*
X922908D01*
Y7237D01*
X927906Y5571D02*
X922908D01*
X924574D01*
X927906Y2238D01*
X925407Y4738D01*
X922908Y2238D01*
X901178Y39555D02*
X906176D01*
Y37056D01*
X905343Y36223D01*
X903677D01*
X902844Y37056D01*
Y39555D01*
X901178Y34556D02*
Y32890D01*
Y33723D01*
X906176D01*
X905343Y34556D01*
X900345Y30391D02*
Y27059D01*
X901178Y25393D02*
X906176D01*
Y22894D01*
X905343Y22060D01*
X903677D01*
X902844Y22894D01*
Y25393D01*
Y23727D02*
X901178Y22060D01*
X905343Y17062D02*
X906176Y17895D01*
Y19561D01*
X905343Y20394D01*
X902011D01*
X901178Y19561D01*
Y17895D01*
X902011Y17062D01*
X906176Y15396D02*
X901178D01*
Y12064D01*
X906176Y10398D02*
X901178D01*
X902844D01*
X906176Y7065D01*
X903677Y9565D01*
X901178Y7065D01*
X882399Y38729D02*
X887397D01*
Y36230D01*
X886564Y35397D01*
X884898D01*
X884065Y36230D01*
Y38729D01*
X882399Y33731D02*
Y32065D01*
Y32898D01*
X887397D01*
X886564Y33731D01*
X881566Y29566D02*
Y26233D01*
X882399Y24567D02*
X885731D01*
Y22068D01*
X884898Y21235D01*
X882399D01*
X887397Y17070D02*
Y18736D01*
X886564Y19569D01*
X883232D01*
X882399Y18736D01*
Y17070D01*
X883232Y16237D01*
X886564D01*
X887397Y17070D01*
Y11238D02*
Y14571D01*
X882399D01*
Y11238D01*
X884898Y14571D02*
Y12904D01*
X863208Y38110D02*
X868206D01*
Y35611D01*
X867373Y34778D01*
X865707D01*
X864874Y35611D01*
Y38110D01*
X863208Y33112D02*
Y31446D01*
Y32279D01*
X868206D01*
X867373Y33112D01*
X862375Y28947D02*
Y25614D01*
X867373Y20616D02*
X868206Y21449D01*
Y23115D01*
X867373Y23948D01*
X866540D01*
X865707Y23115D01*
Y21449D01*
X864874Y20616D01*
X864041D01*
X863208Y21449D01*
Y23115D01*
X864041Y23948D01*
X868206Y15618D02*
Y18950D01*
X863208D01*
Y15618D01*
X865707Y18950D02*
Y17284D01*
X863208Y13951D02*
X868206D01*
Y11452D01*
X867373Y10619D01*
X865707D01*
X864874Y11452D01*
Y13951D01*
Y12285D02*
X863208Y10619D01*
X1348262Y92035D02*
X1343264D01*
Y89536D01*
X1344097Y88703D01*
X1347429D01*
X1348262Y89536D01*
Y92035D01*
Y83705D02*
X1347429Y85371D01*
X1345763Y87037D01*
X1344097D01*
X1343264Y86204D01*
Y84538D01*
X1344097Y83705D01*
X1344930D01*
X1345763Y84538D01*
Y87037D01*
X1324097Y112029D02*
X1329095D01*
X1324097Y108696D01*
X1329095D01*
X1324097Y103698D02*
Y107030D01*
X1327429Y103698D01*
X1328262D01*
X1329095Y104531D01*
Y106197D01*
X1328262Y107030D01*
X1323264Y102032D02*
Y98700D01*
X1328262Y93701D02*
X1329095Y94535D01*
Y96201D01*
X1328262Y97034D01*
X1327429D01*
X1326596Y96201D01*
Y94535D01*
X1325763Y93701D01*
X1324930D01*
X1324097Y94535D01*
Y96201D01*
X1324930Y97034D01*
X1329095Y88703D02*
Y92035D01*
X1324097D01*
Y88703D01*
X1326596Y92035D02*
Y90369D01*
X1324097Y87037D02*
X1329095D01*
Y84538D01*
X1328262Y83705D01*
X1326596D01*
X1325763Y84538D01*
Y87037D01*
Y85371D02*
X1324097Y83705D01*
X1304097Y112029D02*
X1309095D01*
X1304097Y108696D01*
X1309095D01*
X1304097Y103698D02*
Y107030D01*
X1307429Y103698D01*
X1308262D01*
X1309095Y104531D01*
Y106197D01*
X1308262Y107030D01*
X1303264Y102032D02*
Y98700D01*
X1304097Y97034D02*
X1307429D01*
Y94535D01*
X1306596Y93701D01*
X1304097D01*
X1309095Y89536D02*
Y91202D01*
X1308262Y92035D01*
X1304930D01*
X1304097Y91202D01*
Y89536D01*
X1304930Y88703D01*
X1308262D01*
X1309095Y89536D01*
Y83705D02*
Y87037D01*
X1304097D01*
Y83705D01*
X1306596Y87037D02*
Y85371D01*
X1284097Y117027D02*
X1289095D01*
X1284097Y113695D01*
X1289095D01*
X1284097Y108696D02*
Y112029D01*
X1287429Y108696D01*
X1288262D01*
X1289095Y109530D01*
Y111196D01*
X1288262Y112029D01*
X1283264Y107030D02*
Y103698D01*
X1284097Y102032D02*
X1289095D01*
Y99533D01*
X1288262Y98700D01*
X1286596D01*
X1285763Y99533D01*
Y102032D01*
Y100366D02*
X1284097Y98700D01*
X1288262Y93701D02*
X1289095Y94535D01*
Y96201D01*
X1288262Y97034D01*
X1284930D01*
X1284097Y96201D01*
Y94535D01*
X1284930Y93701D01*
X1289095Y92035D02*
X1284097D01*
Y88703D01*
X1289095Y87037D02*
X1284097D01*
X1285763D01*
X1289095Y83705D01*
X1286596Y86204D01*
X1284097Y83705D01*
X1264097Y122025D02*
X1269095D01*
X1264097Y118693D01*
X1269095D01*
X1264097Y113695D02*
Y117027D01*
X1267429Y113695D01*
X1268262D01*
X1269095Y114528D01*
Y116194D01*
X1268262Y117027D01*
X1263264Y112029D02*
Y108696D01*
X1268262Y103698D02*
X1269095Y104531D01*
Y106197D01*
X1268262Y107030D01*
X1267429D01*
X1266596Y106197D01*
Y104531D01*
X1265763Y103698D01*
X1264930D01*
X1264097Y104531D01*
Y106197D01*
X1264930Y107030D01*
X1264097Y102032D02*
X1269095D01*
Y99533D01*
X1268262Y98700D01*
X1266596D01*
X1265763Y99533D01*
Y102032D01*
Y100366D02*
X1264097Y98700D01*
X1268262Y93701D02*
X1269095Y94535D01*
Y96201D01*
X1268262Y97034D01*
X1264930D01*
X1264097Y96201D01*
Y94535D01*
X1264930Y93701D01*
X1269095Y92035D02*
X1264097D01*
Y88703D01*
X1269095Y87037D02*
X1264097D01*
X1265763D01*
X1269095Y83705D01*
X1266596Y86204D01*
X1264097Y83705D01*
X1244097Y122025D02*
X1249095D01*
X1244097Y118693D01*
X1249095D01*
X1244097Y113695D02*
Y117027D01*
X1247429Y113695D01*
X1248262D01*
X1249095Y114528D01*
Y116194D01*
X1248262Y117027D01*
X1243264Y112029D02*
Y108696D01*
X1248262Y103698D02*
X1249095Y104531D01*
Y106197D01*
X1248262Y107030D01*
X1247429D01*
X1246596Y106197D01*
Y104531D01*
X1245763Y103698D01*
X1244930D01*
X1244097Y104531D01*
Y106197D01*
X1244930Y107030D01*
X1244097Y102032D02*
X1249095D01*
Y99533D01*
X1248262Y98700D01*
X1246596D01*
X1245763Y99533D01*
Y102032D01*
Y100366D02*
X1244097Y98700D01*
X1248262Y93701D02*
X1249095Y94535D01*
Y96201D01*
X1248262Y97034D01*
X1244930D01*
X1244097Y96201D01*
Y94535D01*
X1244930Y93701D01*
X1249095Y92035D02*
X1244097D01*
Y88703D01*
Y87037D02*
X1249095D01*
Y84538D01*
X1248262Y83705D01*
X1246596D01*
X1245763Y84538D01*
Y87037D01*
Y85371D02*
X1244097Y83705D01*
X1224097Y112029D02*
X1229095D01*
Y109529D01*
X1228262Y108696D01*
X1226596D01*
X1225763Y109529D01*
Y112029D01*
X1224097Y103698D02*
Y107030D01*
X1227429Y103698D01*
X1228262D01*
X1229095Y104531D01*
Y106197D01*
X1228262Y107030D01*
X1223264Y102032D02*
Y98700D01*
X1228262Y93701D02*
X1229095Y94535D01*
Y96201D01*
X1228262Y97034D01*
X1227429D01*
X1226596Y96201D01*
Y94535D01*
X1225763Y93701D01*
X1224930D01*
X1224097Y94535D01*
Y96201D01*
X1224930Y97034D01*
X1229095Y88703D02*
Y92035D01*
X1224097D01*
Y88703D01*
X1226596Y92035D02*
Y90369D01*
X1224097Y87037D02*
X1229095D01*
Y84538D01*
X1228262Y83705D01*
X1226596D01*
X1225763Y84538D01*
Y87037D01*
Y85371D02*
X1224097Y83705D01*
X1204097Y112029D02*
X1209095D01*
Y109530D01*
X1208262Y108696D01*
X1206596D01*
X1205763Y109530D01*
Y112029D01*
X1204097Y103698D02*
Y107030D01*
X1207429Y103698D01*
X1208262D01*
X1209095Y104531D01*
Y106197D01*
X1208262Y107030D01*
X1203264Y102032D02*
Y98700D01*
X1204097Y97034D02*
X1207429D01*
Y94535D01*
X1206596Y93701D01*
X1204097D01*
X1209095Y89536D02*
Y91202D01*
X1208262Y92035D01*
X1204930D01*
X1204097Y91202D01*
Y89536D01*
X1204930Y88703D01*
X1208262D01*
X1209095Y89536D01*
Y83705D02*
Y87037D01*
X1204097D01*
Y83705D01*
X1206596Y87037D02*
Y85371D01*
X1184097Y117027D02*
X1189095D01*
Y114528D01*
X1188262Y113695D01*
X1186596D01*
X1185763Y114528D01*
Y117027D01*
X1184097Y108696D02*
Y112029D01*
X1187429Y108696D01*
X1188262D01*
X1189095Y109529D01*
Y111196D01*
X1188262Y112029D01*
X1183264Y107030D02*
Y103698D01*
X1184097Y102032D02*
X1189095D01*
Y99533D01*
X1188262Y98700D01*
X1186596D01*
X1185763Y99533D01*
Y102032D01*
Y100366D02*
X1184097Y98700D01*
X1188262Y93701D02*
X1189095Y94535D01*
Y96201D01*
X1188262Y97034D01*
X1184930D01*
X1184097Y96201D01*
Y94535D01*
X1184930Y93701D01*
X1189095Y92035D02*
X1184097D01*
Y88703D01*
X1189095Y87037D02*
X1184097D01*
X1185763D01*
X1189095Y83705D01*
X1186596Y86204D01*
X1184097Y83705D01*
X1164097Y122025D02*
X1169095D01*
Y119526D01*
X1168262Y118693D01*
X1166596D01*
X1165763Y119526D01*
Y122025D01*
X1164097Y113695D02*
Y117027D01*
X1167429Y113695D01*
X1168262D01*
X1169095Y114528D01*
Y116194D01*
X1168262Y117027D01*
X1163264Y112029D02*
Y108696D01*
X1168262Y103698D02*
X1169095Y104531D01*
Y106197D01*
X1168262Y107030D01*
X1167429D01*
X1166596Y106197D01*
Y104531D01*
X1165763Y103698D01*
X1164930D01*
X1164097Y104531D01*
Y106197D01*
X1164930Y107030D01*
X1164097Y102032D02*
X1169095D01*
Y99533D01*
X1168262Y98700D01*
X1166596D01*
X1165763Y99533D01*
Y102032D01*
Y100366D02*
X1164097Y98700D01*
X1168262Y93701D02*
X1169095Y94535D01*
Y96201D01*
X1168262Y97034D01*
X1164930D01*
X1164097Y96201D01*
Y94535D01*
X1164930Y93701D01*
X1169095Y92035D02*
X1164097D01*
Y88703D01*
X1169095Y87037D02*
X1164097D01*
X1165763D01*
X1169095Y83705D01*
X1166596Y86204D01*
X1164097Y83705D01*
X1144097Y122025D02*
X1149095D01*
Y119526D01*
X1148262Y118693D01*
X1146596D01*
X1145763Y119526D01*
Y122025D01*
X1144097Y113695D02*
Y117027D01*
X1147429Y113695D01*
X1148262D01*
X1149095Y114528D01*
Y116194D01*
X1148262Y117027D01*
X1143264Y112029D02*
Y108696D01*
X1148262Y103698D02*
X1149095Y104531D01*
Y106197D01*
X1148262Y107030D01*
X1147429D01*
X1146596Y106197D01*
Y104531D01*
X1145763Y103698D01*
X1144930D01*
X1144097Y104531D01*
Y106197D01*
X1144930Y107030D01*
X1144097Y102032D02*
X1149095D01*
Y99533D01*
X1148262Y98700D01*
X1146596D01*
X1145763Y99533D01*
Y102032D01*
Y100366D02*
X1144097Y98700D01*
X1148262Y93701D02*
X1149095Y94535D01*
Y96201D01*
X1148262Y97034D01*
X1144930D01*
X1144097Y96201D01*
Y94535D01*
X1144930Y93701D01*
X1149095Y92035D02*
X1144097D01*
Y88703D01*
Y87037D02*
X1149095D01*
Y84538D01*
X1148262Y83705D01*
X1146596D01*
X1145763Y84538D01*
Y87037D01*
Y85371D02*
X1144097Y83705D01*
X1128262Y92035D02*
X1123264D01*
Y89536D01*
X1124097Y88703D01*
X1127429D01*
X1128262Y89536D01*
Y92035D01*
Y83705D02*
Y87037D01*
X1125763D01*
X1126596Y85371D01*
Y84538D01*
X1125763Y83705D01*
X1124097D01*
X1123264Y84538D01*
Y86204D01*
X1124097Y87037D01*
X1108262Y92035D02*
X1103264D01*
Y89536D01*
X1104097Y88703D01*
X1107429D01*
X1108262Y89536D01*
Y92035D01*
X1103264Y84538D02*
X1108262D01*
X1105763Y87037D01*
Y83705D01*
X1088262Y92035D02*
X1083263D01*
Y89536D01*
X1084097Y88703D01*
X1087429D01*
X1088262Y89536D01*
Y92035D01*
X1087429Y87037D02*
X1088262Y86204D01*
Y84538D01*
X1087429Y83705D01*
X1086596D01*
X1085763Y84538D01*
Y85371D01*
Y84538D01*
X1084930Y83705D01*
X1084097D01*
X1083263Y84538D01*
Y86204D01*
X1084097Y87037D01*
X1068262Y92035D02*
X1063264D01*
Y89536D01*
X1064097Y88703D01*
X1067429D01*
X1068262Y89536D01*
Y92035D01*
X1063264Y83705D02*
Y87037D01*
X1066596Y83705D01*
X1067429D01*
X1068262Y84538D01*
Y86204D01*
X1067429Y87037D01*
X1048262Y90369D02*
X1043263D01*
Y87870D01*
X1044097Y87037D01*
X1047429D01*
X1048262Y87870D01*
Y90369D01*
X1043263Y85371D02*
Y83705D01*
Y84538D01*
X1048262D01*
X1047429Y85371D01*
X1021574Y116194D02*
X1026573D01*
X1024907Y114528D01*
X1026573Y112862D01*
X1021574D01*
X1026573Y111196D02*
X1022408D01*
X1021574Y110363D01*
Y108696D01*
X1022408Y107864D01*
X1026573D01*
Y106197D02*
X1021574Y102865D01*
X1026573D02*
X1021574Y106197D01*
Y101199D02*
Y99533D01*
Y100366D01*
X1026573D01*
X1025740Y101199D01*
X1020741Y97034D02*
Y93701D01*
X1021574Y92035D02*
X1024907D01*
X1026573Y90369D01*
X1024907Y88703D01*
X1021574D01*
X1024074D01*
Y92035D01*
X1025740Y87037D02*
X1026573Y86204D01*
Y84538D01*
X1025740Y83705D01*
X1022408D01*
X1021574Y84538D01*
Y86204D01*
X1022408Y87037D01*
X1025740D01*
X1001574Y121192D02*
X1006573D01*
X1004907Y119526D01*
X1006573Y117860D01*
X1001574D01*
X1006573Y116194D02*
X1002408D01*
X1001574Y115361D01*
Y113695D01*
X1002408Y112862D01*
X1006573D01*
Y111196D02*
X1001574Y107864D01*
X1006573D02*
X1001574Y111196D01*
Y106197D02*
Y104531D01*
Y105364D01*
X1006573D01*
X1005740Y106197D01*
X1000741Y102032D02*
Y98700D01*
X1001574Y97034D02*
X1004907D01*
Y94535D01*
X1004074Y93701D01*
X1001574D01*
X1006573Y88703D02*
Y92035D01*
X1001574D01*
Y88703D01*
X1004074Y92035D02*
Y90369D01*
X1001574Y87037D02*
X1006573D01*
X1001574Y83705D01*
X1006573D01*
X981574Y110363D02*
X986573D01*
X984907Y108696D01*
X986573Y107030D01*
X981574D01*
X986573Y105364D02*
X982408D01*
X981574Y104531D01*
Y102865D01*
X982408Y102032D01*
X986573D01*
Y100366D02*
X981574Y97034D01*
X986573D02*
X981574Y100366D01*
X980741Y95367D02*
Y92035D01*
X981574Y90369D02*
X984907D01*
X986573Y88703D01*
X984907Y87037D01*
X981574D01*
X984074D01*
Y90369D01*
X981574Y85371D02*
Y83705D01*
Y84538D01*
X986573D01*
X985740Y85371D01*
X961574Y116194D02*
X966573D01*
X964907Y114528D01*
X966573Y112862D01*
X961574D01*
X966573Y111196D02*
X962408D01*
X961574Y110363D01*
Y108696D01*
X962408Y107863D01*
X966573D01*
Y106197D02*
X961574Y102865D01*
X966573D02*
X961574Y106197D01*
Y101199D02*
Y99533D01*
Y100366D01*
X966573D01*
X965740Y101199D01*
X960741Y97034D02*
Y93701D01*
X961574Y92035D02*
X964907D01*
X966573Y90369D01*
X964907Y88703D01*
X961574D01*
X964074D01*
Y92035D01*
X961574Y83705D02*
Y87037D01*
X964907Y83705D01*
X965740D01*
X966573Y84538D01*
Y86204D01*
X965740Y87037D01*
X941574Y111196D02*
X946573D01*
X941574Y107863D01*
X946573D01*
X941574Y106197D02*
Y104531D01*
Y105364D01*
X946573D01*
X945740Y106197D01*
X940741Y102032D02*
Y98700D01*
X941574Y97034D02*
X944907D01*
Y94535D01*
X944074Y93701D01*
X941574D01*
X946573Y89536D02*
Y91202D01*
X945740Y92035D01*
X942408D01*
X941574Y91202D01*
Y89536D01*
X942408Y88703D01*
X945740D01*
X946573Y89536D01*
Y83705D02*
Y87037D01*
X941574D01*
Y83705D01*
X944074Y87037D02*
Y85371D01*
X921574Y111196D02*
X926573D01*
X921574Y107864D01*
X926573D01*
X921574Y106197D02*
Y104531D01*
Y105364D01*
X926573D01*
X925740Y106197D01*
X920741Y102032D02*
Y98700D01*
X925740Y93701D02*
X926573Y94535D01*
Y96201D01*
X925740Y97034D01*
X924907D01*
X924074Y96201D01*
Y94535D01*
X923241Y93701D01*
X922408D01*
X921574Y94535D01*
Y96201D01*
X922408Y97034D01*
X926573Y88703D02*
Y92035D01*
X921574D01*
Y88703D01*
X924074Y92035D02*
Y90369D01*
X921574Y87037D02*
X926573D01*
Y84538D01*
X925740Y83705D01*
X924074D01*
X923241Y84538D01*
Y87037D01*
Y85371D02*
X921574Y83705D01*
X901574Y116194D02*
X906573D01*
X901574Y112862D01*
X906573D01*
X901574Y111196D02*
Y109530D01*
Y110363D01*
X906573D01*
X905740Y111196D01*
X900741Y107030D02*
Y103698D01*
X901574Y102032D02*
X906573D01*
Y99533D01*
X905740Y98700D01*
X904074D01*
X903241Y99533D01*
Y102032D01*
Y100366D02*
X901574Y98700D01*
X905740Y93701D02*
X906573Y94535D01*
Y96201D01*
X905740Y97034D01*
X902408D01*
X901574Y96201D01*
Y94535D01*
X902408Y93701D01*
X906573Y92035D02*
X901574D01*
Y88703D01*
X906573Y87037D02*
X901574D01*
X903241D01*
X906573Y83705D01*
X904074Y86204D01*
X901574Y83705D01*
X881574Y121192D02*
X886573D01*
X881574Y117860D01*
X886573D01*
X881574Y116194D02*
Y114528D01*
Y115361D01*
X886573D01*
X885740Y116194D01*
X880741Y112029D02*
Y108696D01*
X885740Y103698D02*
X886573Y104531D01*
Y106197D01*
X885740Y107030D01*
X884907D01*
X884074Y106197D01*
Y104531D01*
X883241Y103698D01*
X882408D01*
X881574Y104531D01*
Y106197D01*
X882408Y107030D01*
X881574Y102032D02*
X886573D01*
Y99533D01*
X885740Y98700D01*
X884074D01*
X883241Y99533D01*
Y102032D01*
Y100366D02*
X881574Y98700D01*
X885740Y93701D02*
X886573Y94535D01*
Y96201D01*
X885740Y97034D01*
X882408D01*
X881574Y96201D01*
Y94535D01*
X882408Y93701D01*
X886573Y92035D02*
X881574D01*
Y88703D01*
X886573Y87037D02*
X881574D01*
X883241D01*
X886573Y83705D01*
X884074Y86204D01*
X881574Y83705D01*
X862253Y121192D02*
X867252D01*
X862253Y117860D01*
X867252D01*
X862253Y116194D02*
Y114528D01*
Y115361D01*
X867252D01*
X866419Y116194D01*
X861420Y112029D02*
Y108696D01*
X866419Y103698D02*
X867252Y104531D01*
Y106197D01*
X866419Y107030D01*
X865585D01*
X864752Y106197D01*
Y104531D01*
X863919Y103698D01*
X863086D01*
X862253Y104531D01*
Y106197D01*
X863086Y107030D01*
X862253Y102032D02*
X867252D01*
Y99533D01*
X866419Y98700D01*
X864752D01*
X863919Y99533D01*
Y102032D01*
Y100366D02*
X862253Y98700D01*
X866419Y93701D02*
X867252Y94535D01*
Y96201D01*
X866419Y97034D01*
X863086D01*
X862253Y96201D01*
Y94535D01*
X863086Y93701D01*
X867252Y92035D02*
X862253D01*
Y88703D01*
Y87037D02*
X867252D01*
Y84538D01*
X866419Y83705D01*
X864752D01*
X863919Y84538D01*
Y87037D01*
Y85371D02*
X862253Y83705D01*
X1471726Y493577D02*
X1472559Y494410D01*
Y496077D01*
X1471726Y496910D01*
X1468393D01*
X1467560Y496077D01*
Y494410D01*
X1468393Y493577D01*
X1470060D01*
Y495243D01*
X1467560Y491911D02*
X1472559D01*
X1467560Y488579D01*
X1472559D01*
Y486913D02*
X1467560D01*
Y484414D01*
X1468393Y483581D01*
X1471726D01*
X1472559Y484414D01*
Y486913D01*
X1441981Y498022D02*
X1446980D01*
Y495522D01*
X1446147Y494689D01*
X1444481D01*
X1443647Y495522D01*
Y498022D01*
X1446980Y493023D02*
X1441981D01*
X1443647Y491357D01*
X1441981Y489691D01*
X1446980D01*
X1441981Y488025D02*
X1446980D01*
Y485526D01*
X1446147Y484693D01*
X1444481D01*
X1443647Y485526D01*
Y488025D01*
Y486359D02*
X1441981Y484693D01*
X1395521Y493269D02*
Y496601D01*
X1393022D01*
X1393855Y494935D01*
Y494102D01*
X1393022Y493269D01*
X1391356D01*
X1390522Y494102D01*
Y495768D01*
X1391356Y496601D01*
X1395521Y491603D02*
X1392189D01*
X1390522Y489937D01*
X1392189Y488271D01*
X1395521D01*
X1345776Y504972D02*
X1342444D01*
X1340778Y503306D01*
X1342444Y501640D01*
X1345776D01*
X1344110Y499974D02*
X1340778D01*
X1342444D01*
X1343277Y499141D01*
X1344110Y498308D01*
Y497475D01*
X1340778Y492476D02*
Y494142D01*
X1341611Y494976D01*
X1343277D01*
X1344110Y494142D01*
Y492476D01*
X1343277Y491643D01*
X1342444D01*
Y494976D01*
X1340778Y489144D02*
X1344943D01*
X1343277D01*
Y489977D01*
Y488311D01*
Y489144D01*
X1344943D01*
X1345776Y488311D01*
X1421677Y506085D02*
X1418345D01*
X1416678Y504418D01*
X1418345Y502752D01*
X1421677D01*
X1415012Y501086D02*
X1420011D01*
Y498587D01*
X1419178Y497754D01*
X1417511D01*
X1416678Y498587D01*
Y501086D01*
Y496088D02*
Y494422D01*
Y495255D01*
X1420011D01*
Y496088D01*
X1416678Y491922D02*
X1420011D01*
Y489423D01*
X1419178Y488590D01*
X1416678D01*
Y486924D02*
Y484425D01*
X1417511Y483592D01*
X1418345Y484425D01*
Y486091D01*
X1419178Y486924D01*
X1420011Y486091D01*
Y483592D01*
X1363854Y508865D02*
X1368852D01*
X1367186Y507199D01*
X1368852Y505533D01*
X1363854D01*
X1368019Y500534D02*
X1368852Y501367D01*
Y503033D01*
X1368019Y503867D01*
X1364687D01*
X1363854Y503033D01*
Y501367D01*
X1364687Y500534D01*
X1368852Y498868D02*
X1364687D01*
X1363854Y498035D01*
Y496369D01*
X1364687Y495536D01*
X1368852D01*
X1363021Y493870D02*
Y490538D01*
X1363854Y488871D02*
X1368852D01*
Y486372D01*
X1368019Y485539D01*
X1366353D01*
X1365520Y486372D01*
Y488871D01*
X1368852Y483873D02*
X1363854D01*
X1365520Y482207D01*
X1363854Y480541D01*
X1368852D01*
X1363854Y478875D02*
X1368852D01*
Y476376D01*
X1368019Y475542D01*
X1366353D01*
X1365520Y476376D01*
Y478875D01*
Y477209D02*
X1363854Y475542D01*
X683370Y587136D02*
X685036D01*
X684203D01*
Y592134D01*
X683370Y591301D01*
X713441Y587136D02*
Y592134D01*
X710942Y589635D01*
X714274D01*
X734880Y592134D02*
X738212D01*
Y591301D01*
X734880Y587968D01*
Y587136D01*
X804022D02*
X805688D01*
X804855D01*
Y592134D01*
X804022Y591301D01*
X811520Y592134D02*
X809854Y591301D01*
X808187Y589635D01*
Y587968D01*
X809021Y587136D01*
X810687D01*
X811520Y587968D01*
Y588802D01*
X810687Y589635D01*
X808187D01*
X779199Y587136D02*
X780865D01*
X780032D01*
Y592134D01*
X779199Y591301D01*
X783364D02*
X784197Y592134D01*
X785863D01*
X786696Y591301D01*
Y590468D01*
X785863Y589635D01*
X785030D01*
X785863D01*
X786696Y588802D01*
Y587968D01*
X785863Y587136D01*
X784197D01*
X783364Y587968D01*
X754376Y587136D02*
X756042D01*
X755209D01*
Y592134D01*
X754376Y591301D01*
X758541D02*
X759374Y592134D01*
X761040D01*
X761873Y591301D01*
Y587968D01*
X761040Y587136D01*
X759374D01*
X758541Y587968D01*
Y591301D01*
X908314Y587136D02*
X904982D01*
X908314Y590468D01*
Y591301D01*
X907481Y592134D01*
X905815D01*
X904982Y591301D01*
X909980D02*
X910813Y592134D01*
X912479D01*
X913312Y591301D01*
Y590468D01*
X912479Y589635D01*
X913312Y588802D01*
Y587968D01*
X912479Y587136D01*
X910813D01*
X909980Y587968D01*
Y588802D01*
X910813Y589635D01*
X909980Y590468D01*
Y591301D01*
X910813Y589635D02*
X912479D01*
X930638Y591301D02*
X931471Y592134D01*
X933137D01*
X933970Y591301D01*
Y590468D01*
X933137Y589635D01*
X932304D01*
X933137D01*
X933970Y588802D01*
Y587968D01*
X933137Y587136D01*
X931471D01*
X930638Y587968D01*
X935636Y587136D02*
X937302D01*
X936469D01*
Y592134D01*
X935636Y591301D01*
X957980D02*
X958813Y592134D01*
X960479D01*
X961312Y591301D01*
Y590468D01*
X960479Y589635D01*
X959646D01*
X960479D01*
X961312Y588802D01*
Y587968D01*
X960479Y587136D01*
X958813D01*
X957980Y587968D01*
X965477Y587136D02*
Y592134D01*
X962978Y589635D01*
X966311D01*
X884233Y587136D02*
X880901D01*
X884233Y590468D01*
Y591301D01*
X883400Y592134D01*
X881734D01*
X880901Y591301D01*
X889232Y592134D02*
X885900D01*
Y589635D01*
X887566Y590468D01*
X888399D01*
X889232Y589635D01*
Y587968D01*
X888399Y587136D01*
X886733D01*
X885900Y587968D01*
X860605Y587136D02*
X857273D01*
X860605Y590468D01*
Y591301D01*
X859772Y592134D01*
X858106D01*
X857273Y591301D01*
X865603Y587136D02*
X862271D01*
X865603Y590468D01*
Y591301D01*
X864770Y592134D01*
X863104D01*
X862271Y591301D01*
X828846Y587136D02*
X830512D01*
X829679D01*
Y592134D01*
X828846Y591301D01*
X833011Y587968D02*
X833844Y587136D01*
X835510D01*
X836343Y587968D01*
Y591301D01*
X835510Y592134D01*
X833844D01*
X833011Y591301D01*
Y590468D01*
X833844Y589635D01*
X836343D01*
X1068907Y556887D02*
Y561885D01*
X1066407Y559386D01*
X1069740D01*
X1071406Y561885D02*
X1074738D01*
Y561052D01*
X1071406Y557720D01*
Y556887D01*
X1097754Y564207D02*
X1094422D01*
Y561708D01*
X1096088Y562541D01*
X1096921D01*
X1097754Y561708D01*
Y560042D01*
X1096921Y559209D01*
X1095255D01*
X1094422Y560042D01*
X1099420Y563374D02*
X1100253Y564207D01*
X1101919D01*
X1102753Y563374D01*
Y560042D01*
X1101919Y559209D01*
X1100253D01*
X1099420Y560042D01*
Y563374D01*
X1121143Y561885D02*
X1117810D01*
Y559386D01*
X1119476Y560219D01*
X1120310D01*
X1121143Y559386D01*
Y557720D01*
X1120310Y556887D01*
X1118643D01*
X1117810Y557720D01*
X1122809Y561052D02*
X1123642Y561885D01*
X1125308D01*
X1126141Y561052D01*
Y560219D01*
X1125308Y559386D01*
X1124475D01*
X1125308D01*
X1126141Y558553D01*
Y557720D01*
X1125308Y556887D01*
X1123642D01*
X1122809Y557720D01*
X1036640Y587136D02*
Y592134D01*
X1034141Y589635D01*
X1037473D01*
X1039139Y591301D02*
X1039972Y592134D01*
X1041638D01*
X1042472Y591301D01*
Y590468D01*
X1041638Y589635D01*
X1040806D01*
X1041638D01*
X1042472Y588802D01*
Y587968D01*
X1041638Y587136D01*
X1039972D01*
X1039139Y587968D01*
X1009800Y587136D02*
Y592134D01*
X1007301Y589635D01*
X1010633D01*
X1012299Y591301D02*
X1013132Y592134D01*
X1014799D01*
X1015632Y591301D01*
Y587968D01*
X1014799Y587136D01*
X1013132D01*
X1012299Y587968D01*
Y591301D01*
X982526D02*
X983359Y592134D01*
X985025D01*
X985858Y591301D01*
Y590468D01*
X985025Y589635D01*
X984192D01*
X985025D01*
X985858Y588802D01*
Y587968D01*
X985025Y587136D01*
X983359D01*
X982526Y587968D01*
X987524Y592134D02*
X990856D01*
Y591301D01*
X987524Y587968D01*
Y587136D01*
X1223948Y561885D02*
X1222282Y561052D01*
X1220616Y559386D01*
Y557720D01*
X1221449Y556887D01*
X1223115D01*
X1223948Y557720D01*
Y558553D01*
X1223115Y559386D01*
X1220616D01*
X1228947Y561885D02*
X1225614D01*
Y559386D01*
X1227281Y560219D01*
X1228114D01*
X1228947Y559386D01*
Y557720D01*
X1228114Y556887D01*
X1226448D01*
X1225614Y557720D01*
X1249650Y561885D02*
X1247984Y561052D01*
X1246318Y559386D01*
Y557720D01*
X1247151Y556887D01*
X1248817D01*
X1249650Y557720D01*
Y558553D01*
X1248817Y559386D01*
X1246318D01*
X1251316Y561052D02*
X1252149Y561885D01*
X1253815D01*
X1254648Y561052D01*
Y560219D01*
X1253815Y559386D01*
X1254648Y558553D01*
Y557720D01*
X1253815Y556887D01*
X1252149D01*
X1251316Y557720D01*
Y558553D01*
X1252149Y559386D01*
X1251316Y560219D01*
Y561052D01*
X1252149Y559386D02*
X1253815D01*
X1272019Y561885D02*
X1275351D01*
Y561052D01*
X1272019Y557720D01*
Y556887D01*
X1277017D02*
X1278683D01*
X1277850D01*
Y561885D01*
X1277017Y561052D01*
X1198247Y561885D02*
X1196581Y561052D01*
X1194915Y559386D01*
Y557720D01*
X1195748Y556887D01*
X1197414D01*
X1198247Y557720D01*
Y558553D01*
X1197414Y559386D01*
X1194915D01*
X1203245Y556887D02*
X1199913D01*
X1203245Y560219D01*
Y561052D01*
X1202412Y561885D01*
X1200746D01*
X1199913Y561052D01*
X1172545Y561885D02*
X1169213D01*
Y559386D01*
X1170879Y560219D01*
X1171712D01*
X1172545Y559386D01*
Y557720D01*
X1171712Y556887D01*
X1170046D01*
X1169213Y557720D01*
X1174212D02*
X1175045Y556887D01*
X1176711D01*
X1177544Y557720D01*
Y561052D01*
X1176711Y561885D01*
X1175045D01*
X1174212Y561052D01*
Y560219D01*
X1175045Y559386D01*
X1177544D01*
X1146844Y561885D02*
X1143512D01*
Y559386D01*
X1145178Y560219D01*
X1146011D01*
X1146844Y559386D01*
Y557720D01*
X1146011Y556887D01*
X1144345D01*
X1143512Y557720D01*
X1151842Y561885D02*
X1150176Y561052D01*
X1148510Y559386D01*
Y557720D01*
X1149343Y556887D01*
X1151009D01*
X1151842Y557720D01*
Y558553D01*
X1151009Y559386D01*
X1148510D01*
X1296054Y561885D02*
X1299387D01*
Y561052D01*
X1296054Y557720D01*
Y556887D01*
X1303552D02*
Y561885D01*
X1301053Y559386D01*
X1304385D01*
X1321756Y561885D02*
X1325088D01*
Y561052D01*
X1321756Y557720D01*
Y556887D01*
X1326754Y561885D02*
X1330086D01*
Y561052D01*
X1326754Y557720D01*
Y556887D01*
X1314145Y507910D02*
X1317477D01*
Y507077D01*
X1314145Y503745D01*
Y502912D01*
X1319143Y507077D02*
X1319976Y507910D01*
X1321642D01*
X1322475Y507077D01*
Y506244D01*
X1321642Y505411D01*
X1322475Y504578D01*
Y503745D01*
X1321642Y502912D01*
X1319976D01*
X1319143Y503745D01*
Y504578D01*
X1319976Y505411D01*
X1319143Y506244D01*
Y507077D01*
X1319976Y505411D02*
X1321642D01*
X1288381Y508256D02*
X1291713D01*
Y507423D01*
X1288381Y504091D01*
Y503258D01*
X1296712Y508256D02*
X1293380D01*
Y505757D01*
X1295046Y506590D01*
X1295879D01*
X1296712Y505757D01*
Y504091D01*
X1295879Y503258D01*
X1294213D01*
X1293380Y504091D01*
X1138850Y508256D02*
X1135518D01*
Y505757D01*
X1137184Y506590D01*
X1138017D01*
X1138850Y505757D01*
Y504091D01*
X1138017Y503258D01*
X1136351D01*
X1135518Y504091D01*
X1140516Y508256D02*
X1143849D01*
Y507423D01*
X1140516Y504091D01*
Y503258D01*
X1162896Y508256D02*
X1161230Y507423D01*
X1159564Y505757D01*
Y504091D01*
X1160397Y503258D01*
X1162063D01*
X1162896Y504091D01*
Y504924D01*
X1162063Y505757D01*
X1159564D01*
X1164562Y507423D02*
X1165396Y508256D01*
X1167062D01*
X1167895Y507423D01*
Y504091D01*
X1167062Y503258D01*
X1165396D01*
X1164562Y504091D01*
Y507423D01*
X1188660Y508256D02*
X1186994Y507423D01*
X1185328Y505757D01*
Y504091D01*
X1186161Y503258D01*
X1187827D01*
X1188660Y504091D01*
Y504924D01*
X1187827Y505757D01*
X1185328D01*
X1190326Y507423D02*
X1191159Y508256D01*
X1192825D01*
X1193658Y507423D01*
Y506590D01*
X1192825Y505757D01*
X1191992D01*
X1192825D01*
X1193658Y504924D01*
Y504091D01*
X1192825Y503258D01*
X1191159D01*
X1190326Y504091D01*
X1262618Y508256D02*
X1265950D01*
Y507423D01*
X1262618Y504091D01*
Y503258D01*
X1270948D02*
X1267616D01*
X1270948Y506590D01*
Y507423D01*
X1270115Y508256D01*
X1268449D01*
X1267616Y507423D01*
X1240187Y508256D02*
X1238521Y507423D01*
X1236854Y505757D01*
Y504091D01*
X1237687Y503258D01*
X1239353D01*
X1240187Y504091D01*
Y504924D01*
X1239353Y505757D01*
X1236854D01*
X1241853Y504091D02*
X1242686Y503258D01*
X1244352D01*
X1245185Y504091D01*
Y507423D01*
X1244352Y508256D01*
X1242686D01*
X1241853Y507423D01*
Y506590D01*
X1242686Y505757D01*
X1245185D01*
X1214423Y508256D02*
X1212757Y507423D01*
X1211091Y505757D01*
Y504091D01*
X1211924Y503258D01*
X1213590D01*
X1214423Y504091D01*
Y504924D01*
X1213590Y505757D01*
X1211091D01*
X1219421Y508256D02*
X1217755Y507423D01*
X1216089Y505757D01*
Y504091D01*
X1216922Y503258D01*
X1218588D01*
X1219421Y504091D01*
Y504924D01*
X1218588Y505757D01*
X1216089D01*
X993029Y562653D02*
X993862Y563486D01*
X995528D01*
X996361Y562653D01*
Y561820D01*
X995528Y560987D01*
X994695D01*
X995528D01*
X996361Y560154D01*
Y559321D01*
X995528Y558488D01*
X993862D01*
X993029Y559321D01*
X998027Y562653D02*
X998860Y563486D01*
X1000527D01*
X1001360Y562653D01*
Y561820D01*
X1000527Y560987D01*
X1001360Y560154D01*
Y559321D01*
X1000527Y558488D01*
X998860D01*
X998027Y559321D01*
Y560154D01*
X998860Y560987D01*
X998027Y561820D01*
Y562653D01*
X998860Y560987D02*
X1000527D01*
X1022051Y559051D02*
Y564049D01*
X1019552Y561550D01*
X1022884D01*
X1024550Y559051D02*
X1026216D01*
X1025383D01*
Y564049D01*
X1024550Y563216D01*
X1036696Y503258D02*
Y508256D01*
X1034197Y505757D01*
X1037529D01*
X1042527Y508256D02*
X1039195D01*
Y505757D01*
X1040861Y506590D01*
X1041694D01*
X1042527Y505757D01*
Y504091D01*
X1041694Y503258D01*
X1040028D01*
X1039195Y504091D01*
X1113033Y508256D02*
X1109701D01*
Y505757D01*
X1111367Y506590D01*
X1112200D01*
X1113033Y505757D01*
Y504091D01*
X1112200Y503258D01*
X1110534D01*
X1109701Y504091D01*
X1117198Y503258D02*
Y508256D01*
X1114699Y505757D01*
X1118031D01*
X1086485Y508256D02*
X1083152D01*
Y505757D01*
X1084818Y506590D01*
X1085651D01*
X1086485Y505757D01*
Y504091D01*
X1085651Y503258D01*
X1083985D01*
X1083152Y504091D01*
X1088151Y503258D02*
X1089817D01*
X1088984D01*
Y508256D01*
X1088151Y507423D01*
X1061904Y503258D02*
Y508256D01*
X1059405Y505757D01*
X1062737D01*
X1064404Y507423D02*
X1065237Y508256D01*
X1066903D01*
X1067736Y507423D01*
Y506590D01*
X1066903Y505757D01*
X1067736Y504924D01*
Y504091D01*
X1066903Y503258D01*
X1065237D01*
X1064404Y504091D01*
Y504924D01*
X1065237Y505757D01*
X1064404Y506590D01*
Y507423D01*
X1065237Y505757D02*
X1066903D01*
X844879Y557322D02*
X841546D01*
X844879Y560654D01*
Y561487D01*
X844045Y562320D01*
X842379D01*
X841546Y561487D01*
X846545D02*
X847378Y562320D01*
X849044D01*
X849877Y561487D01*
Y558155D01*
X849044Y557322D01*
X847378D01*
X846545Y558155D01*
Y561487D01*
X965268Y561052D02*
X966101Y561885D01*
X967767D01*
X968600Y561052D01*
Y560219D01*
X967767Y559386D01*
X966934D01*
X967767D01*
X968600Y558553D01*
Y557720D01*
X967767Y556887D01*
X966101D01*
X965268Y557720D01*
X973598Y561885D02*
X970266D01*
Y559386D01*
X971932Y560219D01*
X972765D01*
X973598Y559386D01*
Y557720D01*
X972765Y556887D01*
X971099D01*
X970266Y557720D01*
X942023Y561779D02*
X942856Y562612D01*
X944522D01*
X945355Y561779D01*
Y560946D01*
X944522Y560113D01*
X943689D01*
X944522D01*
X945355Y559280D01*
Y558447D01*
X944522Y557614D01*
X942856D01*
X942023Y558447D01*
X950353Y557614D02*
X947021D01*
X950353Y560946D01*
Y561779D01*
X949520Y562612D01*
X947854D01*
X947021Y561779D01*
X762199Y556987D02*
X763865D01*
X763032D01*
Y561986D01*
X762199Y561153D01*
X766364Y556987D02*
X768030D01*
X767197D01*
Y561986D01*
X766364Y561153D01*
X788711Y558066D02*
X790377D01*
X789544D01*
Y563064D01*
X788711Y562231D01*
X795375Y558066D02*
Y563064D01*
X792876Y560565D01*
X796208D01*
X813756Y558246D02*
X815423D01*
X814589D01*
Y563244D01*
X813756Y562411D01*
X817922Y563244D02*
X821254D01*
Y562411D01*
X817922Y559079D01*
Y558246D01*
X739945Y561247D02*
X740778Y562081D01*
X742444D01*
X743277Y561247D01*
Y560414D01*
X742444Y559581D01*
X743277Y558748D01*
Y557915D01*
X742444Y557082D01*
X740778D01*
X739945Y557915D01*
Y558748D01*
X740778Y559581D01*
X739945Y560414D01*
Y561247D01*
X740778Y559581D02*
X742444D01*
X718548Y562299D02*
X715216D01*
Y559800D01*
X716882Y560633D01*
X717715D01*
X718548Y559800D01*
Y558134D01*
X717715Y557301D01*
X716049D01*
X715216Y558134D01*
X691412Y557739D02*
X688079D01*
X691412Y561071D01*
Y561904D01*
X690579Y562737D01*
X688912D01*
X688079Y561904D01*
X1338093Y592134D02*
X1341425D01*
Y591301D01*
X1338093Y587968D01*
Y587136D01*
X1343092Y587968D02*
X1343925Y587136D01*
X1345591D01*
X1346424Y587968D01*
Y591301D01*
X1345591Y592134D01*
X1343925D01*
X1343092Y591301D01*
Y590468D01*
X1343925Y589635D01*
X1346424D01*
X1312151Y592134D02*
X1315483D01*
Y591301D01*
X1312151Y587968D01*
Y587136D01*
X1320482Y592134D02*
X1318815Y591301D01*
X1317149Y589635D01*
Y587968D01*
X1317982Y587136D01*
X1319649D01*
X1320482Y587968D01*
Y588802D01*
X1319649Y589635D01*
X1317149D01*
X1163211Y592134D02*
X1159879D01*
Y589635D01*
X1161545Y590468D01*
X1162378D01*
X1163211Y589635D01*
Y587968D01*
X1162378Y587136D01*
X1160712D01*
X1159879Y587968D01*
X1164877Y591301D02*
X1165710Y592134D01*
X1167377D01*
X1168210Y591301D01*
Y590468D01*
X1167377Y589635D01*
X1168210Y588802D01*
Y587968D01*
X1167377Y587136D01*
X1165710D01*
X1164877Y587968D01*
Y588802D01*
X1165710Y589635D01*
X1164877Y590468D01*
Y591301D01*
X1165710Y589635D02*
X1167377D01*
X1188868Y592134D02*
X1187202Y591301D01*
X1185535Y589635D01*
Y587968D01*
X1186368Y587136D01*
X1188035D01*
X1188868Y587968D01*
Y588802D01*
X1188035Y589635D01*
X1185535D01*
X1190534Y587136D02*
X1192200D01*
X1191367D01*
Y592134D01*
X1190534Y591301D01*
X1212858Y592134D02*
X1211192Y591301D01*
X1209526Y589635D01*
Y587968D01*
X1210359Y587136D01*
X1212025D01*
X1212858Y587968D01*
Y588802D01*
X1212025Y589635D01*
X1209526D01*
X1217023Y587136D02*
Y592134D01*
X1214524Y589635D01*
X1217856D01*
X1286495Y592134D02*
X1289827D01*
Y591301D01*
X1286495Y587968D01*
Y587136D01*
X1291493Y591301D02*
X1292326Y592134D01*
X1293992D01*
X1294825Y591301D01*
Y590468D01*
X1293992Y589635D01*
X1293159D01*
X1293992D01*
X1294825Y588802D01*
Y587968D01*
X1293992Y587136D01*
X1292326D01*
X1291493Y587968D01*
X1260838Y592134D02*
X1264171D01*
Y591301D01*
X1260838Y587968D01*
Y587136D01*
X1265837Y591301D02*
X1266670Y592134D01*
X1268336D01*
X1269169Y591301D01*
Y587968D01*
X1268336Y587136D01*
X1266670D01*
X1265837Y587968D01*
Y591301D01*
X1238514Y592134D02*
X1236848Y591301D01*
X1235182Y589635D01*
Y587968D01*
X1236015Y587136D01*
X1237681D01*
X1238514Y587968D01*
Y588802D01*
X1237681Y589635D01*
X1235182D01*
X1240180Y592134D02*
X1243513D01*
Y591301D01*
X1240180Y587968D01*
Y587136D01*
X982927Y507423D02*
X983760Y508256D01*
X985426D01*
X986259Y507423D01*
Y506590D01*
X985426Y505757D01*
X984593D01*
X985426D01*
X986259Y504924D01*
Y504091D01*
X985426Y503258D01*
X983760D01*
X982927Y504091D01*
X987925D02*
X988758Y503258D01*
X990425D01*
X991258Y504091D01*
Y507423D01*
X990425Y508256D01*
X988758D01*
X987925Y507423D01*
Y506590D01*
X988758Y505757D01*
X991258D01*
X1010757Y503258D02*
Y508256D01*
X1008257Y505757D01*
X1011590D01*
X1016588Y503258D02*
X1013256D01*
X1016588Y506590D01*
Y507423D01*
X1015755Y508256D01*
X1014089D01*
X1013256Y507423D01*
X1063021Y587136D02*
Y592134D01*
X1060522Y589635D01*
X1063854D01*
X1068853Y592134D02*
X1067187Y591301D01*
X1065520Y589635D01*
Y587968D01*
X1066354Y587136D01*
X1068020D01*
X1068853Y587968D01*
Y588802D01*
X1068020Y589635D01*
X1065520D01*
X1137555Y592134D02*
X1134223D01*
Y589635D01*
X1135889Y590468D01*
X1136722D01*
X1137555Y589635D01*
Y587968D01*
X1136722Y587136D01*
X1135056D01*
X1134223Y587968D01*
X1142553Y592134D02*
X1139221D01*
Y589635D01*
X1140887Y590468D01*
X1141720D01*
X1142553Y589635D01*
Y587968D01*
X1141720Y587136D01*
X1140054D01*
X1139221Y587968D01*
X1111898Y592134D02*
X1108566D01*
Y589635D01*
X1110232Y590468D01*
X1111066D01*
X1111898Y589635D01*
Y587968D01*
X1111066Y587136D01*
X1109399D01*
X1108566Y587968D01*
X1116897Y587136D02*
X1113565D01*
X1116897Y590468D01*
Y591301D01*
X1116064Y592134D01*
X1114398D01*
X1113565Y591301D01*
X1085409Y587136D02*
Y592134D01*
X1082910Y589635D01*
X1086242D01*
X1087908Y587968D02*
X1088741Y587136D01*
X1090407D01*
X1091240Y587968D01*
Y591301D01*
X1090407Y592134D01*
X1088741D01*
X1087908Y591301D01*
Y590468D01*
X1088741Y589635D01*
X1091240D01*
X831304Y503258D02*
X827972D01*
X831304Y506590D01*
Y507423D01*
X830471Y508256D01*
X828805D01*
X827972Y507423D01*
X832970Y503258D02*
X834636D01*
X833803D01*
Y508256D01*
X832970Y507423D01*
X857903Y503258D02*
X854570D01*
X857903Y506590D01*
Y507423D01*
X857069Y508256D01*
X855403D01*
X854570Y507423D01*
X862068Y503258D02*
Y508256D01*
X859569Y505757D01*
X862901D01*
X882502Y503258D02*
X879170D01*
X882502Y506590D01*
Y507423D01*
X881669Y508256D01*
X880003D01*
X879170Y507423D01*
X884168Y508256D02*
X887500D01*
Y507423D01*
X884168Y504091D01*
Y503258D01*
X956622Y507423D02*
X957456Y508256D01*
X959122D01*
X959955Y507423D01*
Y506590D01*
X959122Y505757D01*
X958288D01*
X959122D01*
X959955Y504924D01*
Y504091D01*
X959122Y503258D01*
X957456D01*
X956622Y504091D01*
X964953Y508256D02*
X963287Y507423D01*
X961621Y505757D01*
Y504091D01*
X962454Y503258D01*
X964120D01*
X964953Y504091D01*
Y504924D01*
X964120Y505757D01*
X961621D01*
X929359Y507423D02*
X930192Y508256D01*
X931859D01*
X932692Y507423D01*
Y506590D01*
X931859Y505757D01*
X931025D01*
X931859D01*
X932692Y504924D01*
Y504091D01*
X931859Y503258D01*
X930192D01*
X929359Y504091D01*
X934358Y507423D02*
X935191Y508256D01*
X936857D01*
X937690Y507423D01*
Y506590D01*
X936857Y505757D01*
X936024D01*
X936857D01*
X937690Y504924D01*
Y504091D01*
X936857Y503258D01*
X935191D01*
X934358Y504091D01*
X906814Y507423D02*
X907647Y508256D01*
X909313D01*
X910146Y507423D01*
Y506590D01*
X909313Y505757D01*
X908480D01*
X909313D01*
X910146Y504924D01*
Y504091D01*
X909313Y503258D01*
X907647D01*
X906814Y504091D01*
X911812Y507423D02*
X912645Y508256D01*
X914312D01*
X915145Y507423D01*
Y504091D01*
X914312Y503258D01*
X912645D01*
X911812Y504091D01*
Y507423D01*
X753181Y503258D02*
X754847D01*
X754014D01*
Y508256D01*
X753181Y507423D01*
X760678Y503258D02*
X757346D01*
X760678Y506590D01*
Y507423D01*
X759845Y508256D01*
X758179D01*
X757346Y507423D01*
X778111Y503258D02*
X779777D01*
X778944D01*
Y508256D01*
X778111Y507423D01*
X785609Y508256D02*
X782276D01*
Y505757D01*
X783942Y506590D01*
X784776D01*
X785609Y505757D01*
Y504091D01*
X784776Y503258D01*
X783110D01*
X782276Y504091D01*
X803042Y503258D02*
X804708D01*
X803875D01*
Y508256D01*
X803042Y507423D01*
X807207D02*
X808040Y508256D01*
X809706D01*
X810539Y507423D01*
Y506590D01*
X809706Y505757D01*
X810539Y504924D01*
Y504091D01*
X809706Y503258D01*
X808040D01*
X807207Y504091D01*
Y504924D01*
X808040Y505757D01*
X807207Y506590D01*
Y507423D01*
X808040Y505757D02*
X809706D01*
X730225Y503655D02*
X731058Y502822D01*
X732724D01*
X733557Y503655D01*
Y506987D01*
X732724Y507821D01*
X731058D01*
X730225Y506987D01*
Y506154D01*
X731058Y505321D01*
X733557D01*
X709034Y507821D02*
X707367Y506987D01*
X705701Y505321D01*
Y503655D01*
X706534Y502822D01*
X708201D01*
X709034Y503655D01*
Y504488D01*
X708201Y505321D01*
X705701D01*
X679064Y507410D02*
X679897Y508243D01*
X681563D01*
X682396Y507410D01*
Y506577D01*
X681563Y505744D01*
X680730D01*
X681563D01*
X682396Y504911D01*
Y504078D01*
X681563Y503245D01*
X679897D01*
X679064Y504078D01*
X1045230Y558451D02*
Y563449D01*
X1042731Y560950D01*
X1046064D01*
X1050229Y558451D02*
Y563449D01*
X1047730Y560950D01*
X1051062D01*
X1343102Y563376D02*
X1343935Y564209D01*
X1345601D01*
X1346434Y563376D01*
Y562543D01*
X1345601Y561710D01*
X1346434Y560877D01*
Y560043D01*
X1345601Y559210D01*
X1343935D01*
X1343102Y560043D01*
Y560877D01*
X1343935Y561710D01*
X1343102Y562543D01*
Y563376D01*
X1343935Y561710D02*
X1345601D01*
X1348101Y563376D02*
X1348934Y564209D01*
X1350600D01*
X1351433Y563376D01*
Y560043D01*
X1350600Y559210D01*
X1348934D01*
X1348101Y560043D01*
Y563376D01*
X919413Y557120D02*
X916081D01*
X919413Y560452D01*
Y561285D01*
X918580Y562118D01*
X916914D01*
X916081Y561285D01*
X921079Y557953D02*
X921912Y557120D01*
X923578D01*
X924411Y557953D01*
Y561285D01*
X923578Y562118D01*
X921912D01*
X921079Y561285D01*
Y560452D01*
X921912Y559619D01*
X924411D01*
X893801Y557367D02*
X890468D01*
X893801Y560699D01*
Y561532D01*
X892968Y562365D01*
X891301D01*
X890468Y561532D01*
X898799Y562365D02*
X897133Y561532D01*
X895467Y559866D01*
Y558200D01*
X896300Y557367D01*
X897966D01*
X898799Y558200D01*
Y559033D01*
X897966Y559866D01*
X895467D01*
X868353Y557614D02*
X865020D01*
X868353Y560946D01*
Y561779D01*
X867520Y562612D01*
X865853D01*
X865020Y561779D01*
X870019D02*
X870852Y562612D01*
X872518D01*
X873351Y561779D01*
Y560946D01*
X872518Y560113D01*
X871685D01*
X872518D01*
X873351Y559280D01*
Y558447D01*
X872518Y557614D01*
X870852D01*
X870019Y558447D01*
X1966200Y532864D02*
Y529532D01*
X1967866Y527866D01*
X1969532Y529532D01*
Y532864D01*
X1971198Y526200D02*
Y531198D01*
X1973698D01*
X1974531Y530365D01*
Y528699D01*
X1973698Y527866D01*
X1971198D01*
X1976197D02*
X1977863D01*
X1977030D01*
Y531198D01*
X1976197D01*
X1980362Y527866D02*
Y531198D01*
X1982861D01*
X1983694Y530365D01*
Y527866D01*
X1985360D02*
X1987860D01*
X1988693Y528699D01*
X1987860Y529532D01*
X1986194D01*
X1985360Y530365D01*
X1986194Y531198D01*
X1988693D01*
X1990359Y527033D02*
X1993691D01*
X1997856Y532864D02*
X1996190D01*
X1995357Y532031D01*
Y528699D01*
X1996190Y527866D01*
X1997856D01*
X1998689Y528699D01*
Y532031D01*
X1997856Y532864D01*
X2000356D02*
Y527866D01*
Y529532D01*
X2003688Y532864D01*
X2001189Y530365D01*
X2003688Y527866D01*
X2005354Y527033D02*
X2008686D01*
X2010352Y532864D02*
Y527866D01*
X2013685D01*
X2018683Y532864D02*
X2015351D01*
Y527866D01*
X2018683D01*
X2015351Y530365D02*
X2017017D01*
X2020349Y532864D02*
Y527866D01*
X2022848D01*
X2023681Y528699D01*
Y532031D01*
X2022848Y532864D01*
X2020349D01*
X1921200Y577031D02*
Y573699D01*
X1922866Y572033D01*
X1924532Y573699D01*
Y577031D01*
X1926198Y572033D02*
Y577031D01*
X1928698D01*
X1929531Y576198D01*
Y574532D01*
X1928698Y573699D01*
X1926198D01*
X1931197Y577031D02*
X1932863D01*
X1932030D01*
Y572033D01*
X1931197D01*
X1932863D01*
X1935362D02*
Y577031D01*
X1938694Y572033D01*
Y577031D01*
X1943693Y576198D02*
X1942860Y577031D01*
X1941194D01*
X1940360Y576198D01*
Y575365D01*
X1941194Y574532D01*
X1942860D01*
X1943693Y573699D01*
Y572866D01*
X1942860Y572033D01*
X1941194D01*
X1940360Y572866D01*
X1945359Y571200D02*
X1948691D01*
X1953689Y577031D02*
X1950357D01*
Y572033D01*
X1953689D01*
X1950357Y574532D02*
X1952023D01*
X1955356Y572033D02*
Y577031D01*
X1958688Y572033D01*
Y577031D01*
X1901200Y602864D02*
Y599532D01*
X1902866Y597866D01*
X1904532Y599532D01*
Y602864D01*
X1906198Y596200D02*
Y601198D01*
X1908698D01*
X1909531Y600365D01*
Y598699D01*
X1908698Y597866D01*
X1906198D01*
X1911197D02*
X1912863D01*
X1912030D01*
Y601198D01*
X1911197D01*
X1915362Y597866D02*
Y601198D01*
X1917861D01*
X1918694Y600365D01*
Y597866D01*
X1920360D02*
X1922860D01*
X1923693Y598699D01*
X1922860Y599532D01*
X1921194D01*
X1920360Y600365D01*
X1921194Y601198D01*
X1923693D01*
X1925359Y597033D02*
X1928691D01*
X1930357Y602864D02*
X1932023D01*
X1931190D01*
Y597866D01*
X1930357D01*
X1932023D01*
X1934523D02*
Y602864D01*
X1937855Y597866D01*
Y602864D01*
X1939521D02*
X1942853D01*
X1941187D01*
Y597866D01*
X1944519Y597033D02*
X1947852D01*
X1952850Y602864D02*
X1949518D01*
Y597866D01*
X1952850D01*
X1949518Y600365D02*
X1951184D01*
X1954516Y597866D02*
Y602864D01*
X1957848Y597866D01*
Y602864D01*
X1901200Y552864D02*
Y549532D01*
X1902866Y547866D01*
X1904532Y549532D01*
Y552864D01*
X1906198Y546200D02*
Y551198D01*
X1908698D01*
X1909531Y550365D01*
Y548699D01*
X1908698Y547866D01*
X1906198D01*
X1911197D02*
X1912863D01*
X1912030D01*
Y551198D01*
X1911197D01*
X1915362Y547866D02*
Y551198D01*
X1917861D01*
X1918694Y550365D01*
Y547866D01*
X1920360D02*
X1922860D01*
X1923693Y548699D01*
X1922860Y549532D01*
X1921194D01*
X1920360Y550365D01*
X1921194Y551198D01*
X1923693D01*
X1925359Y547033D02*
X1928691D01*
X1933689Y552864D02*
X1930357D01*
Y547866D01*
X1933689D01*
X1930357Y550365D02*
X1932023D01*
X1935356Y552864D02*
X1938688Y547866D01*
Y552864D02*
X1935356Y547866D01*
X1940354Y552864D02*
X1943686D01*
X1942020D01*
Y547866D01*
X1945352Y547033D02*
X1948685D01*
X1953683Y552864D02*
X1950351D01*
Y547866D01*
X1953683D01*
X1950351Y550365D02*
X1952017D01*
X1955349Y547866D02*
Y552864D01*
X1958681Y547866D01*
Y552864D01*
X2069676Y140667D02*
X2066344D01*
Y138168D01*
X2068010Y139001D01*
X2068843D01*
X2069676Y138168D01*
Y136502D01*
X2068843Y135669D01*
X2067177D01*
X2066344Y136502D01*
X2071342Y140667D02*
Y137335D01*
X2073008Y135669D01*
X2074675Y137335D01*
Y140667D01*
X2076341Y134836D02*
X2079673D01*
X2083838Y140667D02*
X2082172D01*
X2081339Y139834D01*
Y136502D01*
X2082172Y135669D01*
X2083838D01*
X2084671Y136502D01*
Y139834D01*
X2083838Y140667D01*
X2086337D02*
Y135669D01*
Y137335D01*
X2089670Y140667D01*
X2087171Y138168D01*
X2089670Y135669D01*
X2091336Y134836D02*
X2094668D01*
X2096334Y140667D02*
Y135669D01*
X2099666D01*
X2104665Y140667D02*
X2101333D01*
Y135669D01*
X2104665D01*
X2101333Y138168D02*
X2102999D01*
X2106331Y140667D02*
Y135669D01*
X2108830D01*
X2109663Y136502D01*
Y139834D01*
X2108830Y140667D01*
X2106331D01*
X1989834Y51468D02*
X1986501D01*
Y48969D01*
X1988168Y49802D01*
X1989001D01*
X1989834Y48969D01*
Y47303D01*
X1989001Y46470D01*
X1987334D01*
X1986501Y47303D01*
X1991500Y51468D02*
Y48136D01*
X1993166Y46470D01*
X1994832Y48136D01*
Y51468D01*
X1996498Y45637D02*
X1999830D01*
X2004829Y51468D02*
X2001496D01*
Y46470D01*
X2004829D01*
X2001496Y48969D02*
X2003163D01*
X2006495Y46470D02*
Y51468D01*
X2009827Y46470D01*
Y51468D01*
X1976734Y75193D02*
X1973401D01*
Y72693D01*
X1975068Y73526D01*
X1975901D01*
X1976734Y72693D01*
Y71027D01*
X1975901Y70194D01*
X1974235D01*
X1973401Y71027D01*
X1978400Y75193D02*
Y71860D01*
X1980066Y70194D01*
X1981732Y71860D01*
Y75193D01*
X1983398Y69361D02*
X1986730D01*
X1988397Y75193D02*
X1990063D01*
X1989230D01*
Y70194D01*
X1988397D01*
X1990063D01*
X1992562D02*
Y75193D01*
X1995894Y70194D01*
Y75193D01*
X1997560D02*
X2000892D01*
X1999226D01*
Y70194D01*
X2002559Y69361D02*
X2005891D01*
X2010889Y75193D02*
X2007557D01*
Y70194D01*
X2010889D01*
X2007557Y72693D02*
X2009223D01*
X2012555Y70194D02*
Y75193D01*
X2015888Y70194D01*
Y75193D01*
X1975393Y23412D02*
X1972060D01*
Y20912D01*
X1973727Y21746D01*
X1974560D01*
X1975393Y20912D01*
Y19246D01*
X1974560Y18413D01*
X1972893D01*
X1972060Y19246D01*
X1977059Y23412D02*
Y20079D01*
X1978725Y18413D01*
X1980391Y20079D01*
Y23412D01*
X1982057Y17580D02*
X1985389D01*
X1990388Y23412D02*
X1987056D01*
Y18413D01*
X1990388D01*
X1987056Y20912D02*
X1988722D01*
X1992054Y23412D02*
X1995386Y18413D01*
Y23412D02*
X1992054Y18413D01*
X1997052Y23412D02*
X2000384D01*
X1998718D01*
Y18413D01*
X2002051Y17580D02*
X2005383D01*
X2010381Y23412D02*
X2007049D01*
Y18413D01*
X2010381D01*
X2007049Y20912D02*
X2008715D01*
X2012047Y18413D02*
Y23412D01*
X2015379Y18413D01*
Y23412D01*
D15*
X113000Y600494D02*
X115499Y602994D01*
X120498D01*
X122997Y600494D01*
Y597995D01*
X120498Y595496D01*
X122997Y592997D01*
Y590498D01*
X120498Y587998D01*
X115499D01*
X113000Y590498D01*
Y592997D01*
X115499Y595496D01*
X113000Y597995D01*
Y600494D01*
X115499Y595496D02*
X120498D01*
X127995Y600494D02*
X130494Y602994D01*
X135493D01*
X137992Y600494D01*
Y590498D01*
X135493Y587998D01*
X130494D01*
X127995Y590498D01*
Y600494D01*
X142990Y583000D02*
Y597995D01*
X150488D01*
X152987Y595496D01*
Y590498D01*
X150488Y587998D01*
X142990D01*
X157985D02*
X162984D01*
X160485D01*
Y597995D01*
X157985D01*
X170481Y587998D02*
Y597995D01*
X177979D01*
X180478Y595496D01*
Y587998D01*
X200472Y595496D02*
X210468D01*
X240459Y600494D02*
X237959Y602994D01*
X232961D01*
X230462Y600494D01*
Y590498D01*
X232961Y587998D01*
X237959D01*
X240459Y590498D01*
X247956Y587998D02*
X252955D01*
X255454Y590498D01*
Y595496D01*
X252955Y597995D01*
X247956D01*
X245457Y595496D01*
Y590498D01*
X247956Y587998D01*
X260452D02*
Y597995D01*
X267950D01*
X270449Y595496D01*
Y587998D01*
X275447D02*
Y597995D01*
X282945D01*
X285444Y595496D01*
Y587998D01*
X297940D02*
X292942D01*
X290443Y590498D01*
Y595496D01*
X292942Y597995D01*
X297940D01*
X300439Y595496D01*
Y592997D01*
X290443D01*
X315434Y597995D02*
X307937D01*
X305438Y595496D01*
Y590498D01*
X307937Y587998D01*
X315434D01*
X322932Y600494D02*
Y597995D01*
X320433D01*
X325431D01*
X322932D01*
Y590498D01*
X325431Y587998D01*
X332929D02*
X337927D01*
X335428D01*
Y597995D01*
X332929D01*
X347924Y587998D02*
X352922D01*
X355421Y590498D01*
Y595496D01*
X352922Y597995D01*
X347924D01*
X345425Y595496D01*
Y590498D01*
X347924Y587998D01*
X360420D02*
Y597995D01*
X367918D01*
X370417Y595496D01*
Y587998D01*
X390410Y602994D02*
X400407D01*
X395409D01*
Y587998D01*
X412903D02*
X407905D01*
X405405Y590498D01*
Y595496D01*
X407905Y597995D01*
X412903D01*
X415402Y595496D01*
Y592997D01*
X405405D01*
X420401Y587998D02*
X427898D01*
X430397Y590498D01*
X427898Y592997D01*
X422900D01*
X420401Y595496D01*
X422900Y597995D01*
X430397D01*
X437895Y600494D02*
Y597995D01*
X435396D01*
X440394D01*
X437895D01*
Y590498D01*
X440394Y587998D01*
X455389D02*
X450391D01*
X447892Y590498D01*
Y595496D01*
X450391Y597995D01*
X455389D01*
X457888Y595496D01*
Y592997D01*
X447892D01*
X462887Y597995D02*
Y587998D01*
Y592997D01*
X465386Y595496D01*
X467885Y597995D01*
X470384D01*
X492877Y602994D02*
Y587998D01*
X500375D01*
X502874Y590498D01*
Y592997D01*
X500375Y595496D01*
X492877D01*
X500375D01*
X502874Y597995D01*
Y600494D01*
X500375Y602994D01*
X492877D01*
X510371Y587998D02*
X515370D01*
X517869Y590498D01*
Y595496D01*
X515370Y597995D01*
X510371D01*
X507872Y595496D01*
Y590498D01*
X510371Y587998D01*
X525367Y597995D02*
X530365D01*
X532864Y595496D01*
Y587998D01*
X525367D01*
X522867Y590498D01*
X525367Y592997D01*
X532864D01*
X537862Y597995D02*
Y587998D01*
Y592997D01*
X540362Y595496D01*
X542861Y597995D01*
X545360D01*
X562854Y602994D02*
Y587998D01*
X555357D01*
X552858Y590498D01*
Y595496D01*
X555357Y597995D01*
X562854D01*
M02*
