G04*
G04 #@! TF.GenerationSoftware,Altium Limited,Altium Designer,23.2.1 (34)*
G04*
G04 Layer_Color=32896*
%FSLAX44Y44*%
%MOMM*%
G71*
G04*
G04 #@! TF.SameCoordinates,4AEFFC81-8D6A-4C92-BCC4-55949A9363D9*
G04*
G04*
G04 #@! TF.FilePolarity,Positive*
G04*
G01*
G75*
%ADD87C,0.1000*%
D87*
X337179Y194180D02*
Y204180D01*
X332179Y199180D02*
X342179D01*
X543469D02*
X553469D01*
X548469Y194180D02*
Y204180D01*
X759759Y194180D02*
Y204180D01*
X754759Y199180D02*
X764759D01*
X966048D02*
X976048D01*
X971048Y194180D02*
Y204180D01*
X1182338Y194180D02*
Y204180D01*
X1177338Y199180D02*
X1187338D01*
X1388628D02*
X1398628D01*
X1393628Y194180D02*
Y204180D01*
X1604918Y194180D02*
Y204180D01*
X1599918Y199180D02*
X1609918D01*
X1811207D02*
X1821207D01*
X1816207Y194180D02*
Y204180D01*
X2027497Y194180D02*
Y204180D01*
X2022497Y199180D02*
X2032497D01*
X120844Y199377D02*
X130844D01*
X125844Y194377D02*
Y204377D01*
X304731Y220596D02*
Y230596D01*
X299731Y225596D02*
X309731D01*
X516021Y220596D02*
Y230596D01*
X511021Y225596D02*
X521021D01*
X727311Y220596D02*
Y230596D01*
X722311Y225596D02*
X732311D01*
X938600Y220596D02*
Y230596D01*
X933600Y225596D02*
X943600D01*
X1149890Y220596D02*
Y230596D01*
X1144890Y225596D02*
X1154890D01*
X1361180Y220596D02*
Y230596D01*
X1356180Y225596D02*
X1366180D01*
X1572470Y220596D02*
Y230596D01*
X1567470Y225596D02*
X1577470D01*
X1783759Y220596D02*
Y230596D01*
X1778759Y225596D02*
X1788759D01*
X1995049Y220596D02*
Y230596D01*
X1990049Y225596D02*
X2000049D01*
X93396Y220793D02*
Y230793D01*
X88396Y225793D02*
X98396D01*
M02*
